<?xml version="1.0" standalone="no"?>
<!DOCTYPE svg PUBLIC "-//W3C//DTD SVG 1.1//EN" "http://www.w3.org/Graphics/SVG/1.1/DTD/svg11.dtd" >
<svg xmlns="http://www.w3.org/2000/svg" xmlns:xlink="http://www.w3.org/1999/xlink" version="1.1">
<metadata>
Created by FontForge 20190801 at Fri Oct 30 14:20:13 2020
 By www-data
Copyright (c) 2020 by Denis Serebryakov. All rights reserved.
</metadata>
<defs>
<font id="FontsFreeNetNekstRegular" horiz-adv-x="650" >
  <font-face 
    font-family="FontsFreeNetNekstRegular"
    font-weight="400"
    font-stretch="normal"
    units-per-em="1000"
    panose-1="1 0 0 0 0 0 0 0 0 0"
    ascent="800"
    descent="-200"
    x-height="493"
    cap-height="670"
    bbox="-392 -210 1154 917"
    underline-thickness="50"
    underline-position="-175"
    unicode-range="U+0020-277E"
  />
<missing-glyph horiz-adv-x="500" 
d="M93 800h317v-1000h-317v1000zM333 700v33h-165v-33h65v-37h-66v-33h166v33h-66v37h66zM267 534v70h-100v-104h166v34h-66zM200 570h33v-36h-33v36zM333 440v33h-166v-33h66v-37h-66v-33h100v70h66zM333 313v100h-33v-66h-133v-34h166zM333 178v113h-100v-56h34v23h33v-47
h-100v80h-33v-113h166zM333 5v113h-166v-113h166zM200 85h100v-47h-100v47zM333 -51v33h-166v-33h70l-70 -47v-33h166v33h-102l70 47h32z" />
    <glyph glyph-name="f_f" unicode="ff" horiz-adv-x="838" 
d="M811 648h-180q-55 0 -55 -55v-100h235v-72h-235v-421h-75v421h-309v-421h-75v421h-90v72h90v110q0 53 32 85t85 32h189v-72h-176q-55 0 -55 -55v-100h309v110q0 53 32 85t85 32h193v-72z" />
    <glyph glyph-name=".notdef" horiz-adv-x="500" 
d="M93 800h317v-1000h-317v1000zM333 700v33h-165v-33h65v-37h-66v-33h166v33h-66v37h66zM267 534v70h-100v-104h166v34h-66zM200 570h33v-36h-33v36zM333 440v33h-166v-33h66v-37h-66v-33h100v70h66zM333 313v100h-33v-66h-133v-34h166zM333 178v113h-100v-56h34v23h33v-47
h-100v80h-33v-113h166zM333 5v113h-166v-113h166zM200 85h100v-47h-100v47zM333 -51v33h-166v-33h70l-70 -47v-33h166v33h-102l70 47h32z" />
    <glyph glyph-name=".null" horiz-adv-x="0" 
 />
    <glyph glyph-name="nonmarkingreturn" horiz-adv-x="333" 
 />
    <glyph glyph-name="space" unicode=" " horiz-adv-x="257" 
 />
    <glyph glyph-name="exclam" unicode="!" horiz-adv-x="316" 
d="M112 210l-4 460h81l-5 -460h-72zM101 100h95v-100h-95v100z" />
    <glyph glyph-name="quotedbl" unicode="&#x22;" horiz-adv-x="429" 
d="M96 720h78l-26 -251h-52v251zM268 720h79l-27 -251h-52v251z" />
    <glyph glyph-name="numbersign" unicode="#" horiz-adv-x="778" 
d="M724 493l-20 -65h-135l-56 -186h136l-19 -65h-136l-53 -177h-70l53 177h-167l-53 -177h-71l53 177h-132l20 65h131l56 186h-132l19 65h132l53 177h71l-53 -177h167l53 177h70l-53 -177h136zM276 242h167l56 186h-167z" />
    <glyph glyph-name="dollar" unicode="$" horiz-adv-x="665" 
d="M234 412l216 -57q69 -19 104.5 -66t33.5 -102q-3 -63 -53 -110t-131 -47h-31v-96h-76v96h-196v75h303q46 0 74 25t30 60q1 30 -19.5 56t-59.5 37l-217 57q-65 18 -99 61t-32 95q2 62 50.5 108t128.5 46h37v97h76v-97h174v-73h-287q-43 0 -70.5 -22.5t-29.5 -57.5
q-1 -29 18 -52.5t56 -32.5z" />
    <glyph glyph-name="percent" unicode="%" horiz-adv-x="849" 
d="M232 362q-69 0 -115.5 46.5t-46.5 115.5q0 67 47 114t115 47t114.5 -47t46.5 -114q0 -69 -46.5 -115.5t-114.5 -46.5zM155 0l470 670h72l-470 -670h-72zM232 425q41 0 69.5 29t28.5 70q0 39 -29 68t-69 29t-68.5 -29t-28.5 -68q0 -41 28.5 -70t68.5 -29zM618 -15
q-69 0 -115.5 47t-46.5 115q0 67 46.5 114t115.5 47q68 0 114.5 -47t46.5 -114q0 -68 -46.5 -115t-114.5 -47zM618 49q41 0 70 28.5t29 69.5q0 40 -29.5 69t-69.5 29t-68.5 -29t-28.5 -69q0 -41 28 -69.5t69 -28.5z" />
    <glyph glyph-name="ampersand" unicode="&#x26;" horiz-adv-x="810" 
d="M570 186l179 -186h-100l-138 142l-161 -117q-67 -47 -138 -36.5t-112 67.5q-39 54 -27 123.5t72 113.5l129 93l-88 90q-36 42 -36.5 85.5t34.5 76t88 32.5h270v-72h-274q-30 0 -40.5 -24.5t10.5 -44.5l281 -291l187 136v-89zM308 83l152 111l-137 141l-131 -95
q-35 -27 -42.5 -67t14.5 -71q23 -34 63 -40.5t81 21.5z" />
    <glyph glyph-name="quotesingle" unicode="'" horiz-adv-x="257" 
d="M96 720h78l-26 -251h-52v251z" />
    <glyph glyph-name="parenleft" unicode="(" horiz-adv-x="276" 
d="M261 -200h-71q-137 217 -137 460t137 460h71q-136 -224 -136 -460q0 -235 136 -460z" />
    <glyph glyph-name="parenright" unicode=")" horiz-adv-x="276" 
d="M86 -200h-71q137 224 137 460q0 239 -137 460h71q137 -214 137 -460t-137 -460z" />
    <glyph glyph-name="asterisk" unicode="*" horiz-adv-x="477" 
d="M372 609l27 -48l-118 -61l118 -61l-27 -48l-111 71l5 -132h-55l5 133l-111 -72l-27 48l117 61l-117 61l27 48l111 -72l-5 133h55l-5 -132z" />
    <glyph glyph-name="plus" unicode="+" horiz-adv-x="609" 
d="M340 356h198v-71h-198v-198h-71v198h-197v71h197v197h71v-197z" />
    <glyph glyph-name="comma" unicode="," horiz-adv-x="309" 
d="M149 120h89l-90 -251h-73z" />
    <glyph glyph-name="hyphen" unicode="-" horiz-adv-x="499" 
d="M79 241v69h340v-69h-340z" />
    <glyph glyph-name="period" unicode="." horiz-adv-x="288" 
d="M97 100h95v-100h-95v100z" />
    <glyph glyph-name="slash" unicode="/" horiz-adv-x="492" 
d="M18 -200l388 1000h68l-388 -1000h-68z" />
    <glyph glyph-name="zero" unicode="0" horiz-adv-x="655" 
d="M71 245v180q0 110 73 184t183 74t184 -74.5t74 -184.5v-179q0 -110 -74 -184t-183 -74q-110 0 -183.5 74t-73.5 184zM148 425v-180q0 -78 51 -130.5t129 -52.5t129 52t51 131v179q0 80 -51 132.5t-130 52.5q-78 0 -128.5 -52.5t-50.5 -131.5z" />
    <glyph glyph-name="one" unicode="1" horiz-adv-x="381" 
d="M286 670v-670h-77v595h-170v75h247z" />
    <glyph glyph-name="two" unicode="2" horiz-adv-x="554" 
d="M429 365l-270 -290h341v-75h-453v58l329 356q38 38 38 89q0 41 -29.5 66.5t-77.5 25.5h-250v75h252q80 0 131 -46t51 -118q0 -76 -62 -141z" />
    <glyph glyph-name="three" unicode="3" horiz-adv-x="571" 
d="M285 384h38q83 0 139.5 -54.5t56.5 -135.5t-56.5 -137.5t-139.5 -56.5h-273v75h270q50 0 85 34.5t35 84.5t-34.5 85t-85.5 35h-143v55l203 226h-330v75h437v-57z" />
    <glyph glyph-name="four" unicode="4" horiz-adv-x="627" 
d="M487 245h100v-71h-100v-174h-76v174h-370v54l343 442h103v-425zM411 589l-267 -344h267v344z" />
    <glyph glyph-name="five" unicode="5" horiz-adv-x="580" 
d="M147 391h182q92 0 146 -57t54 -138q0 -80 -54.5 -138t-145.5 -58h-258v75h256q55 0 88.5 35t34.5 86q0 50 -33.5 86t-89.5 36h-261l40 352h373v-75h-309z" />
    <glyph glyph-name="six" unicode="6" horiz-adv-x="621" 
d="M57 207q0 26 6 50l67 306q21 107 144 107h220v-75h-219q-62 0 -73 -54l-39 -168h3q69 53 161 53q110 1 177.5 -58.5t67.5 -158.5t-72 -160t-184 -61q-117 0 -188 60t-71 159zM133 207q0 -68 48 -106.5t135 -38.5q81 0 130 40t49 107t-49.5 106t-129.5 39
q-83 0 -133 -39.5t-50 -107.5z" />
    <glyph glyph-name="seven" unicode="7" horiz-adv-x="533" 
d="M39 595v75h452v-58l-282 -612h-85l278 595h-363z" />
    <glyph glyph-name="eight" unicode="8" horiz-adv-x="645" 
d="M60 186q0 58 34 101.5t95 63.5v2q-53 20 -82.5 59t-29.5 91q0 84 69 132t176 48t176.5 -48t69.5 -132q0 -51 -29.5 -90.5t-83.5 -59.5v-2q61 -20 95.5 -63.5t34.5 -101.5q0 -91 -75 -144.5t-188 -53.5q-112 0 -187 53.5t-75 144.5zM154 498q0 -52 47 -80.5t121 -29.5
q74 0 121.5 29t47.5 81q0 53 -47 82t-122 29t-121.5 -29t-46.5 -82zM137 189q0 -59 52 -93t133 -34q82 0 134 34t52 93t-52 92t-134 33t-133.5 -33t-51.5 -92z" />
    <glyph glyph-name="nine" unicode="9" horiz-adv-x="622" 
d="M564 463q0 -19 -6 -49l-67 -307q-23 -107 -144 -107h-220v75h218q62 0 74 55l38 167h-2q-69 -53 -161 -53q-111 -1 -178 58.5t-67 158.5q0 100 72 161t184 61q117 0 188 -60.5t71 -159.5zM487 463q0 68 -48 106.5t-134 38.5q-81 0 -130.5 -39.5t-49.5 -107.5
q0 -67 49.5 -106t130.5 -39q83 0 132.5 39.5t49.5 107.5z" />
    <glyph glyph-name="colon" unicode=":" horiz-adv-x="303" 
d="M93 493h95v-100h-95v100zM93 100h95v-100h-95v100z" />
    <glyph glyph-name="semicolon" unicode=";" horiz-adv-x="298" 
d="M89 493h95v-100h-95v100zM107 120h89l-90 -251h-72z" />
    <glyph glyph-name="less" unicode="&#x3c;" horiz-adv-x="602" 
d="M518 94l-446 184v71l446 197v-75l-347 -154v-2l347 -146v-75z" />
    <glyph glyph-name="equal" unicode="=" horiz-adv-x="704" 
d="M119 388v71h466v-71h-466zM119 181v71h466v-71h-466z" />
    <glyph glyph-name="greater" unicode="&#x3e;" horiz-adv-x="602" 
d="M530 349v-71l-446 -184v75l348 146v2l-348 154v75z" />
    <glyph glyph-name="question" unicode="?" horiz-adv-x="528" 
d="M37 670h235q88 0 137 -52t49 -124t-49 -124t-138 -52h-56v-108h-75v177h132q52 0 81 31.5t29 74.5t-29 74t-81 31h-235v72zM225 0h-95v100h95v-100z" />
    <glyph glyph-name="at" unicode="@" horiz-adv-x="1031" 
d="M308 670h427q88 0 146 -57t58 -144v-302q0 -66 -40 -102.5t-95 -36.5q-45 0 -81.5 25t-49.5 72q-56 -97 -171 -97q-94 0 -156 63t-62 161q0 97 62.5 159.5t155.5 62.5q108 0 166 -85v74h69v-300q0 -35 19.5 -53.5t47.5 -18.5q27 0 46.5 18.5t19.5 53.5v301q0 59 -40 99
t-100 40h-416q-61 0 -101 -40t-40 -99v-421q0 -59 40 -99t101 -40h423v-68h-429q-88 0 -146 56.5t-58 142.5v434q0 87 58 144t146 57zM510 94q70 0 114 46t44 112q0 65 -44 110.5t-113 45.5t-114 -44.5t-45 -111.5t44.5 -112.5t113.5 -45.5z" />
    <glyph glyph-name="A" unicode="A" horiz-adv-x="749" 
d="M709 0h-86l-84 195h-330l-83 -195h-86l293 670h82zM373 579l-132 -310h266z" />
    <glyph glyph-name="B" unicode="B" horiz-adv-x="708" 
d="M541 352v-3q49 -20 76.5 -62.5t27.5 -97.5q0 -80 -55 -134.5t-138 -54.5h-353v670h340q78 0 131.5 -49.5t53.5 -127.5q0 -98 -83 -141zM436 595h-260v-215h260q47 0 79 30.5t32 76.5q0 47 -32 77.5t-79 30.5zM176 76h276q50 0 82.5 32t32.5 81q0 51 -33.5 84t-84.5 33
h-273v-230z" />
    <glyph glyph-name="C" unicode="C" horiz-adv-x="785" 
d="M647 244h81q-27 -114 -116 -185t-212 -71q-150 0 -245.5 100.5t-95.5 246.5q0 145 95.5 246.5t245.5 101.5q122 0 210.5 -70t116.5 -182h-81q-25 78 -91 127.5t-154 49.5q-115 0 -190 -80t-75 -193q0 -114 75 -193.5t190 -79.5q91 0 157.5 51t88.5 131z" />
    <glyph glyph-name="D" unicode="D" horiz-adv-x="754" 
d="M99 1v669h262q143 0 237.5 -94.5t94.5 -238.5v-3q0 -144 -94.5 -238.5t-237.5 -94.5h-262zM360 595h-184v-519h184q111 0 183.5 72.5t72.5 185.5v3q0 113 -72.5 185.5t-183.5 72.5z" />
    <glyph glyph-name="E" unicode="E" horiz-adv-x="648" 
d="M588 0h-489v670h489v-75h-412v-212h382v-75h-382v-233h412v-75z" />
    <glyph glyph-name="F" unicode="F" horiz-adv-x="631" 
d="M582 670v-75h-406v-217h376v-74h-376v-304h-77v670h483z" />
    <glyph glyph-name="G" unicode="G" horiz-adv-x="804" 
d="M406 268v74h343q-1 -156 -97.5 -255t-245.5 -99t-247 101t-98 246q0 146 97.5 247t247.5 101q118 0 207 -65.5t121 -169.5h-83q-29 70 -95 115t-151 45q-116 0 -191.5 -79t-75.5 -193t76.5 -193.5t192.5 -80.5q99 -1 169 56t89 150h-259z" />
    <glyph glyph-name="H" unicode="H" horiz-adv-x="765" 
d="M589 385v285h76v-670h-76v310h-413v-310h-77v670h77v-285h413z" />
    <glyph glyph-name="I" unicode="I" horiz-adv-x="275" 
d="M99 0v670h77v-670h-77z" />
    <glyph glyph-name="J" unicode="J" horiz-adv-x="488" 
d="M316 670h77v-540q0 -60 -34.5 -95t-95.5 -35h-220v75h213q29 0 44.5 16t15.5 45v534z" />
    <glyph glyph-name="K" unicode="K" horiz-adv-x="731" 
d="M497 383h27q118 0 118 -116v-267h-76v255q0 54 -56 54h-334v-309h-77v670h77v-287h239l150 287h85z" />
    <glyph glyph-name="L" unicode="L" horiz-adv-x="606" 
d="M99 0v670h78v-595h386v-75h-464z" />
    <glyph glyph-name="M" unicode="M" horiz-adv-x="912" 
d="M813 670v-670h-77v552l-247 -552h-67l-246 551v-551h-77v670h105l253 -565l253 565h103z" />
    <glyph glyph-name="N" unicode="N" horiz-adv-x="788" 
d="M612 130v540h76v-670h-76l-436 571v-571h-77v670h95z" />
    <glyph glyph-name="O" unicode="O" horiz-adv-x="818" 
d="M409 -12q-152 0 -250 100.5t-98 246.5t98 247t250 101t250 -101t98 -247t-97.5 -246.5t-250.5 -100.5zM409 62q119 0 195 79.5t76 193.5t-76.5 193.5t-194.5 79.5t-194.5 -79.5t-76.5 -193.5t76.5 -193.5t194.5 -79.5z" />
    <glyph glyph-name="P" unicode="P" horiz-adv-x="683" 
d="M404 670q99 0 162 -61.5t63 -150.5t-63.5 -149.5t-162.5 -60.5h-227v-248h-77v670h305zM176 321h226q67 0 108 39t41 98q0 58 -41 97.5t-108 39.5h-226v-274z" />
    <glyph glyph-name="Q" unicode="Q" horiz-adv-x="833" 
d="M600 71v-2h171v-74h-364q-151 0 -249 100.5t-98 242.5q0 143 97.5 244t250.5 101q152 0 249.5 -100t97.5 -240q0 -88 -41.5 -161.5t-113.5 -110.5zM138 338q0 -111 76 -190t193 -79q118 0 194 79t76 190q0 112 -76 191t-194 79t-193.5 -79t-75.5 -191z" />
    <glyph glyph-name="R" unicode="R" horiz-adv-x="738" 
d="M176 0h-77v670h331q97 0 156 -52t59 -135q0 -97 -76 -146v-2q84 -13 84 -111v-224h-76v210q0 54 -58 54h-343v-264zM176 595v-257h250q64 0 102.5 36t38.5 92t-39 92.5t-101 36.5h-251z" />
    <glyph glyph-name="S" unicode="S" horiz-adv-x="661" 
d="M238 670h325v-75h-321q-46 0 -73.5 -27.5t-27.5 -65.5q0 -31 19.5 -56.5t55.5 -34.5l250 -62q68 -17 104 -65.5t36 -105.5q0 -72 -50 -125t-137 -53h-339v75h336q49 0 78 30.5t29 70.5q0 32 -21 60t-59 38l-251 62q-65 16 -99.5 62t-34.5 102q0 68 48.5 119t131.5 51z
" />
    <glyph glyph-name="T" unicode="T" horiz-adv-x="661" 
d="M43 670h575v-75h-250v-595h-76v595h-249v75z" />
    <glyph glyph-name="U" unicode="U" horiz-adv-x="739" 
d="M85 279v391h77v-387q0 -98 58 -159.5t150 -61.5t149.5 61t57.5 160v387h77v-391q0 -133 -79.5 -212.5t-205.5 -79.5t-205 80.5t-79 211.5z" />
    <glyph glyph-name="V" unicode="V" horiz-adv-x="748" 
d="M376 91l249 579h83l-291 -670h-85l-292 670h86z" />
    <glyph glyph-name="W" unicode="W" horiz-adv-x="1010" 
d="M711 122l172 548h83l-212 -670h-83l-166 544l-166 -544h-83l-212 670h84l171 -549l165 549h82z" />
    <glyph glyph-name="X" unicode="X" horiz-adv-x="696" 
d="M394 339l257 -339h-100l-203 277l-204 -277h-99l257 339l-252 331h101l197 -269l201 269h94z" />
    <glyph glyph-name="Y" unicode="Y" horiz-adv-x="714" 
d="M585 670h92l-282 -379v-291h-77v288l-281 382h94l227 -310z" />
    <glyph glyph-name="Z" unicode="Z" horiz-adv-x="621" 
d="M554 612l-396 -537h413v-75h-519v58l396 537h-387v75h493v-58z" />
    <glyph glyph-name="bracketleft" unicode="[" horiz-adv-x="286" 
d="M276 720v-72h-132v-776h132v-72h-206v920h206z" />
    <glyph glyph-name="backslash" unicode="\" horiz-adv-x="492" 
d="M0 800h68l388 -1000h-68z" />
    <glyph glyph-name="bracketright" unicode="]" horiz-adv-x="286" 
d="M10 720h206v-920h-206v72h132v776h-132v72z" />
    <glyph glyph-name="asciicircum" unicode="^" horiz-adv-x="513" 
d="M295 670l150 -252h-79l-109 192l-110 -192h-79l150 252h77z" />
    <glyph glyph-name="underscore" unicode="_" horiz-adv-x="759" 
d="M79 -200v53h600v-53h-600z" />
    <glyph glyph-name="grave" unicode="`" horiz-adv-x="255" 
d="M56 720h84l95 -142h-82z" />
    <glyph glyph-name="a" unicode="a" horiz-adv-x="648" 
d="M494 405v88h74v-493h-74v92h-3q-65 -104 -193 -105q-109 -1 -180.5 73t-71.5 187t71 186.5t182 72.5q63 -1 113 -28t79 -73h3zM309 59q81 0 133 55t52 133q0 79 -51.5 133t-133.5 54q-84 0 -136 -54t-52 -133t52 -133.5t136 -54.5z" />
    <glyph glyph-name="b" unicode="b" horiz-adv-x="648" 
d="M349 506q109 1 180.5 -73t71.5 -187q0 -112 -71 -186t-181 -73q-63 1 -113 28t-80 73h-2v-88h-75v720h75v-319h2q30 48 80 76.5t113 28.5zM339 59q83 0 135 54t52 133t-52 133.5t-135 54.5q-82 0 -133.5 -54.5t-51.5 -133.5t51.5 -133t133.5 -54z" />
    <glyph glyph-name="c" unicode="c" horiz-adv-x="596" 
d="M554 317h-78q-17 51 -62.5 84t-107.5 33q-81 0 -133 -54t-52 -133t52 -133.5t133 -54.5q61 0 107 33.5t63 86.5h78q-18 -84 -86.5 -138t-161.5 -54q-114 0 -187 75t-73 185t73 184.5t187 74.5q93 0 161.5 -53t86.5 -136z" />
    <glyph glyph-name="d" unicode="d" horiz-adv-x="648" 
d="M494 401v319h74v-720h-74v88h-3q-29 -46 -79 -73t-113 -28q-110 -1 -181.5 73t-71.5 186q0 113 72 187t180 73q63 0 113 -28.5t80 -76.5h3zM309 59q82 0 133.5 54t51.5 133t-51.5 133.5t-133.5 54.5q-84 0 -136 -54.5t-52 -133.5t52 -133t136 -54z" />
    <glyph glyph-name="e" unicode="e" horiz-adv-x="599" 
d="M301 506q116 0 187 -81t64 -205h-427q5 -69 55 -115t125 -46q55 0 98 25.5t62 68.5h78q-25 -76 -90 -121t-151 -45q-114 0 -185 75t-71 184t72 184.5t183 75.5zM299 434q-69 0 -116.5 -41.5t-55.5 -105.5h345q-10 65 -57 106t-116 41z" />
    <glyph glyph-name="f" unicode="f" horiz-adv-x="453" 
d="M427 648h-180q-55 0 -55 -55v-100h235v-72h-235v-421h-75v421h-90v72h90v110q0 53 32 85t85 32h193v-72z" />
    <glyph glyph-name="g" unicode="g" horiz-adv-x="648" 
d="M494 405v88h74v-541q0 -73 -39 -112.5t-112 -39.5h-308v73h301q83 0 83 84l1 90v45h-3q-65 -104 -193 -105q-109 -1 -180.5 73t-71.5 187t71 186.5t182 72.5q63 -1 113 -28t79 -73h3zM309 59q81 0 133 55t52 133q0 79 -51.5 133t-133.5 54q-84 0 -136 -54t-52 -133
t52 -133.5t136 -54.5z" />
    <glyph glyph-name="h" unicode="h" horiz-adv-x="613" 
d="M338 506q93 0 150 -59.5t57 -159.5v-287h-75v274q0 71 -39.5 115t-106.5 44q-74 0 -122 -53t-48 -134v-246h-75v720h75v-313h2q64 99 182 99z" />
    <glyph glyph-name="i" unicode="i" horiz-adv-x="234" 
d="M79 720h75v-142h-75v142zM79 493h75v-493h-75v493z" />
    <glyph glyph-name="j" unicode="j" horiz-adv-x="252" 
d="M98 720h75v-142h-75v142zM98 493h75v-578q0 -56 -30.5 -85.5t-87.5 -29.5h-112v74h100q26 0 40.5 14t14.5 40v565z" />
    <glyph glyph-name="k" unicode="k" horiz-adv-x="586" 
d="M398 301h6q56 0 86.5 -29.5t30.5 -85.5v-186h-75v176q0 54 -55 54h-237v-230h-75v720h75v-419h159l129 192h83z" />
    <glyph glyph-name="l" unicode="l" horiz-adv-x="315" 
d="M75 119v601h75v-593q0 -26 14.5 -40t40.5 -14h83v-73h-92q-59 0 -90 31t-31 88z" />
    <glyph glyph-name="m" unicode="m" horiz-adv-x="901" 
d="M647 505q86 0 135.5 -56t49.5 -147v-302h-75v295q0 63 -33.5 100.5t-91.5 37.5q-60 0 -99.5 -46t-39.5 -117v-270h-75v295q0 64 -33.5 101.5t-90.5 36.5q-65 -1 -102.5 -54.5t-37.5 -122.5v-256h-75v493h73v-84h2q24 43 64 69.5t92 26.5q57 0 99.5 -28.5t63.5 -77.5h2
q24 48 68 77t104 29z" />
    <glyph glyph-name="n" unicode="n" horiz-adv-x="613" 
d="M338 506q93 0 150 -59.5t57 -159.5v-287h-75v274q0 71 -39.5 115t-106.5 44q-74 0 -122 -53t-48 -134v-246h-75v493h74v-86h2q29 46 77 72.5t106 26.5z" />
    <glyph glyph-name="o" unicode="o" horiz-adv-x="616" 
d="M310 -13q-116 0 -190.5 75.5t-74.5 184.5q0 110 74 184.5t191 74.5q115 0 188 -74.5t73 -184.5q0 -109 -73.5 -184.5t-187.5 -75.5zM310 59q82 0 134 55t52 133q0 79 -52 133t-134 54q-84 0 -136.5 -54t-52.5 -133t52.5 -133.5t136.5 -54.5z" />
    <glyph glyph-name="p" unicode="p" horiz-adv-x="648" 
d="M349 506q110 1 181 -72.5t71 -186.5t-71.5 -187t-180.5 -73q-63 1 -113 29.5t-80 75.5h-2v-292h-75v693h75v-88h2q30 46 80 73t113 28zM339 59q83 0 135 54.5t52 133.5t-52 133t-135 54q-82 0 -133.5 -54t-51.5 -133q0 -78 52 -133t133 -55z" />
    <glyph glyph-name="q" unicode="q" horiz-adv-x="648" 
d="M494 405v88h74v-693h-74v292h-3q-30 -47 -80 -75.5t-113 -29.5q-109 -1 -180.5 73t-71.5 187t71 186.5t182 72.5q63 -1 113 -28t79 -73h3zM309 59q81 0 133 55t52 133q0 79 -51.5 133t-133.5 54q-84 0 -136 -54t-52 -133t52 -133.5t136 -54.5z" />
    <glyph glyph-name="r" unicode="r" horiz-adv-x="440" 
d="M326 493h87v-75h-90q-78 0 -123.5 -48t-45.5 -135v-235h-75v493h73v-98h3q42 98 171 98z" />
    <glyph glyph-name="s" unicode="s" horiz-adv-x="528" 
d="M183 493h270v-72h-269q-28 0 -44.5 -15.5t-16.5 -40.5q0 -20 12.5 -36t33.5 -20l208 -46q51 -12 80.5 -47t29.5 -83q0 -58 -39.5 -95.5t-101.5 -37.5h-284v73h283q28 0 46 16.5t18 43.5q0 47 -49 58l-208 46q-49 10 -78.5 45.5t-29.5 81.5q0 56 39 92.5t100 36.5z" />
    <glyph glyph-name="t" unicode="t" horiz-adv-x="467" 
d="M427 493v-72h-235v-293q0 -55 55 -55h180v-73h-193q-57 0 -87 30t-30 86v305h-90v72h90v177h75v-177h235z" />
    <glyph glyph-name="u" unicode="u" horiz-adv-x="591" 
d="M66 218v275h75v-273q0 -71 43 -116.5t111 -45.5q69 0 111.5 45t42.5 117v273h75v-275q0 -105 -63.5 -168.5t-165.5 -63.5t-165.5 63.5t-63.5 168.5z" />
    <glyph glyph-name="v" unicode="v" horiz-adv-x="570" 
d="M288 96l180 397h79l-226 -493h-73l-225 493h82l180 -397h3z" />
    <glyph glyph-name="w" unicode="w" horiz-adv-x="789" 
d="M554 105l128 388h80l-169 -493h-75l-124 387l-122 -387h-76l-170 493h81l128 -386l122 386h75z" />
    <glyph glyph-name="x" unicode="x" horiz-adv-x="540" 
d="M315 252l201 -252h-99l-150 191l-147 -191h-96l198 248l-195 245h98l146 -187l146 187h92z" />
    <glyph glyph-name="y" unicode="y" horiz-adv-x="562" 
d="M291 50l170 443h76l-225 -584q-21 -56 -56.5 -82.5t-92.5 -26.5h-113v75h113q32 0 50.5 13t30.5 43l8 21l-229 541h83z" />
    <glyph glyph-name="z" unicode="z" horiz-adv-x="502" 
d="M455 438l-312 -366h322v-72h-428v56l312 365h-302v72h408v-55z" />
    <glyph glyph-name="braceleft" unicode="{" horiz-adv-x="312" 
d="M190 594v-232q0 -78 -53 -100v-4q53 -22 53 -99v-233q0 -54 55 -54h33v-72h-44q-57 0 -87.5 29.5t-30.5 85.5v255q0 54 -55 54h-18v73h18q55 0 55 54v254q0 56 30.5 85.5t87.5 29.5h44v-72h-33q-55 0 -55 -54z" />
    <glyph glyph-name="bar" unicode="|" horiz-adv-x="305" 
d="M119 -130v930h67v-930h-67z" />
    <glyph glyph-name="braceright" unicode="}" horiz-adv-x="312" 
d="M250 297h18v-73h-18q-26 0 -40.5 -14t-14.5 -40v-255q0 -56 -30.5 -85.5t-86.5 -29.5h-45v72h34q26 0 40.5 14t14.5 40v233q0 75 52 99v4q-52 22 -52 100v232q0 26 -14.5 40t-40.5 14h-34v72h45q56 0 86.5 -29.5t30.5 -85.5v-254q0 -26 14.5 -40t40.5 -14z" />
    <glyph glyph-name="asciitilde" unicode="~" horiz-adv-x="701" 
d="M185 202h-69v164q0 46 34.5 64.5t79.5 -5.5l266 -147q8 -4 14 -1t6 12v146h70v-164q0 -46 -35 -64t-80 6l-266 146q-7 5 -13.5 2t-6.5 -13v-146z" />
    <glyph glyph-name="exclamdown" unicode="&#xa1;" horiz-adv-x="292" 
d="M179 493v-100h-95v100h95zM173 -200h-81l4 483h72z" />
    <glyph glyph-name="cent" unicode="&#xa2;" horiz-adv-x="669" 
d="M342 59q61 0 107 33.5t62 86.5h79q-17 -75 -74.5 -127.5t-138.5 -62.5v-116h-75v117q-98 13 -159 85t-61 172t61 171.5t159 84.5v117h75v-116q81 -10 138.5 -61.5t74.5 -125.5h-79q-16 51 -62 84t-107 33q-82 0 -133.5 -54t-51.5 -133q0 -80 51.5 -134t133.5 -54z" />
    <glyph glyph-name="sterling" unicode="&#xa3;" horiz-adv-x="652" 
d="M243 300v-225h334v-75h-493v75h81v225h-81v73h81v105q0 82 54.5 137t137.5 55h188v-74h-186q-50 0 -83 -34.5t-33 -88.5v-100h230v-73h-230z" />
    <glyph glyph-name="currency" unicode="&#xa4;" horiz-adv-x="647" 
d="M519 330q0 -63 -36 -113l79 -78l-49 -49l-78 79q-51 -35 -111 -35q-62 0 -111 35l-79 -79l-48 49l78 78q-36 50 -36 113q0 60 35 111l-77 77l48 48l77 -77q50 36 113 36q62 0 112 -36l77 77l49 -48l-78 -78q35 -49 35 -110zM324 201q53 0 90.5 37.5t37.5 91.5
q0 53 -37.5 90.5t-90.5 37.5q-54 0 -91.5 -37.5t-37.5 -90.5q0 -54 37.5 -91.5t91.5 -37.5z" />
    <glyph glyph-name="yen" unicode="&#xa5;" horiz-adv-x="721" 
d="M559 670h92l-237 -295h190v-68h-205v-89h205v-68h-205v-150h-77v150h-208v68h208v89h-208v68h190l-234 295h94l198 -250z" />
    <glyph glyph-name="brokenbar" unicode="&#xa6;" horiz-adv-x="305" 
d="M119 395v405h67v-405h-67zM119 -130v411h67v-411h-67z" />
    <glyph glyph-name="section" unicode="&#xa7;" horiz-adv-x="594" 
d="M348 74l82 -39q47 -22 66.5 -62.5t10 -78.5t-47 -66t-93.5 -28h-253v72h260q33 0 49.5 20.5t10 45.5t-32.5 37l-185 87q-61 28 -98 80t-37 115q0 71 48 124.5t119 64.5l-82 38q-63 29 -77 86.5t26 103.5t114 46h254v-72h-260q-34 0 -50 -20.5t-9.5 -45.5t32.5 -37
l184 -87q61 -29 98 -80.5t37 -114.5q0 -71 -48 -124.5t-118 -64.5zM154 260q0 -59 42 -100t101 -41q60 0 102 41t42 100t-42 100t-102 41q-59 0 -101 -41t-42 -100z" />
    <glyph glyph-name="dieresis" unicode="&#xa8;" horiz-adv-x="408" 
d="M114 720h73v-142h-73v142zM290 720h73v-142h-73v142z" />
    <glyph glyph-name="copyright" unicode="&#xa9;" horiz-adv-x="855" 
d="M428 -13q-145 0 -247 101.5t-102 246.5q0 144 102 246t247 102q144 0 246 -102t102 -246q0 -145 -102 -246.5t-246 -101.5zM427 39q123 0 209.5 86t86.5 210q0 123 -86.5 209.5t-209.5 86.5t-209 -86.5t-86 -209.5q0 -124 86 -210t209 -86zM607 386h-58q-12 37 -43.5 60
t-75.5 23q-58 0 -95 -38.5t-37 -94.5q0 -57 37 -95.5t95 -38.5q43 0 75.5 23.5t43.5 62.5h58q-13 -61 -62 -100.5t-115 -39.5q-82 0 -134.5 54.5t-52.5 133.5t52.5 133t134.5 54q67 0 115.5 -38.5t61.5 -98.5z" />
    <glyph glyph-name="guillemotleft" unicode="&#xab;" horiz-adv-x="497" 
d="M201 424h82l-155 -186l155 -186h-82l-153 186zM386 424h82l-156 -186l156 -186h-82l-154 186z" />
    <glyph glyph-name="registered" unicode="&#xae;" horiz-adv-x="588" 
d="M295 684q86 0 146.5 -60.5t60.5 -147.5q0 -86 -60.5 -146.5t-146.5 -60.5q-87 0 -148 60.5t-61 146.5q0 87 61 147.5t148 60.5zM295 299q73 0 124.5 52t51.5 125q0 74 -51.5 125.5t-124.5 51.5q-74 0 -125.5 -51.5t-51.5 -125.5t51.5 -125.5t125.5 -51.5zM395 530
q-1 -40 -39 -55h2q35 0 35 -34v-78h-33v71q0 7 -5 12t-12 5h-111v-88h-32v230h119q33 0 54.5 -17.5t21.5 -45.5zM232 482h86q18 0 30.5 11.5t12.5 27.5q0 18 -12.5 29.5t-30.5 11.5h-86v-80z" />
    <glyph glyph-name="degree" unicode="&#xb0;" horiz-adv-x="452" 
d="M226 419q-55 0 -93.5 38.5t-38.5 93.5t38.5 93.5t93.5 38.5t93 -38.5t38 -93.5t-38 -93.5t-93 -38.5zM226 480q29 0 49.5 21t20.5 50q0 30 -20.5 50.5t-49.5 20.5q-30 0 -50.5 -20.5t-20.5 -50.5q0 -29 20.5 -50t50.5 -21z" />
    <glyph glyph-name="uni00B2" unicode="&#xb2;" horiz-adv-x="345" 
d="M264 481l-148 -145h194v-60h-285v48l201 198q19 19 19 44q0 19 -16.5 31.5t-39.5 12.5h-159v60h160q51 0 83.5 -29.5t32.5 -73.5q0 -46 -42 -86z" />
    <glyph glyph-name="uni00B3" unicode="&#xb3;" horiz-adv-x="352" 
d="M188 505h12q49 0 85 -31.5t36 -79.5q0 -49 -36.5 -83.5t-87.5 -34.5h-169v60h166q27 0 47 18t20 41t-20 40.5t-47 17.5h-88v40l112 117h-190v60h275v-45z" />
    <glyph glyph-name="acute" unicode="&#xb4;" horiz-adv-x="255" 
d="M45 578l96 142h84l-98 -142h-82z" />
    <glyph glyph-name="paragraph" unicode="&#xb6;" horiz-adv-x="586" 
d="M467 670v-670h-77v248h-90q-99 0 -162.5 60t-63.5 150q0 89 63 150.5t162 61.5h168z" />
    <glyph glyph-name="periodcentered" unicode="&#xb7;" horiz-adv-x="318" 
d="M98 385h95v-100h-95v100z" />
    <glyph glyph-name="cedilla" unicode="&#xb8;" horiz-adv-x="305" 
d="M154 -46h16q37 0 58.5 -21.5t21.5 -54.5q0 -32 -22 -55t-58 -23h-118v57h114q11 0 18.5 7t7.5 18q0 22 -26 22h-69v96h57v-46z" />
    <glyph glyph-name="uni00B9" unicode="&#xb9;" horiz-adv-x="241" 
d="M177 670v-394h-60v334h-105v60h165z" />
    <glyph glyph-name="guillemotright" unicode="&#xbb;" horiz-adv-x="496" 
d="M185 238l-156 186h82l154 -186l-154 -186h-82zM371 238l-156 186h82l154 -186l-154 -186h-82z" />
    <glyph glyph-name="onequarter" unicode="&#xbc;" horiz-adv-x="810" 
d="M202 276h-60v334h-105v60h165v-394zM121 0l470 670h68l-470 -670h-68zM699 156h61v-57h-61v-99h-61v99h-217v45l193 250h85v-238zM638 338l-137 -182h137v182z" />
    <glyph glyph-name="onehalf" unicode="&#xbd;" horiz-adv-x="882" 
d="M202 276h-60v334h-105v60h165v-394zM121 0l470 670h68l-470 -670h-68zM759 205l-149 -145h194v-60h-285v48l201 198q20 18 20 44q0 19 -16.5 31.5t-39.5 12.5h-160v60h160q51 0 83.5 -29.5t32.5 -73.5q0 -47 -41 -86z" />
    <glyph glyph-name="threequarters" unicode="&#xbe;" horiz-adv-x="911" 
d="M347 394q0 -49 -36.5 -83.5t-87.5 -34.5h-169v60h166q27 0 47 18t20 41t-20 40.5t-47 17.5h-88v40l112 117h-190v60h275v-45l-115 -120h12q49 0 85 -31.5t36 -79.5zM214 0l470 670h69l-470 -670h-69zM789 156h61v-57h-61v-99h-61v99h-217v45l193 250h85v-238zM728 338
l-137 -182h137v182z" />
    <glyph glyph-name="questiondown" unicode="&#xbf;" horiz-adv-x="497" 
d="M301 493h95v-100h-95v100zM254 -128h235v-72h-235q-88 0 -137 52t-49 124t49 124t138 52h56v131h75v-200h-132q-52 0 -81 -31.5t-29 -74.5t29 -74t81 -31z" />
    <glyph glyph-name="Agrave" unicode="&#xc0;" horiz-adv-x="749" 
d="M355 832l95 -112h-82l-97 112h84zM709 0h-86l-84 195h-330l-83 -195h-86l293 670h82zM373 579l-132 -310h266z" />
    <glyph glyph-name="Aacute" unicode="&#xc1;" horiz-adv-x="749" 
d="M393 832h85l-98 -112h-82zM709 0h-86l-84 195h-330l-83 -195h-86l293 670h82zM373 579l-132 -310h266z" />
    <glyph glyph-name="Acircumflex" unicode="&#xc2;" horiz-adv-x="749" 
d="M440 720l-66 73l-66 -73h-82l105 112h87l104 -112h-82zM709 0h-86l-84 195h-330l-83 -195h-86l293 670h82zM373 579l-132 -310h266z" />
    <glyph glyph-name="Atilde" unicode="&#xc3;" horiz-adv-x="749" 
d="M299 775v-55h-64v72q0 41 34.5 57.5t70.5 -6.5l89 -57q9 -5 15.5 -1.5t6.5 12.5v55h63v-72q0 -41 -34.5 -57.5t-70.5 6.5l-89 57q-8 5 -14.5 1.5t-6.5 -12.5zM709 0h-86l-84 195h-330l-83 -195h-86l293 670h82zM373 579l-132 -310h266z" />
    <glyph glyph-name="Adieresis" unicode="&#xc4;" horiz-adv-x="749" 
d="M249 832h73v-112h-73v112zM426 832h73v-112h-73v112zM709 0h-86l-84 195h-330l-83 -195h-86l293 670h82zM373 579l-132 -310h266z" />
    <glyph glyph-name="Aring" unicode="&#xc5;" horiz-adv-x="749" 
d="M374 703q-45 0 -76.5 31t-31.5 76t31.5 76t76.5 31t76.5 -31t31.5 -76t-31.5 -76t-76.5 -31zM374 861q-22 0 -36.5 -14.5t-14.5 -36.5t14.5 -36t36.5 -14t36.5 14t14.5 36t-14.5 36.5t-36.5 14.5zM709 0h-86l-84 195h-330l-83 -195h-86l293 670h82zM373 579l-132 -310
h266z" />
    <glyph glyph-name="AE" unicode="&#xc6;" horiz-adv-x="976" 
d="M916 670v-75h-325v-212h295v-75h-295v-233h325v-75h-402v223h-269l-118 -223h-88l364 670h513zM444 596l-159 -299h229v299h-70z" />
    <glyph glyph-name="Ccedilla" unicode="&#xc7;" horiz-adv-x="785" 
d="M647 244h81q-26 -111 -112 -182t-206 -74v-34h16q37 0 58.5 -21.5t21.5 -54.5q0 -32 -22 -55t-58 -23h-118v57h114q11 0 18.5 7t7.5 18q0 22 -26 22h-69v87q-132 16 -213 113.5t-81 230.5q0 145 95.5 246.5t245.5 101.5q122 0 210.5 -70t116.5 -182h-81q-25 78 -91 127.5
t-154 49.5q-115 0 -190 -80t-75 -193q0 -114 75 -193.5t190 -79.5q91 0 157.5 51t88.5 131z" />
    <glyph glyph-name="Egrave" unicode="&#xc8;" horiz-adv-x="648" 
d="M243 832h84l95 -112h-82zM588 0h-489v670h489v-75h-412v-212h382v-75h-382v-233h412v-75z" />
    <glyph glyph-name="Eacute" unicode="&#xc9;" horiz-adv-x="648" 
d="M271 720l95 112h85l-98 -112h-82zM588 0h-489v670h489v-75h-412v-212h382v-75h-382v-233h412v-75z" />
    <glyph glyph-name="Ecircumflex" unicode="&#xca;" horiz-adv-x="648" 
d="M412 720l-66 73l-66 -73h-82l105 112h87l104 -112h-82zM588 670v-75h-412v-212h382v-75h-382v-233h412v-75h-489v670h489z" />
    <glyph glyph-name="Edieresis" unicode="&#xcb;" horiz-adv-x="648" 
d="M222 832h73v-112h-73v112zM399 832h73v-112h-73v112zM588 0h-489v670h489v-75h-412v-212h382v-75h-382v-233h412v-75z" />
    <glyph glyph-name="Igrave" unicode="&#xcc;" horiz-adv-x="275" 
d="M34 832h84l95 -112h-82zM99 0v670h77v-670h-77z" />
    <glyph glyph-name="Iacute" unicode="&#xcd;" horiz-adv-x="275" 
d="M62 720l95 112h85l-98 -112h-82zM99 0v670h77v-670h-77z" />
    <glyph glyph-name="Icircumflex" unicode="&#xce;" horiz-adv-x="275" 
d="M181 832l104 -112h-82l-66 73l-66 -73h-82l105 112h87zM176 0h-77v670h77v-670z" />
    <glyph glyph-name="Idieresis" unicode="&#xcf;" horiz-adv-x="275" 
d="M13 832h73v-112h-73v112zM190 832h73v-112h-73v112zM99 0v670h77v-670h-77z" />
    <glyph glyph-name="Eth" unicode="&#xd0;" horiz-adv-x="780" 
d="M126 670h261q144 0 238.5 -94.5t94.5 -238.5v-3q0 -144 -94.5 -238.5t-238.5 -94.5h-261v314h-82v66h82v289zM643 334v3q0 113 -72.5 185.5t-183.5 72.5h-184v-214h215v-66h-215v-239h184q111 0 183.5 72.5t72.5 185.5z" />
    <glyph glyph-name="Ntilde" unicode="&#xd1;" horiz-adv-x="788" 
d="M318 775v-55h-64v72q0 41 34.5 57.5t70.5 -6.5l89 -57q9 -5 15.5 -1.5t6.5 12.5v55h63v-72q0 -41 -34.5 -57.5t-70.5 6.5l-89 57q-8 5 -14.5 1.5t-6.5 -12.5zM612 130v540h76v-670h-76l-436 571v-571h-77v670h95z" />
    <glyph glyph-name="Ograve" unicode="&#xd2;" horiz-adv-x="818" 
d="M306 832h84l95 -112h-82zM409 -12q-152 0 -250 100.5t-98 246.5t98 247t250 101t250 -101t98 -247t-97.5 -246.5t-250.5 -100.5zM409 62q119 0 195 79.5t76 193.5t-76.5 193.5t-194.5 79.5t-194.5 -79.5t-76.5 -193.5t76.5 -193.5t194.5 -79.5z" />
    <glyph glyph-name="Oacute" unicode="&#xd3;" horiz-adv-x="818" 
d="M333 720l95 112h85l-98 -112h-82zM409 -12q-152 0 -250 100.5t-98 246.5t98 247t250 101t250 -101t98 -247t-97.5 -246.5t-250.5 -100.5zM409 62q119 0 195 79.5t76 193.5t-76.5 193.5t-194.5 79.5t-194.5 -79.5t-76.5 -193.5t76.5 -193.5t194.5 -79.5z" />
    <glyph glyph-name="Ocircumflex" unicode="&#xd4;" horiz-adv-x="818" 
d="M474 720l-66 73l-66 -73h-82l105 112h87l104 -112h-82zM409 683q152 0 250 -101t98 -247t-97.5 -246.5t-250.5 -100.5q-152 0 -250 100.5t-98 246.5t98 247t250 101zM409 62q119 0 195 79.5t76 193.5t-76.5 193.5t-194.5 79.5t-194.5 -79.5t-76.5 -193.5t76.5 -193.5
t194.5 -79.5z" />
    <glyph glyph-name="Otilde" unicode="&#xd5;" horiz-adv-x="818" 
d="M334 720h-64v72q0 41 34.5 57.5t70.5 -6.5l89 -57q9 -5 15.5 -1.5t6.5 12.5v55h63v-72q0 -41 -34.5 -57.5t-70.5 6.5l-89 57q-8 5 -14.5 1.5t-6.5 -12.5v-55zM409 -12q-152 0 -250 100.5t-98 246.5t98 247t250 101t250 -101t98 -247t-97.5 -246.5t-250.5 -100.5zM409 62
q119 0 195 79.5t76 193.5t-76.5 193.5t-194.5 79.5t-194.5 -79.5t-76.5 -193.5t76.5 -193.5t194.5 -79.5z" />
    <glyph glyph-name="Odieresis" unicode="&#xd6;" horiz-adv-x="818" 
d="M284 832h73v-112h-73v112zM461 832h73v-112h-73v112zM409 -12q-152 0 -250 100.5t-98 246.5t98 247t250 101t250 -101t98 -247t-97.5 -246.5t-250.5 -100.5zM409 62q119 0 195 79.5t76 193.5t-76.5 193.5t-194.5 79.5t-194.5 -79.5t-76.5 -193.5t76.5 -193.5t194.5 -79.5
z" />
    <glyph glyph-name="multiply" unicode="&#xd7;" horiz-adv-x="572" 
d="M449 534l51 -51l-164 -163l163 -163l-50 -50l-163 163l-163 -163l-51 50l163 163l-163 163l51 51l163 -163z" />
    <glyph glyph-name="Oslash" unicode="&#xd8;" horiz-adv-x="820" 
d="M715 670l-64 -79q107 -101 107 -256q0 -146 -97.5 -246.5t-250.5 -100.5q-114 0 -201 60l-38 -47l-76 -1l69 85q-102 99 -102 250q0 145 98 246.5t250 101.5q110 0 195 -55l34 42h76zM140 335q0 -114 73 -190l343 423q-66 40 -146 40q-118 0 -194 -79.5t-76 -193.5z
M410 62q119 0 195 79.5t76 193.5q0 117 -79 196l-345 -424q67 -45 153 -45z" />
    <glyph glyph-name="Ugrave" unicode="&#xd9;" horiz-adv-x="739" 
d="M266 832h84l95 -112h-82zM85 279v391h77v-387q0 -98 58 -159.5t150 -61.5t149.5 61t57.5 160v387h77v-391q0 -133 -79.5 -212.5t-205.5 -79.5t-205 80.5t-79 211.5z" />
    <glyph glyph-name="Uacute" unicode="&#xda;" horiz-adv-x="739" 
d="M293 720l95 112h85l-98 -112h-82zM85 279v391h77v-387q0 -98 58 -159.5t150 -61.5t149.5 61t57.5 160v387h77v-391q0 -133 -79.5 -212.5t-205.5 -79.5t-205 80.5t-79 211.5z" />
    <glyph glyph-name="Ucircumflex" unicode="&#xdb;" horiz-adv-x="739" 
d="M435 720l-66 73l-66 -73h-82l105 112h87l104 -112h-82zM577 283v387h77v-391q0 -133 -79.5 -212.5t-205.5 -79.5t-205 80.5t-79 211.5v391h77v-387q0 -98 58 -159.5t150 -61.5t149.5 61t57.5 160z" />
    <glyph glyph-name="Udieresis" unicode="&#xdc;" horiz-adv-x="739" 
d="M244 832h73v-112h-73v112zM421 832h73v-112h-73v112zM85 279v391h77v-387q0 -98 58 -159.5t150 -61.5t149.5 61t57.5 160v387h77v-391q0 -133 -79.5 -212.5t-205.5 -79.5t-205 80.5t-79 211.5z" />
    <glyph glyph-name="Yacute" unicode="&#xdd;" horiz-adv-x="714" 
d="M376 832h85l-98 -112h-82zM585 670h92l-282 -379v-291h-77v288l-281 382h94l227 -310z" />
    <glyph glyph-name="Thorn" unicode="&#xde;" horiz-adv-x="682" 
d="M176 566h228q99 0 162 -61.5t63 -150.5t-63.5 -149.5t-162.5 -60.5h-227v-144h-77v670h77v-104zM176 217h226q67 0 108 39t41 98q0 58 -41 97.5t-108 39.5h-226v-274z" />
    <glyph glyph-name="germandbls" unicode="&#xdf;" horiz-adv-x="662" 
d="M542 664l-100 -181q79 -16 126.5 -81t47.5 -154q0 -108 -68 -178t-176 -70h-75v72h72q75 0 120.5 48t46.5 123q2 79 -47 130t-127 51h-5v48l97 176h-207q-55 0 -55 -55v-593h-75v421h-90v72h90v110q0 53 32 85t85 32h308v-56z" />
    <glyph glyph-name="agrave" unicode="&#xe0;" horiz-adv-x="648" 
d="M295 720l95 -142h-82l-97 142h84zM494 405v88h74v-493h-74v92h-3q-65 -104 -193 -105q-109 -1 -180.5 73t-71.5 187t71 186.5t182 72.5q63 -1 113 -28t79 -73h3zM309 59q81 0 133 55t52 133q0 79 -51.5 133t-133.5 54q-84 0 -136 -54t-52 -133t52 -133.5t136 -54.5z" />
    <glyph glyph-name="aacute" unicode="&#xe1;" horiz-adv-x="648" 
d="M328 720h84l-97 -142h-82zM494 405v88h74v-493h-74v92h-3q-65 -104 -193 -105q-109 -1 -180.5 73t-71.5 187t71 186.5t182 72.5q63 -1 113 -28t79 -73h3zM309 59q81 0 133 55t52 133q0 79 -51.5 133t-133.5 54q-84 0 -136 -54t-52 -133t52 -133.5t136 -54.5z" />
    <glyph glyph-name="acircumflex" unicode="&#xe2;" horiz-adv-x="648" 
d="M382 578l-69 94l-69 -94h-79l107 142h83l106 -142h-79zM494 405v88h74v-493h-74v92h-3q-65 -104 -193 -105q-109 -1 -180.5 73t-71.5 187t71 186.5t182 72.5q63 -1 113 -28t79 -73h3zM309 59q81 0 133 55t52 133q0 79 -51.5 133t-133.5 54q-84 0 -136 -54t-52 -133
t52 -133.5t136 -54.5z" />
    <glyph glyph-name="atilde" unicode="&#xe3;" horiz-adv-x="648" 
d="M238 643v-65h-64v82q0 41 35 58t70 -7l89 -66q8 -6 15 -2.5t7 12.5v65h63v-82q0 -41 -35.5 -58t-69.5 7l-89 66q-7 6 -14 2.5t-7 -12.5zM494 405v88h74v-493h-74v92h-3q-65 -104 -193 -105q-109 -1 -180.5 73t-71.5 187t71 186.5t182 72.5q63 -1 113 -28t79 -73h3z
M309 59q81 0 133 55t52 133q0 79 -51.5 133t-133.5 54q-84 0 -136 -54t-52 -133t52 -133.5t136 -54.5z" />
    <glyph glyph-name="adieresis" unicode="&#xe4;" horiz-adv-x="648" 
d="M188 720h73v-142h-73v142zM365 720h73v-142h-73v142zM494 405v88h74v-493h-74v92h-3q-65 -104 -193 -105q-109 -1 -180.5 73t-71.5 187t71 186.5t182 72.5q63 -1 113 -28t79 -73h3zM309 59q81 0 133 55t52 133q0 79 -51.5 133t-133.5 54q-84 0 -136 -54t-52 -133
t52 -133.5t136 -54.5z" />
    <glyph glyph-name="aring" unicode="&#xe5;" horiz-adv-x="648" 
d="M313 551q-45 0 -76.5 31t-31.5 76t31.5 76t76.5 31t76.5 -31t31.5 -76t-31.5 -76t-76.5 -31zM313 708q-22 0 -36.5 -14t-14.5 -36t14.5 -36.5t36.5 -14.5t36.5 14.5t14.5 36.5t-14.5 36t-36.5 14zM494 405v88h74v-493h-74v92h-3q-65 -104 -193 -105q-109 -1 -180.5 73
t-71.5 187t71 186.5t182 72.5q63 -1 113 -28t79 -73h3zM309 59q81 0 133 55t52 133q0 79 -51.5 133t-133.5 54q-84 0 -136 -54t-52 -133t52 -133.5t136 -54.5z" />
    <glyph glyph-name="ae" unicode="&#xe6;" horiz-adv-x="1047" 
d="M759 506q111 0 180 -79.5t62 -206.5h-431q4 -71 59.5 -116.5t129.5 -45.5q52 0 93.5 25t61.5 70h78q-24 -77 -86 -121.5t-146 -44.5q-125 0 -192 100v-87h-74v95q-67 -108 -196 -108q-108 0 -180 73t-72 187t72 186.5t180 72.5q130 0 196 -104v91h74v-87q67 100 191 100z
M309 59q81 0 132.5 54.5t51.5 133.5t-51 133t-133 54q-84 0 -136 -54t-52 -133t52 -133.5t136 -54.5zM747 434q-69 0 -117 -41.5t-58 -105.5h349q-10 65 -57 106t-117 41z" />
    <glyph glyph-name="ccedilla" unicode="&#xe7;" horiz-adv-x="596" 
d="M306 59q61 0 107 33.5t63 86.5h78q-17 -76 -75 -128t-139 -62v-35h16q37 0 58.5 -21.5t21.5 -54.5q0 -32 -22 -55t-58 -23h-118v57h114q11 0 18.5 7t7.5 18q0 22 -26 22h-69v84q-105 8 -171 81.5t-66 177.5q0 110 73 184.5t187 74.5q93 0 161.5 -53t86.5 -136h-78
q-17 51 -62.5 84t-107.5 33q-81 0 -133 -54t-52 -133t52 -133.5t133 -54.5z" />
    <glyph glyph-name="egrave" unicode="&#xe8;" horiz-adv-x="599" 
d="M282 720l95 -142h-82l-97 142h84zM301 506q116 0 187 -81t64 -205h-427q5 -69 55 -115t125 -46q55 0 98 25.5t62 68.5h78q-25 -76 -90 -121t-151 -45q-114 0 -185 75t-71 184t72 184.5t183 75.5zM299 434q-69 0 -116.5 -41.5t-55.5 -105.5h345q-10 65 -57 106t-116 41z
" />
    <glyph glyph-name="eacute" unicode="&#xe9;" horiz-adv-x="599" 
d="M315 720h84l-97 -142h-82zM301 506q116 0 187 -81t64 -205h-427q5 -69 55 -115t125 -46q55 0 98 25.5t62 68.5h78q-25 -76 -90 -121t-151 -45q-114 0 -185 75t-71 184t72 184.5t183 75.5zM299 434q-69 0 -116.5 -41.5t-55.5 -105.5h345q-10 65 -57 106t-116 41z" />
    <glyph glyph-name="ecircumflex" unicode="&#xea;" horiz-adv-x="599" 
d="M369 578l-69 94l-69 -94h-79l107 142h83l106 -142h-79zM301 506q116 0 187 -81t64 -205h-427q5 -69 55 -115t125 -46q55 0 98 25.5t62 68.5h78q-25 -76 -90 -121t-151 -45q-114 0 -185 75t-71 184t72 184.5t183 75.5zM299 434q-69 0 -116.5 -41.5t-55.5 -105.5h345
q-10 65 -57 106t-116 41z" />
    <glyph glyph-name="edieresis" unicode="&#xeb;" horiz-adv-x="599" 
d="M175 720h73v-142h-73v142zM352 720h73v-142h-73v142zM301 506q116 0 187 -81t64 -205h-427q5 -69 55 -115t125 -46q55 0 98 25.5t62 68.5h78q-25 -76 -90 -121t-151 -45q-114 0 -185 75t-71 184t72 184.5t183 75.5zM299 434q-69 0 -116.5 -41.5t-55.5 -105.5h345
q-10 65 -57 106t-116 41z" />
    <glyph glyph-name="igrave" unicode="&#xec;" horiz-adv-x="234" 
d="M15 720h84l95 -142h-82zM79 493h75v-493h-75v493z" />
    <glyph glyph-name="iacute" unicode="&#xed;" horiz-adv-x="234" 
d="M36 578l95 142h84l-97 -142h-82zM79 493h75v-493h-75v493z" />
    <glyph glyph-name="icircumflex" unicode="&#xee;" horiz-adv-x="234" 
d="M158 720l106 -142h-79l-69 94l-69 -94h-79l107 142h83zM154 0h-75v493h75v-493z" />
    <glyph glyph-name="idieresis" unicode="&#xef;" horiz-adv-x="234" 
d="M-8 720h73v-142h-73v142zM169 720h73v-142h-73v142zM79 493h75v-493h-75v493z" />
    <glyph glyph-name="eth" unicode="&#xf0;" horiz-adv-x="607" 
d="M481 578h-62q139 -194 139 -332q0 -110 -71 -184t-186 -74q-113 0 -185 71t-72 176q0 107 74 175.5t175 66.5q78 0 131 -41l2 2q-44 74 -94 140h-168v65h117q-20 25 -65 76h94q45 -56 60 -76h111v-65zM302 60q80 0 130 51t50 124q0 75 -51.5 123.5t-129.5 48.5
q-79 0 -130 -49.5t-51 -123.5t51 -124t131 -50z" />
    <glyph glyph-name="ntilde" unicode="&#xf1;" horiz-adv-x="613" 
d="M237 643v-65h-64v82q0 41 35.5 58t69.5 -7l89 -66q8 -6 15 -2.5t7 12.5v65h63v-82q0 -41 -35 -58t-70 7l-89 66q-8 6 -14.5 2.5t-6.5 -12.5zM338 506q93 0 150 -59.5t57 -159.5v-287h-75v274q0 71 -39.5 115t-106.5 44q-74 0 -122 -53t-48 -134v-246h-75v493h74v-86h2
q29 46 77 72.5t106 26.5z" />
    <glyph glyph-name="ograve" unicode="&#xf2;" horiz-adv-x="616" 
d="M206 720h84l95 -142h-82zM310 -13q-116 0 -190.5 75.5t-74.5 184.5q0 110 74 184.5t191 74.5q115 0 188 -74.5t73 -184.5q0 -109 -73.5 -184.5t-187.5 -75.5zM310 59q82 0 134 55t52 133q0 79 -52 133t-134 54q-84 0 -136.5 -54t-52.5 -133t52.5 -133.5t136.5 -54.5z" />
    <glyph glyph-name="oacute" unicode="&#xf3;" horiz-adv-x="616" 
d="M227 578l95 142h84l-97 -142h-82zM310 -13q-116 0 -190.5 75.5t-74.5 184.5q0 110 74 184.5t191 74.5q115 0 188 -74.5t73 -184.5q0 -109 -73.5 -184.5t-187.5 -75.5zM310 59q82 0 134 55t52 133q0 79 -52 133t-134 54q-84 0 -136.5 -54t-52.5 -133t52.5 -133.5
t136.5 -54.5z" />
    <glyph glyph-name="ocircumflex" unicode="&#xf4;" horiz-adv-x="616" 
d="M376 578l-69 94l-69 -94h-79l107 142h83l106 -142h-79zM310 506q115 0 188 -74.5t73 -184.5q0 -109 -73.5 -184.5t-187.5 -75.5q-116 0 -190.5 75.5t-74.5 184.5q0 110 74 184.5t191 74.5zM310 59q82 0 134 55t52 133q0 79 -52 133t-134 54q-84 0 -136.5 -54t-52.5 -133
t52.5 -133.5t136.5 -54.5z" />
    <glyph glyph-name="otilde" unicode="&#xf5;" horiz-adv-x="616" 
d="M233 578h-64v82q0 41 35.5 58t69.5 -7l89 -66q8 -6 15 -2.5t7 12.5v65h63v-82q0 -41 -35 -58t-70 7l-89 66q-8 6 -14.5 2.5t-6.5 -12.5v-65zM310 -13q-116 0 -190.5 75.5t-74.5 184.5q0 110 74 184.5t191 74.5q115 0 188 -74.5t73 -184.5q0 -109 -73.5 -184.5
t-187.5 -75.5zM310 59q82 0 134 55t52 133q0 79 -52 133t-134 54q-84 0 -136.5 -54t-52.5 -133t52.5 -133.5t136.5 -54.5z" />
    <glyph glyph-name="odieresis" unicode="&#xf6;" horiz-adv-x="616" 
d="M183 720h73v-142h-73v142zM360 720h73v-142h-73v142zM310 -13q-116 0 -190.5 75.5t-74.5 184.5q0 110 74 184.5t191 74.5q115 0 188 -74.5t73 -184.5q0 -109 -73.5 -184.5t-187.5 -75.5zM310 59q82 0 134 55t52 133q0 79 -52 133t-134 54q-84 0 -136.5 -54t-52.5 -133
t52.5 -133.5t136.5 -54.5z" />
    <glyph glyph-name="divide" unicode="&#xf7;" horiz-adv-x="614" 
d="M258 553h95v-100h-95v100zM72 285v71h466v-71h-466zM258 187h95v-100h-95v100z" />
    <glyph glyph-name="oslash" unicode="&#xf8;" horiz-adv-x="621" 
d="M548 506l-53 -68q80 -74 80 -191q0 -109 -73.5 -184.5t-187.5 -75.5q-78 0 -139 36l-28 -36h-76l56 72q-78 75 -78 188q0 110 74 184.5t191 74.5q72 0 132 -33l25 33h77zM125 247q0 -75 48 -128l227 295q-38 20 -86 20q-84 0 -136.5 -54t-52.5 -133zM314 59q82 0 134 55
t52 133q0 80 -51 131l-229 -296q41 -23 94 -23z" />
    <glyph glyph-name="ugrave" unicode="&#xf9;" horiz-adv-x="591" 
d="M193 720h84l95 -142h-82zM66 218v275h75v-273q0 -71 43 -116.5t111 -45.5q69 0 111.5 45t42.5 117v273h75v-275q0 -105 -63.5 -168.5t-165.5 -63.5t-165.5 63.5t-63.5 168.5z" />
    <glyph glyph-name="uacute" unicode="&#xfa;" horiz-adv-x="591" 
d="M215 578l95 142h84l-97 -142h-82zM66 218v275h75v-273q0 -71 43 -116.5t111 -45.5q69 0 111.5 45t42.5 117v273h75v-275q0 -105 -63.5 -168.5t-165.5 -63.5t-165.5 63.5t-63.5 168.5z" />
    <glyph glyph-name="ucircumflex" unicode="&#xfb;" horiz-adv-x="591" 
d="M364 578l-69 94l-69 -94h-79l107 142h83l106 -142h-79zM449 220v273h75v-275q0 -105 -63.5 -168.5t-165.5 -63.5t-165.5 63.5t-63.5 168.5v275h75v-273q0 -71 43 -116.5t111 -45.5q69 0 111.5 45t42.5 117z" />
    <glyph glyph-name="udieresis" unicode="&#xfc;" horiz-adv-x="591" 
d="M170 720h73v-142h-73v142zM347 720h73v-142h-73v142zM66 218v275h75v-273q0 -71 43 -116.5t111 -45.5q69 0 111.5 45t42.5 117v273h75v-275q0 -105 -63.5 -168.5t-165.5 -63.5t-165.5 63.5t-63.5 168.5z" />
    <glyph glyph-name="yacute" unicode="&#xfd;" horiz-adv-x="562" 
d="M298 720h84l-97 -142h-82zM291 50l170 443h76l-225 -584q-21 -56 -56.5 -82.5t-92.5 -26.5h-113v75h113q32 0 50.5 13t30.5 43l8 21l-229 541h83z" />
    <glyph glyph-name="thorn" unicode="&#xfe;" horiz-adv-x="648" 
d="M349 506q110 1 181 -72.5t71 -186.5t-71.5 -187t-180.5 -73q-63 1 -113 29.5t-80 75.5h-2v-292h-75v920h75v-315h2q30 46 80 73t113 28zM339 59q83 0 135 54.5t52 133.5t-52 133t-135 54q-82 0 -133.5 -54t-51.5 -133q0 -78 52 -133t133 -55z" />
    <glyph glyph-name="ydieresis" unicode="&#xff;" horiz-adv-x="562" 
d="M159 720h73v-142h-73v142zM336 720h73v-142h-73v142zM291 50l170 443h76l-225 -584q-21 -56 -56.5 -82.5t-92.5 -26.5h-113v75h113q32 0 50.5 13t30.5 43l8 21l-229 541h83z" />
    <glyph glyph-name="Amacron" unicode="&#x100;" horiz-adv-x="749" 
d="M234 786h280v-66h-280v66zM709 0h-86l-84 195h-330l-83 -195h-86l293 670h82zM373 579l-132 -310h266z" />
    <glyph glyph-name="amacron" unicode="&#x101;" horiz-adv-x="648" 
d="M173 644h280v-66h-280v66zM494 405v88h74v-493h-74v92h-3q-65 -104 -193 -105q-109 -1 -180.5 73t-71.5 187t71 186.5t182 72.5q63 -1 113 -28t79 -73h3zM309 59q81 0 133 55t52 133q0 79 -51.5 133t-133.5 54q-84 0 -136 -54t-52 -133t52 -133.5t136 -54.5z" />
    <glyph glyph-name="Abreve" unicode="&#x102;" horiz-adv-x="749" 
d="M447 720h-144q-34 0 -55 21t-21 55v36h69v-26q0 -13 8.5 -21.5t21.5 -8.5h98q13 0 21.5 8.5t8.5 21.5v26h68v-36q0 -34 -20.5 -55t-54.5 -21zM709 0h-86l-84 195h-330l-83 -195h-86l293 670h82zM373 579l-132 -310h266z" />
    <glyph glyph-name="abreve" unicode="&#x103;" horiz-adv-x="648" 
d="M383 578h-139q-34 0 -55.5 22t-21.5 56v64h65v-54q0 -13 8.5 -21.5t21.5 -8.5h103q13 0 21.5 8.5t8.5 21.5v54h65v-64q0 -34 -21.5 -56t-55.5 -22zM494 405v88h74v-493h-74v92h-3q-65 -104 -193 -105q-109 -1 -180.5 73t-71.5 187t71 186.5t182 72.5q63 -1 113 -28
t79 -73h3zM309 59q81 0 133 55t52 133q0 79 -51.5 133t-133.5 54q-84 0 -136 -54t-52 -133t52 -133.5t136 -54.5z" />
    <glyph glyph-name="Aogonek" unicode="&#x104;" horiz-adv-x="749" 
d="M709 0l-79 -106q-8 -10 -2.5 -20.5t18.5 -10.5h63v-63h-85q-49 0 -68 38.5t11 76.5l65 85h-9l-84 195h-330l-83 -195h-86l293 670h82zM373 579l-132 -310h266z" />
    <glyph glyph-name="aogonek" unicode="&#x105;" horiz-adv-x="648" 
d="M568 493v-493l-79 -105q-7 -11 -2 -21t18 -10h63v-64h-82q-49 0 -68 38.5t11 76.5l65 85v92h-3q-65 -104 -193 -105q-109 -1 -180.5 73t-71.5 187t71 186.5t182 72.5q63 -1 113 -28t79 -73h3v88h74zM309 59q81 0 133 55t52 133q0 79 -51.5 133t-133.5 54q-84 0 -136 -54
t-52 -133t52 -133.5t136 -54.5z" />
    <glyph glyph-name="Cacute" unicode="&#x106;" horiz-adv-x="785" 
d="M317 720l95 112h85l-98 -112h-82zM647 244h81q-27 -114 -116 -185t-212 -71q-150 0 -245.5 100.5t-95.5 246.5q0 145 95.5 246.5t245.5 101.5q122 0 210.5 -70t116.5 -182h-81q-25 78 -91 127.5t-154 49.5q-115 0 -190 -80t-75 -193q0 -114 75 -193.5t190 -79.5
q91 0 157.5 51t88.5 131z" />
    <glyph glyph-name="cacute" unicode="&#x107;" horiz-adv-x="596" 
d="M226 578l95 142h84l-97 -142h-82zM554 317h-78q-17 51 -62.5 84t-107.5 33q-81 0 -133 -54t-52 -133t52 -133.5t133 -54.5q61 0 107 33.5t63 86.5h78q-18 -84 -86.5 -138t-161.5 -54q-114 0 -187 75t-73 185t73 184.5t187 74.5q93 0 161.5 -53t86.5 -136z" />
    <glyph glyph-name="Cdotaccent" unicode="&#x10a;" horiz-adv-x="785" 
d="M355 832h75v-112h-75v112zM647 244h81q-27 -114 -116 -185t-212 -71q-150 0 -245.5 100.5t-95.5 246.5q0 145 95.5 246.5t245.5 101.5q122 0 210.5 -70t116.5 -182h-81q-25 78 -91 127.5t-154 49.5q-115 0 -190 -80t-75 -193q0 -114 75 -193.5t190 -79.5q91 0 157.5 51
t88.5 131z" />
    <glyph glyph-name="cdotaccent" unicode="&#x10b;" horiz-adv-x="596" 
d="M269 720h75v-142h-75v142zM554 317h-78q-17 51 -62.5 84t-107.5 33q-81 0 -133 -54t-52 -133t52 -133.5t133 -54.5q61 0 107 33.5t63 86.5h78q-18 -84 -86.5 -138t-161.5 -54q-114 0 -187 75t-73 185t73 184.5t187 74.5q93 0 161.5 -53t86.5 -136z" />
    <glyph glyph-name="Ccaron" unicode="&#x10c;" horiz-adv-x="785" 
d="M351 720l-105 112h83l66 -73l65 73h83l-105 -112h-87zM647 244h81q-27 -114 -116 -185t-212 -71q-150 0 -245.5 100.5t-95.5 246.5q0 145 95.5 246.5t245.5 101.5q122 0 210.5 -70t116.5 -182h-81q-25 78 -91 127.5t-154 49.5q-115 0 -190 -80t-75 -193q0 -114 75 -193.5
t190 -79.5q91 0 157.5 51t88.5 131z" />
    <glyph glyph-name="ccaron" unicode="&#x10d;" horiz-adv-x="596" 
d="M265 578l-106 142h79l69 -94l69 94h79l-107 -142h-83zM306 59q61 0 107 33.5t63 86.5h78q-18 -84 -86.5 -138t-161.5 -54q-114 0 -187 75t-73 185t73 184.5t187 74.5q93 0 161.5 -53t86.5 -136h-78q-17 51 -62.5 84t-107.5 33q-81 0 -133 -54t-52 -133t52 -133.5
t133 -54.5z" />
    <glyph glyph-name="Dcaron" unicode="&#x10e;" horiz-adv-x="754" 
d="M311 720l-105 112h83l66 -73l65 73h83l-105 -112h-87zM99 670h262q143 0 237.5 -94.5t94.5 -238.5v-3q0 -144 -94.5 -238.5t-237.5 -94.5h-262v669zM616 334v3q0 113 -72.5 185.5t-183.5 72.5h-184v-519h184q111 0 183.5 72.5t72.5 185.5z" />
    <glyph glyph-name="dcaron" unicode="&#x10f;" horiz-adv-x="725" 
d="M491 401h3v319h74v-720h-74v88h-3q-29 -46 -79 -73t-113 -28q-110 -1 -181.5 73t-71.5 186q0 113 72 187t180 73q63 0 113 -28.5t80 -76.5zM625 506l27 214h73l-35 -214h-65zM309 59q82 0 133.5 54t51.5 133t-51.5 133.5t-133.5 54.5q-84 0 -136 -54.5t-52 -133.5
t52 -133t136 -54z" />
    <glyph glyph-name="Dcroat" unicode="&#x110;" horiz-adv-x="780" 
d="M126 670h261q144 0 238.5 -94.5t94.5 -238.5v-3q0 -144 -94.5 -238.5t-238.5 -94.5h-261v314h-82v66h82v289zM643 334v3q0 113 -72.5 185.5t-183.5 72.5h-184v-214h215v-66h-215v-239h184q111 0 183.5 72.5t72.5 185.5z" />
    <glyph glyph-name="dcroat" unicode="&#x111;" horiz-adv-x="648" 
d="M568 643h77v-65h-77v-578h-74v88h-3q-29 -46 -79 -73t-113 -28q-110 -1 -181.5 73t-71.5 186q0 113 72 187t180 73q63 0 113 -28.5t80 -76.5h3v177h-192v65h192v77h74v-77zM309 59q82 0 133.5 54t51.5 133t-51.5 133.5t-133.5 54.5q-84 0 -136 -54.5t-52 -133.5t52 -133
t136 -54z" />
    <glyph glyph-name="Emacron" unicode="&#x112;" horiz-adv-x="648" 
d="M487 720h-280v66h280v-66zM588 0h-489v670h489v-75h-412v-212h382v-75h-382v-233h412v-75z" />
    <glyph glyph-name="emacron" unicode="&#x113;" horiz-adv-x="599" 
d="M160 644h280v-66h-280v66zM301 506q116 0 187 -81t64 -205h-427q5 -69 55 -115t125 -46q55 0 98 25.5t62 68.5h78q-25 -76 -90 -121t-151 -45q-114 0 -185 75t-71 184t72 184.5t183 75.5zM299 434q-69 0 -116.5 -41.5t-55.5 -105.5h345q-10 65 -57 106t-116 41z" />
    <glyph glyph-name="Edotaccent" unicode="&#x116;" horiz-adv-x="648" 
d="M309 832h75v-112h-75v112zM588 0h-489v670h489v-75h-412v-212h382v-75h-382v-233h412v-75z" />
    <glyph glyph-name="edotaccent" unicode="&#x117;" horiz-adv-x="599" 
d="M262 720h75v-142h-75v142zM301 506q116 0 187 -81t64 -205h-427q5 -69 55 -115t125 -46q55 0 98 25.5t62 68.5h78q-25 -76 -90 -121t-151 -45q-114 0 -185 75t-71 184t72 184.5t183 75.5zM299 434q-69 0 -116.5 -41.5t-55.5 -105.5h345q-10 65 -57 106t-116 41z" />
    <glyph glyph-name="Eogonek" unicode="&#x118;" horiz-adv-x="648" 
d="M589 0l-79 -106q-8 -10 -2.5 -20.5t18.5 -10.5h63v-63h-85q-49 0 -68 38.5t11 76.5l65 85h-413v670h489v-75h-412v-212h382v-75h-382v-233h412v-75h1z" />
    <glyph glyph-name="eogonek" unicode="&#x119;" horiz-adv-x="599" 
d="M301 506q116 0 187 -81t64 -205h-427q5 -69 55 -115t125 -46q55 0 98 25.5t62 68.5h78q-19 -57 -60 -97t-98 -57l-78 -104q-7 -11 -2 -21t18 -10h63v-64h-82q-49 0 -68 38.5t11 76.5l55 72q-114 0 -185 75t-71 184t72 184.5t183 75.5zM299 434q-69 0 -116.5 -41.5
t-55.5 -105.5h345q-10 65 -57 106t-116 41z" />
    <glyph glyph-name="Ecaron" unicode="&#x11a;" horiz-adv-x="648" 
d="M304 720l-105 112h83l66 -73l65 73h83l-105 -112h-87zM588 670v-75h-412v-212h382v-75h-382v-233h412v-75h-489v670h489z" />
    <glyph glyph-name="ecaron" unicode="&#x11b;" horiz-adv-x="599" 
d="M259 578l-106 142h79l69 -94l69 94h79l-107 -142h-83zM301 506q116 0 187 -81t64 -205h-427q5 -69 55 -115t125 -46q55 0 98 25.5t62 68.5h78q-25 -76 -90 -121t-151 -45q-114 0 -185 75t-71 184t72 184.5t183 75.5zM299 434q-69 0 -116.5 -41.5t-55.5 -105.5h345
q-10 65 -57 106t-116 41z" />
    <glyph glyph-name="Gbreve" unicode="&#x11e;" horiz-adv-x="804" 
d="M476 720h-144q-34 0 -55 21t-21 55v36h69v-26q0 -13 8.5 -21.5t21.5 -8.5h98q13 0 21.5 8.5t8.5 21.5v26h68v-36q0 -34 -20.5 -55t-54.5 -21zM406 268v74h343q-1 -156 -97.5 -255t-245.5 -99t-247 101t-98 246q0 146 97.5 247t247.5 101q118 0 207 -65.5t121 -169.5h-83
q-29 70 -95 115t-151 45q-116 0 -191.5 -79t-75.5 -193t76.5 -193.5t192.5 -80.5q99 -1 169 56t89 150h-259z" />
    <glyph glyph-name="gbreve" unicode="&#x11f;" horiz-adv-x="648" 
d="M384 578h-139q-34 0 -55.5 22t-21.5 56v64h65v-54q0 -13 8.5 -21.5t21.5 -8.5h103q13 0 21.5 8.5t8.5 21.5v54h65v-64q0 -34 -21.5 -56t-55.5 -22zM494 405v88h74v-541q0 -73 -39 -112.5t-112 -39.5h-308v73h301q83 0 83 84l1 90v45h-3q-65 -104 -193 -105
q-109 -1 -180.5 73t-71.5 187t71 186.5t182 72.5q63 -1 113 -28t79 -73h3zM309 59q81 0 133 55t52 133q0 79 -51.5 133t-133.5 54q-84 0 -136 -54t-52 -133t52 -133.5t136 -54.5z" />
    <glyph glyph-name="Gdotaccent" unicode="&#x120;" horiz-adv-x="804" 
d="M366 832h75v-112h-75v112zM406 268v74h343q-1 -156 -97.5 -255t-245.5 -99t-247 101t-98 246q0 146 97.5 247t247.5 101q118 0 207 -65.5t121 -169.5h-83q-29 70 -95 115t-151 45q-116 0 -191.5 -79t-75.5 -193t76.5 -193.5t192.5 -80.5q99 -1 169 56t89 150h-259z" />
    <glyph glyph-name="gdotaccent" unicode="&#x121;" horiz-adv-x="648" 
d="M277 720h75v-142h-75v142zM494 405v88h74v-541q0 -73 -39 -112.5t-112 -39.5h-308v73h301q83 0 83 84l1 90v45h-3q-65 -104 -193 -105q-109 -1 -180.5 73t-71.5 187t71 186.5t182 72.5q63 -1 113 -28t79 -73h3zM309 59q81 0 133 55t52 133q0 79 -51.5 133t-133.5 54
q-84 0 -136 -54t-52 -133t52 -133.5t136 -54.5z" />
    <glyph glyph-name="uni0122" unicode="&#x122;" horiz-adv-x="804" 
d="M406 268v74h343q-1 -156 -97.5 -255t-245.5 -99t-247 101t-98 246q0 146 97.5 247t247.5 101q118 0 207 -65.5t121 -169.5h-83q-29 70 -95 115t-151 45q-116 0 -191.5 -79t-75.5 -193t76.5 -193.5t192.5 -80.5q99 -1 169 56t89 150h-259zM390 -200h-82l95 142h84z" />
    <glyph glyph-name="uni0123" unicode="&#x123;" horiz-adv-x="648" 
d="M323 720h82l-96 -142h-84zM494 405v88h74v-541q0 -73 -39 -112.5t-112 -39.5h-308v73h301q83 0 83 84l1 90v45h-3q-65 -104 -193 -105q-109 -1 -180.5 73t-71.5 187t71 186.5t182 72.5q63 -1 113 -28t79 -73h3zM309 59q81 0 133 55t52 133q0 79 -51.5 133t-133.5 54
q-84 0 -136 -54t-52 -133t52 -133.5t136 -54.5z" />
    <glyph glyph-name="Hbar" unicode="&#x126;" horiz-adv-x="786" 
d="M676 559h58v-66h-58v-493h-77v310h-412v-310h-77v493h-55v66h55v111h77v-111h412v111h77v-111zM187 385h412v108h-412v-108z" />
    <glyph glyph-name="hbar" unicode="&#x127;" horiz-adv-x="613" 
d="M338 506q93 0 150 -59.5t57 -159.5v-287h-75v274q0 71 -39.5 115t-106.5 44q-74 0 -122 -53t-48 -134v-246h-75v578h-84v65h84v77h75v-77h185v-65h-185v-171h2q64 99 182 99z" />
    <glyph glyph-name="Imacron" unicode="&#x12a;" horiz-adv-x="275" 
d="M278 720h-280v66h280v-66zM99 0v670h77v-670h-77z" />
    <glyph glyph-name="imacron" unicode="&#x12b;" horiz-adv-x="234" 
d="M257 578h-280v66h280v-66zM79 493h75v-493h-75v493z" />
    <glyph glyph-name="Iogonek" unicode="&#x12e;" horiz-adv-x="275" 
d="M176 670v-670l-79 -106q-8 -10 -2.5 -20.5t18.5 -10.5h63v-63h-85q-49 0 -68 38.5t11 76.5l65 85v670h77z" />
    <glyph glyph-name="iogonek" unicode="&#x12f;" horiz-adv-x="234" 
d="M79 578v142h75v-142h-75zM14 -85l65 85v493h75v-493h-1l-79 -105q-7 -11 -2 -21t18 -10h63v-64h-82q-49 0 -68 38.5t11 76.5z" />
    <glyph glyph-name="Idotaccent" unicode="&#x130;" horiz-adv-x="275" 
d="M100 832h75v-112h-75v112zM99 0v670h77v-670h-77z" />
    <glyph glyph-name="dotlessi" unicode="&#x131;" horiz-adv-x="234" 
d="M79 493h75v-493h-75v493z" />
    <glyph glyph-name="uni0136" unicode="&#x136;" horiz-adv-x="731" 
d="M497 383h27q118 0 118 -116v-267h-76v255q0 54 -56 54h-334v-309h-77v670h77v-287h239l150 287h85zM336 -200h-82l95 142h84z" />
    <glyph glyph-name="uni0137" unicode="&#x137;" horiz-adv-x="586" 
d="M398 301h6q56 0 86.5 -29.5t30.5 -85.5v-186h-75v176q0 54 -55 54h-237v-230h-75v720h75v-419h159l129 192h83zM278 -200h-82l95 142h84z" />
    <glyph glyph-name="Lacute" unicode="&#x139;" horiz-adv-x="606" 
d="M139 720l95 112h85l-98 -112h-82zM99 0v670h78v-595h386v-75h-464z" />
    <glyph glyph-name="lacute" unicode="&#x13a;" horiz-adv-x="315" 
d="M72 770l95 112h85l-98 -112h-82zM75 119v601h75v-593q0 -26 14.5 -40t40.5 -14h83v-73h-92q-59 0 -90 31t-31 88z" />
    <glyph glyph-name="uni013B" unicode="&#x13b;" horiz-adv-x="606" 
d="M99 0v670h78v-595h386v-75h-464zM198 -200l95 142h84l-97 -142h-82z" />
    <glyph glyph-name="uni013C" unicode="&#x13c;" horiz-adv-x="315" 
d="M75 119v601h75v-593q0 -26 14.5 -40t40.5 -14h83v-73h-92q-59 0 -90 31t-31 88zM65 -200l95 142h84l-97 -142h-82z" />
    <glyph glyph-name="Lcaron" unicode="&#x13d;" horiz-adv-x="606" 
d="M99 0v670h78v-595h386v-75h-464zM286 456l27 214h73l-35 -214h-65z" />
    <glyph glyph-name="lcaron" unicode="&#x13e;" horiz-adv-x="322" 
d="M75 119v601h75v-593q0 -26 14.5 -40t40.5 -14h83v-73h-92q-59 0 -90 31t-31 88zM211 506l27 214h73l-35 -214h-65z" />
    <glyph glyph-name="Lslash" unicode="&#x141;" horiz-adv-x="637" 
d="M209 307v-232h387v-75h-464v260l-86 -52v75l86 52v335h77v-288l203 124v-75z" />
    <glyph glyph-name="lslash" unicode="&#x142;" horiz-adv-x="360" 
d="M321 506v-76l-140 -79v-224q0 -26 14.5 -40t40.5 -14h83v-73h-92q-59 0 -90 31t-31 88v189l-75 -42v75l75 43v336h75v-294z" />
    <glyph glyph-name="Nacute" unicode="&#x143;" horiz-adv-x="788" 
d="M412 832h85l-98 -112h-82zM612 130v540h76v-670h-76l-436 571v-571h-77v670h95z" />
    <glyph glyph-name="nacute" unicode="&#x144;" horiz-adv-x="613" 
d="M327 720h84l-97 -142h-82zM338 506q93 0 150 -59.5t57 -159.5v-287h-75v274q0 71 -39.5 115t-106.5 44q-74 0 -122 -53t-48 -134v-246h-75v493h74v-86h2q29 46 77 72.5t106 26.5z" />
    <glyph glyph-name="uni0145" unicode="&#x145;" horiz-adv-x="788" 
d="M612 130v540h76v-670h-76l-436 571v-571h-77v670h95zM372 -200h-82l95 142h84z" />
    <glyph glyph-name="uni0146" unicode="&#x146;" horiz-adv-x="613" 
d="M338 506q93 0 150 -59.5t57 -159.5v-287h-75v274q0 71 -39.5 115t-106.5 44q-74 0 -122 -53t-48 -134v-246h-75v493h74v-86h2q29 46 77 72.5t106 26.5zM305 -200h-82l95 142h84z" />
    <glyph glyph-name="Ncaron" unicode="&#x147;" horiz-adv-x="788" 
d="M351 720l-105 112h83l66 -73l65 73h83l-105 -112h-87zM612 130v540h76v-670h-76l-436 571v-571h-77v670h95z" />
    <glyph glyph-name="ncaron" unicode="&#x148;" horiz-adv-x="613" 
d="M271 578l-106 142h79l69 -94l69 94h79l-107 -142h-83zM338 506q93 0 150 -59.5t57 -159.5v-287h-75v274q0 71 -39.5 115t-106.5 44q-74 0 -122 -53t-48 -134v-246h-75v493h74v-86h2q29 46 77 72.5t106 26.5z" />
    <glyph glyph-name="Eng" unicode="&#x14a;" horiz-adv-x="788" 
d="M612 130v540h76v-755q0 -56 -30.5 -85.5t-86.5 -29.5h-119v76h105q55 0 55 53v71l-436 571v-571h-77v670h95z" />
    <glyph glyph-name="eng" unicode="&#x14b;" horiz-adv-x="613" 
d="M338 506q93 0 150 -59.5t57 -159.5v-372q0 -56 -30.5 -85.5t-86.5 -29.5h-119v74h106q55 0 55 54v346q0 71 -39.5 115t-106.5 44q-74 0 -122 -53t-48 -134v-246h-75v493h74v-86h2q29 46 77 72.5t106 26.5z" />
    <glyph glyph-name="Omacron" unicode="&#x14c;" horiz-adv-x="818" 
d="M549 720h-280v66h280v-66zM409 -12q-152 0 -250 100.5t-98 246.5t98 247t250 101t250 -101t98 -247t-97.5 -246.5t-250.5 -100.5zM409 62q119 0 195 79.5t76 193.5t-76.5 193.5t-194.5 79.5t-194.5 -79.5t-76.5 -193.5t76.5 -193.5t194.5 -79.5z" />
    <glyph glyph-name="omacron" unicode="&#x14d;" horiz-adv-x="616" 
d="M448 578h-280v66h280v-66zM310 -13q-116 0 -190.5 75.5t-74.5 184.5q0 110 74 184.5t191 74.5q115 0 188 -74.5t73 -184.5q0 -109 -73.5 -184.5t-187.5 -75.5zM310 59q82 0 134 55t52 133q0 79 -52 133t-134 54q-84 0 -136.5 -54t-52.5 -133t52.5 -133.5t136.5 -54.5z
" />
    <glyph glyph-name="Ohungarumlaut" unicode="&#x150;" horiz-adv-x="818" 
d="M232 720l95 112h85l-98 -112h-82zM407 720l95 112h84l-97 -112h-82zM409 -12q-152 0 -250 100.5t-98 246.5t98 247t250 101t250 -101t98 -247t-97.5 -246.5t-250.5 -100.5zM409 62q119 0 195 79.5t76 193.5t-76.5 193.5t-194.5 79.5t-194.5 -79.5t-76.5 -193.5
t76.5 -193.5t194.5 -79.5z" />
    <glyph glyph-name="ohungarumlaut" unicode="&#x151;" horiz-adv-x="616" 
d="M158 578l95 142h84l-97 -142h-82zM333 578l95 142h84l-97 -142h-82zM310 -13q-116 0 -190.5 75.5t-74.5 184.5q0 110 74 184.5t191 74.5q115 0 188 -74.5t73 -184.5q0 -109 -73.5 -184.5t-187.5 -75.5zM310 59q82 0 134 55t52 133q0 79 -52 133t-134 54q-84 0 -136.5 -54
t-52.5 -133t52.5 -133.5t136.5 -54.5z" />
    <glyph glyph-name="OE" unicode="&#x152;" horiz-adv-x="1187" 
d="M1127 670v-75h-395v-212h365v-75h-365v-233h395v-75h-472v112q-95 -124 -260 -124q-148 0 -240.5 100t-92.5 247q0 146 93 247t240 101q165 0 260 -125v112h472zM396 62q115 0 186.5 79t71.5 194t-71.5 194t-186.5 79q-114 0 -185.5 -79t-71.5 -194t71.5 -194t185.5 -79z
" />
    <glyph glyph-name="oe" unicode="&#x153;" horiz-adv-x="1042" 
d="M751 506q114 0 183.5 -81t62.5 -205h-428q5 -68 55.5 -114.5t125.5 -46.5q55 0 98 25.5t61 68.5h79q-25 -77 -88 -121.5t-147 -44.5q-75 0 -132.5 35.5t-88.5 96.5q-32 -61 -90.5 -96.5t-134.5 -35.5q-115 0 -188.5 75.5t-73.5 184.5q0 110 73.5 184.5t188.5 74.5
q76 0 135 -35.5t91 -96.5q31 61 88 96.5t130 35.5zM310 59q82 0 134 55t52 133q0 79 -52 133t-134 54q-84 0 -136.5 -54t-52.5 -133t52.5 -133.5t136.5 -54.5zM744 434q-69 0 -116.5 -41.5t-56.5 -105.5h346q-11 66 -57.5 106.5t-115.5 40.5z" />
    <glyph glyph-name="Racute" unicode="&#x154;" horiz-adv-x="738" 
d="M281 720l95 112h85l-98 -112h-82zM176 0h-77v670h331q97 0 156 -52t59 -135q0 -97 -76 -146v-2q84 -13 84 -111v-224h-76v210q0 54 -58 54h-343v-264zM176 595v-257h250q64 0 102.5 36t38.5 92t-39 92.5t-101 36.5h-251z" />
    <glyph glyph-name="racute" unicode="&#x155;" horiz-adv-x="440" 
d="M275 720h84l-97 -142h-82zM326 493h87v-75h-90q-78 0 -123.5 -48t-45.5 -135v-235h-75v493h73v-98h3q42 98 171 98z" />
    <glyph glyph-name="uni0156" unicode="&#x156;" horiz-adv-x="738" 
d="M176 0h-77v670h331q97 0 156 -52t59 -135q0 -97 -76 -146v-2q84 -13 84 -111v-224h-76v210q0 54 -58 54h-343v-264zM176 595v-257h250q64 0 102.5 36t38.5 92t-39 92.5t-101 36.5h-251zM261 -200l95 142h84l-97 -142h-82z" />
    <glyph glyph-name="uni0157" unicode="&#x157;" horiz-adv-x="440" 
d="M326 493h87v-75h-90q-78 0 -123.5 -48t-45.5 -135v-235h-75v493h73v-98h3q42 98 171 98zM159 -200h-82l95 142h84z" />
    <glyph glyph-name="Rcaron" unicode="&#x158;" horiz-adv-x="738" 
d="M315 720l-105 112h83l66 -73l65 73h83l-105 -112h-87zM569 337v-2q84 -13 84 -111v-224h-76v210q0 54 -58 54h-343v-264h-77v670h331q97 0 156 -52t59 -135q0 -97 -76 -146zM176 338h250q64 0 102.5 36t38.5 92t-39 92.5t-101 36.5h-251v-257z" />
    <glyph glyph-name="rcaron" unicode="&#x159;" horiz-adv-x="440" 
d="M219 578l-106 142h79l69 -94l69 94h79l-107 -142h-83zM326 493h87v-75h-90q-78 0 -123.5 -48t-45.5 -135v-235h-75v493h73v-98h3q42 98 171 98z" />
    <glyph glyph-name="Sacute" unicode="&#x15a;" horiz-adv-x="661" 
d="M256 720l95 112h85l-98 -112h-82zM238 670h325v-75h-321q-46 0 -73.5 -27.5t-27.5 -65.5q0 -31 19.5 -56.5t55.5 -34.5l250 -62q68 -17 104 -65.5t36 -105.5q0 -72 -50 -125t-137 -53h-339v75h336q49 0 78 30.5t29 70.5q0 32 -21 60t-59 38l-251 62q-65 16 -99.5 62
t-34.5 102q0 68 48.5 119t131.5 51z" />
    <glyph glyph-name="sacute" unicode="&#x15b;" horiz-adv-x="528" 
d="M185 578l95 142h84l-97 -142h-82zM183 493h270v-72h-269q-28 0 -44.5 -15.5t-16.5 -40.5q0 -20 12.5 -36t33.5 -20l208 -46q51 -12 80.5 -47t29.5 -83q0 -58 -39.5 -95.5t-101.5 -37.5h-284v73h283q28 0 46 16.5t18 43.5q0 47 -49 58l-208 46q-49 10 -78.5 45.5
t-29.5 81.5q0 56 39 92.5t100 36.5z" />
    <glyph glyph-name="Scedilla" unicode="&#x15e;" horiz-adv-x="661" 
d="M419 0h-87v-46h16q37 0 58.5 -21.5t21.5 -54.5q0 -32 -22 -55t-58 -23h-118v57h114q11 0 18.5 7t7.5 18q0 22 -26 22h-69v96h-195v75h336q49 0 78 30.5t29 70.5q0 32 -21 60t-59 38l-251 62q-65 16 -99.5 62t-34.5 102q0 68 48.5 119t131.5 51h325v-75h-321
q-46 0 -73.5 -27.5t-27.5 -65.5q0 -31 19.5 -56.5t55.5 -34.5l250 -62q68 -17 104 -65.5t36 -105.5q0 -72 -50 -125t-137 -53z" />
    <glyph glyph-name="scedilla" unicode="&#x15f;" horiz-adv-x="528" 
d="M346 0h-69v-46h16q37 0 58.5 -21.5t21.5 -54.5q0 -32 -22 -55t-58 -23h-118v57h114q11 0 18.5 7t7.5 18q0 22 -26 22h-69v96h-158v73h283q28 0 46 16.5t18 43.5q0 47 -49 58l-208 46q-49 10 -78.5 45.5t-29.5 81.5q0 56 39 92.5t100 36.5h270v-72h-269q-28 0 -44.5 -15.5
t-16.5 -40.5q0 -20 12.5 -36t33.5 -20l208 -46q51 -12 80.5 -47t29.5 -83q0 -58 -39.5 -95.5t-101.5 -37.5z" />
    <glyph glyph-name="Scaron" unicode="&#x160;" horiz-adv-x="661" 
d="M289 720l-105 112h83l66 -73l65 73h83l-105 -112h-87zM216 411l250 -62q68 -17 104 -65.5t36 -105.5q0 -72 -50 -125t-137 -53h-339v75h336q49 0 78 30.5t29 70.5q0 32 -21 60t-59 38l-251 62q-65 16 -99.5 62t-34.5 102q0 68 48.5 119t131.5 51h325v-75h-321
q-46 0 -73.5 -27.5t-27.5 -65.5q0 -31 19.5 -56.5t55.5 -34.5z" />
    <glyph glyph-name="scaron" unicode="&#x161;" horiz-adv-x="528" 
d="M224 578l-106 142h79l69 -94l69 94h79l-107 -142h-83zM169 309l208 -46q51 -12 80.5 -47t29.5 -83q0 -58 -39.5 -95.5t-101.5 -37.5h-284v73h283q28 0 46 16.5t18 43.5q0 47 -49 58l-208 46q-49 10 -78.5 45.5t-29.5 81.5q0 56 39 92.5t100 36.5h270v-72h-269
q-28 0 -44.5 -15.5t-16.5 -40.5q0 -20 12.5 -36t33.5 -20z" />
    <glyph glyph-name="uni0162" unicode="&#x162;" horiz-adv-x="661" 
d="M368 595v-595h-56v-46h16q37 0 58.5 -21.5t21.5 -54.5q0 -32 -22 -55t-58 -23h-118v57h114q11 0 18.5 7t7.5 18q0 22 -26 22h-69v144h37v547h-249v75h575v-75h-250z" />
    <glyph glyph-name="uni0163" unicode="&#x163;" horiz-adv-x="467" 
d="M427 493v-72h-235v-293q0 -55 55 -55h180v-73h-144v-46h16q37 0 58.5 -21.5t21.5 -54.5q0 -32 -22 -55t-58 -23h-118v57h114q11 0 18.5 7t7.5 18q0 22 -26 22h-69v96h8q-57 0 -87 30t-30 86v305h-90v72h90v177h75v-177h235z" />
    <glyph glyph-name="Tcaron" unicode="&#x164;" horiz-adv-x="661" 
d="M288 720l-105 112h83l66 -73l65 73h83l-105 -112h-87zM43 670h575v-75h-250v-595h-76v595h-249v75z" />
    <glyph glyph-name="tcaron" unicode="&#x165;" horiz-adv-x="467" 
d="M343 720h73l-30 -181h-65zM427 493v-72h-235v-293q0 -55 55 -55h180v-73h-193q-57 0 -87 30t-30 86v305h-90v72h90v177h75v-177h235z" />
    <glyph glyph-name="Tbar" unicode="&#x166;" horiz-adv-x="661" 
d="M619 670v-75h-250v-214h136v-66h-136v-315h-76v315h-162v66h162v214h-249v75h575z" />
    <glyph glyph-name="tbar" unicode="&#x167;" horiz-adv-x="507" 
d="M453 493v-72h-235v-117h224v-72h-224v-104q0 -55 55 -55h180v-73h-193q-57 0 -87 30t-30 86v116h-101v72h101v117h-90v72h90v177h75v-177h235z" />
    <glyph glyph-name="Umacron" unicode="&#x16a;" horiz-adv-x="739" 
d="M509 720h-280v66h280v-66zM85 279v391h77v-387q0 -98 58 -159.5t150 -61.5t149.5 61t57.5 160v387h77v-391q0 -133 -79.5 -212.5t-205.5 -79.5t-205 80.5t-79 211.5z" />
    <glyph glyph-name="umacron" unicode="&#x16b;" horiz-adv-x="591" 
d="M435 578h-280v66h280v-66zM66 218v275h75v-273q0 -71 43 -116.5t111 -45.5q69 0 111.5 45t42.5 117v273h75v-275q0 -105 -63.5 -168.5t-165.5 -63.5t-165.5 63.5t-63.5 168.5z" />
    <glyph glyph-name="Uring" unicode="&#x16e;" horiz-adv-x="739" 
d="M369 703q-45 0 -76.5 31t-31.5 76t31.5 76t76.5 31t76.5 -31t31.5 -76t-31.5 -76t-76.5 -31zM369 760q22 0 36.5 14t14.5 36t-14.5 36.5t-36.5 14.5t-36.5 -14.5t-14.5 -36.5t14.5 -36t36.5 -14zM85 279v391h77v-387q0 -98 58 -159.5t150 -61.5t149.5 61t57.5 160v387h77
v-391q0 -133 -79.5 -212.5t-205.5 -79.5t-205 80.5t-79 211.5z" />
    <glyph glyph-name="uring" unicode="&#x16f;" horiz-adv-x="591" 
d="M295 551q-45 0 -76.5 31t-31.5 76t31.5 76t76.5 31t76.5 -31t31.5 -76t-31.5 -76t-76.5 -31zM295 607q22 0 36.5 14.5t14.5 36.5t-14.5 36t-36.5 14t-36.5 -14t-14.5 -36t14.5 -36.5t36.5 -14.5zM66 218v275h75v-273q0 -71 43 -116.5t111 -45.5q69 0 111.5 45t42.5 117
v273h75v-275q0 -105 -63.5 -168.5t-165.5 -63.5t-165.5 63.5t-63.5 168.5z" />
    <glyph glyph-name="Uhungarumlaut" unicode="&#x170;" horiz-adv-x="739" 
d="M192 720l95 112h85l-98 -112h-82zM367 720l95 112h84l-97 -112h-82zM85 279v391h77v-387q0 -98 58 -159.5t150 -61.5t149.5 61t57.5 160v387h77v-391q0 -133 -79.5 -212.5t-205.5 -79.5t-205 80.5t-79 211.5z" />
    <glyph glyph-name="uhungarumlaut" unicode="&#x171;" horiz-adv-x="591" 
d="M145 578l95 142h84l-97 -142h-82zM320 578l95 142h84l-97 -142h-82zM66 218v275h75v-273q0 -71 43 -116.5t111 -45.5q69 0 111.5 45t42.5 117v273h75v-275q0 -105 -63.5 -168.5t-165.5 -63.5t-165.5 63.5t-63.5 168.5z" />
    <glyph glyph-name="Uogonek" unicode="&#x172;" horiz-adv-x="739" 
d="M577 283v387h77v-391q0 -106 -52 -179.5t-140 -99.5h1l-79 -106q-8 -10 -2.5 -20.5t18.5 -10.5h63v-63h-85q-49 0 -68 38.5t11 76.5l55 72h-7q-126 0 -205 80.5t-79 211.5v391h77v-387q0 -98 58 -159.5t150 -61.5t149.5 61t57.5 160z" />
    <glyph glyph-name="uogonek" unicode="&#x173;" horiz-adv-x="591" 
d="M449 220v273h75v-275q0 -81 -39 -138.5t-107 -80.5l-78 -104q-7 -11 -2 -21t18 -10h63v-64h-82q-49 0 -68 38.5t11 76.5l54 71q-102 0 -165 63.5t-63 168.5v275h75v-273q0 -71 43 -116.5t111 -45.5q69 0 111.5 45t42.5 117z" />
    <glyph glyph-name="Wcircumflex" unicode="&#x174;" horiz-adv-x="1010" 
d="M570 720l-66 73l-66 -73h-82l105 112h87l104 -112h-82zM711 122l172 548h83l-212 -670h-83l-166 544l-166 -544h-83l-212 670h84l171 -549l165 549h82z" />
    <glyph glyph-name="wcircumflex" unicode="&#x175;" horiz-adv-x="789" 
d="M463 578l-69 94l-69 -94h-79l107 142h83l106 -142h-79zM554 105l128 388h80l-169 -493h-75l-124 387l-122 -387h-76l-170 493h81l128 -386l122 386h75z" />
    <glyph glyph-name="Ycircumflex" unicode="&#x176;" horiz-adv-x="714" 
d="M423 720l-66 73l-66 -73h-82l105 112h87l104 -112h-82zM585 670h92l-282 -379v-291h-77v288l-281 382h94l227 -310z" />
    <glyph glyph-name="ycircumflex" unicode="&#x177;" horiz-adv-x="562" 
d="M352 578l-69 94l-69 -94h-79l107 142h83l106 -142h-79zM291 50l170 443h76l-225 -584q-21 -56 -56.5 -82.5t-92.5 -26.5h-113v75h113q32 0 50.5 13t30.5 43l8 21l-229 541h83z" />
    <glyph glyph-name="Ydieresis" unicode="&#x178;" horiz-adv-x="714" 
d="M232 832h73v-112h-73v112zM409 832h73v-112h-73v112zM585 670h92l-282 -379v-291h-77v288l-281 382h94l227 -310z" />
    <glyph glyph-name="Zacute" unicode="&#x179;" horiz-adv-x="621" 
d="M331 832h85l-98 -112h-82zM554 612l-396 -537h413v-75h-519v58l396 537h-387v75h493v-58z" />
    <glyph glyph-name="zacute" unicode="&#x17a;" horiz-adv-x="502" 
d="M265 720h84l-97 -142h-82zM455 438l-312 -366h322v-72h-428v56l312 365h-302v72h408v-55z" />
    <glyph glyph-name="Zdotaccent" unicode="&#x17b;" horiz-adv-x="621" 
d="M274 832h75v-112h-75v112zM554 612l-396 -537h413v-75h-519v58l396 537h-387v75h493v-58z" />
    <glyph glyph-name="zdotaccent" unicode="&#x17c;" horiz-adv-x="502" 
d="M213 720h75v-142h-75v142zM455 438l-312 -366h322v-72h-428v56l312 365h-302v72h408v-55z" />
    <glyph glyph-name="Zcaron" unicode="&#x17d;" horiz-adv-x="621" 
d="M269 720l-105 112h83l66 -73l65 73h83l-105 -112h-87zM554 612l-396 -537h413v-75h-519v58l396 537h-387v75h493v-58z" />
    <glyph glyph-name="zcaron" unicode="&#x17e;" horiz-adv-x="502" 
d="M209 578l-106 142h79l69 -94l69 94h79l-107 -142h-83zM455 438l-312 -366h322v-72h-428v56l312 365h-302v72h408v-55z" />
    <glyph glyph-name="uni0218" unicode="&#x218;" horiz-adv-x="661" 
d="M238 670h325v-75h-321q-46 0 -73.5 -27.5t-27.5 -65.5q0 -31 19.5 -56.5t55.5 -34.5l250 -62q68 -17 104 -65.5t36 -105.5q0 -72 -50 -125t-137 -53h-339v75h336q49 0 78 30.5t29 70.5q0 32 -21 60t-59 38l-251 62q-65 16 -99.5 62t-34.5 102q0 68 48.5 119t131.5 51z
M229 -200l95 142h84l-97 -142h-82z" />
    <glyph glyph-name="uni0219" unicode="&#x219;" horiz-adv-x="528" 
d="M183 493h270v-72h-269q-28 0 -44.5 -15.5t-16.5 -40.5q0 -20 12.5 -36t33.5 -20l208 -46q51 -12 80.5 -47t29.5 -83q0 -58 -39.5 -95.5t-101.5 -37.5h-284v73h283q28 0 46 16.5t18 43.5q0 47 -49 58l-208 46q-49 10 -78.5 45.5t-29.5 81.5q0 56 39 92.5t100 36.5z
M164 -200l95 142h84l-97 -142h-82z" />
    <glyph glyph-name="uni021A" unicode="&#x21a;" horiz-adv-x="661" 
d="M43 595v75h575v-75h-250v-595h-76v595h-249zM291 -200h-82l95 142h84z" />
    <glyph glyph-name="uni021B" unicode="&#x21b;" horiz-adv-x="467" 
d="M427 493v-72h-235v-293q0 -55 55 -55h180v-73h-193q-57 0 -87 30t-30 86v305h-90v72h90v177h75v-177h235zM252 -200h-82l95 142h84z" />
    <glyph glyph-name="circumflex" unicode="&#x2c6;" horiz-adv-x="366" 
d="M240 720l106 -142h-79l-69 94l-69 -94h-79l107 142h83z" />
    <glyph glyph-name="dotaccent" unicode="&#x2d9;" horiz-adv-x="234" 
d="M114 720h75v-142h-75v142z" />
    <glyph glyph-name="ring" unicode="&#x2da;" horiz-adv-x="333" 
d="M186 551q-45 0 -76.5 31t-31.5 76t31.5 76t76.5 31t76.5 -31t31.5 -76t-31.5 -76t-76.5 -31zM186 607q22 0 36.5 14.5t14.5 36.5t-14.5 36t-36.5 14t-36.5 -14t-14.5 -36t14.5 -36.5t36.5 -14.5z" />
    <glyph glyph-name="tilde" unicode="&#x2dc;" horiz-adv-x="428" 
d="M138 578h-64v82q0 41 35 58t70 -7l89 -66q8 -6 15 -2.5t7 12.5v65h63v-82q0 -41 -35.5 -58t-69.5 7l-89 66q-7 6 -14 2.5t-7 -12.5v-65z" />
    <glyph glyph-name="gravecomb" unicode="&#x300;" horiz-adv-x="0" 
d="M-217 720h84l95 -142h-82z" />
    <glyph glyph-name="acutecomb" unicode="&#x301;" horiz-adv-x="0" 
d="M-217 578l95 142h84l-97 -142h-82z" />
    <glyph glyph-name="uni0302" unicode="&#x302;" horiz-adv-x="0" 
d="M-141 720l106 -142h-79l-69 94l-69 -94h-79l107 142h83z" />
    <glyph glyph-name="tildecomb" unicode="&#x303;" horiz-adv-x="0" 
d="M-290 578h-64v82q0 41 35 58t70 -7l89 -66q8 -6 15 -2.5t7 12.5v65h63v-82q0 -41 -35.5 -58t-69.5 7l-89 66q-7 6 -14 2.5t-7 -12.5v-65z" />
    <glyph glyph-name="uni0304" unicode="&#x304;" horiz-adv-x="0" 
d="M-79 578h-280v66h280v-66z" />
    <glyph glyph-name="uni0306" unicode="&#x306;" horiz-adv-x="0" 
d="M-359 656v64h65v-54q0 -13 8.5 -21.5t21.5 -8.5h103q13 0 21.5 8.5t8.5 21.5v54h65v-64q0 -34 -21.5 -56t-55.5 -22h-139q-34 0 -55.5 22t-21.5 56z" />
    <glyph glyph-name="uni0307" unicode="&#x307;" horiz-adv-x="0" 
d="M-155 720h75v-142h-75v142z" />
    <glyph glyph-name="uni0308" unicode="&#x308;" horiz-adv-x="0" 
d="M-329 720h73v-142h-73v142zM-152 720h73v-142h-73v142z" />
    <glyph glyph-name="uni030A" unicode="&#x30a;" horiz-adv-x="0" 
d="M-167 551q-45 0 -76.5 31t-31.5 76t31.5 76t76.5 31t76.5 -31t31.5 -76t-31.5 -76t-76.5 -31zM-167 607q22 0 36.5 14.5t14.5 36.5t-14.5 36t-36.5 14t-36.5 -14t-14.5 -36t14.5 -36.5t36.5 -14.5z" />
    <glyph glyph-name="uni030B" unicode="&#x30b;" horiz-adv-x="0" 
d="M-392 578l95 142h84l-97 -142h-82zM-217 578l95 142h84l-97 -142h-82z" />
    <glyph glyph-name="uni030C" unicode="&#x30c;" horiz-adv-x="0" 
d="M-184 626l69 94h79l-107 -142h-83l-106 142h79z" />
    <glyph glyph-name="uni0312" unicode="&#x312;" horiz-adv-x="0" 
d="M-38 720l-96 -142h-84l98 142h82z" />
    <glyph glyph-name="uni0326" unicode="&#x326;" horiz-adv-x="0" 
d="M-217 -200l95 142h84l-97 -142h-82z" />
    <glyph glyph-name="uni0327" unicode="&#x327;" horiz-adv-x="0" 
d="M-151 -46h16q37 0 58.5 -21.5t21.5 -54.5q0 -32 -22 -55t-58 -23h-118v57h114q11 0 18.5 7t7.5 18q0 22 -26 22h-69v96h57v-46z" />
    <glyph glyph-name="uni0328" unicode="&#x328;" horiz-adv-x="0" 
d="M-134 0h74l-79 -105q-7 -11 -2 -21t18 -10h63v-64h-82q-49 0 -68 38.5t11 76.5z" />
    <glyph glyph-name="uni0401" unicode="&#x401;" horiz-adv-x="648" 
d="M222 832h73v-112h-73v112zM399 832h73v-112h-73v112zM588 0h-489v670h489v-75h-412v-212h382v-75h-382v-233h412v-75z" />
    <glyph glyph-name="uni0404" unicode="&#x404;" horiz-adv-x="784" 
d="M638 244h81q-28 -114 -116.5 -185t-212.5 -71q-149 0 -245 101t-96 246t96 246.5t245 101.5q122 0 210.5 -70t116.5 -182h-80q-25 78 -91.5 127.5t-153.5 49.5q-104 0 -176 -66.5t-86 -165.5h310v-74h-311q11 -103 83.5 -171.5t179.5 -68.5q90 0 156.5 51t89.5 131z" />
    <glyph glyph-name="uni0406" unicode="&#x406;" horiz-adv-x="275" 
d="M99 0v670h77v-670h-77z" />
    <glyph glyph-name="uni0407" unicode="&#x407;" horiz-adv-x="275" 
d="M13 832h73v-112h-73v112zM190 832h73v-112h-73v112zM99 0v670h77v-670h-77z" />
    <glyph glyph-name="uni040E" unicode="&#x40e;" horiz-adv-x="681" 
d="M417 720h-144q-34 0 -55 21t-21 55v36h69v-26q0 -13 8.5 -21.5t21.5 -8.5h98q13 0 21.5 8.5t8.5 21.5v26h68v-36q0 -34 -20.5 -55t-54.5 -21zM366 229l198 443h80l-264 -585q-19 -42 -55 -64.5t-80 -22.5h-118v76h118q53 0 72 45l10 23l-290 526h88z" />
    <glyph glyph-name="uni0410" unicode="&#x410;" horiz-adv-x="749" 
d="M709 0h-86l-84 195h-330l-83 -195h-86l293 670h82zM373 579l-132 -310h266z" />
    <glyph glyph-name="uni0411" unicode="&#x411;" horiz-adv-x="684" 
d="M176 409h237q95 0 156 -59t61 -145t-61 -145.5t-156 -59.5h-314v670h467v-75h-390v-186zM176 75h234q63 0 103 37.5t40 92.5t-39.5 92t-103.5 37h-234v-259z" />
    <glyph glyph-name="uni0412" unicode="&#x412;" horiz-adv-x="708" 
d="M541 352v-3q49 -20 76.5 -62.5t27.5 -97.5q0 -80 -55 -134.5t-138 -54.5h-353v670h340q78 0 131.5 -49.5t53.5 -127.5q0 -98 -83 -141zM436 595h-260v-215h260q47 0 79 30.5t32 76.5q0 47 -32 77.5t-79 30.5zM176 76h276q50 0 82.5 32t32.5 81q0 51 -33.5 84t-84.5 33
h-273v-230z" />
    <glyph glyph-name="uni0413" unicode="&#x413;" horiz-adv-x="595" 
d="M176 0h-77v670h453v-75h-376v-595z" />
    <glyph glyph-name="uni0414" unicode="&#x414;" horiz-adv-x="781" 
d="M738 75v-224h-73v149h-559v-149h-73v224q28 0 42.5 2.5t30.5 18t24 47.5q5 21 9 51.5t6 72.5t3.5 77t2 88.5t0.5 82.5v85v70h494v-595h93zM185 75h383v520h-340q-2 -382 -22 -464q-7 -33 -21 -56z" />
    <glyph glyph-name="uni0415" unicode="&#x415;" horiz-adv-x="648" 
d="M588 0h-489v670h489v-75h-412v-212h382v-75h-382v-233h412v-75z" />
    <glyph glyph-name="uni0416" unicode="&#x416;" horiz-adv-x="1001" 
d="M734 381h64q58 0 88 -31t30 -88v-262h-77v254q0 55 -56 55h-244v-309h-77v309h-244q-56 0 -56 -55v-254h-77v262q0 57 30 88t88 31h63l-201 289h88l199 -289h110v289h77v-289h110l199 289h88z" />
    <glyph glyph-name="uni0417" unicode="&#x417;" horiz-adv-x="644" 
d="M474 349v-2q47 -20 75.5 -62t28.5 -96q0 -80 -55 -134.5t-137 -54.5h-331v76h331q50 0 82.5 32t32.5 81q0 51 -34 84t-84 33h-260v74h252q47 0 79 30.5t32 76.5q0 47 -32 77.5t-79 30.5h-318v75h322q79 0 132 -48.5t53 -126.5q0 -48 -24.5 -86.5t-65.5 -59.5z" />
    <glyph glyph-name="uni0418" unicode="&#x418;" horiz-adv-x="765" 
d="M176 118l413 552h77v-670h-77v552l-413 -552h-77v670h77v-552z" />
    <glyph glyph-name="uni0419" unicode="&#x419;" horiz-adv-x="765" 
d="M454 720h-144q-34 0 -55 21t-21 55v36h69v-26q0 -13 8.5 -21.5t21.5 -8.5h98q13 0 21.5 8.5t8.5 21.5v26h68v-36q0 -34 -20.5 -55t-54.5 -21zM176 118l413 552h77v-670h-77v552l-413 -552h-77v670h77v-552z" />
    <glyph glyph-name="uni041A" unicode="&#x41a;" horiz-adv-x="736" 
d="M500 383h28q118 0 118 -116v-267h-77v255q0 54 -56 54h-337v-309h-77v670h77v-287h242l150 287h85z" />
    <glyph glyph-name="uni041B" unicode="&#x41b;" horiz-adv-x="776" 
d="M677 670v-670h-77v595h-347q-2 -383 -23 -471q-10 -43 -28.5 -70t-45 -37.5t-44 -13.5t-42.5 -3h-28v76h16q28 0 42.5 2.5t30.5 18t24 47.5q5 21 9 51.5t6 72.5t3.5 76.5t2 88.5t0.5 82.5v84v70.5h501z" />
    <glyph glyph-name="uni041C" unicode="&#x41c;" horiz-adv-x="912" 
d="M813 670v-670h-77v552l-247 -552h-67l-246 551v-551h-77v670h105l253 -565l253 565h103z" />
    <glyph glyph-name="uni041D" unicode="&#x41d;" horiz-adv-x="765" 
d="M589 385v285h76v-670h-76v310h-413v-310h-77v670h77v-285h413z" />
    <glyph glyph-name="uni041E" unicode="&#x41e;" horiz-adv-x="818" 
d="M409 -12q-152 0 -250 100.5t-98 246.5t98 247t250 101t250 -101t98 -247t-97.5 -246.5t-250.5 -100.5zM409 62q119 0 195 79.5t76 193.5t-76.5 193.5t-194.5 79.5t-194.5 -79.5t-76.5 -193.5t76.5 -193.5t194.5 -79.5z" />
    <glyph glyph-name="uni041F" unicode="&#x41f;" horiz-adv-x="760" 
d="M660 670v-670h-76v595h-408v-595h-77v670h561z" />
    <glyph glyph-name="uni0420" unicode="&#x420;" horiz-adv-x="683" 
d="M404 670q99 0 162 -61.5t63 -150.5t-63.5 -149.5t-162.5 -60.5h-227v-248h-77v670h305zM176 321h226q67 0 108 39t41 98q0 58 -41 97.5t-108 39.5h-226v-274z" />
    <glyph glyph-name="uni0421" unicode="&#x421;" horiz-adv-x="785" 
d="M647 244h81q-27 -114 -116 -185t-212 -71q-150 0 -245.5 100.5t-95.5 246.5q0 145 95.5 246.5t245.5 101.5q122 0 210.5 -70t116.5 -182h-81q-25 78 -91 127.5t-154 49.5q-115 0 -190 -80t-75 -193q0 -114 75 -193.5t190 -79.5q91 0 157.5 51t88.5 131z" />
    <glyph glyph-name="uni0422" unicode="&#x422;" horiz-adv-x="661" 
d="M43 670h575v-75h-250v-595h-76v595h-249v75z" />
    <glyph glyph-name="uni0423" unicode="&#x423;" horiz-adv-x="681" 
d="M366 229l198 443h80l-264 -585q-19 -42 -55 -64.5t-80 -22.5h-118v76h118q53 0 72 45l10 23l-290 526h88z" />
    <glyph glyph-name="uni0424" unicode="&#x424;" horiz-adv-x="895" 
d="M486 670h200q61 0 98 -37t37 -98v-264q0 -61 -37 -98t-98 -37h-200v-136h-77v136h-200q-61 0 -98 37t-37 98v264q0 61 37 98t98 37h200v50h77v-50zM216 208h193v389h-193q-30 0 -47.5 -17.5t-17.5 -46.5v-260q0 -29 17.5 -47t47.5 -18zM744 273v260q0 29 -17.5 46.5
t-46.5 17.5h-194v-389h194q29 0 46.5 18t17.5 47z" />
    <glyph glyph-name="uni0425" unicode="&#x425;" horiz-adv-x="696" 
d="M394 339l257 -339h-100l-203 277l-204 -277h-99l257 339l-252 331h101l197 -269l201 269h94z" />
    <glyph glyph-name="uni0426" unicode="&#x426;" horiz-adv-x="799" 
d="M756 75v-224h-73v149h-584v670h77v-595h411v595h77v-595h92z" />
    <glyph glyph-name="uni0427" unicode="&#x427;" horiz-adv-x="705" 
d="M529 337v333h77v-670h-77v262h-325q-61 0 -98 37.5t-37 98.5v272h77v-268q0 -29 17.5 -47t47.5 -18h318z" />
    <glyph glyph-name="uni0428" unicode="&#x428;" horiz-adv-x="1045" 
d="M869 75v595h77v-670h-847v670h77v-595h309v595h76v-595h308z" />
    <glyph glyph-name="uni0429" unicode="&#x429;" horiz-adv-x="1080" 
d="M1037 75v-224h-73v149h-865v670h77v-595h309v595h76v-595h308v595h77v-595h91z" />
    <glyph glyph-name="uni042A" unicode="&#x42a;" horiz-adv-x="811" 
d="M313 423h219q99 0 162.5 -60.5t63.5 -150.5q0 -89 -63.5 -150.5t-162.5 -61.5h-296v596h-193v74h270v-247zM313 75h217q68 0 109.5 39.5t41.5 97.5q0 59 -41 98.5t-110 39.5h-217v-275z" />
    <glyph glyph-name="uni042B" unicode="&#x42b;" horiz-adv-x="883" 
d="M176 423h203q99 0 162.5 -60.5t63.5 -150.5q0 -89 -63.5 -150.5t-162.5 -61.5h-280v670h77v-247zM707 0v670h77v-670h-77zM176 75h201q68 0 109.5 39.5t41.5 97.5q0 59 -41 98.5t-110 39.5h-201v-275z" />
    <glyph glyph-name="uni042C" unicode="&#x42c;" horiz-adv-x="675" 
d="M176 423h220q99 0 162.5 -60.5t63.5 -150.5q0 -89 -63.5 -150.5t-162.5 -61.5h-297v670h77v-247zM176 75h217q68 0 110 39.5t42 97.5q0 59 -41.5 98.5t-110.5 39.5h-217v-275z" />
    <glyph glyph-name="uni042D" unicode="&#x42d;" horiz-adv-x="787" 
d="M387 683q150 0 245.5 -101.5t95.5 -246.5q0 -146 -95.5 -246.5t-245.5 -100.5q-123 0 -212 71t-116 185h81q23 -80 89.5 -131t156.5 -51q107 0 179.5 68.5t83.5 171.5h-312v74h311q-14 99 -86 165.5t-176 66.5q-87 0 -153.5 -49.5t-91.5 -127.5h-80q28 112 116 182
t210 70z" />
    <glyph glyph-name="uni042E" unicode="&#x42e;" horiz-adv-x="903" 
d="M574 683q111 0 184.5 -73.5t73.5 -185.5v-179q0 -111 -73.5 -184.5t-183.5 -73.5q-111 0 -184 73.5t-73 184.5v66h-142v-311h-77v671h77v-286h142v40q0 111 73 184.5t183 73.5zM755 245v179q0 80 -51.5 132.5t-129.5 52.5t-129 -53t-51 -131v-180q0 -78 51.5 -130.5
t129.5 -52.5t129 52t51 131z" />
    <glyph glyph-name="uni042F" unicode="&#x42f;" horiz-adv-x="748" 
d="M649 670v-670h-77v264h-343q-58 0 -58 -54v-210h-76v224q0 98 84 111v2q-76 49 -76 146q0 83 59 135t156 52h331zM322 338h250v257h-251q-62 0 -101 -36.5t-39 -92.5t38.5 -92t102.5 -36z" />
    <glyph glyph-name="uni0430" unicode="&#x430;" horiz-adv-x="648" 
d="M494 405v88h74v-493h-74v92h-3q-65 -104 -193 -105q-109 -1 -180.5 73t-71.5 187t71 186.5t182 72.5q63 -1 113 -28t79 -73h3zM309 59q81 0 133 55t52 133q0 79 -51.5 133t-133.5 54q-84 0 -136 -54t-52 -133t52 -133.5t136 -54.5z" />
    <glyph glyph-name="uni0431" unicode="&#x431;" horiz-adv-x="627" 
d="M338 478q106 0 175.5 -70t69.5 -173q0 -105 -72.5 -176t-186.5 -71t-187.5 71t-73.5 177v211q0 126 71 199.5t196 73.5h201v-76h-209q-90 0 -140 -50.5t-50 -140.5v-78h3q33 50 86.5 76.5t116.5 26.5zM325 59q81 0 132 51t51 125q0 72 -51 122.5t-132 50.5
q-82 0 -134 -50.5t-52 -123.5q0 -74 52 -124.5t134 -50.5z" />
    <glyph glyph-name="uni0432" unicode="&#x432;" horiz-adv-x="575" 
d="M445 259v-3q40 -15 61 -46.5t21 -71.5q0 -56 -40.5 -97t-106.5 -41h-301v493h284q66 0 104.5 -37.5t38.5 -91.5q0 -72 -61 -105zM361 421h-207v-136h203q33 0 53.5 20t20.5 49q0 28 -19.5 47.5t-50.5 19.5zM154 72h223q33 0 53.5 21t20.5 50q0 30 -21.5 50t-56.5 20h-219
v-141z" />
    <glyph glyph-name="uni0433" unicode="&#x433;" horiz-adv-x="479" 
d="M453 493v-72h-299v-421h-75v493h374z" />
    <glyph glyph-name="uni0434" unicode="&#x434;" horiz-adv-x="640" 
d="M529 493v-421h85v-203h-74v131h-439v-131h-74v203h4q17 0 27 2t25.5 10t24.5 29t12 55q3 42 3 325h406zM168 72h286v349h-258q0 -161 -4 -246q-3 -64 -24 -103z" />
    <glyph glyph-name="uni0435" unicode="&#x435;" horiz-adv-x="599" 
d="M301 506q116 0 187 -81t64 -205h-427q5 -69 55 -115t125 -46q55 0 98 25.5t62 68.5h78q-25 -76 -90 -121t-151 -45q-114 0 -185 75t-71 184t72 184.5t183 75.5zM299 434q-69 0 -116.5 -41.5t-55.5 -105.5h345q-10 65 -57 106t-116 41z" />
    <glyph glyph-name="uni0436" unicode="&#x436;" horiz-adv-x="790" 
d="M604 290h9q56 0 86 -29.5t30 -85.5v-175h-75v165q0 54 -54 54h-168v-219h-75v219h-167q-55 0 -55 -54v-165h-75v175q0 56 30.5 85.5t86.5 29.5h9l-131 203h82l133 -203h87v203h75v-203h88l132 203h83z" />
    <glyph glyph-name="uni0437" unicode="&#x437;" horiz-adv-x="531" 
d="M401 256v-3q37 -13 57.5 -44.5t20.5 -69.5q0 -57 -40.5 -98t-106.5 -41h-290v72h287q33 0 53.5 21t20.5 50q0 30 -21.5 50t-56.5 20h-210v71h203q34 0 54.5 20t20.5 49q0 28 -19.5 48t-51.5 20h-280v72h283q65 0 104 -38t39 -92q0 -35 -17.5 -64.5t-49.5 -42.5z" />
    <glyph glyph-name="uni0438" unicode="&#x438;" horiz-adv-x="613" 
d="M154 106l305 387h75v-493h-75v388l-305 -388h-75v493h75v-387z" />
    <glyph glyph-name="uni0439" unicode="&#x439;" horiz-adv-x="613" 
d="M376 578h-139q-34 0 -55.5 22t-21.5 56v64h65v-54q0 -13 8.5 -21.5t21.5 -8.5h103q13 0 21.5 8.5t8.5 21.5v54h65v-64q0 -34 -21.5 -56t-55.5 -22zM154 106l305 387h75v-493h-75v388l-305 -388h-75v493h75v-387z" />
    <glyph glyph-name="uni043A" unicode="&#x43a;" horiz-adv-x="584" 
d="M392 291h9q56 0 86.5 -29.5t30.5 -85.5v-176h-75v166q0 54 -55 54h-234v-220h-75v493h75v-202h153l134 202h83z" />
    <glyph glyph-name="uni043B" unicode="&#x43b;" horiz-adv-x="621" 
d="M541 493v-493h-75v421h-261q0 -189 -4 -254q-2 -40 -10.5 -71t-23.5 -48.5t-28.5 -28.5t-34 -15.5t-32 -5.5t-29.5 -1h-13v76h10q13 0 20.5 0.5t21 5.5t21.5 14.5t15.5 28.5t9.5 46q1 11 4 325h409z" />
    <glyph glyph-name="uni043C" unicode="&#x43c;" horiz-adv-x="739" 
d="M659 493v-493h-75v412l-187 -412h-55l-188 414v-414h-75v493h116l174 -387l175 387h115z" />
    <glyph glyph-name="uni043D" unicode="&#x43d;" horiz-adv-x="614" 
d="M459 291v202h75v-493h-75v219h-305v-219h-75v493h75v-202h305z" />
    <glyph glyph-name="uni043E" unicode="&#x43e;" horiz-adv-x="616" 
d="M310 -13q-116 0 -190.5 75.5t-74.5 184.5q0 110 74 184.5t191 74.5q115 0 188 -74.5t73 -184.5q0 -109 -73.5 -184.5t-187.5 -75.5zM310 59q82 0 134 55t52 133q0 79 -52 133t-134 54q-84 0 -136.5 -54t-52.5 -133t52.5 -133.5t136.5 -54.5z" />
    <glyph glyph-name="uni043F" unicode="&#x43f;" horiz-adv-x="609" 
d="M530 493v-493h-75v421h-301v-421h-75v493h451z" />
    <glyph glyph-name="uni0440" unicode="&#x440;" horiz-adv-x="648" 
d="M349 506q110 1 181 -72.5t71 -186.5t-71.5 -187t-180.5 -73q-63 1 -113 29.5t-80 75.5h-2v-292h-75v693h75v-88h2q30 46 80 73t113 28zM339 59q83 0 135 54.5t52 133.5t-52 133t-135 54q-82 0 -133.5 -54t-51.5 -133q0 -78 52 -133t133 -55z" />
    <glyph glyph-name="uni0441" unicode="&#x441;" horiz-adv-x="596" 
d="M554 317h-78q-17 51 -62.5 84t-107.5 33q-81 0 -133 -54t-52 -133t52 -133.5t133 -54.5q61 0 107 33.5t63 86.5h78q-18 -84 -86.5 -138t-161.5 -54q-114 0 -187 75t-73 185t73 184.5t187 74.5q93 0 161.5 -53t86.5 -136z" />
    <glyph glyph-name="uni0442" unicode="&#x442;" horiz-adv-x="493" 
d="M467 493v-72h-183v-421h-75v421h-182v72h440z" />
    <glyph glyph-name="uni0443" unicode="&#x443;" horiz-adv-x="562" 
d="M291 50l170 443h76l-225 -584q-21 -56 -56.5 -82.5t-92.5 -26.5h-113v75h113q32 0 50.5 13t30.5 43l8 21l-229 541h83z" />
    <glyph glyph-name="uni0444" unicode="&#x444;" horiz-adv-x="761" 
d="M418 493h124q67 0 107.5 -40.5t40.5 -107.5v-196q0 -67 -40.5 -108t-107.5 -41h-124v-200h-75v200h-124q-67 0 -107.5 41t-40.5 108v196q0 67 40.5 107.5t107.5 40.5h124v177h75v-177zM226 73h117v348h-117q-37 0 -58.5 -22t-21.5 -59v-187q0 -37 21.5 -58.5t58.5 -21.5z
M615 153v187q0 37 -21.5 59t-58.5 22h-117v-348h117q37 0 58.5 21.5t21.5 58.5z" />
    <glyph glyph-name="uni0445" unicode="&#x445;" horiz-adv-x="540" 
d="M315 252l201 -252h-99l-150 191l-147 -191h-96l198 248l-195 245h98l146 -187l146 187h92z" />
    <glyph glyph-name="uni0446" unicode="&#x446;" horiz-adv-x="640" 
d="M614 72v-203h-74v131h-461v493h75v-421h301v421h75v-421h84z" />
    <glyph glyph-name="uni0447" unicode="&#x447;" horiz-adv-x="566" 
d="M412 254v239h75v-493h-75v183h-242q-57 0 -88 29.5t-31 85.5v195h75v-185q0 -25 15 -39.5t41 -14.5h230z" />
    <glyph glyph-name="uni0448" unicode="&#x448;" horiz-adv-x="824" 
d="M669 72v421h75v-493h-665v493h75v-421h221v421h75v-421h219z" />
    <glyph glyph-name="uni0449" unicode="&#x449;" horiz-adv-x="855" 
d="M828 72v-203h-74v131h-675v493h75v-421h221v421h75v-421h219v421h75v-421h84z" />
    <glyph glyph-name="uni044A" unicode="&#x44a;" horiz-adv-x="643" 
d="M444 322q68 -1 115 -47.5t47 -112.5q0 -68 -47 -115t-115 -47h-271v421h-146v72h221v-171h196zM444 72q36 1 61.5 27t25.5 63q0 36 -25.5 61.5t-61.5 25.5h-196v-177h196z" />
    <glyph glyph-name="uni044B" unicode="&#x44b;" horiz-adv-x="723" 
d="M154 322h180q67 -1 114 -47.5t47 -112.5q0 -67 -47 -114.5t-114 -47.5h-255v493h75v-171zM569 0v493h75v-493h-75zM154 72h180q36 1 61 27t25 63q0 36 -25.5 61.5t-60.5 25.5h-180v-177z" />
    <glyph glyph-name="uni044C" unicode="&#x44c;" horiz-adv-x="554" 
d="M154 322h201q68 -1 115 -47.5t47 -112.5q0 -68 -47.5 -115t-114.5 -47h-276v493h75v-171zM154 72h201q36 1 61.5 27t25.5 63q0 36 -25.5 61.5t-61.5 25.5h-201v-177z" />
    <glyph glyph-name="uni044D" unicode="&#x44d;" horiz-adv-x="595" 
d="M291 506q114 0 187 -74.5t73 -184.5t-73 -185t-187 -75q-93 0 -161.5 54t-86.5 138h78q17 -53 63 -86.5t107 -33.5q72 0 121.5 43.5t60.5 111.5h-225v71h225q-12 66 -61.5 107.5t-120.5 41.5q-62 0 -107.5 -33t-62.5 -84h-78q18 83 86.5 136t161.5 53z" />
    <glyph glyph-name="uni044E" unicode="&#x44e;" horiz-adv-x="809" 
d="M512 506q110 0 180.5 -74.5t70.5 -184.5t-70.5 -185t-180.5 -75q-104 0 -173.5 65.5t-79.5 165.5h-105v-218h-75v493h75v-203h107q14 95 82.5 155.5t168.5 60.5zM512 59q77 0 126.5 54.5t49.5 133.5t-49 133t-127 54q-79 0 -129 -54t-50 -133q0 -80 50 -134t129 -54z" />
    <glyph glyph-name="uni044F" unicode="&#x44f;" horiz-adv-x="591" 
d="M512 493v-493h-75v183h-238q-25 0 -40 -14t-15 -38v-131h-75v141q0 76 60 94v3q-61 34 -61 110q0 60 44 102.5t117 42.5h283zM232 255h205v166h-208q-38 0 -62 -24.5t-24 -58.5q0 -35 25.5 -59t63.5 -24z" />
    <glyph glyph-name="uni0451" unicode="&#x451;" horiz-adv-x="599" 
d="M175 720h73v-142h-73v142zM352 720h73v-142h-73v142zM301 506q116 0 187 -81t64 -205h-427q5 -69 55 -115t125 -46q55 0 98 25.5t62 68.5h78q-25 -76 -90 -121t-151 -45q-114 0 -185 75t-71 184t72 184.5t183 75.5zM299 434q-69 0 -116.5 -41.5t-55.5 -105.5h345
q-10 65 -57 106t-116 41z" />
    <glyph glyph-name="uni0454" unicode="&#x454;" horiz-adv-x="594" 
d="M308 59q61 0 107 33.5t62 86.5h79q-18 -84 -86.5 -138t-162.5 -54q-114 0 -186.5 75t-72.5 185t72.5 184.5t186.5 74.5q94 0 162.5 -53t86.5 -136h-79q-16 51 -62 84t-107 33q-71 0 -120.5 -41.5t-61.5 -107.5h225v-71h-225q10 -68 59.5 -111.5t122.5 -43.5z" />
    <glyph glyph-name="uni0456" unicode="&#x456;" horiz-adv-x="234" 
d="M79 720h75v-142h-75v142zM79 493h75v-493h-75v493z" />
    <glyph glyph-name="uni0457" unicode="&#x457;" horiz-adv-x="234" 
d="M-8 720h73v-142h-73v142zM169 720h73v-142h-73v142zM79 493h75v-493h-75v493z" />
    <glyph glyph-name="uni045E" unicode="&#x45e;" horiz-adv-x="562" 
d="M347 578h-139q-34 0 -55.5 22t-21.5 56v64h65v-54q0 -13 8.5 -21.5t21.5 -8.5h103q13 0 21.5 8.5t8.5 21.5v54h65v-64q0 -34 -21.5 -56t-55.5 -22zM291 50l170 443h76l-225 -584q-21 -56 -56.5 -82.5t-92.5 -26.5h-113v75h113q32 0 50.5 13t30.5 43l8 21l-229 541h83z
" />
    <glyph glyph-name="uni0490" unicode="&#x490;" horiz-adv-x="595" 
d="M479 670v133h73v-208h-383v-595h-77v670h387z" />
    <glyph glyph-name="uni0491" unicode="&#x491;" horiz-adv-x="486" 
d="M386 493v148h74v-220h-304v-421h-75v493h305z" />
    <glyph glyph-name="Wgrave" unicode="&#x1e80;" horiz-adv-x="1010" 
d="M486 832l95 -112h-82l-97 112h84zM711 122l172 548h83l-212 -670h-83l-166 544l-166 -544h-83l-212 670h84l171 -549l165 549h82z" />
    <glyph glyph-name="wgrave" unicode="&#x1e81;" horiz-adv-x="789" 
d="M376 720l95 -142h-82l-97 142h84zM554 105l128 388h80l-169 -493h-75l-124 387l-122 -387h-76l-170 493h81l128 -386l122 386h75z" />
    <glyph glyph-name="Wacute" unicode="&#x1e82;" horiz-adv-x="1010" 
d="M524 832h85l-98 -112h-82zM711 122l172 548h83l-212 -670h-83l-166 544l-166 -544h-83l-212 670h84l171 -549l165 549h82z" />
    <glyph glyph-name="wacute" unicode="&#x1e83;" horiz-adv-x="789" 
d="M409 720h84l-97 -142h-82zM554 105l128 388h80l-169 -493h-75l-124 387l-122 -387h-76l-170 493h81l128 -386l122 386h75z" />
    <glyph glyph-name="Wdieresis" unicode="&#x1e84;" horiz-adv-x="1010" 
d="M380 832h73v-112h-73v112zM557 832h73v-112h-73v112zM711 122l172 548h83l-212 -670h-83l-166 544l-166 -544h-83l-212 670h84l171 -549l165 549h82z" />
    <glyph glyph-name="wdieresis" unicode="&#x1e85;" horiz-adv-x="789" 
d="M269 720h73v-142h-73v142zM446 720h73v-142h-73v142zM554 105l128 388h80l-169 -493h-75l-124 387l-122 -387h-76l-170 493h81l128 -386l122 386h75z" />
    <glyph glyph-name="uni1E9E" unicode="&#x1e9e;" horiz-adv-x="699" 
d="M429 404h3q95 0 154 -59.5t59 -144.5t-59.5 -142.5t-154.5 -57.5h-101v73h100q64 0 101 37t37 91t-37.5 91t-101.5 37h-99v52l144 214h-242q-29 0 -44.5 -16t-15.5 -43v-536h-77v542q0 59 34.5 93.5t94.5 34.5h351v-51z" />
    <glyph glyph-name="Ygrave" unicode="&#x1ef2;" horiz-adv-x="714" 
d="M338 832l95 -112h-82l-97 112h84zM585 670h92l-282 -379v-291h-77v288l-281 382h94l227 -310z" />
    <glyph glyph-name="ygrave" unicode="&#x1ef3;" horiz-adv-x="562" 
d="M266 720l95 -142h-82l-97 142h84zM291 50l170 443h76l-225 -584q-21 -56 -56.5 -82.5t-92.5 -26.5h-113v75h113q32 0 50.5 13t30.5 43l8 21l-229 541h83z" />
    <glyph glyph-name="endash" unicode="&#x2013;" horiz-adv-x="748" 
d="M79 237v73h589v-73h-589z" />
    <glyph glyph-name="emdash" unicode="&#x2014;" horiz-adv-x="871" 
d="M79 238v70h713v-70h-713z" />
    <glyph glyph-name="quoteleft" unicode="&#x2018;" horiz-adv-x="278" 
d="M140 469h-89l90 251h73z" />
    <glyph glyph-name="quoteright" unicode="&#x2019;" horiz-adv-x="280" 
d="M137 720h88l-89 -251h-73z" />
    <glyph glyph-name="quotesinglbase" unicode="&#x201a;" horiz-adv-x="309" 
d="M149 120h89l-90 -251h-73z" />
    <glyph glyph-name="quotedblleft" unicode="&#x201c;" horiz-adv-x="450" 
d="M151 469h-89l90 252h73zM321 469h-89l90 252h73z" />
    <glyph glyph-name="quotedblright" unicode="&#x201d;" horiz-adv-x="450" 
d="M129 720h89l-90 -251h-73zM299 720h89l-90 -251h-73z" />
    <glyph glyph-name="quotedblbase" unicode="&#x201e;" horiz-adv-x="455" 
d="M134 120h88l-89 -251h-73zM310 120h89l-90 -251h-72z" />
    <glyph glyph-name="dagger" unicode="&#x2020;" horiz-adv-x="517" 
d="M294 493h158v-66h-158v-427h-70v427h-159v66h159v177h70v-177z" />
    <glyph glyph-name="daggerdbl" unicode="&#x2021;" horiz-adv-x="543" 
d="M465 493v-66h-158v-177h158v-67h-158v-183h-70v183h-159v67h159v177h-159v66h159v177h70v-177h158z" />
    <glyph glyph-name="bullet" unicode="&#x2022;" horiz-adv-x="414" 
d="M209 378q48 0 83 -35.5t35 -85.5q0 -48 -35 -83t-83 -35q-51 0 -86.5 35t-35.5 83q0 50 35.5 85.5t86.5 35.5z" />
    <glyph glyph-name="ellipsis" unicode="&#x2026;" horiz-adv-x="865" 
d="M97 100h95v-100h-95v100zM385 100h95v-100h-95v100zM674 100h95v-100h-95v100z" />
    <glyph glyph-name="perthousand" unicode="&#x2030;" horiz-adv-x="1224" 
d="M232 362q-69 0 -115.5 46.5t-46.5 115.5q0 67 47 114t115 47t114.5 -47t46.5 -114q0 -69 -46.5 -115.5t-114.5 -46.5zM155 0l470 670h72l-470 -670h-72zM232 425q41 0 69.5 29t28.5 70q0 39 -29 68t-69 29t-68.5 -29t-28.5 -68q0 -41 28.5 -70t68.5 -29zM618 -15
q-69 0 -115.5 47t-46.5 115q0 67 46.5 114t115.5 47q68 0 114.5 -47t46.5 -114q0 -68 -46.5 -115t-114.5 -47zM994 -15q-70 0 -116.5 46.5t-46.5 115.5q0 67 47 114t116 47q67 0 113.5 -47t46.5 -114q0 -68 -46.5 -115t-113.5 -47zM618 49q41 0 70 28.5t29 69.5
q0 40 -29.5 69t-69.5 29t-68.5 -29t-28.5 -69q0 -41 28 -69.5t69 -28.5zM994 49q41 0 69.5 28.5t28.5 69.5q0 40 -29 69t-69 29t-69 -29t-29 -69q0 -41 28.5 -69.5t69.5 -28.5z" />
    <glyph glyph-name="guilsinglleft" unicode="&#x2039;" horiz-adv-x="313" 
d="M199 424h82l-156 -186l156 -186h-82l-153 186z" />
    <glyph glyph-name="guilsinglright" unicode="&#x203a;" horiz-adv-x="313" 
d="M188 238l-156 186h82l153 -186l-153 -186h-82z" />
    <glyph glyph-name="fraction" unicode="&#x2044;" horiz-adv-x="338" 
d="M-100 0l470 670h68l-470 -670h-68z" />
    <glyph glyph-name="uni2070" unicode="&#x2070;" horiz-adv-x="406" 
d="M42 426v98q0 67 47 111.5t114 44.5t114 -44.5t47 -111.5v-98q0 -67 -47 -111.5t-114 -44.5t-114 44.5t-47 111.5zM102 524v-98q0 -42 29 -69t72 -27t72 27t29 69v98q0 42 -29 69t-72 27t-72 -27t-29 -69z" />
    <glyph glyph-name="uni2074" unicode="&#x2074;" horiz-adv-x="376" 
d="M294 432h61v-57h-61v-99h-61v99h-217v45l193 250h85v-238zM233 614l-136 -182h136v182z" />
    <glyph glyph-name="uni2075" unicode="&#x2075;" horiz-adv-x="366" 
d="M108 511h101q56 0 91.5 -34t35.5 -81q0 -50 -35.5 -85t-91.5 -35h-159v60h157q29 0 48.5 17.5t19.5 41.5q0 23 -19.5 41t-48.5 18h-160l24 216h235v-60h-187z" />
    <glyph glyph-name="uni2076" unicode="&#x2076;" horiz-adv-x="382" 
d="M168 670h140v-60h-139q-31 0 -36 -27l-21 -89h2q39 30 100 30q62 0 102 -34.5t40 -90.5q0 -58 -46 -94t-115 -36q-54 0 -95 23.5t-56 62.5q-10 31 -5 66q8 50 37 179q8 32 32 51t60 19zM96 399q0 -33 27 -53t71 -20q45 0 73.5 20.5t28.5 52.5t-27.5 52t-72.5 20
q-44 0 -72 -20t-28 -52z" />
    <glyph glyph-name="uni2077" unicode="&#x2077;" horiz-adv-x="314" 
d="M13 610v60h284v-45l-170 -349h-65l167 334h-216z" />
    <glyph glyph-name="uni2078" unicode="&#x2078;" horiz-adv-x="398" 
d="M287 483q73 -29 73 -95q0 -54 -46 -86t-115 -32t-115.5 32.5t-46.5 85.5q0 66 74 95q-64 29 -64 87q0 50 43.5 80t108.5 30q64 0 108 -30t44 -80q0 -58 -64 -87zM199 623q-38 0 -64.5 -15.5t-26.5 -41.5t26 -41t65 -15t65.5 15.5t26.5 40.5q0 26 -26 41.5t-66 15.5z
M199 326q43 0 72.5 18t29.5 47t-29.5 47t-72.5 18t-72 -18t-29 -47q0 -28 29 -46.5t72 -18.5z" />
    <glyph glyph-name="uni2079" unicode="&#x2079;" horiz-adv-x="382" 
d="M214 279h-140v59h136q34 0 39 27l21 90h-2q-40 -31 -100 -31q-62 0 -102 35t-40 91q0 58 46 94t115 36q55 0 96 -23.5t55 -63.5q10 -29 5 -66q-8 -49 -37 -178q-8 -32 -32 -51t-60 -19zM286 550q0 33 -27 52.5t-71 19.5q-45 0 -73.5 -20t-28.5 -53q0 -31 27.5 -51
t72.5 -20q44 0 72 19.5t28 52.5z" />
    <glyph glyph-name="uni2080" unicode="&#x2080;" horiz-adv-x="406" 
d="M42 149v98q0 67 46.5 111t114.5 44t114.5 -44t46.5 -111v-98q0 -67 -47 -111t-114 -44q-68 0 -114.5 44t-46.5 111zM102 247v-98q0 -42 29 -69t72 -27t72 27t29 69v98q0 42 -29 69t-72 27t-72 -27t-29 -69z" />
    <glyph glyph-name="uni2081" unicode="&#x2081;" horiz-adv-x="241" 
d="M177 394v-394h-60v334h-105v60h165z" />
    <glyph glyph-name="uni2082" unicode="&#x2082;" horiz-adv-x="345" 
d="M264 205l-148 -145h194v-60h-285v48l201 198q19 19 19 44q0 19 -16.5 31.5t-39.5 12.5h-159v60h160q51 0 83.5 -29.5t32.5 -73.5q0 -46 -42 -86z" />
    <glyph glyph-name="uni2083" unicode="&#x2083;" horiz-adv-x="352" 
d="M188 229h12q49 0 85 -31.5t36 -79.5q0 -49 -36.5 -83.5t-87.5 -34.5h-169v60h166q27 0 47 17.5t20 41.5q0 23 -20 40.5t-47 17.5h-88v40l112 117h-190v60h275v-45z" />
    <glyph glyph-name="uni2084" unicode="&#x2084;" horiz-adv-x="376" 
d="M294 156h61v-57h-61v-99h-61v99h-217v45l193 250h85v-238zM233 338l-136 -182h136v182z" />
    <glyph glyph-name="uni2085" unicode="&#x2085;" horiz-adv-x="366" 
d="M108 234h101q56 0 91.5 -33.5t35.5 -80.5q0 -50 -35.5 -85t-91.5 -35h-159v60h157q29 0 48.5 17.5t19.5 41.5q0 23 -19.5 41t-48.5 18h-160l24 216h235v-60h-187z" />
    <glyph glyph-name="uni2086" unicode="&#x2086;" horiz-adv-x="379" 
d="M169 394h136v-59h-139q-30 0 -36 -27l-21 -90h2q42 31 100 31q62 0 102 -35t40 -91q0 -58 -46 -94t-114 -36q-55 0 -95.5 23.5t-55.5 63.5q-10 27 -4 66q3 18 39 178q7 32 31.5 51t60.5 19zM94 123q0 -33 27 -52.5t71 -19.5q45 0 73 20t28 53q0 31 -27.5 51t-71.5 20
q-45 0 -72.5 -19.5t-27.5 -52.5z" />
    <glyph glyph-name="uni2087" unicode="&#x2087;" horiz-adv-x="314" 
d="M13 334v60h284v-45l-170 -349h-65l167 334h-216z" />
    <glyph glyph-name="uni2088" unicode="&#x2088;" horiz-adv-x="398" 
d="M287 206q73 -29 73 -95q0 -54 -46 -86t-115 -32t-115.5 32.5t-46.5 85.5q0 66 74 95q-64 29 -64 87q0 50 43.5 80t108.5 30q64 0 108 -30t44 -80q0 -58 -64 -87zM199 346q-38 0 -64.5 -15.5t-26.5 -41.5t26 -41t65 -15t65.5 15.5t26.5 40.5q0 26 -26 41.5t-66 15.5z
M199 49q43 0 72.5 18t29.5 47t-29.5 47t-72.5 18t-72 -18t-29 -47q0 -28 29 -46.5t72 -18.5z" />
    <glyph glyph-name="uni2089" unicode="&#x2089;" horiz-adv-x="379" 
d="M210 0h-136v60h139q31 0 36 27l21 89h-2q-39 -30 -100 -30q-62 0 -102 34.5t-40 90.5q0 58 46 94t115 36q54 0 94.5 -23.5t55.5 -62.5q10 -26 4 -66q-3 -21 -39 -179q-7 -32 -31.5 -51t-60.5 -19zM286 271q0 33 -27 53t-71 20q-45 0 -73.5 -20.5t-28.5 -52.5t27.5 -52
t72.5 -20q44 0 72 20t28 52z" />
    <glyph glyph-name="Euro" unicode="&#x20ac;" horiz-adv-x="696" 
d="M492 75h123v-75h-119q-121 0 -206 61t-116 163h-89v69h75q-2 28 -2 42q0 23 3 46h-76v69h91q32 101 116 160.5t204 59.5h118v-75h-122q-84 0 -144.5 -38.5t-88.5 -106.5h270v-69h-289q-3 -22 -3 -46q0 -21 3 -42h289v-69h-272q28 -69 88.5 -109t146.5 -40z" />
    <glyph glyph-name="uni20B4" unicode="&#x20b4;" horiz-adv-x="728" 
d="M632 379h-536v71h332q46 0 71 23t23 54q-1 29 -25 49.5t-69 20.5h-281v73h288q82 0 124.5 -35.5t42.5 -89.5q0 -29 -16.5 -54.5t-39.5 -38.5v-2h86v-71zM96 291h536v-71h-332q-43 0 -68 -22t-26 -51q-1 -30 23.5 -52t70.5 -22h281v-73h-287q-82 0 -125 35.5t-43 89.5
q0 28 16.5 53.5t39.5 39.5v2h-86v71z" />
    <glyph glyph-name="uni20BD" unicode="&#x20bd;" horiz-adv-x="749" 
d="M458 293h-193v-90h310v-69h-310v-134h-77v134h-102v69h102v90h-102v71h102v306h271q57 0 102.5 -21t69 -54t34.5 -73t0 -80.5t-34.5 -73.5t-69 -54t-103.5 -21zM457 595h-192v-231h192q64 0 100 36t36 79.5t-36.5 79.5t-99.5 36z" />
    <glyph glyph-name="uni2116" unicode="&#x2116;" horiz-adv-x="1141" 
d="M908 373q-65 0 -110.5 45t-45.5 110t45.5 110t110.5 45q64 0 108 -45t45 -110q0 -65 -44.5 -110t-108.5 -45zM214 670l401 -537v537h76v-670h-76l-419 566v-566h-77v670h95zM908 615q-38 0 -63 -25t-24 -62q0 -36 25 -61.5t62 -25.5q35 0 60.5 25.5t25.5 61.5
q0 37 -25 62t-61 25zM1051 254h-289v68h289v-68z" />
    <glyph glyph-name="trademark" unicode="&#x2122;" horiz-adv-x="926" 
d="M205 622h-137v48h323v-48h-136v-297h-50v297zM807 670v-345h-51v282l-125 -282h-35l-124 281v-281h-51v345h77l116 -263l118 263h75z" />
    <glyph glyph-name="oneeighth" unicode="&#x215b;" horiz-adv-x="877" 
d="M202 276h-60v334h-105v60h165v-394zM118 0l470 670h68l-470 -670h-68zM745 206q74 -29 74 -95q0 -54 -46.5 -86t-115.5 -32q-68 0 -114.5 32.5t-46.5 85.5q0 66 73 95q-63 29 -63 87q0 50 43 80t108 30q64 0 108 -30t44 -80q0 -58 -64 -87zM657 346q-38 0 -64 -15.5
t-26 -41.5t25.5 -41t64.5 -15q40 0 66.5 15t26.5 41t-26.5 41.5t-66.5 15.5zM657 49q44 0 73.5 18t29.5 47t-29.5 47t-73.5 18q-43 0 -71.5 -18t-28.5 -47q0 -28 29 -46.5t71 -18.5z" />
    <glyph glyph-name="threeeighths" unicode="&#x215c;" horiz-adv-x="948" 
d="M347 394q0 -49 -36.5 -83.5t-87.5 -34.5h-169v60h166q27 0 47 18t20 41t-20 40.5t-47 17.5h-88v40l112 117h-190v60h275v-45l-115 -120h12q49 0 85 -31.5t36 -79.5zM189 0l470 670h68l-470 -670h-68zM816 206q74 -29 74 -95q0 -54 -46.5 -86t-115.5 -32
q-68 0 -114.5 32.5t-46.5 85.5q0 66 73 95q-63 29 -63 87q0 50 43 80t108 30q64 0 108 -30t44 -80q0 -58 -64 -87zM728 346q-38 0 -64 -15.5t-26 -41.5t25.5 -41t64.5 -15q40 0 66.5 15t26.5 41t-26.5 41.5t-66.5 15.5zM728 49q44 0 73.5 18t29.5 47t-29.5 47t-73.5 18
q-43 0 -71.5 -18t-28.5 -47q0 -28 29 -46.5t71 -18.5z" />
    <glyph glyph-name="fiveeighths" unicode="&#x215d;" horiz-adv-x="943" 
d="M72 336h157q28 0 47.5 17.5t19.5 41.5q0 23 -19.5 41t-47.5 18h-161l24 216h236v-60h-188l-11 -99h101q56 0 92 -34t36 -81q0 -50 -36 -85t-92 -35h-158v60zM181 0l470 670h68l-470 -670h-68zM808 206q74 -29 74 -95q0 -54 -46.5 -86t-115.5 -32q-68 0 -114.5 32.5
t-46.5 85.5q0 66 73 95q-63 29 -63 87q0 50 43 80t108 30q64 0 108 -30t44 -80q0 -58 -64 -87zM720 346q-38 0 -64 -15.5t-26 -41.5t25.5 -41t64.5 -15q40 0 66.5 15t26.5 41t-26.5 41.5t-66.5 15.5zM720 49q44 0 73.5 18t29.5 47t-29.5 47t-73.5 18q-43 0 -71.5 -18
t-28.5 -47q0 -28 29 -46.5t71 -18.5z" />
    <glyph glyph-name="arrowleft" unicode="&#x2190;" horiz-adv-x="673" 
d="M577 -15l-500 288l500 290v-578z" />
    <glyph glyph-name="arrowup" unicode="&#x2191;" horiz-adv-x="743" 
d="M77 0l294 510l295 -510h-589z" />
    <glyph glyph-name="arrowright" unicode="&#x2192;" horiz-adv-x="673" 
d="M97 563l500 -290l-500 -288v578z" />
    <glyph glyph-name="arrowdown" unicode="&#x2193;" horiz-adv-x="731" 
d="M655 493l-290 -500l-288 500h578z" />
    <glyph glyph-name="minus" unicode="&#x2212;" horiz-adv-x="704" 
d="M119 285v71h466v-71h-466z" />
    <glyph glyph-name="uni2460" unicode="&#x2460;" horiz-adv-x="823" 
d="M412 -13q-144 0 -246.5 102t-102.5 246t102.5 246t246.5 102q143 0 245 -102t102 -246t-102 -246t-245 -102zM412 36q123 0 210.5 88t87.5 211t-87.5 211t-210.5 88q-124 0 -212 -88t-88 -211t88 -211t212 -88zM306 532v-60h104v-334h61v394h-165z" />
    <glyph glyph-name="uni2461" unicode="&#x2461;" horiz-adv-x="823" 
d="M412 -13q-144 0 -246.5 102t-102.5 246t102.5 246t246.5 102q143 0 245 -102t102 -246t-102 -246t-245 -102zM412 36q123 0 210.5 88t87.5 211t-87.5 211t-210.5 88q-124 0 -212 -88t-88 -211t88 -211t212 -88zM274 186v-48h285v60h-193l147 145q42 40 42 86
q0 44 -32.5 73.5t-83.5 29.5h-160v-60h159q23 0 39.5 -12.5t16.5 -31.5q0 -25 -19 -44z" />
    <glyph glyph-name="uni2462" unicode="&#x2462;" horiz-adv-x="823" 
d="M412 -13q-144 0 -246.5 102t-102.5 246t102.5 246t246.5 102q143 0 245 -102t102 -246t-102 -246t-245 -102zM412 36q123 0 210.5 88t87.5 211t-87.5 211t-210.5 88q-124 0 -212 -88t-88 -211t88 -211t212 -88zM274 198v-60h169q52 0 88 34.5t36 83.5q0 48 -35.5 79.5
t-85.5 31.5h-12l115 120v45h-275v-60h191l-113 -117v-40h88q27 0 47 -17.5t20 -40.5q0 -24 -20 -41.5t-47 -17.5h-166z" />
    <glyph glyph-name="uni2463" unicode="&#x2463;" horiz-adv-x="823" 
d="M412 -13q-144 0 -246.5 102t-102.5 246t102.5 246t246.5 102q143 0 245 -102t102 -246t-102 -246t-245 -102zM412 36q123 0 210.5 88t87.5 211t-87.5 211t-210.5 88q-124 0 -212 -88t-88 -211t88 -211t212 -88zM224 282v-44h217v-100h61v100h61v56h-61v238h-85zM441 294
h-138l138 181v-181z" />
    <glyph glyph-name="uni2464" unicode="&#x2464;" horiz-adv-x="823" 
d="M412 -13q-144 0 -246.5 102t-102.5 246t102.5 246t246.5 102q143 0 245 -102t102 -246t-102 -246t-245 -102zM412 36q123 0 210.5 88t87.5 211t-87.5 211t-210.5 88q-124 0 -212 -88t-88 -211t88 -211t212 -88zM303 532l-24 -216h161q29 0 48 -18t19 -41q0 -24 -19 -41.5
t-48 -17.5h-157v-60h158q56 0 92 35t36 85q0 47 -36 81t-92 34h-101l11 99h188v60h-236z" />
    <glyph glyph-name="uni2465" unicode="&#x2465;" horiz-adv-x="823" 
d="M412 -13q-144 0 -246.5 102t-102.5 246t102.5 246t246.5 102q143 0 245 -102t102 -246t-102 -246t-245 -102zM412 36q123 0 210.5 88t87.5 211t-87.5 211t-210.5 88q-124 0 -212 -88t-88 -211t88 -211t212 -88zM522 472v60h-136q-36 0 -60.5 -19t-31.5 -51
q-36 -158 -39 -179q-6 -40 4 -66q15 -39 55.5 -62.5t94.5 -23.5q69 0 115 36t46 94q0 56 -40 90.5t-102 34.5q-61 0 -100 -30h-2l21 89q5 27 36 27h139zM310 261q0 32 28 52t72 20q45 0 72.5 -20t27.5 -52t-28.5 -52.5t-73.5 -20.5q-44 0 -71 20t-27 53z" />
    <glyph glyph-name="uni2466" unicode="&#x2466;" horiz-adv-x="823" 
d="M412 -13q-144 0 -246.5 102t-102.5 246t102.5 246t246.5 102q143 0 245 -102t102 -246t-102 -246t-245 -102zM412 36q123 0 210.5 88t87.5 211t-87.5 211t-210.5 88q-124 0 -212 -88t-88 -211t88 -211t212 -88zM272 532v-60h215l-166 -334h65l170 349v45h-284z" />
    <glyph glyph-name="uni2467" unicode="&#x2467;" horiz-adv-x="823" 
d="M412 -13q-144 0 -246.5 102t-102.5 246t102.5 246t246.5 102q143 0 245 -102t102 -246t-102 -246t-245 -102zM412 36q123 0 210.5 88t87.5 211t-87.5 211t-210.5 88q-124 0 -212 -88t-88 -211t88 -211t212 -88zM250 249q0 66 75 95q-65 27 -65 87q0 49 43 79t108 30
q64 0 108 -29.5t44 -79.5q0 -59 -65 -87q75 -29 75 -95q0 -54 -46.5 -86t-115.5 -32q-68 0 -114.5 32.5t-46.5 85.5zM320 427q0 -26 25.5 -41t65.5 -15q39 0 65.5 15t26.5 41t-26 41.5t-66 15.5q-38 0 -64.5 -15.5t-26.5 -41.5zM310 252q0 -28 29 -46.5t72 -18.5q44 0 73 18
t29 47t-29.5 46.5t-72.5 17.5t-72 -17.5t-29 -46.5z" />
    <glyph glyph-name="uni2468" unicode="&#x2468;" horiz-adv-x="823" 
d="M412 -13q-144 0 -246.5 102t-102.5 246t102.5 246t246.5 102q143 0 245 -102t102 -246t-102 -246t-245 -102zM412 36q123 0 210.5 88t87.5 211t-87.5 211t-210.5 88q-124 0 -212 -88t-88 -211t88 -211t212 -88zM303 200v-60h136q36 0 60.5 19t31.5 51q36 158 39 179
q6 40 -4 66q-15 39 -55.5 62.5t-94.5 23.5q-69 0 -115 -36t-46 -94q0 -56 40 -90.5t102 -34.5q61 0 100 30h2l-21 -89q-4 -27 -36 -27h-139zM515 411q0 -32 -28 -52t-72 -20q-45 0 -72.5 20t-27.5 52t28.5 52.5t73.5 20.5q44 0 71 -20t27 -53z" />
    <glyph glyph-name="uni24EA" unicode="&#x24ea;" horiz-adv-x="823" 
d="M412 -13q-144 0 -246.5 102t-102.5 246t102.5 246t246.5 102q143 0 245 -102t102 -246t-102 -246t-245 -102zM412 36q123 0 210.5 88t87.5 211t-87.5 211t-210.5 88q-124 0 -212 -88t-88 -211t88 -211t212 -88zM251 384v-98q0 -67 46.5 -111t114.5 -44q67 0 114 44
t47 111v98q0 67 -46.5 111t-114.5 44t-114.5 -44t-46.5 -111zM311 286v98q0 42 28.5 69t71.5 27t72 -27t29 -69v-98q0 -42 -29 -69t-72 -27t-71.5 27t-28.5 69z" />
    <glyph glyph-name="uni24FF" unicode="&#x24ff;" horiz-adv-x="823" 
d="M412 -13q-144 0 -246.5 102t-102.5 246t102.5 246t246.5 102q143 0 245 -102t102 -246t-102 -246t-245 -102zM251 384v-98q0 -67 46.5 -111t114.5 -44q67 0 114 44t47 111v98q0 67 -46.5 111t-114.5 44t-114.5 -44t-46.5 -111zM311 286v98q0 42 28.5 69t71.5 27t72 -27
t29 -69v-98q0 -42 -29 -69t-72 -27t-71.5 27t-28.5 69z" />
    <glyph glyph-name="uni2776" unicode="&#x2776;" horiz-adv-x="823" 
d="M412 -13q-144 0 -246.5 102t-102.5 246t102.5 246t246.5 102q143 0 245 -102t102 -246t-102 -246t-245 -102zM308 532v-60h104v-334h60v394h-164z" />
    <glyph glyph-name="uni2777" unicode="&#x2777;" horiz-adv-x="823" 
d="M412 -13q-144 0 -246.5 102t-102.5 246t102.5 246t246.5 102q143 0 245 -102t102 -246t-102 -246t-245 -102zM274 186v-48h285v60h-193l147 145q42 40 42 86q0 44 -32.5 73.5t-83.5 29.5h-160v-60h159q23 0 39.5 -12.5t16.5 -31.5q0 -25 -19 -44z" />
    <glyph glyph-name="uni2778" unicode="&#x2778;" horiz-adv-x="823" 
d="M412 -13q-144 0 -246.5 102t-102.5 246t102.5 246t246.5 102q143 0 245 -102t102 -246t-102 -246t-245 -102zM274 198v-60h169q52 0 88 34.5t36 83.5q0 48 -35.5 79.5t-85.5 31.5h-12l115 120v45h-275v-60h192l-114 -117v-40h88q27 0 47 -17.5t20 -40.5q0 -24 -20 -41.5
t-47 -17.5h-166z" />
    <glyph glyph-name="uni2779" unicode="&#x2779;" horiz-adv-x="823" 
d="M412 -13q-144 0 -246.5 102t-102.5 246t102.5 246t246.5 102q143 0 245 -102t102 -246t-102 -246t-245 -102zM224 282v-44h217v-100h61v100h61v56h-61v238h-85zM441 294h-138l138 181v-181z" />
    <glyph glyph-name="uni277A" unicode="&#x277a;" horiz-adv-x="823" 
d="M412 -13q-144 0 -246.5 102t-102.5 246t102.5 246t246.5 102q143 0 245 -102t102 -246t-102 -246t-245 -102zM303 532l-24 -216h161q29 0 48 -18t19 -41q0 -24 -19 -41.5t-48 -17.5h-157v-60h158q56 0 92 35t36 85q0 47 -36 81t-92 34h-101l11 99h188v60h-236z" />
    <glyph glyph-name="uni277B" unicode="&#x277b;" horiz-adv-x="823" 
d="M412 -13q-144 0 -246.5 102t-102.5 246t102.5 246t246.5 102q143 0 245 -102t102 -246t-102 -246t-245 -102zM522 472v60h-136q-36 0 -60.5 -19t-31.5 -51q-36 -158 -39 -179q-6 -40 4 -66q15 -39 55.5 -62.5t94.5 -23.5q69 0 115 36t46 94q0 56 -40 90.5t-102 34.5
q-61 0 -100 -30h-2l21 89q5 27 36 27h139zM310 261q0 32 28 52t72 20q45 0 72.5 -20t27.5 -52t-28.5 -52.5t-73.5 -20.5q-44 0 -71 20t-27 53z" />
    <glyph glyph-name="uni277C" unicode="&#x277c;" horiz-adv-x="823" 
d="M412 -13q-144 0 -246.5 102t-102.5 246t102.5 246t246.5 102q143 0 245 -102t102 -246t-102 -246t-245 -102zM272 532v-60h215l-166 -334h65l170 349v45h-284z" />
    <glyph glyph-name="uni277D" unicode="&#x277d;" horiz-adv-x="823" 
d="M412 -13q-144 0 -246.5 102t-102.5 246t102.5 246t246.5 102q143 0 245 -102t102 -246t-102 -246t-245 -102zM250 249q0 -53 46.5 -85.5t114.5 -32.5q69 0 115.5 32t46.5 86q0 66 -75 95q65 28 65 87q0 50 -44 79.5t-108 29.5q-65 0 -108 -30t-43 -79q0 -60 65 -87
q-75 -29 -75 -95zM320 427q0 26 26.5 41.5t64.5 15.5q40 0 66 -15.5t26 -41.5t-26.5 -41t-65.5 -15q-40 0 -65.5 15t-25.5 41zM310 252q0 29 29 46.5t72 17.5t72.5 -17.5t29.5 -46.5t-29 -47t-73 -18q-43 0 -72 18.5t-29 46.5z" />
    <glyph glyph-name="uni277E" unicode="&#x277e;" horiz-adv-x="823" 
d="M412 -13q-144 0 -246.5 102t-102.5 246t102.5 246t246.5 102q143 0 245 -102t102 -246t-102 -246t-245 -102zM303 200v-60h136q36 0 60.5 19t31.5 51q36 158 39 179q6 40 -4 66q-15 39 -55.5 62.5t-94.5 23.5q-69 0 -115 -36t-46 -94q0 -56 40 -90.5t102 -34.5
q61 0 100 30h2l-21 -89q-4 -27 -36 -27h-139zM515 411q0 -32 -28 -52t-72 -20q-45 0 -72.5 20t-27.5 52t28.5 52.5t73.5 20.5q44 0 71 -20t27 -53z" />
    <glyph glyph-name="I.alt" horiz-adv-x="517" 
d="M466 670v-75h-169v-520h169v-75h-415v75h170v520h-170v75h415z" />
    <glyph glyph-name="Iacute.alt" horiz-adv-x="517" 
d="M278 832h85l-98 -112h-82zM466 670v-75h-169v-520h169v-75h-415v75h170v520h-170v75h415z" />
    <glyph glyph-name="Icircumflex.alt" horiz-adv-x="517" 
d="M324 720l-66 73l-66 -73h-82l105 112h87l104 -112h-82zM466 670v-75h-169v-520h169v-75h-415v75h170v520h-170v75h415z" />
    <glyph glyph-name="Idieresis.alt" horiz-adv-x="517" 
d="M134 832h73v-112h-73v112zM311 832h73v-112h-73v112zM466 670v-75h-169v-520h169v-75h-415v75h170v520h-170v75h415z" />
    <glyph glyph-name="Idotaccent.alt" horiz-adv-x="517" 
d="M221 832h75v-112h-75v112zM466 670v-75h-169v-520h169v-75h-415v75h170v520h-170v75h415z" />
    <glyph glyph-name="Igrave.alt" horiz-adv-x="517" 
d="M240 832l95 -112h-82l-97 112h84zM466 670v-75h-169v-520h169v-75h-415v75h170v520h-170v75h415z" />
    <glyph glyph-name="Imacron.alt" horiz-adv-x="517" 
d="M119 786h280v-66h-280v66zM466 670v-75h-169v-520h169v-75h-415v75h170v520h-170v75h415z" />
    <glyph glyph-name="Iogonek.alt" horiz-adv-x="517" 
d="M466 670v-75h-169v-520h169v-75h-168l-79 -106q-8 -10 -2.5 -20.5t18.5 -10.5h63v-63h-85q-49 0 -68 38.5t11 76.5l65 85h-170v75h170v520h-170v75h415z" />
    <glyph glyph-name="K.alt" horiz-adv-x="716" 
d="M668 0h-96l-237 307h-159v-307h-77v670h77v-288h156l235 288h93l-264 -321z" />
    <glyph glyph-name="uni0136.alt" horiz-adv-x="716" 
d="M660 670l-264 -321l272 -349h-96l-237 307h-159v-307h-77v670h77v-288h156l235 288h93zM336 -200h-82l95 142h84z" />
    <glyph glyph-name="R.alt" horiz-adv-x="738" 
d="M676 0h-90l-157 268h-253v-268h-77v670h339q63 0 110.5 -25t72 -63.5t31 -85.5t-6.5 -90t-48.5 -78.5t-87.5 -50.5zM436 595h-260v-253h260q67 0 104.5 39.5t37.5 87t-38 87t-104 39.5z" />
    <glyph glyph-name="Racute.alt" horiz-adv-x="738" 
d="M376 832h85l-98 -112h-82zM676 0h-90l-157 268h-253v-268h-77v670h339q63 0 110.5 -25t72 -63.5t31 -85.5t-6.5 -90t-48.5 -78.5t-87.5 -50.5zM436 595h-260v-253h260q67 0 104.5 39.5t37.5 87t-38 87t-104 39.5z" />
    <glyph glyph-name="Rcaron.alt" horiz-adv-x="738" 
d="M315 720l-105 112h83l66 -73l65 73h83l-105 -112h-87zM676 0h-90l-157 268h-253v-268h-77v670h339q63 0 110.5 -25t72 -63.5t31 -85.5t-6.5 -90t-48.5 -78.5t-87.5 -50.5zM436 595h-260v-253h260q67 0 104.5 39.5t37.5 87t-38 87t-104 39.5z" />
    <glyph glyph-name="uni0156.alt" horiz-adv-x="738" 
d="M509 277l167 -277h-90l-157 268h-253v-268h-77v670h339q63 0 110.5 -25t72 -63.5t31 -85.5t-6.5 -90t-48.5 -78.5t-87.5 -50.5zM436 595h-260v-253h260q67 0 104.5 39.5t37.5 87t-38 87t-104 39.5zM343 -200h-82l95 142h84z" />
    <glyph glyph-name="i.loclTRK" horiz-adv-x="234" 
d="M79 720h75v-142h-75v142zM79 493h75v-493h-75v493z" />
    <glyph glyph-name="k.alt" horiz-adv-x="552" 
d="M532 0h-94l-181 220h-103v-220h-75v723h75v-433h111l174 203h88l-199 -239z" />
    <glyph glyph-name="uni0137.alt" horiz-adv-x="552" 
d="M527 493l-199 -239l204 -254h-94l-181 220h-103v-220h-75v723h75v-433h111l174 203h88zM268 -200h-82l95 142h84z" />
    <glyph glyph-name="k.alt1" horiz-adv-x="578" 
d="M362 421l181 -421h-84l-177 421q-58 -3 -93 -41.5t-35 -105.5v-274h-75v720h75v-303h4q35 76 137 76h236v-72h-169z" />
    <glyph glyph-name="uni0137.alt1" horiz-adv-x="578" 
d="M531 421h-169l181 -421h-84l-177 421q-58 -3 -93 -41.5t-35 -105.5v-274h-75v720h75v-303h4q35 76 137 76h236v-72zM278 -200h-82l95 142h84z" />
    <glyph glyph-name="S_T" horiz-adv-x="1171" 
d="M58 500q0 68 48.5 119t131.5 51h897v-75h-250v-595h-77v595h-566q-46 0 -73.5 -27.5t-27.5 -65.5q0 -31 19.5 -56.5t55.5 -34.5l250 -62q68 -17 104 -65.5t36 -105.5q0 -72 -50 -125t-137 -53h-339v75h336q49 0 78 30.5t29 70.5q0 32 -21 60t-59 38l-251 62
q-65 16 -99.5 62t-34.5 102z" />
    <glyph glyph-name="T_T" horiz-adv-x="1141" 
d="M1098 670v-75h-249v-595h-77v595h-404v-595h-76v595h-249v75h1055z" />
    <glyph glyph-name="f_t" horiz-adv-x="852" 
d="M811 493v-72h-235v-293q0 -55 55 -55h180v-73h-193q-56 0 -86.5 30t-30.5 86v305h-309v-421h-75v421h-90v72h90v110q0 53 32 85t85 32h176v-72h-163q-55 0 -55 -55v-100h309v177h75v-177h235z" />
    <glyph glyph-name="j_j" horiz-adv-x="467" 
d="M79 720h75v-142h-75v142zM313 720h75v-142h-75v142zM79 493h75v-578q0 -56 -30.5 -85.5t-86.5 -29.5h-112v74h99q55 0 55 54v565zM313 493h75v-693h-75v693z" />
    <glyph glyph-name="r_t" horiz-adv-x="816" 
d="M776 493v-72h-235v-293q0 -55 55 -55h180v-73h-193q-57 0 -87 30t-30 86v305h-143q-78 0 -123.5 -48t-45.5 -135v-238h-75v493h73v-98h3q42 98 171 98h140v177h75v-177h235z" />
    <glyph glyph-name="t_t" horiz-adv-x="852" 
d="M811 493v-72h-235v-293q0 -55 55 -55h180v-73h-193q-56 0 -86.5 30t-30.5 86v305h-309v-293q0 -55 55 -55h176v-73h-189q-57 0 -87 30t-30 86v305h-90v72h90v177h75v-177h309v177h75v-177h235z" />
    <glyph glyph-name="uni0416.alt" horiz-adv-x="1034" 
d="M994 0h-94l-194 307h-150v-307h-77v307h-151l-194 -307h-94l226 349l-218 321h91l191 -288h149v288h77v-288h148l191 288h91l-218 -321z" />
    <glyph glyph-name="uni041A.alt" horiz-adv-x="698" 
d="M668 0h-97l-236 307h-159v-307h-77v670h77v-288h156l237 288h91l-264 -321z" />
    <glyph glyph-name="uni0424.alt" horiz-adv-x="881" 
d="M478 670h54q125 0 208.5 -78t83.5 -196q0 -120 -83 -197.5t-209 -77.5h-54v-121h-76v121h-54q-126 0 -208.5 77.5t-82.5 197.5q0 118 83 196t208 78h54v50h76v-50zM348 193h54v404h-54q-92 0 -153.5 -57t-61.5 -144q0 -89 61 -146t154 -57zM478 193h54q93 0 154 57
t61 146q0 87 -61.5 144t-153.5 57h-54v-404z" />
    <glyph glyph-name="uni0406.alt" horiz-adv-x="517" 
d="M466 670v-75h-169v-520h169v-75h-415v75h170v520h-170v75h415z" />
    <glyph glyph-name="uni0407.alt" horiz-adv-x="517" 
d="M130 832h73v-112h-73v112zM307 832h73v-112h-73v112zM466 670v-75h-169v-520h169v-75h-415v75h170v520h-170v75h415z" />
    <glyph glyph-name="uni042E.alt" horiz-adv-x="1022" 
d="M636 683q147 0 235 -100.5t88 -247.5q0 -148 -88 -247.5t-235 -99.5q-141 0 -227.5 92t-93.5 231h-139v-311h-77v671h77v-286h141q15 130 100 214t219 84zM636 62q113 0 179 78.5t66 194.5t-66 194.5t-179 78.5q-112 0 -178.5 -78.5t-66.5 -194.5t66 -194.5t179 -78.5z
" />
    <glyph glyph-name="uni042F.alt" horiz-adv-x="748" 
d="M648 670v-670h-76v268h-254l-157 -268h-89l167 277q-52 14 -87.5 49.5t-48.5 79t-7 90.5t30.5 85.5t72.5 63.5t110 25h339zM311 342h261v253h-260q-53 0 -89.5 -26t-45.5 -63.5t-0.5 -74.5t45 -63t89.5 -26z" />
    <glyph glyph-name="uni0436.alt" horiz-adv-x="800" 
d="M775 0h-97l-166 220h-75v-220h-75v220h-74l-166 -220h-98l194 254l-188 239h91l159 -203h82v203h75v-203h82l159 203h92l-188 -239z" />
    <glyph glyph-name="uni043A.alt" horiz-adv-x="556" 
d="M532 0h-94l-179 220h-105v-220h-75v493h75v-203h112l172 203h89l-199 -239z" />
    <glyph glyph-name="uni0444.alt" horiz-adv-x="735" 
d="M405 494h29q112 0 184.5 -71t72.5 -177t-72.5 -176.5t-184.5 -70.5h-29v-199h-75v199h-30q-112 0 -183.5 70.5t-71.5 176.5t72 177t183 71h30v176h75v-176zM300 70h30v353h-30q-80 0 -130 -50t-50 -127t50 -126.5t130 -49.5zM405 70h29q81 0 131.5 49.5t50.5 126.5
t-51 127t-131 50h-29v-353z" />
    <glyph glyph-name="uni044F.alt" horiz-adv-x="598" 
d="M519 493v-493h-75v183h-197l-109 -183h-89l120 193q-46 17 -72.5 55t-26.5 88q0 67 46 112t114 45h289zM230 255h214v166h-214q-37 0 -61 -23.5t-24 -60.5q0 -36 24.5 -59t60.5 -23z" />
    <glyph glyph-name="uni043A.alt1" horiz-adv-x="578" 
d="M363 418l180 -418h-84l-175 415q-61 -11 -95.5 -58t-34.5 -122v-235h-75v493h73v-98h3q42 98 171 98h205v-75h-168z" />
    <glyph glyph-name="uni04070407" horiz-adv-x="550" 
d="M26 832h73v-112h-73v112zM239 832h73v-112h-73v112zM451 832h73v-112h-73v112zM99 0v670h77v-670h-77zM374 0v670h77v-670h-77z" />
    <glyph glyph-name="uni04570457" horiz-adv-x="470" 
d="M6 720h73v-142h-73v142zM198 720h73v-142h-73v142zM392 720h73v-142h-73v142zM79 493h75v-493h-75v493zM316 493h75v-493h-75v493z" />
    <glyph glyph-name="zero.osf" horiz-adv-x="694" 
d="M348 -13q-127 0 -208 82.5t-81 203.5t81 204t208 83q126 0 207 -83t81 -204t-81.5 -203.5t-206.5 -82.5zM348 60q93 0 153 61.5t60 151.5q0 89 -60 151.5t-153 62.5q-94 0 -154 -62t-60 -152t60 -151.5t154 -61.5z" />
    <glyph glyph-name="one.osf" horiz-adv-x="413" 
d="M41 546h277v-546h-75v474h-202v72z" />
    <glyph glyph-name="two.osf" horiz-adv-x="577" 
d="M422 281l-249 -209h351v-72h-473v56l331 280q46 38 46 77q0 27 -19.5 44t-50.5 17h-299v73h301q63 0 103 -36.5t40 -92.5q0 -68 -81 -137z" />
    <glyph glyph-name="three.osf" horiz-adv-x="577" 
d="M270 276h48q87 0 145.5 -58.5t58.5 -142.5q0 -86 -59 -145t-145 -59h-277v73h274q55 0 93.5 38.5t38.5 93.5q0 54 -38.5 92.5t-93.5 38.5h-153v53l220 214h-341v73h449v-56z" />
    <glyph glyph-name="four.osf" horiz-adv-x="699" 
d="M496 125h159v-72h-159v-184h-75v184h-378v55l349 439h104v-422zM421 474l-277 -349h277v349z" />
    <glyph glyph-name="five.osf" horiz-adv-x="589" 
d="M139 278h194q88 0 146 -58.5t58 -143.5q0 -87 -58.5 -146t-145.5 -59h-272v73h269q57 0 94.5 38.5t37.5 94.5q0 55 -37.5 93t-94.5 38h-269l36 339h384v-73h-322z" />
    <glyph glyph-name="six.osf" horiz-adv-x="642" 
d="M373 450q98 -7 156 -70t58 -158q0 -103 -73.5 -168.5t-186.5 -65.5q-118 0 -190.5 64.5t-72.5 167.5q0 28 5 46l60 294q22 110 146 110h227v-72h-226q-64 0 -76 -58l-32 -149h1q35 31 90 47t114 12zM327 62q81 0 132 44.5t51 115.5t-51.5 114.5t-131.5 43.5
q-84 0 -135.5 -43t-51.5 -117q0 -72 49.5 -115t137.5 -43z" />
    <glyph glyph-name="seven.osf" horiz-adv-x="559" 
d="M41 474v73h474v-56l-311 -620h-82l307 603h-388z" />
    <glyph glyph-name="eight.osf" horiz-adv-x="655" 
d="M458 354v-3q63 -18 99.5 -61.5t36.5 -103.5q0 -90 -76.5 -144t-190.5 -54q-113 0 -189 54.5t-76 143.5q0 59 36 102.5t98 62.5v3q-54 18 -85.5 57t-31.5 91q0 83 70.5 132t177.5 49t178.5 -48.5t71.5 -132.5q0 -53 -32 -92t-87 -56zM156 498q0 -51 48 -80t123 -30
q75 0 124 29.5t49 80.5q0 52 -48.5 81.5t-124.5 29.5q-75 0 -123 -29.5t-48 -81.5zM327 62q83 0 136.5 34t53.5 93q0 58 -54 91.5t-136 33.5q-81 0 -134.5 -33.5t-53.5 -91.5t54 -92.5t134 -34.5z" />
    <glyph glyph-name="nine.osf" horiz-adv-x="640" 
d="M315 560q118 0 190.5 -64.5t72.5 -167.5q0 -23 -5 -46l-62 -299q-22 -110 -147 -110h-233v72h233q63 0 76 58l34 153h-1q-35 -31 -90.5 -47t-114.5 -11q-97 7 -155 70t-58 158q0 103 73.5 168.5t186.5 65.5zM315 168q84 0 135.5 43t51.5 117q0 71 -50 114t-137 43
q-81 0 -132.5 -44t-51.5 -115t51.5 -114.5t132.5 -43.5z" />
    <glyph glyph-name="zero.osf.tnum" 
d="M326 -13q-128 0 -209 82.5t-81 203.5t81.5 204t208.5 83q125 0 206 -83t81 -204t-81 -203.5t-206 -82.5zM326 60q92 0 152 61.5t60 151.5q0 89 -60 151.5t-152 62.5q-95 0 -154.5 -62t-59.5 -152t59.5 -151.5t154.5 -61.5z" />
    <glyph glyph-name="one.osf.tnum" 
d="M417 72h155v-72h-494v72h264v402h-215v72h290v-474z" />
    <glyph glyph-name="two.osf.tnum" 
d="M461 281l-250 -209h351v-72h-473v56l332 280q46 39 46 77q0 27 -19.5 44t-50.5 17h-300v73h301q63 0 103.5 -36.5t40.5 -92.5q0 -68 -81 -137z" />
    <glyph glyph-name="three.osf.tnum" 
d="M317 276h48q87 0 145.5 -58t58.5 -143q0 -86 -59 -145t-145 -59h-276v73h274q55 0 93 38.5t38 93.5q0 54 -38 92.5t-93 38.5h-153v53l220 214h-341v73h449v-56z" />
    <glyph glyph-name="four.osf.tnum" 
d="M497 125h132v-72h-132v-184h-75v184h-378v55l349 439h104v-422zM422 474l-278 -349h278v349z" />
    <glyph glyph-name="five.osf.tnum" 
d="M177 278h194q88 0 146 -58.5t58 -143.5q0 -87 -58.5 -146t-145.5 -59h-272v73h269q57 0 94.5 38.5t37.5 94.5q0 55 -37.5 93t-94.5 38h-269l36 339h384v-73h-322z" />
    <glyph glyph-name="six.osf.tnum" 
d="M375 450q97 -7 155 -70t58 -158q0 -103 -73.5 -168.5t-186.5 -65.5q-118 0 -190.5 64.5t-72.5 167.5q0 23 5 46l60 294q22 110 146 110h227v-72h-226q-63 0 -76 -58l-32 -149h1q35 31 90 47t115 12zM328 62q81 0 132.5 44.5t51.5 115.5t-51.5 114.5t-132.5 43.5
q-84 0 -135.5 -43t-51.5 -117q0 -72 50 -115t137 -43z" />
    <glyph glyph-name="seven.osf.tnum" 
d="M81 474v73h473v-56l-311 -620h-82l308 603h-388z" />
    <glyph glyph-name="eight.osf.tnum" 
d="M456 354v-3q63 -18 99 -61.5t36 -103.5q0 -90 -76 -144t-190 -54q-113 0 -189.5 54.5t-76.5 143.5q0 60 36 103.5t99 61.5v3q-55 18 -86.5 57t-31.5 91q0 83 70.5 132t178.5 49q107 0 178 -48.5t71 -132.5q0 -53 -31.5 -92t-86.5 -56zM153 498q0 -51 48.5 -80t123.5 -30
q74 0 123 29.5t49 80.5q0 52 -48 81.5t-124 29.5t-124 -29.5t-48 -81.5zM325 62q82 0 135.5 34.5t53.5 92.5t-53.5 91.5t-135.5 33.5t-135.5 -33.5t-53.5 -91.5t54 -92.5t135 -34.5z" />
    <glyph glyph-name="nine.osf.tnum" 
d="M322 560q118 0 190.5 -64.5t72.5 -167.5q0 -23 -5 -46l-62 -299q-22 -110 -147 -110h-233v72h233q63 0 76 58l34 153h-1q-35 -31 -90.5 -47t-114.5 -11q-97 7 -155 70t-58 158q0 103 73.5 168.5t186.5 65.5zM322 168q84 0 135.5 43t51.5 117q0 71 -50 114t-137 43
q-81 0 -132.5 -44t-51.5 -115t51.5 -114.5t132.5 -43.5z" />
    <glyph glyph-name="zero.tnum" 
d="M68 245v180q0 110 73 184t183 74t184 -74.5t74 -184.5v-179q0 -110 -74 -184t-183 -74q-110 0 -183.5 74t-73.5 184zM145 425v-180q0 -78 51 -130.5t129 -52.5t129 52t51 131v179q0 80 -51 132.5t-130 52.5q-78 0 -128.5 -52.5t-50.5 -131.5z" />
    <glyph glyph-name="one.tnum" 
d="M406 670v-595h153v-75h-467v75h238v520h-187v75h263z" />
    <glyph glyph-name="two.tnum" 
d="M481 365l-271 -290h342v-75h-455v58l331 356q38 41 38 89q0 41 -29.5 66.5t-77.5 25.5h-252v75h254q80 0 131 -46t51 -118q0 -76 -62 -141z" />
    <glyph glyph-name="three.tnum" 
d="M329 384h38q83 0 139.5 -54.5t56.5 -135.5t-56.5 -137.5t-139.5 -56.5h-273v75h270q50 0 85 34.5t35 84.5t-34.5 85t-85.5 35h-143v55l203 226h-330v75h437v-57z" />
    <glyph glyph-name="four.tnum" 
d="M499 245h100v-71h-100v-174h-76v174h-370v54l343 442h103v-425zM423 590l-267 -345h267v345z" />
    <glyph glyph-name="five.tnum" 
d="M184 391h184q92 0 146 -57t54 -138q0 -80 -54.5 -138t-145.5 -58h-259v75h257q55 0 88.5 35t34.5 86q0 50 -33.5 86t-89.5 36h-262l40 352h374v-75h-311z" />
    <glyph glyph-name="six.tnum" 
d="M71 207q0 26 6 50l67 306q21 107 144 107h220v-75h-219q-62 0 -73 -54l-39 -168h3q69 53 161 53q111 0 178 -59t67 -158t-72 -160t-184 -61q-117 0 -188 60t-71 159zM147 207q0 -68 48 -106.5t135 -38.5q81 0 130 40t49 107t-49.5 106t-129.5 39q-83 0 -133 -39.5
t-50 -107.5z" />
    <glyph glyph-name="seven.tnum" 
d="M92 595v75h460v-58l-283 -612h-84l277 595h-370z" />
    <glyph glyph-name="eight.tnum" 
d="M62 186q0 58 34 101.5t96 63.5v2q-54 20 -83.5 59.5t-29.5 90.5q0 84 69.5 132t176.5 48t176.5 -48t69.5 -132q0 -52 -30 -91t-84 -59v-2q62 -20 96.5 -63.5t34.5 -101.5q0 -91 -75 -144.5t-188 -53.5q-112 0 -187.5 54t-75.5 144zM156 498q0 -51 47.5 -80t121.5 -30
q74 0 121.5 29t47.5 81q0 53 -47 82t-122 29t-122 -29t-47 -82zM139 189q0 -59 52.5 -93t133.5 -34t133.5 34t52.5 93t-52.5 92t-133.5 33q-82 0 -134 -33t-52 -92z" />
    <glyph glyph-name="nine.tnum" 
d="M579 463q0 -27 -6 -49l-66 -307q-23 -107 -145 -107h-219v75h218q62 0 74 55l38 167h-3q-69 -53 -161 -53q-110 -1 -177.5 58.5t-67.5 158.5q0 100 72 161t184 61q117 0 188 -60.5t71 -159.5zM503 463q0 68 -48 106.5t-135 38.5q-81 0 -130 -39.5t-49 -107.5
q0 -67 49.5 -106t130.5 -39q82 0 132 39.5t50 107.5z" />
    <glyph glyph-name="zero.dnom" horiz-adv-x="406" 
d="M42 149v98q0 67 46.5 111t114.5 44t114.5 -44t46.5 -111v-98q0 -67 -47 -111t-114 -44q-68 0 -114.5 44t-46.5 111zM102 247v-98q0 -42 29 -69t72 -27t72 27t29 69v98q0 42 -29 69t-72 27t-72 -27t-29 -69z" />
    <glyph glyph-name="one.dnom" horiz-adv-x="241" 
d="M177 394v-394h-60v334h-105v60h165z" />
    <glyph glyph-name="two.dnom" horiz-adv-x="345" 
d="M264 205l-148 -145h194v-60h-285v48l201 198q19 19 19 44q0 19 -16.5 31.5t-39.5 12.5h-159v60h160q51 0 83.5 -29.5t32.5 -73.5q0 -46 -42 -86z" />
    <glyph glyph-name="three.dnom" horiz-adv-x="352" 
d="M188 229h12q49 0 85 -31.5t36 -79.5q0 -49 -36.5 -83.5t-87.5 -34.5h-169v60h166q27 0 47 17.5t20 41.5q0 23 -20 40.5t-47 17.5h-88v40l112 117h-190v60h275v-45z" />
    <glyph glyph-name="four.dnom" horiz-adv-x="376" 
d="M294 156h61v-57h-61v-99h-61v99h-217v45l193 250h85v-238zM233 338l-136 -182h136v182z" />
    <glyph glyph-name="five.dnom" horiz-adv-x="366" 
d="M108 234h101q56 0 91.5 -33.5t35.5 -80.5q0 -50 -35.5 -85t-91.5 -35h-159v60h157q29 0 48.5 17.5t19.5 41.5q0 23 -19.5 41t-48.5 18h-160l24 216h235v-60h-187z" />
    <glyph glyph-name="six.dnom" horiz-adv-x="379" 
d="M169 394h136v-59h-138q-31 0 -36 -27l-21 -90h2q40 31 99 31q62 0 102 -35t40 -91q0 -58 -46 -94t-114 -36q-55 0 -95.5 23.5t-55.5 63.5q-10 27 -4 66q3 18 39 178q7 32 31.5 51t60.5 19zM94 123q0 -33 27 -52.5t71 -19.5q45 0 73 20t28 53q0 31 -27.5 51t-71.5 20
q-45 0 -72.5 -19.5t-27.5 -52.5z" />
    <glyph glyph-name="seven.dnom" horiz-adv-x="314" 
d="M13 334v60h284v-45l-170 -349h-65l167 334h-216z" />
    <glyph glyph-name="eight.dnom" horiz-adv-x="398" 
d="M287 206q73 -29 73 -95q0 -54 -46 -86t-115 -32t-115.5 32.5t-46.5 85.5q0 66 74 95q-64 29 -64 87q0 50 43.5 80t108.5 30q64 0 108 -30t44 -80q0 -58 -64 -87zM199 346q-38 0 -64.5 -15.5t-26.5 -41.5t26 -41t65 -15t65.5 15.5t26.5 40.5q0 26 -26 41.5t-66 15.5z
M199 49q43 0 72.5 18t29.5 47t-29.5 47t-72.5 18t-72 -18t-29 -47q0 -28 29 -46.5t72 -18.5z" />
    <glyph glyph-name="nine.dnom" horiz-adv-x="379" 
d="M210 0h-136v60h138q31 0 37 27l20 89h-2q-39 -30 -99 -30q-62 0 -102 34.5t-40 90.5q0 58 46 94t115 36q54 0 94.5 -23.5t55.5 -62.5q10 -26 4 -66q-3 -21 -39 -179q-7 -32 -31.5 -51t-60.5 -19zM286 271q0 33 -27 53t-71 20q-45 0 -73.5 -20.5t-28.5 -52.5t27.5 -52
t72.5 -20q44 0 72 20t28 52z" />
    <glyph glyph-name="zero.numr" horiz-adv-x="406" 
d="M42 426v98q0 67 47 111.5t114 44.5t114 -44.5t47 -111.5v-98q0 -67 -47 -111.5t-114 -44.5t-114 44.5t-47 111.5zM102 524v-98q0 -42 29 -69t72 -27t72 27t29 69v98q0 42 -29 69t-72 27t-72 -27t-29 -69z" />
    <glyph glyph-name="one.numr" horiz-adv-x="241" 
d="M177 670v-394h-60v334h-105v60h165z" />
    <glyph glyph-name="two.numr" horiz-adv-x="345" 
d="M264 481l-148 -145h194v-60h-285v48l201 198q19 19 19 44q0 19 -16.5 31.5t-39.5 12.5h-159v60h160q51 0 83.5 -29.5t32.5 -73.5q0 -46 -42 -86z" />
    <glyph glyph-name="three.numr" horiz-adv-x="352" 
d="M188 505h12q49 0 85 -31.5t36 -79.5q0 -49 -36.5 -83.5t-87.5 -34.5h-169v60h166q27 0 47 18t20 41t-20 40.5t-47 17.5h-88v40l112 117h-190v60h275v-45z" />
    <glyph glyph-name="four.numr" horiz-adv-x="376" 
d="M294 432h61v-57h-61v-99h-61v99h-217v45l193 250h85v-238zM233 614l-136 -182h136v182z" />
    <glyph glyph-name="five.numr" horiz-adv-x="366" 
d="M108 511h101q56 0 91.5 -34t35.5 -81q0 -50 -35.5 -85t-91.5 -35h-159v60h157q29 0 48.5 17.5t19.5 41.5q0 23 -19.5 41t-48.5 18h-160l24 216h235v-60h-187z" />
    <glyph glyph-name="six.numr" horiz-adv-x="382" 
d="M168 670h140v-60h-138q-31 0 -37 -27l-20 -89h2q39 30 99 30q62 0 102 -34.5t40 -90.5q0 -58 -46 -94t-115 -36q-54 0 -95 23.5t-56 62.5q-10 31 -5 66q8 50 37 179q8 32 32 51t60 19zM96 399q0 -33 27 -53t71 -20q45 0 73.5 20.5t28.5 52.5t-27.5 52t-72.5 20
q-44 0 -72 -20t-28 -52z" />
    <glyph glyph-name="seven.numr" horiz-adv-x="314" 
d="M13 610v60h284v-45l-170 -349h-65l167 334h-216z" />
    <glyph glyph-name="eight.numr" horiz-adv-x="398" 
d="M287 483q73 -29 73 -95q0 -54 -46 -86t-115 -32t-115.5 32.5t-46.5 85.5q0 66 74 95q-64 29 -64 87q0 50 43.5 80t108.5 30q64 0 108 -30t44 -80q0 -58 -64 -87zM199 623q-38 0 -64.5 -15.5t-26.5 -41.5t26 -41t65 -15t65.5 15.5t26.5 40.5q0 26 -26 41.5t-66 15.5z
M199 326q43 0 72.5 18t29.5 47t-29.5 47t-72.5 18t-72 -18t-29 -47q0 -28 29 -46.5t72 -18.5z" />
    <glyph glyph-name="nine.numr" horiz-adv-x="382" 
d="M214 279h-140v59h135q34 0 40 27l20 90h-2q-40 -31 -99 -31q-62 0 -102 35t-40 91q0 58 46 94t115 36q55 0 96 -23.5t55 -63.5q10 -29 5 -66q-8 -49 -37 -178q-8 -32 -32 -51t-60 -19zM286 550q0 33 -27 52.5t-71 19.5q-45 0 -73.5 -20t-28.5 -53q0 -31 27.5 -51
t72.5 -20q44 0 72 19.5t28 52.5z" />
    <glyph glyph-name="bullet.alt" horiz-adv-x="679" 
d="M343 506q105 0 180.5 -77t75.5 -186q0 -104 -76 -180t-180 -76q-109 0 -186 75.5t-77 180.5q0 109 77 186t186 77z" />
    <glyph glyph-name="exclamdown.case" horiz-adv-x="303" 
d="M204 670v-100h-95v100h95zM197 0h-81l5 460h71z" />
    <glyph glyph-name="questiondown.case" horiz-adv-x="539" 
d="M321 670h95v-100h-95v100zM274 72h235v-72h-235q-88 0 -137 52t-49 124t49 124t137 52h57v108h74v-177h-131q-52 0 -81.5 -31.5t-29.5 -74.5q0 -42 29.5 -73.5t81.5 -31.5z" />
    <glyph glyph-name="bullet.case" horiz-adv-x="414" 
d="M209 455q48 0 83 -35.5t35 -86.5q0 -48 -35 -83t-83 -35q-51 0 -86.5 35t-35.5 83q0 51 35.5 86.5t86.5 35.5z" />
    <glyph glyph-name="bullet.alt.case" horiz-adv-x="849" 
d="M428 683q142 0 243.5 -103t101.5 -249q0 -140 -102 -242t-243 -102q-146 0 -248.5 101.5t-102.5 242.5q0 146 102.5 249t248.5 103z" />
    <glyph glyph-name="comma.ss08" horiz-adv-x="269" 
d="M149 120h49l-90 -251h-39z" />
    <glyph glyph-name="colon.ss08" horiz-adv-x="263" 
d="M93 493h51v-113h-51v113zM93 113h51v-113h-51v113z" />
    <glyph glyph-name="semicolon.ss08" horiz-adv-x="265" 
d="M100 493h51v-113h-51v113zM119 120h49l-90 -251h-39z" />
    <glyph glyph-name="ellipsis.ss08" horiz-adv-x="744" 
d="M97 113h51v-113h-51v113zM345 113h52v-113h-52v113zM595 113h52v-113h-52v113z" />
    <glyph glyph-name="exclam.ss08" horiz-adv-x="277" 
d="M110 180l-4 490h41l-4 -490h-33zM101 60h55v-60h-55v60z" />
    <glyph glyph-name="exclamdown.ss08" horiz-adv-x="254" 
d="M139 493v-60h-55v60h55zM133 -210h-39l3 523h33z" />
    <glyph glyph-name="question.ss08" horiz-adv-x="522" 
d="M37 670h235q85 0 132.5 -50t47.5 -119t-47.5 -119.5t-133.5 -50.5h-73v-151h-34v184h108q67 0 105.5 40.5t38.5 96.5q0 55 -38 95.5t-106 40.5h-235v33zM210 0h-55v60h55v-60z" />
    <glyph glyph-name="questiondown.ss08" horiz-adv-x="497" 
d="M317 493h55v-60h-55v60zM255 -167h234v-33l-234 1q-85 0 -132.5 50t-47.5 119t48 120t133 51h73v172h34v-205h-108q-67 0 -105.5 -41t-38.5 -97q0 -55 38 -96t106 -41z" />
    <glyph glyph-name="asterisk.ss08" horiz-adv-x="460" 
d="M368 600l18 -30l-127 -70l127 -70l-18 -30l-123 75l3 -145h-36l3 145l-123 -75l-18 30l127 70l-127 70l18 30l123 -75l-3 145h36l-3 -145z" />
    <glyph glyph-name="exclamdown.case.ss08" horiz-adv-x="264" 
d="M165 670v-60h-55v60h55zM156 0h-41l4 490h33z" />
    <glyph glyph-name="questiondown.case.ss08" horiz-adv-x="539" 
d="M335 670h55v-60h-55v60zM274 33h234v-33h-234q-85 0 -132.5 50t-47.5 119t47.5 119.5t133.5 50.5h72v151h34v-184h-107q-67 0 -105.5 -40.5t-38.5 -96.5q0 -55 38 -95.5t106 -40.5z" />
    <glyph glyph-name="numbersign.ss08" horiz-adv-x="737" 
d="M682 490l-10 -32h-133l-73 -245h132l-10 -32h-132l-54 -181h-35l54 181h-201l-54 -181h-35l54 181h-131l10 32h131l73 245h-130l10 32h129l54 180h35l-54 -180h201l54 180h35l-54 -180h134zM230 213h201l73 245h-201z" />
    <glyph glyph-name="slash.ss08" horiz-adv-x="462" 
d="M19 -200l388 1000h35l-388 -1000h-35z" />
    <glyph glyph-name="backslash.ss08" horiz-adv-x="458" 
d="M0 800h35l388 -1000h-35z" />
    <glyph glyph-name="parenleft.case" horiz-adv-x="276" 
d="M261 -122h-71q-122 216 -122 461q0 247 122 461h71q-122 -226 -122 -461t122 -461z" />
    <glyph glyph-name="parenright.case" horiz-adv-x="276" 
d="M86 -122h-71q122 226 122 461q0 238 -122 461h71q122 -214 122 -461q0 -245 -122 -461z" />
    <glyph glyph-name="braceleft.case" horiz-adv-x="305" 
d="M190 674v-237q0 -78 -53 -100v-4q53 -22 53 -99v-238q0 -54 55 -54h33v-72h-44q-57 0 -87.5 29.5t-30.5 85.5v260q0 54 -55 54h-18v73h18q55 0 55 54v259q0 56 30.5 85.5t87.5 29.5h44v-72h-33q-55 0 -55 -54z" />
    <glyph glyph-name="braceright.case" horiz-adv-x="305" 
d="M244 372h18v-73h-18q-55 0 -55 -54v-260q0 -56 -30.5 -85.5t-87.5 -29.5h-44v72h33q55 0 55 54v238q0 77 53 99v4q-53 22 -53 100v237q0 54 -55 54h-33v72h44q57 0 87.5 -29.5t30.5 -85.5v-259q0 -54 55 -54z" />
    <glyph glyph-name="bracketleft.case" horiz-adv-x="286" 
d="M276 800v-72h-132v-786h132v-72h-206v930h206z" />
    <glyph glyph-name="bracketright.case" horiz-adv-x="286" 
d="M10 800h206v-930h-206v72h132v786h-132v72z" />
    <glyph glyph-name="parenleft.ss08" horiz-adv-x="250" 
d="M235 -200h-34q-148 207 -148 460t148 460h34q-149 -208 -149 -460q0 -251 149 -460z" />
    <glyph glyph-name="parenright.ss08" horiz-adv-x="250" 
d="M49 -200h-34q150 210 150 460t-150 460h34q148 -205 148 -460t-148 -460z" />
    <glyph glyph-name="braceleft.ss08" horiz-adv-x="296" 
d="M157 622v-269q0 -71 -50 -92v-2q50 -21 50 -92v-269q0 -65 65 -65h40v-33h-38q-100 0 -100 100v278q0 65 -65 65h-16v34h16q65 0 65 65v278q0 100 100 100h38v-33h-40q-65 0 -65 -65z" />
    <glyph glyph-name="braceright.ss08" horiz-adv-x="296" 
d="M236 277h16v-34h-16q-65 0 -65 -65v-278q0 -100 -100 -100h-38v33h40q65 0 65 65v269q0 71 50 92v2q-50 21 -50 92v269q0 65 -65 65h-40v33h38q100 0 100 -100v-278q0 -65 65 -65z" />
    <glyph glyph-name="bracketleft.ss08" horiz-adv-x="260" 
d="M250 720v-31h-147v-858h147v-31h-180v920h180z" />
    <glyph glyph-name="bracketright.ss08" horiz-adv-x="260" 
d="M10 720h180v-920h-180v31h147v858h-147v31z" />
    <glyph glyph-name="parenleft.case.ss08" horiz-adv-x="265" 
d="M250 -125h-34q-148 205 -148 463q0 257 148 462h34q-150 -210 -150 -462q0 -253 150 -463z" />
    <glyph glyph-name="parenright.case.ss08" horiz-adv-x="265" 
d="M49 -125h-34q150 210 150 463q0 252 -150 462h34q148 -205 148 -462q0 -258 -148 -463z" />
    <glyph glyph-name="braceleft.case.ss08" horiz-adv-x="289" 
d="M157 702v-274q0 -71 -50 -92v-2q50 -21 50 -92v-274q0 -65 65 -65h40v-33h-38q-100 0 -100 100v283q0 65 -65 65h-16v34h16q65 0 65 65v283q0 100 100 100h38v-33h-40q-65 0 -65 -65z" />
    <glyph glyph-name="braceright.case.ss08" horiz-adv-x="289" 
d="M230 352h16v-34h-16q-65 0 -65 -65v-283q0 -100 -100 -100h-38v33h40q65 0 65 65v274q0 71 50 92v2q-50 21 -50 92v274q0 65 -65 65h-40v33h38q100 0 100 -100v-283q0 -65 65 -65z" />
    <glyph glyph-name="bracketleft.case.ss08" horiz-adv-x="260" 
d="M250 800v-31h-147v-868h147v-31h-180v930h180z" />
    <glyph glyph-name="bracketright.case.ss08" horiz-adv-x="260" 
d="M10 800h180v-930h-180v31h147v868h-147v31z" />
    <glyph glyph-name="hyphen.case" horiz-adv-x="499" 
d="M79 312v69h340v-69h-340z" />
    <glyph glyph-name="endash.case" horiz-adv-x="748" 
d="M79 312v73h589v-73h-589z" />
    <glyph glyph-name="emdash.case" horiz-adv-x="871" 
d="M79 312v73h713v-73h-713z" />
    <glyph glyph-name="hyphen.ss08" horiz-adv-x="499" 
d="M80 258v33h340v-33h-340z" />
    <glyph glyph-name="endash.ss08" horiz-adv-x="748" 
d="M79 256v33h589v-33h-589z" />
    <glyph glyph-name="emdash.ss08" horiz-adv-x="871" 
d="M79 257v32h713v-32h-713z" />
    <glyph glyph-name="hyphen.case.ss08" horiz-adv-x="499" 
d="M79 328v33h340v-33h-340z" />
    <glyph glyph-name="endash.case.ss08" horiz-adv-x="748" 
d="M79 331v33h589v-33h-589z" />
    <glyph glyph-name="emdash.case.ss08" horiz-adv-x="870" 
d="M79 331v33h712v-33h-712z" />
    <glyph glyph-name="underscore.ss08" horiz-adv-x="759" 
d="M79 -200v33h600v-33h-600z" />
    <glyph glyph-name="guillemotleft.case" horiz-adv-x="497" 
d="M201 493h82l-155 -186l155 -187h-82l-153 187zM386 493h82l-156 -186l156 -187h-82l-154 187z" />
    <glyph glyph-name="guillemotright.case" horiz-adv-x="496" 
d="M185 307l-156 186h82l154 -186l-154 -187h-82zM371 307l-156 186h82l154 -186l-154 -187h-82z" />
    <glyph glyph-name="guilsinglleft.case" horiz-adv-x="313" 
d="M199 493h82l-156 -186l156 -186h-82l-153 186z" />
    <glyph glyph-name="guilsinglright.case" horiz-adv-x="313" 
d="M188 307l-156 186h82l153 -186l-153 -186h-82z" />
    <glyph glyph-name="quotesinglbase.ss08" horiz-adv-x="269" 
d="M149 120h49l-90 -251h-39z" />
    <glyph glyph-name="quotedblbase.ss08" horiz-adv-x="388" 
d="M134 120h48l-89 -251h-40zM284 120h48l-89 -251h-40z" />
    <glyph glyph-name="quotedblleft.ss08" horiz-adv-x="403" 
d="M111 469h-49l90 252h39zM268 469h-49l90 252h39z" />
    <glyph glyph-name="quotedblright.ss08" horiz-adv-x="404" 
d="M136 720h48l-89 -251h-40zM293 720h49l-90 -251h-39z" />
    <glyph glyph-name="quoteleft.ss08" horiz-adv-x="245" 
d="M100 469h-49l90 251h39z" />
    <glyph glyph-name="quoteright.ss08" horiz-adv-x="247" 
d="M143 720h49l-90 -251h-39z" />
    <glyph glyph-name="guillemotleft.case.ss08" horiz-adv-x="447" 
d="M201 493h46l-156 -186l156 -187h-46l-153 187zM372 493h46l-156 -186l156 -187h-46l-153 187z" />
    <glyph glyph-name="guillemotright.case.ss08" horiz-adv-x="444" 
d="M182 307l-153 186h43l153 -186l-153 -187h-43zM354 307l-152 186h43l153 -186l-153 -187h-43z" />
    <glyph glyph-name="guilsinglleft.case.ss08" horiz-adv-x="276" 
d="M199 493h45l-155 -186l155 -186h-45l-153 186z" />
    <glyph glyph-name="guilsinglright.case.ss08" horiz-adv-x="274" 
d="M184 307l-152 186h43l153 -186l-153 -186h-43z" />
    <glyph glyph-name="guillemotleft.ss08" horiz-adv-x="447" 
d="M201 424h46l-156 -186l156 -186h-46l-153 186zM372 424h46l-156 -186l156 -186h-46l-153 186z" />
    <glyph glyph-name="guillemotright.ss08" horiz-adv-x="444" 
d="M182 238l-153 186h43l153 -186l-153 -186h-43zM354 238l-152 186h43l153 -186l-153 -186h-43z" />
    <glyph glyph-name="guilsinglleft.ss08" horiz-adv-x="276" 
d="M199 424h45l-155 -186l155 -186h-45l-153 186z" />
    <glyph glyph-name="guilsinglright.ss08" horiz-adv-x="274" 
d="M184 238l-152 186h43l153 -186l-153 -186h-43z" />
    <glyph glyph-name="quotedbl.ss08" horiz-adv-x="378" 
d="M96 720h47l-15 -251h-32v251zM248 720h47l-15 -251h-32v251z" />
    <glyph glyph-name="quotesingle.ss08" horiz-adv-x="224" 
d="M96 720h47l-15 -251h-32v251z" />
    <glyph glyph-name="currency.onum" horiz-adv-x="647" 
d="M519 330q0 -63 -36 -113l79 -78l-49 -49l-78 79q-51 -35 -111 -35q-62 0 -111 35l-79 -79l-48 49l78 78q-36 50 -36 113q0 60 35 111l-77 77l48 48l77 -77q50 36 113 36q62 0 112 -36l77 77l49 -48l-78 -78q35 -49 35 -110zM324 201q53 0 90.5 37.5t37.5 91.5
q0 53 -37.5 90.5t-90.5 37.5q-54 0 -91.5 -37.5t-37.5 -90.5q0 -54 37.5 -91.5t91.5 -37.5z" />
    <glyph glyph-name="dollar.onum" horiz-adv-x="594" 
d="M209 345l196 -69q55 -20 83 -57t28 -82q0 -58 -41.5 -97.5t-111.5 -39.5h-30v-123h-73v123h-161v72h264q35 0 56 19.5t21 48.5q0 47 -52 64l-201 70q-53 18 -81 55.5t-28 80.5q0 57 42 97t110 40h30v123h73v-123h157v-73h-260q-34 0 -53.5 -18.5t-19.5 -46.5
q0 -21 13.5 -38.5t38.5 -25.5z" />
    <glyph glyph-name="Euro.onum" horiz-adv-x="644" 
d="M414 73h149v-73h-145q-105 0 -173.5 49t-94.5 128h-83v64h69q-2 22 -2 33q0 20 3 40h-70v65h86q28 75 95.5 122t169.5 47h144v-73h-148q-125 0 -179 -96h252v-65h-275q-3 -19 -3 -40q0 -11 2 -33h276v-64h-256q53 -104 183 -104z" />
    <glyph glyph-name="uni20B4.onum" horiz-adv-x="685" 
d="M589 303h-493v62h315q33 0 52.5 16.5t19.5 39.5q0 21 -17 36t-49 15h-281v75h291q66 0 102 -28.5t36 -72.5q0 -28 -14.5 -49t-35.5 -31v-1h74v-62zM96 244h493v-62h-315q-34 0 -52.5 -16.5t-18.5 -38.5t16.5 -37.5t48.5 -15.5h281v-74h-291q-66 0 -102 28.5t-36 73.5
q0 25 14.5 46.5t35.5 31.5v2h-74v62z" />
    <glyph glyph-name="uni20BD.onum" horiz-adv-x="738" 
d="M449 170h-186v-93h306v-69h-306v-137h-75v137h-102v69h102v93h-102v69h102v308h262q57 0 101.5 -21t67.5 -54t34 -73t0.5 -80.5t-34 -73.5t-68.5 -54t-102 -21zM447 474h-184v-235h185q37 0 66 13t43.5 33.5t21.5 45.5t0 50.5t-22 46t-44 33.5t-66 13z" />
    <glyph glyph-name="sterling.onum" horiz-adv-x="647" 
d="M241 238v-165h331v-73h-488v73h81v165h-81v71h81v46q0 82 54.5 137t137.5 55h184v-73h-182q-51 0 -84.5 -35t-33.5 -89v-41h228v-71h-228z" />
    <glyph glyph-name="currency.tnum.onum" 
d="M520 330q0 -63 -36 -112l79 -79l-49 -49l-78 79q-51 -35 -111 -35q-62 0 -111 35l-78 -79l-49 49l78 78q-36 50 -36 113q0 60 35 111l-77 77l49 48l77 -77q49 36 112 36q62 0 112 -36l77 77l49 -48l-78 -78q35 -49 35 -110zM325 201q53 0 91 37.5t38 91.5q0 53 -38 90.5
t-91 37.5t-91 -37.5t-38 -90.5q0 -54 38 -91.5t91 -37.5z" />
    <glyph glyph-name="dollar.tnum.onum" 
d="M237 345l196 -69q55 -20 83 -57t28 -82q0 -58 -41.5 -97.5t-111.5 -39.5h-30v-123h-73v123h-161v72h264q35 0 56 19.5t21 48.5q0 47 -52 64l-201 70q-53 18 -81 55.5t-28 80.5q0 57 42 97t110 40h30v123h73v-123h157v-73h-260q-34 0 -53.5 -18.5t-19.5 -46.5
q0 -21 13.5 -38.5t38.5 -25.5z" />
    <glyph glyph-name="Euro.tnum.onum" 
d="M409 73h149v-73h-145q-105 0 -173.5 49t-94.5 128h-83v64h69q-2 22 -2 33q0 20 3 40h-70v65h86q28 75 95.5 122t169.5 47h144v-73h-148q-125 0 -179 -96h252v-65h-275q-3 -19 -3 -40q0 -11 2 -33h276v-64h-256q53 -104 183 -104z" />
    <glyph glyph-name="uni20B4.tnum.onum" 
d="M572 303h-494v62h316q34 0 53 16.5t19 39.5q0 21 -17 36t-49 15h-283v75h294q66 0 101.5 -28.5t35.5 -72.5q0 -28 -14.5 -49t-34.5 -31v-1h73v-62zM78 244h494v-62h-317q-33 0 -52 -16.5t-19 -38.5t17 -37.5t49 -15.5h282v-74h-293q-66 0 -101.5 28.5t-35.5 73.5
q0 25 14 46.5t35 31.5v2h-73v62z" />
    <glyph glyph-name="uni20BD.tnum.onum" 
d="M404 170h-186v-93h306v-69h-306v-137h-75v137h-102v69h102v93h-102v69h102v308h262q57 0 101.5 -21t67.5 -54t34 -73t0.5 -80.5t-34 -73.5t-68.5 -54t-102 -21zM403 474h-185v-235h185q64 0 100 36.5t35.5 81t-36.5 81t-99 36.5z" />
    <glyph glyph-name="sterling.tnum.onum" 
d="M237 238v-165h331v-73h-488v73h82v165h-82v71h82v46q0 82 54 137t137 55h184v-73h-181q-51 0 -85 -35t-34 -89v-41h228v-71h-228z" />
    <glyph glyph-name="yen.tnum.onum" 
d="M526 546h90l-236 -295h189v-67h-205v-98h205v-67h-205v-148h-75v148h-208v67h208v98h-208v67h190l-234 295h92l199 -252z" />
    <glyph glyph-name="yen.onum" horiz-adv-x="718" 
d="M559 546h90l-236 -295h189v-67h-205v-98h205v-67h-205v-148h-75v148h-208v67h208v98h-208v67h190l-234 295h92l199 -252z" />
    <glyph glyph-name="cent.tnum" 
d="M334 59q61 0 107 33.5t62 86.5h79q-17 -75 -74.5 -127.5t-138.5 -62.5v-116h-75v117q-98 13 -159 85t-61 172t61 171.5t159 84.5v117h75v-116q81 -10 138.5 -61.5t74.5 -125.5h-79q-16 51 -62 84t-107 33q-82 0 -133.5 -54t-51.5 -133q0 -80 51.5 -134t133.5 -54z" />
    <glyph glyph-name="currency.tnum" 
d="M520 330q0 -63 -36 -112l79 -79l-49 -49l-78 79q-51 -35 -111 -35q-62 0 -111 35l-78 -79l-49 49l78 78q-36 50 -36 113q0 60 35 111l-77 77l49 48l77 -77q49 36 112 36q62 0 112 -36l77 77l49 -48l-78 -78q35 -49 35 -110zM325 201q53 0 91 37.5t38 91.5q0 53 -38 90.5
t-91 37.5t-91 -37.5t-38 -90.5q0 -54 38 -91.5t91 -37.5z" />
    <glyph glyph-name="dollar.tnum" 
d="M225 412l216 -57q69 -19 104.5 -66t33.5 -102q-3 -63 -53 -110t-131 -47h-31v-96h-76v96h-196v75h303q46 0 74 25t30 60q1 30 -19.5 56t-59.5 37l-217 57q-65 18 -99 61t-32 95q2 62 50.5 108t128.5 46h37v97h76v-97h174v-73h-287q-43 0 -70.5 -22.5t-29.5 -57.5
q-1 -29 18 -52.5t56 -32.5z" />
    <glyph glyph-name="Euro.tnum" 
d="M463 75h123v-75h-119q-121 0 -206 61t-116 163h-89v69h75q-2 28 -2 42q0 23 3 46h-76v69h91q32 101 116 160.5t204 59.5h118v-75h-122q-84 0 -144.5 -38.5t-88.5 -106.5h270v-69h-289q-3 -22 -3 -46q0 -21 3 -42h289v-69h-272q28 -69 88.5 -109t146.5 -40z" />
    <glyph glyph-name="uni20B4.tnum" 
d="M593 379h-536v71h332q45 0 70.5 23t23.5 54q-1 29 -25 49.5t-69 20.5h-281v73h288q82 0 124.5 -35.5t42.5 -89.5q0 -29 -16.5 -54.5t-39.5 -38.5v-2h86v-71zM57 291h536v-71h-332q-43 0 -68 -22t-26 -51q-1 -30 23.5 -52t70.5 -22h281v-73h-287q-82 0 -125 35.5t-43 89.5
q0 28 16.5 53.5t39.5 39.5v2h-86v71z" />
    <glyph glyph-name="uni20BD.tnum" 
d="M406 293h-187v-90h304v-69h-304v-134h-77v134h-102v69h102v90h-102v71h102v306h265q57 0 102.5 -21t69 -54t34.5 -73t0 -80.5t-34.5 -73.5t-69 -54t-103.5 -21zM405 595h-186v-231h186q64 0 100 36t35.5 79.5t-36.5 79.5t-99 36z" />
    <glyph glyph-name="sterling.tnum" 
d="M239 300v-225h334v-75h-493v75h81v225h-81v73h81v105q0 82 54.5 137t137.5 55h188v-74h-186q-50 0 -83 -34.5t-33 -88.5v-100h230v-73h-230z" />
    <glyph glyph-name="yen.tnum" 
d="M524 670h92l-234 -295h190v-68h-205v-89h205v-68h-205v-150h-77v150h-208v68h208v89h-208v68h190l-230 295h93l195 -249z" />
    <glyph glyph-name="arrowup.alt1" horiz-adv-x="629" 
d="M315 683l246 -244v-100l-212 215v-554h-71v552l-210 -213v100z" />
    <glyph glyph-name="arrowright.alt1" horiz-adv-x="791" 
d="M409 493h100l244 -247l-244 -246h-100l215 212h-554v71h552z" />
    <glyph glyph-name="arrowdown.alt1" horiz-adv-x="629" 
d="M350 665v-552l211 213v-100l-247 -244l-246 244v100l211 -214v553h71z" />
    <glyph glyph-name="arrowleft.alt1" horiz-adv-x="815" 
d="M193 283h552v-71h-554l215 -212h-100l-244 246l244 247h100z" />
    <glyph glyph-name="arrowup.alt2" horiz-adv-x="629" 
d="M315 683l246 -244h-212v-439h-71v439h-210z" />
    <glyph glyph-name="arrowright.alt2" horiz-adv-x="815" 
d="M509 493l244 -247l-244 -246v212h-439v71h439v210z" />
    <glyph glyph-name="arrowdown.alt2" horiz-adv-x="629" 
d="M350 665v-439h211l-247 -244l-246 244h211v439h71z" />
    <glyph glyph-name="arrowleft.alt2" horiz-adv-x="815" 
d="M305 283h440v-71h-440v-212l-243 246l243 247v-210z" />
    <glyph glyph-name="arrowright.alt1.case" horiz-adv-x="815" 
d="M409 582h100l244 -247l-244 -246h-100l214 211h-553v71h553z" />
    <glyph glyph-name="arrowleft.alt1.case" horiz-adv-x="815" 
d="M192 371h553v-71h-554l214 -211h-100l-243 246l243 247h100z" />
    <glyph glyph-name="arrowright.alt2.case" horiz-adv-x="815" 
d="M509 582l244 -247l-244 -246v211h-439v71h439v211z" />
    <glyph glyph-name="arrowleft.alt2.case" horiz-adv-x="815" 
d="M305 371h440v-71h-440v-211l-243 246l243 247v-211z" />
    <glyph glyph-name="arrowright.case" horiz-adv-x="690" 
d="M113 625l500 -290l-500 -288v578z" />
    <glyph glyph-name="arrowleft.case" horiz-adv-x="690" 
d="M577 47l-500 288l500 290v-578z" />
    <glyph glyph-name="ampersand.alt" horiz-adv-x="817" 
d="M575 189l183 -189h-104l-141 144l-163 -119q-67 -47 -138 -36.5t-112 67.5q-39 54 -27 123.5t72 113.5l131 95l-83 85q-28 29 -34.5 64.5t6.5 64.5t44.5 48.5t72.5 19.5h149q59 0 93 -36.5t27.5 -86.5t-54.5 -85l-109 -80l136 -141l182 133v-89zM248 527l91 -94l115 84
q28 21 18.5 49t-43.5 28h-151q-30 0 -40.5 -23.5t10.5 -43.5zM307 83l156 113l-137 141l-134 -98q-36 -26 -43.5 -66t15.5 -71q23 -34 62.5 -40.5t80.5 21.5z" />
    <glyph glyph-name="uni0328.001" horiz-adv-x="0" 
d="M-134 0h74l-79 -105q-7 -11 -2 -21t18 -10h63v-64h-82q-49 0 -68 38.5t11 76.5z" />
    <glyph glyph-name="uni0328.002" horiz-adv-x="0" 
d="M-44 -200h-67q-41 0 -64 23t-23 64v113h65v-105q0 -31 32 -31h57v-64z" />
    <glyph glyph-name="uni0308.case" horiz-adv-x="0" 
d="M-329 832h73v-112h-73v112zM-152 832h73v-112h-73v112z" />
    <glyph glyph-name="uni0307.case" horiz-adv-x="0" 
d="M-155 832h75v-112h-75v112z" />
    <glyph glyph-name="gravecomb.case" horiz-adv-x="0" 
d="M-218 832h84l95 -112h-82z" />
    <glyph glyph-name="acutecomb.case" horiz-adv-x="0" 
d="M-218 720l95 112h85l-98 -112h-82z" />
    <glyph glyph-name="uni030B.case" horiz-adv-x="0" 
d="M-392 720l95 112h85l-98 -112h-82zM-217 720l95 112h84l-97 -112h-82z" />
    <glyph glyph-name="uni0302.case" horiz-adv-x="0" 
d="M-140 832l104 -112h-82l-66 73l-66 -73h-82l105 112h87z" />
    <glyph glyph-name="uni030C.case" horiz-adv-x="0" 
d="M-184 759l65 73h83l-105 -112h-87l-105 112h83z" />
    <glyph glyph-name="uni0306.case" horiz-adv-x="0" 
d="M-359 796v36h69v-26q0 -13 8.5 -21.5t21.5 -8.5h98q13 0 21.5 8.5t8.5 21.5v26h68v-36q0 -34 -20.5 -55t-54.5 -21h-144q-34 0 -55 21t-21 55z" />
    <glyph glyph-name="uni030A.case" horiz-adv-x="0" 
d="M-167 703q-45 0 -76.5 31t-31.5 76t31.5 76t76.5 31t76.5 -31t31.5 -76t-31.5 -76t-76.5 -31zM-167 760q22 0 36.5 14t14.5 36t-14.5 36.5t-36.5 14.5t-36.5 -14.5t-14.5 -36.5t14.5 -36t36.5 -14z" />
    <glyph glyph-name="tildecomb.case" horiz-adv-x="0" 
d="M-289 720h-64v72q0 41 34.5 57.5t70.5 -6.5l89 -57q9 -5 15.5 -1.5t6.5 12.5v55h63v-72q0 -41 -34.5 -57.5t-70.5 6.5l-89 57q-8 5 -14.5 1.5t-6.5 -12.5v-55z" />
    <glyph glyph-name="uni0304.case" horiz-adv-x="0" 
d="M-79 720h-280v66h280v-66z" />
    <glyph glyph-name="uni0326.case" horiz-adv-x="0" 
d="M-217 -200l95 142h84l-97 -142h-82z" />
    <glyph glyph-name="uni0327.case" horiz-adv-x="0" 
d="M-143 -46h16q37 0 58.5 -21.5t21.5 -54.5q0 -32 -22 -55t-58 -23h-118v57h114q11 0 18.5 7t7.5 18q0 22 -26 22h-69v144h57v-94z" />
    <glyph glyph-name="uni0328.case" horiz-adv-x="0" 
d="M-136 0h77l-79 -106q-8 -10 -2.5 -20.5t18.5 -10.5h63v-63h-85q-49 0 -68 38.5t11 76.5z" />
    <glyph glyph-name="brevecombcy" horiz-adv-x="0" 
d="M-365 656v64h65v-54q0 -13 8.5 -21.5t21.5 -8.5h103q13 0 21.5 8.5t8.5 21.5v54h65v-64q0 -34 -21.5 -56t-55.5 -22h-139q-34 0 -55.5 22t-21.5 56z" />
    <glyph glyph-name="brevecombcy.case" horiz-adv-x="0" 
d="M-307 796v36h69v-26q0 -13 8.5 -21.5t21.5 -8.5h98q13 0 21.5 8.5t8.5 21.5v26h68v-36q0 -34 -20.5 -55t-54.5 -21h-144q-34 0 -55 21t-21 55z" />
    </font>
</defs>
</svg>
