<?xml version="1.0" standalone="no"?>
<!DOCTYPE svg PUBLIC "-//W3C//DTD SVG 1.1//EN" "http://www.w3.org/Graphics/SVG/1.1/DTD/svg11.dtd" >
<svg xmlns="http://www.w3.org/2000/svg" xmlns:xlink="http://www.w3.org/1999/xlink" version="1.1">
<metadata>
Created by FontForge 20190801 at Fri Oct 30 14:20:27 2020
 By www-data
Copyright (c) 2020 by Denis Serebryakov. All rights reserved.
</metadata>
<defs>
<font id="FontsFreeNetNekstBold" horiz-adv-x="635" >
  <font-face 
    font-family="FontsFreeNetNekstBold"
    font-weight="700"
    font-stretch="normal"
    units-per-em="1000"
    panose-1="1 0 0 0 0 0 0 0 0 0"
    ascent="800"
    descent="-200"
    x-height="498"
    cap-height="670"
    bbox="-457 -215 1123 945"
    underline-thickness="50"
    underline-position="-175"
    unicode-range="U+0020-277E"
  />
<missing-glyph horiz-adv-x="500" 
d="M93 800h317v-1000h-317v1000zM333 700v33h-165v-33h65v-37h-66v-33h166v33h-66v37h66zM267 534v70h-100v-104h166v34h-66zM200 570h33v-36h-33v36zM333 440v33h-166v-33h66v-37h-66v-33h100v70h66zM333 313v100h-33v-66h-133v-34h166zM333 178v113h-100v-56h34v23h33v-47
h-100v80h-33v-113h166zM333 5v113h-166v-113h166zM200 85h100v-47h-100v47zM333 -51v33h-166v-33h70l-70 -47v-33h166v33h-102l70 47h32z" />
    <glyph glyph-name="f_f" unicode="ff" horiz-adv-x="797" 
d="M781 589h-165q-18 0 -29 -10t-11 -27v-54h205v-130h-205v-368h-135v368h-221v-368h-135v368h-70v130h70v76q0 65 41.5 105.5t107.5 40.5h158v-131h-132q-18 0 -29 -10t-11 -27v-54h221v76q0 65 41.5 105.5t107.5 40.5h191v-131z" />
    <glyph glyph-name=".notdef" horiz-adv-x="500" 
d="M93 800h317v-1000h-317v1000zM333 700v33h-165v-33h65v-37h-66v-33h166v33h-66v37h66zM267 534v70h-100v-104h166v34h-66zM200 570h33v-36h-33v36zM333 440v33h-166v-33h66v-37h-66v-33h100v70h66zM333 313v100h-33v-66h-133v-34h166zM333 178v113h-100v-56h34v23h33v-47
h-100v80h-33v-113h166zM333 5v113h-166v-113h166zM200 85h100v-47h-100v47zM333 -51v33h-166v-33h70l-70 -47v-33h166v33h-102l70 47h32z" />
    <glyph glyph-name=".null" horiz-adv-x="0" 
 />
    <glyph glyph-name="nonmarkingreturn" horiz-adv-x="333" 
 />
    <glyph glyph-name="space" unicode=" " horiz-adv-x="237" 
 />
    <glyph glyph-name="exclam" unicode="!" horiz-adv-x="296" 
d="M87 222l-9 448h142l-10 -448h-123zM76 150h145v-150h-145v150z" />
    <glyph glyph-name="quotedbl" unicode="&#x22;" horiz-adv-x="437" 
d="M78 720h119l-30 -288h-89v288zM269 720h119l-30 -288h-89v288z" />
    <glyph glyph-name="numbersign" unicode="#" horiz-adv-x="745" 
d="M718 498l-31 -103h-127l-36 -120h127l-31 -103h-127l-51 -172h-110l51 172h-120l-51 -172h-109l51 172h-126l30 103h127l36 120h-127l31 103h127l51 172h109l-51 -172h120l51 172h110l-51 -172h127zM294 275h120l36 120h-120z" />
    <glyph glyph-name="dollar" unicode="$" 
d="M233 435l213 -51q71 -17 109 -65.5t36 -109.5q-2 -72 -55 -125.5t-142 -53.5h-8v-88h-132v88h-182v136h321q22 0 36 12.5t15 29.5q0 35 -38 45l-213 51q-71 17 -108.5 65t-36.5 106q1 71 53.5 123.5t140.5 52.5h12v87h132v-87h162v-137h-302q-22 0 -35 -10t-14 -27
q0 -33 36 -42z" />
    <glyph glyph-name="percent" unicode="%" horiz-adv-x="793" 
d="M204 354q-70 0 -118 48t-48 118q0 68 48 116.5t118 48.5q69 0 116.5 -48.5t47.5 -116.5q0 -70 -47 -118t-117 -48zM108 0l470 670h109l-470 -670h-109zM204 449q29 0 50 20.5t21 50.5q0 29 -21 49.5t-50 20.5q-28 0 -48.5 -20.5t-20.5 -49.5q0 -30 20 -50.5t49 -20.5z
M590 -15q-70 0 -118 48t-48 118q0 68 48 116.5t118 48.5q69 0 116.5 -48.5t47.5 -116.5q0 -70 -47 -118t-117 -48zM590 80q29 0 50 20.5t21 50.5q0 29 -21 49.5t-50 20.5q-28 0 -48.5 -20.5t-20.5 -49.5q0 -30 20 -50.5t49 -20.5z" />
    <glyph glyph-name="ampersand" unicode="&#x26;" horiz-adv-x="758" 
d="M565 178l164 -178h-175l-98 104l-114 -78q-69 -46 -147 -37t-122 68q-44 58 -31 135t74 118l90 60l-47 50q-37 39 -45.5 84.5t8 81.5t56.5 60t93 24h240v-128h-232q-17 0 -22 -12t6 -25l214 -232l180 122v-154zM267 129l101 69l-77 81l-88 -59q-21 -15 -26 -37.5t8 -40.5
q13 -19 35.5 -23t46.5 10z" />
    <glyph glyph-name="quotesingle" unicode="'" horiz-adv-x="253" 
d="M64 720h119l-30 -288h-89v288z" />
    <glyph glyph-name="parenleft" unicode="(" horiz-adv-x="311" 
d="M300 -200h-125q-127 224 -127 460t127 460h125q-126 -230 -126 -460q0 -231 126 -460z" />
    <glyph glyph-name="parenright" unicode=")" horiz-adv-x="311" 
d="M136 -200h-126q127 231 127 460t-127 460h126q128 -220 128 -460t-128 -460z" />
    <glyph glyph-name="asterisk" unicode="*" horiz-adv-x="422" 
d="M278 500l101 -50l-41 -69l-94 61l7 -112h-80l7 112l-94 -62l-40 70l100 50l-100 50l41 69l93 -61l-7 112h80l-7 -112l94 62l40 -70z" />
    <glyph glyph-name="plus" unicode="+" horiz-adv-x="573" 
d="M349 386h179v-125h-179v-180h-125v180h-180v125h180v179h125v-179z" />
    <glyph glyph-name="comma" unicode="," horiz-adv-x="284" 
d="M99 150h145l-98 -288h-121z" />
    <glyph glyph-name="hyphen" unicode="-" horiz-adv-x="462" 
d="M53 211v122h356v-122h-356z" />
    <glyph glyph-name="period" unicode="." horiz-adv-x="285" 
d="M70 150h145v-150h-145v150z" />
    <glyph glyph-name="slash" unicode="/" horiz-adv-x="501" 
d="M5 -200l386 1000h105l-386 -1000h-105z" />
    <glyph glyph-name="zero" unicode="0" horiz-adv-x="625" 
d="M41 258v154q0 121 77 197t194 76t195 -76t78 -196v-155q0 -120 -79 -196.5t-196 -76.5q-116 0 -192.5 76.5t-76.5 196.5zM183 412v-154q0 -61 35.5 -96t91.5 -35q58 0 95 35.5t37 95.5v155q0 60 -36.5 95.5t-93.5 35.5t-93 -35.5t-36 -96.5z" />
    <glyph glyph-name="one" unicode="1" horiz-adv-x="382" 
d="M318 670v-670h-142v532h-154v138h296z" />
    <glyph glyph-name="two" unicode="2" horiz-adv-x="546" 
d="M433 322l-188 -184h265v-138h-478v111l309 305q25 25 25 56q0 25 -19 42.5t-49 17.5h-260v138h260q93 0 151 -54t58 -133q0 -89 -74 -161z" />
    <glyph glyph-name="three" unicode="3" horiz-adv-x="557" 
d="M501 566l-154 -172q74 -5 127.5 -54.5t53.5 -133.5q0 -89 -58.5 -147.5t-144.5 -58.5h-289v138h274q33 0 53.5 21t20.5 50t-20.5 49.5t-53.5 20.5h-149v87l148 166h-273v138h465v-104z" />
    <glyph glyph-name="four" unicode="4" horiz-adv-x="632" 
d="M502 290h107v-129h-107v-161h-143v161h-337v102l275 407h205v-380zM359 538l-161 -248h161v248z" />
    <glyph glyph-name="five" unicode="5" horiz-adv-x="555" 
d="M181 409h140q92 0 149 -56.5t57 -142.5q0 -90 -58 -150t-148 -60h-268v138h259q33 0 52 21t19 50q1 29 -18 49.5t-53 20.5h-268l35 391h404v-138h-290z" />
    <glyph glyph-name="six" unicode="6" horiz-adv-x="597" 
d="M32 209q0 22 4 39l48 285q11 64 54 100.5t112 36.5h245v-138h-231q-40 0 -47 -38l-18 -106h4q51 37 130 39q113 2 176 -58t63 -159q0 -97 -75 -160.5t-194 -63.5q-122 0 -196.5 62.5t-74.5 160.5zM172 209q0 -39 34.5 -63.5t96.5 -24.5q61 0 95 25t34 64q0 41 -34.5 65.5
t-96.5 24.5q-59 0 -94 -25t-35 -66z" />
    <glyph glyph-name="seven" unicode="7" horiz-adv-x="519" 
d="M22 532v138h475v-106l-263 -564h-155l256 532h-313z" />
    <glyph glyph-name="eight" unicode="8" horiz-adv-x="607" 
d="M32 189q0 54 29.5 96t87.5 61v4q-50 20 -75.5 58.5t-25.5 85.5q0 87 71 139t184 52q114 0 185.5 -52t71.5 -139q0 -47 -26 -85.5t-77 -58.5v-4q58 -19 88 -61.5t30 -95.5q0 -95 -76 -149t-196 -54q-119 0 -195 55t-76 148zM188 480q0 -33 30.5 -54t84.5 -21q54 1 85 21.5
t31 53.5q0 34 -31.5 55t-84.5 21q-52 0 -83.5 -21.5t-31.5 -54.5zM175 200q0 -35 35 -60t93 -25q61 0 95 24.5t34 60.5q0 35 -34.5 58.5t-94.5 23.5q-61 0 -94.5 -23.5t-33.5 -58.5z" />
    <glyph glyph-name="nine" unicode="9" horiz-adv-x="593" 
d="M561 461q0 -20 -3 -39l-48 -285q-11 -64 -54.5 -100.5t-112.5 -36.5h-245v138h231q40 0 47 38l18 106h-4q-50 -37 -129 -39q-114 -2 -176.5 57.5t-62.5 159.5q0 97 75 160.5t193 63.5q122 0 196.5 -62.5t74.5 -160.5zM421 461q0 39 -34.5 63.5t-96.5 24.5q-61 0 -95 -25
t-34 -64q0 -41 34.5 -65.5t96.5 -24.5q60 0 94.5 25t34.5 66z" />
    <glyph glyph-name="colon" unicode=":" horiz-adv-x="294" 
d="M70 498h145v-150h-145v150zM70 150h145v-150h-145v150z" />
    <glyph glyph-name="semicolon" unicode=";" horiz-adv-x="283" 
d="M71 498h145v-150h-145v150zM87 150h145l-99 -288h-120z" />
    <glyph glyph-name="less" unicode="&#x3c;" horiz-adv-x="562" 
d="M502 78l-458 173v125l458 193v-135l-289 -115v-4l289 -103v-134z" />
    <glyph glyph-name="equal" unicode="=" horiz-adv-x="629" 
d="M79 368v124h471v-124h-471zM79 154v125h471v-125h-471z" />
    <glyph glyph-name="greater" unicode="&#x3e;" horiz-adv-x="562" 
d="M518 376v-125l-458 -173v134l289 103v4l-289 115v135z" />
    <glyph glyph-name="question" unicode="?" horiz-adv-x="509" 
d="M26 670h253q90 0 141 -56t51 -130t-51.5 -129.5t-142.5 -55.5h-38v-68h-131v188h160q31 0 48 18t17 43q0 24 -17 41.5t-48 17.5h-242v131zM246 0h-145v150h145v-150z" />
    <glyph glyph-name="at" unicode="@" horiz-adv-x="968" 
d="M292 670h393q99 0 164 -64.5t65 -162.5v-264q0 -73 -46.5 -114t-110.5 -41q-50 -2 -92.5 23t-59.5 72q-15 -39 -53 -67t-95 -28q-87 0 -146 62t-59 160t58.5 161.5t146.5 63.5q97 0 139 -74v60h114v-282q0 -23 13 -35t32 -12q18 0 30.5 12t12.5 35v259q0 53 -35 88
t-89 35h-371q-54 0 -89 -35t-35 -88v-370q0 -53 35 -88t89 -35h396v-113h-407q-99 0 -164 64t-65 162v389q0 98 65 162.5t164 64.5zM481 134q50 0 81.5 33t31.5 81t-31.5 80t-80.5 32t-81 -31.5t-32 -80.5q0 -50 31.5 -82t80.5 -32z" />
    <glyph glyph-name="A" unicode="A" horiz-adv-x="743" 
d="M726 0h-161l-56 142h-281l-55 -142h-156l275 670h158zM368 499l-91 -232h182z" />
    <glyph glyph-name="B" unicode="B" horiz-adv-x="668" 
d="M529 353v-5q47 -18 76 -58t29 -97q0 -83 -58.5 -138t-144.5 -55h-365v670h353q84 0 140 -49.5t56 -128.5q0 -45 -23 -82t-63 -57zM396 540h-188v-141h187q33 0 54 21t21 50t-21 49.5t-53 20.5zM208 129h203q34 0 56 22.5t22 53.5q0 30 -22.5 51t-57.5 21h-201v-148z" />
    <glyph glyph-name="C" unicode="C" horiz-adv-x="746" 
d="M570 271h147q-16 -124 -108.5 -204.5t-230.5 -80.5q-154 0 -250 100.5t-96 247.5q0 148 96 249.5t250 101.5q134 0 226.5 -79t110.5 -200h-148q-17 63 -67.5 101.5t-122.5 37.5q-90 -1 -145 -61.5t-55 -148.5t55 -149t147 -61q73 0 124.5 40t66.5 106z" />
    <glyph glyph-name="D" unicode="D" horiz-adv-x="724" 
d="M66 0v670h282q149 0 246 -94t97 -239v-3q0 -145 -97 -239.5t-246 -94.5h-282zM346 532h-138v-393h138q89 0 144.5 54t55.5 141v3q0 87 -55.5 141t-144.5 54z" />
    <glyph glyph-name="E" unicode="E" horiz-adv-x="620" 
d="M579 0h-513v670h513v-138h-371v-125h328v-132h-328v-137h371v-138z" />
    <glyph glyph-name="F" unicode="F" horiz-adv-x="606" 
d="M578 670v-138h-370v-141h333v-132h-333v-259h-142v670h512z" />
    <glyph glyph-name="G" unicode="G" horiz-adv-x="761" 
d="M373 373h357q11 -165 -88 -276t-261 -111q-154 0 -251 100t-97 248q0 147 96.5 249t252.5 102q125 0 215 -68t118 -177h-158q-22 48 -68.5 76.5t-107.5 27.5q-92 -1 -147.5 -61t-55.5 -147q0 -88 56.5 -148.5t149.5 -61.5q69 -1 119 31.5t69 87.5h-199v128z" />
    <glyph glyph-name="H" unicode="H" horiz-adv-x="732" 
d="M523 411v259h143v-670h-143v273h-315v-273h-142v670h142v-259h315z" />
    <glyph glyph-name="I" unicode="I" horiz-adv-x="274" 
d="M66 0v670h142v-670h-142z" />
    <glyph glyph-name="J" unicode="J" horiz-adv-x="479" 
d="M276 670h142v-517q0 -73 -39.5 -113t-112.5 -40h-241v138h204q47 0 47 46v486z" />
    <glyph glyph-name="K" unicode="K" horiz-adv-x="701" 
d="M659 670l-151 -260q137 -1 137 -144v-266h-142v236q0 40 -41 40h-254v-276h-142v670h142v-260h147l148 260h156z" />
    <glyph glyph-name="L" unicode="L" horiz-adv-x="578" 
d="M66 0v670h143v-531h344v-139h-487z" />
    <glyph glyph-name="M" unicode="M" horiz-adv-x="888" 
d="M822 670v-670h-142v460l-191 -460h-91l-190 458v-458h-142v670h197l182 -446l182 446h195z" />
    <glyph glyph-name="N" unicode="N" horiz-adv-x="759" 
d="M551 230v440h142v-670h-142l-343 467v-467h-142v670h162z" />
    <glyph glyph-name="O" unicode="O" horiz-adv-x="772" 
d="M386 -14q-158 0 -255.5 100.5t-97.5 247.5t98 249t255 102t255 -102t98 -249t-97.5 -247.5t-255.5 -100.5zM386 125q94 0 151 61t57 149t-57 149t-151 61t-151 -61t-57 -149q0 -87 57 -148.5t151 -61.5z" />
    <glyph glyph-name="P" unicode="P" horiz-adv-x="664" 
d="M402 670q99 0 166 -65.5t67 -164.5q0 -101 -67.5 -165.5t-165.5 -64.5h-194v-210h-142v670h336zM208 345h183q43 0 71.5 26t28.5 69q0 40 -29 66t-71 26h-183v-187z" />
    <glyph glyph-name="Q" unicode="Q" horiz-adv-x="775" 
d="M616 129v-3h120v-131h-356q-154 0 -250.5 99.5t-96.5 243.5q0 145 96 246t251 101q153 0 250 -96.5t97 -234.5q0 -70 -29 -129t-82 -96zM380 134q91 0 147 60.5t56 144.5q0 86 -56 146t-147 60t-147 -60t-56 -146q0 -84 56 -144.5t147 -60.5z" />
    <glyph glyph-name="R" unicode="R" horiz-adv-x="707" 
d="M208 0h-142v670h343q104 0 167.5 -49t63.5 -138q0 -93 -66 -141v-3q82 -21 82 -125v-214h-142v188q0 40 -42 40h-264v-228zM208 532v-175h190q45 0 72.5 23.5t27.5 64.5q0 40 -28 63.5t-71 23.5h-191z" />
    <glyph glyph-name="S" unicode="S" horiz-adv-x="649" 
d="M231 670h345v-138h-335q-26 0 -40 -14t-14 -34q0 -17 11 -31t31 -19l239 -56q74 -17 113 -68.5t39 -115.5q0 -79 -53.5 -136.5t-148.5 -57.5h-359v139h354q25 0 40.5 16t15.5 37q0 41 -45 51l-240 57q-73 18 -112 68.5t-39 112.5q0 77 52.5 133t145.5 56z" />
    <glyph glyph-name="T" unicode="T" horiz-adv-x="641" 
d="M25 670h592v-138h-225v-532h-143v532h-224v138z" />
    <glyph glyph-name="U" unicode="U" horiz-adv-x="701" 
d="M53 287v383h143v-381q0 -74 41.5 -121.5t112.5 -47.5q72 0 113.5 47.5t41.5 121.5v381h142v-383q0 -139 -80.5 -222t-216.5 -83q-135 0 -216 83t-81 222z" />
    <glyph glyph-name="V" unicode="V" horiz-adv-x="746" 
d="M375 175l202 495h152l-279 -670h-155l-278 670h154z" />
    <glyph glyph-name="W" unicode="W" horiz-adv-x="979" 
d="M680 225l126 445h153l-192 -670h-159l-118 426l-119 -426h-159l-192 670h152l127 -446l122 446h137z" />
    <glyph glyph-name="X" unicode="X" horiz-adv-x="688" 
d="M427 343l244 -343h-179l-150 221l-150 -221h-174l242 340l-235 330h179l142 -209l147 209h164z" />
    <glyph glyph-name="Y" unicode="Y" horiz-adv-x="708" 
d="M532 670h161l-268 -411v-259h-142v258l-268 412h164l177 -280z" />
    <glyph glyph-name="Z" unicode="Z" horiz-adv-x="612" 
d="M562 558l-337 -420h355v-138h-546v112l334 420h-325v138h519v-112z" />
    <glyph glyph-name="bracketleft" unicode="[" horiz-adv-x="333" 
d="M318 720v-117h-127v-686h127v-117h-253v920h253z" />
    <glyph glyph-name="backslash" unicode="\" horiz-adv-x="501" 
d="M1 800h105l386 -1000h-105z" />
    <glyph glyph-name="bracketright" unicode="]" horiz-adv-x="333" 
d="M15 720h253v-920h-253v117h127v686h-127v117z" />
    <glyph glyph-name="asciicircum" unicode="^" horiz-adv-x="506" 
d="M321 670l150 -272h-137l-80 161l-81 -161h-137l150 272h135z" />
    <glyph glyph-name="underscore" unicode="_" horiz-adv-x="705" 
d="M53 -200v76h600v-76h-600z" />
    <glyph glyph-name="grave" unicode="`" horiz-adv-x="274" 
d="M15 720h132l118 -158h-128z" />
    <glyph glyph-name="a" unicode="a" horiz-adv-x="615" 
d="M428 434v64h134v-498h-134v66h-5q-24 -36 -66 -58t-95 -23q-102 0 -169.5 73.5t-67.5 189.5t66.5 191t171.5 74q52 0 94 -22t66 -57h5zM295 113q59 0 96 39.5t37 96.5q0 58 -37.5 97t-95.5 39q-59 0 -96.5 -38.5t-37.5 -97.5t37.5 -97.5t96.5 -38.5z" />
    <glyph glyph-name="b" unicode="b" horiz-adv-x="615" 
d="M353 513q102 1 169.5 -72.5t67.5 -190.5q0 -116 -66.5 -190.5t-171.5 -74.5q-52 1 -94.5 23t-66.5 57h-4v-65h-134v720h134v-288h4q25 36 67.5 58.5t94.5 22.5zM320 113q59 0 96.5 38.5t37.5 97.5t-37.5 97.5t-96.5 38.5t-96 -39.5t-37 -96.5q0 -58 37.5 -97t95.5 -39z
" />
    <glyph glyph-name="c" unicode="c" horiz-adv-x="559" 
d="M539 309h-141q-12 33 -41.5 53.5t-69.5 20.5q-58 0 -93 -38.5t-35 -95.5q0 -56 35 -94.5t93 -38.5q39 0 69 20.5t42 53.5h141q-16 -91 -84.5 -148t-168.5 -57q-118 0 -190 75t-72 189t72 189t190 75q101 0 169.5 -56.5t83.5 -147.5z" />
    <glyph glyph-name="d" unicode="d" horiz-adv-x="615" 
d="M428 432v288h134v-720h-134v65h-4q-24 -35 -66.5 -57t-94.5 -23q-105 0 -171.5 74.5t-66.5 190.5q0 117 67.5 190.5t169.5 72.5q52 0 94.5 -22.5t67.5 -58.5h4zM161 249q0 -59 37.5 -97.5t96.5 -38.5q58 0 95.5 39t37.5 97q0 57 -37 96.5t-96 39.5t-96.5 -38.5
t-37.5 -97.5z" />
    <glyph glyph-name="e" unicode="e" horiz-adv-x="564" 
d="M284 513q124 0 196 -88t58 -221h-376q6 -40 38.5 -67.5t82.5 -29.5q35 -2 65.5 12.5t43.5 38.5h141q-24 -82 -92 -127.5t-158 -45.5q-121 0 -190 76.5t-69 187.5q0 112 73.5 188t186.5 76zM283 392q-44 0 -76.5 -22.5t-43.5 -60.5h238q-11 39 -42.5 61t-75.5 22z" />
    <glyph glyph-name="f" unicode="f" horiz-adv-x="441" 
d="M425 589h-165q-18 0 -29 -10t-11 -27v-54h205v-130h-205v-368h-135v368h-70v130h70v76q0 65 41.5 105.5t107.5 40.5h191v-131z" />
    <glyph glyph-name="g" unicode="g" horiz-adv-x="615" 
d="M428 434v64h134v-549q0 -72 -39.5 -110.5t-112.5 -38.5h-320v135h291q47 0 47 45v86h-5q-24 -36 -66 -58t-95 -23q-102 0 -169.5 73.5t-67.5 189.5t66.5 191t171.5 74q52 0 94 -22t66 -57h5zM295 113q59 0 96 39.5t37 96.5q0 58 -37.5 97t-95.5 39q-59 0 -96.5 -38.5
t-37.5 -97.5t37.5 -97.5t96.5 -38.5z" />
    <glyph glyph-name="h" unicode="h" horiz-adv-x="580" 
d="M340 512q92 0 145 -59t53 -165v-288h-135v268q0 52 -29 82t-73 30q-47 0 -80 -33.5t-33 -88.5v-258h-135v720h135v-282h4q53 74 148 74z" />
    <glyph glyph-name="i" unicode="i" horiz-adv-x="240" 
d="M53 720h135v-158h-135v158zM53 498h135v-498h-135v498z" />
    <glyph glyph-name="j" unicode="j" horiz-adv-x="252" 
d="M64 720h135v-158h-135v158zM64 498h135v-552q0 -69 -40.5 -107.5t-109.5 -38.5h-122v132h97q40 0 40 37v529z" />
    <glyph glyph-name="k" unicode="k" horiz-adv-x="575" 
d="M536 498l-103 -177q42 -7 68 -37t26 -77v-207h-135v162q0 37 -40 37h-164v-199h-135v720h135v-397h103l98 175h147z" />
    <glyph glyph-name="l" unicode="l" horiz-adv-x="304" 
d="M47 144v576h135v-552q0 -37 40 -37h67v-131h-93q-71 0 -110 38t-39 106z" />
    <glyph glyph-name="m" unicode="m" horiz-adv-x="866" 
d="M634 512q81 0 135 -54t54 -157v-301h-135v280q0 51 -24 76t-63 25t-67.5 -29t-28.5 -87v-265h-135v279q0 51 -24 76t-62 25q-43 -1 -69.5 -34t-26.5 -87v-259h-135v498h129v-63h4q51 77 142 77q98 0 141 -81h4q59 81 161 81z" />
    <glyph glyph-name="n" unicode="n" horiz-adv-x="580" 
d="M340 512q92 0 145 -59t53 -165v-288h-135v268q0 52 -29 82t-73 30q-47 0 -80 -33.5t-33 -88.5v-258h-135v498h131v-60h5q53 74 151 74z" />
    <glyph glyph-name="o" unicode="o" horiz-adv-x="583" 
d="M292 -15q-120 0 -194 75t-74 189q0 113 74 188.5t194 75.5t194 -75.5t74 -188.5q0 -114 -74 -189t-194 -75zM292 116q58 0 95.5 38.5t37.5 94.5q0 57 -37 95.5t-96 38.5t-96 -38.5t-37 -95.5t37 -95t96 -38z" />
    <glyph glyph-name="p" unicode="p" horiz-adv-x="615" 
d="M352 513q105 1 171.5 -74t66.5 -191t-67.5 -189.5t-169.5 -73.5q-53 1 -95 23t-66 58h-5v-266h-134v698h134v-64h5q24 35 66.5 57t93.5 22zM320 113q59 0 96.5 38.5t37.5 97.5t-37.5 97.5t-96.5 38.5q-58 0 -95.5 -39t-37.5 -97q0 -57 37 -96.5t96 -39.5z" />
    <glyph glyph-name="q" unicode="q" horiz-adv-x="615" 
d="M428 434v64h134v-698h-134v266h-5q-24 -36 -66 -58t-95 -23q-102 0 -169.5 73.5t-67.5 189.5t66.5 191t171.5 74q51 0 93.5 -22t66.5 -57h5zM295 113q59 0 96 39.5t37 96.5q0 58 -37.5 97t-95.5 39q-59 0 -96.5 -38.5t-37.5 -97.5t37.5 -97.5t96.5 -38.5z" />
    <glyph glyph-name="r" unicode="r" horiz-adv-x="427" 
d="M306 498h105v-135h-112q-49 0 -80 -32t-31 -83v-248h-135v498h128v-78h5q29 78 120 78z" />
    <glyph glyph-name="s" unicode="s" horiz-adv-x="517" 
d="M186 498h274v-130h-270q-21 0 -21 -21q0 -18 17 -21l187 -38q57 -12 90 -49t33 -89q0 -65 -46.5 -107.5t-115.5 -42.5h-288v131h286q22 0 22 22q0 17 -17 22l-190 41q-54 11 -88 48t-34 87q0 64 46 105.5t115 41.5z" />
    <glyph glyph-name="t" unicode="t" horiz-adv-x="457" 
d="M425 498v-130h-205v-199q0 -18 11 -28t29 -10h165v-131h-190q-69 0 -109.5 39.5t-40.5 106.5v222h-70v130h70v172h135v-172h205z" />
    <glyph glyph-name="u" unicode="u" horiz-adv-x="568" 
d="M40 230v268h135v-266q0 -50 29 -83t80 -33t79.5 33t28.5 83v266h135v-268q0 -113 -65.5 -179t-177.5 -66t-178 66.5t-66 178.5z" />
    <glyph glyph-name="v" unicode="v" horiz-adv-x="574" 
d="M293 162l136 336h138l-213 -498h-135l-213 498h145z" />
    <glyph glyph-name="w" unicode="w" horiz-adv-x="787" 
d="M549 187l90 311h140l-159 -498h-129l-97 317l-98 -317h-129l-159 498h140l92 -311l93 311h121z" />
    <glyph glyph-name="x" unicode="x" horiz-adv-x="560" 
d="M366 253l188 -253h-173l-104 147l-101 -147h-170l188 250l-186 248h173l103 -148l100 148h159z" />
    <glyph glyph-name="y" unicode="y" horiz-adv-x="571" 
d="M305 120l122 378h137l-198 -579q-20 -57 -61 -88t-99 -31h-142v132h138q20 0 34 9l-229 557h148z" />
    <glyph glyph-name="z" unicode="z" horiz-adv-x="506" 
d="M469 388l-259 -257h269v-131h-452v111l260 257h-250v130h432v-110z" />
    <glyph glyph-name="braceleft" unicode="{" horiz-adv-x="334" 
d="M220 566v-210q0 -37 -16 -61.5t-44 -32.5v-5q27 -7 43.5 -31.5t16.5 -61.5v-210q0 -16 10.5 -26.5t27.5 -10.5h53v-117h-79q-62 0 -100 37t-38 98v226q0 17 -10 27t-27 10h-17v124h17q17 0 27 10t10 27v225q0 61 38 98.5t100 37.5h79v-117h-53q-17 0 -27.5 -10.5
t-10.5 -26.5z" />
    <glyph glyph-name="bar" unicode="|" horiz-adv-x="259" 
d="M79 -130v930h100v-930h-100z" />
    <glyph glyph-name="braceright" unicode="}" horiz-adv-x="334" 
d="M277 322h17v-124h-17q-16 0 -26.5 -10.5t-10.5 -26.5v-226q0 -61 -38 -98t-99 -37h-80v117h54q16 0 26.5 10.5t10.5 26.5v210q0 37 16.5 62t44.5 31v5q-28 7 -44.5 32t-16.5 62v210q0 16 -10.5 26.5t-26.5 10.5h-54v117h80q61 0 99 -37.5t38 -98.5v-225q0 -16 10.5 -26.5
t26.5 -10.5z" />
    <glyph glyph-name="asciitilde" unicode="~" 
d="M188 191h-114v171q0 53 44 76.5t97 -4.5l222 -119q10 -4 10 8v121h114v-170q0 -54 -44 -77.5t-97 4.5l-222 119q-3 2 -6.5 0t-3.5 -7v-122z" />
    <glyph glyph-name="exclamdown" unicode="&#xa1;" horiz-adv-x="291" 
d="M214 498v-150h-145v150h145zM213 -200h-142l9 477h123z" />
    <glyph glyph-name="cent" unicode="&#xa2;" horiz-adv-x="608" 
d="M310 116q39 0 69.5 20.5t41.5 53.5h142q-13 -75 -63.5 -128t-125.5 -70v-104h-132v104q-90 21 -142.5 91t-52.5 166t52.5 166t142.5 91v105h132v-105q76 -16 126 -69t63 -128h-142q-11 33 -41 53.5t-70 20.5q-58 0 -93 -38.5t-35 -95.5q0 -56 35 -94.5t93 -38.5z" />
    <glyph glyph-name="sterling" unicode="&#xa3;" horiz-adv-x="621" 
d="M270 273v-135h305v-138h-518v138h71v135h-71v124h71v67q0 89 58 147.5t144 58.5h205v-138h-190q-33 0 -54 -21.5t-21 -52.5v-61h191v-124h-191z" />
    <glyph glyph-name="currency" unicode="&#xa4;" horiz-adv-x="596" 
d="M506 330q0 -54 -26 -100l71 -71l-84 -84l-72 71q-46 -24 -97 -24q-53 0 -98 25l-72 -72l-83 84l70 72q-25 45 -25 99q0 51 24 97l-69 71l83 84l71 -70q45 25 99 25q53 0 98 -25l71 70l84 -84l-70 -70q25 -47 25 -98zM298 231q41 0 69.5 29t28.5 70q0 40 -29 69t-69 29
q-41 0 -70 -29t-29 -69q0 -41 29 -70t70 -29z" />
    <glyph glyph-name="yen" unicode="&#xa5;" horiz-adv-x="691" 
d="M497 670h160l-193 -267h140v-109h-187v-61h187v-108h-187v-125h-142v125h-187v108h187v61h-187v109h139l-192 267h164l149 -210z" />
    <glyph glyph-name="brokenbar" unicode="&#xa6;" horiz-adv-x="258" 
d="M79 405v395h100v-395h-100zM79 -130v401h100v-401h-100z" />
    <glyph glyph-name="section" unicode="&#xa7;" horiz-adv-x="556" 
d="M379 88l46 -25q65 -35 78.5 -98.5t-30.5 -114t-126 -50.5h-265v127h263q19 0 22 16.5t-14 23.5l-173 91q-60 31 -97 83.5t-37 116.5q0 63 37.5 109.5t93.5 64.5l-46 25q-48 26 -67.5 71.5t-9 87.5t52 73t103.5 31h264v-127h-263q-19 0 -22 -16.5t14 -23.5l174 -91
q60 -31 96.5 -83.5t36.5 -116.5q0 -63 -37.5 -109.5t-93.5 -64.5zM173 260q0 -43 30.5 -72.5t74.5 -29.5q45 0 75 29.5t30 72.5t-30 72.5t-75 29.5q-44 0 -74.5 -29.5t-30.5 -72.5z" />
    <glyph glyph-name="dieresis" unicode="&#xa8;" horiz-adv-x="419" 
d="M70 720h121v-158h-121v158zM263 720h121v-158h-121v158z" />
    <glyph glyph-name="copyright" unicode="&#xa9;" horiz-adv-x="789" 
d="M395 -15q-146 0 -248.5 102.5t-102.5 247.5t102.5 247.5t248.5 102.5q145 0 247.5 -102.5t102.5 -247.5t-102.5 -247.5t-247.5 -102.5zM395 68q111 0 188.5 77.5t77.5 189.5q0 111 -77.5 189t-188.5 78q-112 0 -189.5 -78t-77.5 -189q0 -112 77.5 -189.5t189.5 -77.5z
M568 376h-96q-8 22 -28 36.5t-47 14.5q-39 0 -63 -26.5t-24 -65.5q0 -38 24 -64.5t63 -26.5q27 0 47 14t28 37h96q-11 -61 -57.5 -99.5t-113.5 -38.5q-80 0 -128.5 51t-48.5 127q0 77 48.5 128t128.5 51q68 0 114 -38.5t57 -99.5z" />
    <glyph glyph-name="guillemotleft" unicode="&#xab;" horiz-adv-x="491" 
d="M165 435h126l-148 -190l148 -190h-126l-143 190zM360 435h126l-148 -190l148 -190h-126l-143 190z" />
    <glyph glyph-name="registered" unicode="&#xae;" horiz-adv-x="517" 
d="M259 685q86 0 147 -60.5t61 -147.5t-61 -147.5t-147 -60.5q-87 0 -148 60.5t-61 147.5t61 147.5t148 60.5zM259 312q68 0 116 48t48 117t-48 117t-116 48q-69 0 -117 -48t-48 -117t48 -117t117 -48zM324 477q31 -3 31 -38v-68h-45v61q0 13 -14 13h-83v-74h-46v214h114
q34 0 54 -16t19 -44q0 -35 -30 -48zM213 541v-56h64q14 0 23 7.5t9 20.5t-9 20.5t-23 7.5h-64z" />
    <glyph glyph-name="degree" unicode="&#xb0;" horiz-adv-x="386" 
d="M194 409q-58 0 -98 40t-40 98q0 57 40 97.5t98 40.5q57 0 96.5 -40.5t39.5 -97.5q0 -58 -39.5 -98t-96.5 -40zM194 493q22 0 37.5 16t15.5 38t-15.5 37.5t-37.5 15.5t-37.5 -15t-15.5 -38t15.5 -38.5t37.5 -15.5z" />
    <glyph glyph-name="uni00B2" unicode="&#xb2;" horiz-adv-x="335" 
d="M312 557q-2 -55 -49 -98l-99 -89h147v-94h-294v76l186 170q14 14 14 29q0 11 -9 18.5t-23 7.5h-165v93h168q56 0 90.5 -33.5t33.5 -79.5z" />
    <glyph glyph-name="uni00B3" unicode="&#xb3;" horiz-adv-x="338" 
d="M306 600l-85 -90q41 -6 70.5 -34.5t29.5 -75.5q0 -53 -36.5 -88.5t-88.5 -35.5h-176v93h165q16 0 27.5 9.5t11.5 23.5q0 13 -10.5 23t-28.5 10h-90v56l81 86h-156v93h286v-70z" />
    <glyph glyph-name="acute" unicode="&#xb4;" horiz-adv-x="274" 
d="M16 562l118 158h132l-122 -158h-128z" />
    <glyph glyph-name="paragraph" unicode="&#xb6;" horiz-adv-x="567" 
d="M488 670v-670h-143v210h-70q-98 0 -165.5 64.5t-67.5 165.5q0 99 67 164.5t166 65.5h213z" />
    <glyph glyph-name="periodcentered" unicode="&#xb7;" horiz-adv-x="294" 
d="M70 410h145v-150h-145v150z" />
    <glyph glyph-name="cedilla" unicode="&#xb8;" horiz-adv-x="279" 
d="M152 -34h11q41 0 63 -24t22 -58t-22.5 -59t-62.5 -25h-134v76h126q13 0 13 11t-13 11h-81v109h78v-41z" />
    <glyph glyph-name="uni00B9" unicode="&#xb9;" horiz-adv-x="235" 
d="M193 670v-394h-95v301h-94v93h189z" />
    <glyph glyph-name="guillemotright" unicode="&#xbb;" horiz-adv-x="494" 
d="M153 245l-148 190h125l144 -190l-144 -190h-125zM352 245l-148 190h126l143 -190l-143 -190h-126z" />
    <glyph glyph-name="onequarter" unicode="&#xbc;" horiz-adv-x="791" 
d="M200 276h-95v301h-94v93h189v-394zM90 0l470 670h103l-470 -670h-103zM699 180h66v-88h-66v-92h-96v92h-198v70l158 232h136v-214zM603 307l-82 -127h82v127z" />
    <glyph glyph-name="onehalf" unicode="&#xbd;" horiz-adv-x="844" 
d="M202 276h-95v301h-93v93h188v-394zM93 0l470 670h103l-470 -670h-103zM801 281q-2 -55 -49 -98l-98 -89h147v-94h-295v76l186 170q15 15 15 29q0 11 -9.5 18.5t-23.5 7.5h-165v93h168q56 0 90.5 -33.5t33.5 -79.5z" />
    <glyph glyph-name="threequarters" unicode="&#xbe;" horiz-adv-x="864" 
d="M334 400q0 -53 -36.5 -88.5t-88.5 -35.5h-176v93h165q16 0 27.5 9.5t11.5 23.5q0 13 -10.5 23t-28.5 10h-90v56l81 86h-156v93h286v-70l-85 -90q41 -6 70.5 -34.5t29.5 -75.5zM157 0l470 670h103l-470 -670h-103zM766 180h66v-88h-66v-92h-96v92h-198v70l158 232h136
v-214zM670 307l-82 -127h82v127z" />
    <glyph glyph-name="questiondown" unicode="&#xbf;" horiz-adv-x="492" 
d="M262 498h145v-150h-145v150zM240 -69h242v-131h-252q-90 0 -141.5 56t-51.5 130t51.5 129.5t142.5 55.5h38v96h132v-216h-161q-30 0 -47.5 -18t-17.5 -43q0 -24 17 -41.5t48 -17.5z" />
    <glyph glyph-name="Agrave" unicode="&#xc0;" horiz-adv-x="743" 
d="M359 848l115 -128h-128l-122 128h135zM726 0h-161l-56 142h-281l-55 -142h-156l275 670h158zM368 499l-91 -232h182z" />
    <glyph glyph-name="Aacute" unicode="&#xc1;" horiz-adv-x="743" 
d="M381 848h136l-122 -128h-128zM726 0h-161l-56 142h-281l-55 -142h-156l275 670h158zM368 499l-91 -232h182z" />
    <glyph glyph-name="Acircumflex" unicode="&#xc2;" horiz-adv-x="743" 
d="M430 720l-59 69l-59 -69h-125l118 128h132l118 -128h-125zM726 0h-161l-56 142h-281l-55 -142h-156l275 670h158zM368 499l-91 -232h182z" />
    <glyph glyph-name="Atilde" unicode="&#xc3;" horiz-adv-x="743" 
d="M313 761v-41h-105v85q0 47 34.5 65.5t83.5 0.5l90 -35q5 -2 8.5 0.5t3.5 7.5v40h106v-83q0 -46 -35.5 -66.5t-83.5 -1.5l-90 36q-12 4 -12 -8zM726 0h-161l-56 142h-281l-55 -142h-156l275 670h158zM368 499l-91 -232h182z" />
    <glyph glyph-name="Adieresis" unicode="&#xc4;" horiz-adv-x="743" 
d="M215 848h120v-128h-120v128zM408 848h120v-128h-120v128zM726 0h-161l-56 142h-281l-55 -142h-156l275 670h158zM368 499l-91 -232h182z" />
    <glyph glyph-name="Aring" unicode="&#xc5;" horiz-adv-x="743" 
d="M371 705q-51 0 -86.5 34.5t-35.5 85.5t35.5 85.5t86.5 34.5t86.5 -34.5t35.5 -85.5t-35.5 -85.5t-86.5 -34.5zM371 864q-17 0 -28 -11t-11 -28q0 -16 11.5 -27t27.5 -11t27.5 11t11.5 27q0 17 -11 28t-28 11zM726 0h-161l-56 142h-281l-55 -142h-156l275 670h158z
M368 499l-91 -232h182z" />
    <glyph glyph-name="AE" unicode="&#xc6;" horiz-adv-x="986" 
d="M946 670v-138h-298v-125h254v-132h-254v-137h298v-138h-440v171h-238l-88 -171h-164l359 670h571zM453 532l-118 -230h171v230h-53z" />
    <glyph glyph-name="Ccedilla" unicode="&#xc7;" horiz-adv-x="746" 
d="M570 271h147q-16 -123 -106.5 -203t-225.5 -82v-20h18q41 0 63 -24t22 -58t-22.5 -59t-62.5 -25h-134v76h125q13 0 13 11t-13 11h-87v94q-125 23 -200 118t-75 224q0 148 96 249.5t250 101.5q134 0 226.5 -79t110.5 -200h-148q-17 63 -67.5 101.5t-122.5 37.5
q-90 -1 -145 -61.5t-55 -148.5t55 -149t147 -61q73 0 124.5 40t66.5 106z" />
    <glyph glyph-name="Egrave" unicode="&#xc8;" horiz-adv-x="620" 
d="M176 848h135l115 -128h-128zM579 0h-513v670h513v-138h-371v-125h328v-132h-328v-137h371v-138z" />
    <glyph glyph-name="Eacute" unicode="&#xc9;" horiz-adv-x="620" 
d="M219 720l114 128h136l-122 -128h-128zM579 0h-513v670h513v-138h-371v-125h328v-132h-328v-137h371v-138z" />
    <glyph glyph-name="Ecircumflex" unicode="&#xca;" horiz-adv-x="620" 
d="M382 720l-59 69l-59 -69h-125l118 128h132l118 -128h-125zM579 670v-138h-371v-125h328v-132h-328v-137h371v-138h-513v670h513z" />
    <glyph glyph-name="Edieresis" unicode="&#xcb;" horiz-adv-x="620" 
d="M167 848h120v-128h-120v128zM360 848h120v-128h-120v128zM579 0h-513v670h513v-138h-371v-125h328v-132h-328v-137h371v-138z" />
    <glyph glyph-name="Igrave" unicode="&#xcc;" horiz-adv-x="274" 
d="M-9 848h135l115 -128h-128zM66 0v670h142v-670h-142z" />
    <glyph glyph-name="Iacute" unicode="&#xcd;" horiz-adv-x="274" 
d="M33 720l114 128h136l-122 -128h-128zM66 0v670h142v-670h-142z" />
    <glyph glyph-name="Icircumflex" unicode="&#xce;" horiz-adv-x="274" 
d="M196 720l-59 69l-59 -69h-125l118 128h132l118 -128h-125zM208 0h-142v670h142v-670z" />
    <glyph glyph-name="Idieresis" unicode="&#xcf;" horiz-adv-x="274" 
d="M-19 848h120v-128h-120v128zM174 848h120v-128h-120v128zM66 0v670h142v-670h-142z" />
    <glyph glyph-name="Eth" unicode="&#xd0;" horiz-adv-x="756" 
d="M98 670h283q149 0 245.5 -94t96.5 -239v-3q0 -145 -96.5 -239.5t-245.5 -94.5h-283v290h-74v104h74v276zM579 334v3q0 87 -56 141t-145 54h-137v-138h175v-104h-175v-151h137q89 0 145 54t56 141z" />
    <glyph glyph-name="Ntilde" unicode="&#xd1;" horiz-adv-x="759" 
d="M322 761v-41h-105v85q0 47 34.5 65.5t83.5 0.5l90 -35q5 -2 8.5 0.5t3.5 7.5v40h106v-83q0 -46 -35.5 -66.5t-83.5 -1.5l-90 36q-12 4 -12 -8zM551 230v440h142v-670h-142l-343 467v-467h-142v670h162z" />
    <glyph glyph-name="Ograve" unicode="&#xd2;" horiz-adv-x="772" 
d="M239 848h135l115 -128h-128zM386 -14q-158 0 -255.5 100.5t-97.5 247.5t98 249t255 102t255 -102t98 -249t-97.5 -247.5t-255.5 -100.5zM386 125q94 0 151 61t57 149t-57 149t-151 61t-151 -61t-57 -149q0 -87 57 -148.5t151 -61.5z" />
    <glyph glyph-name="Oacute" unicode="&#xd3;" horiz-adv-x="772" 
d="M281 720l114 128h136l-122 -128h-128zM386 -14q-158 0 -255.5 100.5t-97.5 247.5t98 249t255 102t255 -102t98 -249t-97.5 -247.5t-255.5 -100.5zM386 125q94 0 151 61t57 149t-57 149t-151 61t-151 -61t-57 -149q0 -87 57 -148.5t151 -61.5z" />
    <glyph glyph-name="Ocircumflex" unicode="&#xd4;" horiz-adv-x="772" 
d="M444 720l-59 69l-59 -69h-125l118 128h132l118 -128h-125zM386 685q157 0 255 -102t98 -249t-97.5 -247.5t-255.5 -100.5t-255.5 100.5t-97.5 247.5t98 249t255 102zM386 125q94 0 151 61t57 149t-57 149t-151 61t-151 -61t-57 -149q0 -87 57 -148.5t151 -61.5z" />
    <glyph glyph-name="Otilde" unicode="&#xd5;" horiz-adv-x="772" 
d="M328 720h-105v85q0 47 34.5 65.5t83.5 0.5l90 -35q5 -2 8.5 0.5t3.5 7.5v40h106v-83q0 -46 -35.5 -66.5t-83.5 -1.5l-90 36q-12 4 -12 -8v-41zM386 -14q-158 0 -255.5 100.5t-97.5 247.5t98 249t255 102t255 -102t98 -249t-97.5 -247.5t-255.5 -100.5zM386 125
q94 0 151 61t57 149t-57 149t-151 61t-151 -61t-57 -149q0 -87 57 -148.5t151 -61.5z" />
    <glyph glyph-name="Odieresis" unicode="&#xd6;" horiz-adv-x="772" 
d="M229 848h120v-128h-120v128zM422 848h120v-128h-120v128zM386 -14q-158 0 -255.5 100.5t-97.5 247.5t98 249t255 102t255 -102t98 -249t-97.5 -247.5t-255.5 -100.5zM386 125q94 0 151 61t57 149t-57 149t-151 61t-151 -61t-57 -149q0 -87 57 -148.5t151 -61.5z" />
    <glyph glyph-name="multiply" unicode="&#xd7;" horiz-adv-x="548" 
d="M422 560l88 -88l-148 -148l148 -149l-88 -88l-148 148l-148 -148l-88 88l148 149l-148 148l88 88l148 -148z" />
    <glyph glyph-name="Oslash" unicode="&#xd8;" horiz-adv-x="775" 
d="M729 670l-79 -95q91 -99 91 -241q0 -147 -97.5 -247.5t-255.5 -100.5q-105 0 -189 49l-28 -34l-123 -1l78 94q-91 97 -91 240q0 147 98 249t255 102q106 0 189 -50l29 35h123zM180 335q0 -73 40 -128l264 317q-44 21 -96 21q-94 0 -151 -61t-57 -149zM388 125
q94 0 151 61t57 149q0 73 -40 128l-264 -317q45 -21 96 -21z" />
    <glyph glyph-name="Ugrave" unicode="&#xd9;" horiz-adv-x="701" 
d="M203 848h135l115 -128h-128zM53 287v383h143v-381q0 -74 41.5 -121.5t112.5 -47.5q72 0 113.5 47.5t41.5 121.5v381h142v-383q0 -139 -80.5 -222t-216.5 -83q-135 0 -216 83t-81 222z" />
    <glyph glyph-name="Uacute" unicode="&#xda;" horiz-adv-x="701" 
d="M246 720l114 128h136l-122 -128h-128zM53 287v383h143v-381q0 -74 41.5 -121.5t112.5 -47.5q72 0 113.5 47.5t41.5 121.5v381h142v-383q0 -139 -80.5 -222t-216.5 -83q-135 0 -216 83t-81 222z" />
    <glyph glyph-name="Ucircumflex" unicode="&#xdb;" horiz-adv-x="701" 
d="M409 720l-59 69l-59 -69h-125l118 128h132l118 -128h-125zM505 289v381h142v-383q0 -139 -80.5 -222t-216.5 -83q-135 0 -216 83t-81 222v383h143v-381q0 -74 41.5 -121.5t112.5 -47.5q72 0 113.5 47.5t41.5 121.5z" />
    <glyph glyph-name="Udieresis" unicode="&#xdc;" horiz-adv-x="701" 
d="M194 848h120v-128h-120v128zM387 848h120v-128h-120v128zM53 287v383h143v-381q0 -74 41.5 -121.5t112.5 -47.5q72 0 113.5 47.5t41.5 121.5v381h142v-383q0 -139 -80.5 -222t-216.5 -83q-135 0 -216 83t-81 222z" />
    <glyph glyph-name="Yacute" unicode="&#xdd;" horiz-adv-x="708" 
d="M364 848h136l-122 -128h-128zM532 670h161l-268 -411v-259h-142v258l-268 412h164l177 -280z" />
    <glyph glyph-name="Thorn" unicode="&#xde;" horiz-adv-x="664" 
d="M208 578h194q99 0 166 -65.5t67 -163.5q0 -101 -67.5 -166t-165.5 -65h-194v-118h-142v670h142v-92zM208 253h183q43 0 71.5 26t28.5 69q0 40 -29 66t-71 26h-183v-187z" />
    <glyph glyph-name="germandbls" unicode="&#xdf;" horiz-adv-x="654" 
d="M550 629l-73 -149q73 -22 113.5 -86t40.5 -144q0 -103 -65.5 -176.5t-177.5 -73.5h-81v131h74q53 0 82.5 33.5t30.5 81.5q1 51 -31 87t-86 36h-43v89l61 131h-135q-18 0 -29 -10t-11 -27v-552h-135v368h-70v130h70v76q0 65 41.5 105.5t107.5 40.5h316v-91z" />
    <glyph glyph-name="agrave" unicode="&#xe0;" horiz-adv-x="615" 
d="M299 720l118 -158h-128l-122 158h132zM428 434v64h134v-498h-134v66h-5q-24 -36 -66 -58t-95 -23q-102 0 -169.5 73.5t-67.5 189.5t66.5 191t171.5 74q52 0 94 -22t66 -57h5zM295 113q59 0 96 39.5t37 96.5q0 58 -37.5 97t-95.5 39q-59 0 -96.5 -38.5t-37.5 -97.5
t37.5 -97.5t96.5 -38.5z" />
    <glyph glyph-name="aacute" unicode="&#xe1;" horiz-adv-x="615" 
d="M303 720h132l-122 -158h-128zM428 434v64h134v-498h-134v66h-5q-24 -36 -66 -58t-95 -23q-102 0 -169.5 73.5t-67.5 189.5t66.5 191t171.5 74q52 0 94 -22t66 -57h5zM295 113q59 0 96 39.5t37 96.5q0 58 -37.5 97t-95.5 39q-59 0 -96.5 -38.5t-37.5 -97.5t37.5 -97.5
t96.5 -38.5z" />
    <glyph glyph-name="acircumflex" unicode="&#xe2;" horiz-adv-x="615" 
d="M361 562l-61 86l-61 -86h-123l118 158h131l118 -158h-122zM428 434v64h134v-498h-134v66h-5q-24 -36 -66 -58t-95 -23q-102 0 -169.5 73.5t-67.5 189.5t66.5 191t171.5 74q52 0 94 -22t66 -57h5zM295 113q59 0 96 39.5t37 96.5q0 58 -37.5 97t-95.5 39q-59 0 -96.5 -38.5
t-37.5 -97.5t37.5 -97.5t96.5 -38.5z" />
    <glyph glyph-name="atilde" unicode="&#xe3;" horiz-adv-x="615" 
d="M242 602v-40h-105v85q0 46 34.5 65t83.5 1l90 -35q12 -5 12 8v39h106v-82q0 -46 -35.5 -66.5t-83.5 -1.5l-90 35q-4 2 -8 0t-4 -8zM428 434v64h134v-498h-134v66h-5q-24 -36 -66 -58t-95 -23q-102 0 -169.5 73.5t-67.5 189.5t66.5 191t171.5 74q52 0 94 -22t66 -57h5z
M295 113q59 0 96 39.5t37 96.5q0 58 -37.5 97t-95.5 39q-59 0 -96.5 -38.5t-37.5 -97.5t37.5 -97.5t96.5 -38.5z" />
    <glyph glyph-name="adieresis" unicode="&#xe4;" horiz-adv-x="615" 
d="M143 720h120v-158h-120v158zM336 720h120v-158h-120v158zM428 434v64h134v-498h-134v66h-5q-24 -36 -66 -58t-95 -23q-102 0 -169.5 73.5t-67.5 189.5t66.5 191t171.5 74q52 0 94 -22t66 -57h5zM295 113q59 0 96 39.5t37 96.5q0 58 -37.5 97t-95.5 39q-59 0 -96.5 -38.5
t-37.5 -97.5t37.5 -97.5t96.5 -38.5z" />
    <glyph glyph-name="aring" unicode="&#xe5;" horiz-adv-x="615" 
d="M300 540q-51 0 -86.5 34.5t-35.5 85.5t35.5 85.5t86.5 34.5t86.5 -34.5t35.5 -85.5t-35.5 -85.5t-86.5 -34.5zM300 699q-16 0 -27.5 -11.5t-11.5 -27.5t11.5 -27.5t27.5 -11.5t27.5 11.5t11.5 27.5t-11.5 27.5t-27.5 11.5zM428 434v64h134v-498h-134v66h-5
q-24 -36 -66 -58t-95 -23q-102 0 -169.5 73.5t-67.5 189.5t66.5 191t171.5 74q52 0 94 -22t66 -57h5zM295 113q59 0 96 39.5t37 96.5q0 58 -37.5 97t-95.5 39q-59 0 -96.5 -38.5t-37.5 -97.5t37.5 -97.5t96.5 -38.5z" />
    <glyph glyph-name="ae" unicode="&#xe6;" horiz-adv-x="973" 
d="M717 513q114 3 177.5 -85t51.5 -224h-378q8 -45 47 -71.5t87 -26.5q71 0 98 52h141q-22 -83 -82.5 -129t-143.5 -44q-99 3 -153 73v-58h-134v72q-52 -87 -162 -87q-102 0 -171.5 73.5t-69.5 189.5t68.5 190.5t172.5 74.5q112 0 162 -84v69h134v-61q56 73 155 76zM687 393
q-42 -1 -75 -24t-43 -62h241q-10 41 -44 64t-79 22zM295 113q59 0 96 39.5t37 96.5q0 58 -37.5 97t-95.5 39q-59 0 -96.5 -38.5t-37.5 -97.5t37.5 -97.5t96.5 -38.5z" />
    <glyph glyph-name="ccedilla" unicode="&#xe7;" horiz-adv-x="559" 
d="M287 116q39 0 69 20.5t42 53.5h141q-14 -79 -68 -133.5t-136 -67.5v-23h11q41 0 63 -24t22 -58t-22.5 -59t-62.5 -25h-134v76h126q13 0 13 11t-13 11h-81v88q-106 10 -169.5 83.5t-63.5 179.5q0 114 72 189t190 75q101 0 169.5 -56.5t83.5 -147.5h-141q-12 33 -41.5 53.5
t-69.5 20.5q-58 0 -93 -38.5t-35 -95.5q0 -56 35 -94.5t93 -38.5z" />
    <glyph glyph-name="egrave" unicode="&#xe8;" horiz-adv-x="564" 
d="M283 720l118 -158h-128l-122 158h132zM284 513q124 0 196 -88t58 -221h-376q6 -40 38.5 -67.5t82.5 -29.5q35 -2 65.5 12.5t43.5 38.5h141q-24 -82 -92 -127.5t-158 -45.5q-121 0 -190 76.5t-69 187.5q0 112 73.5 188t186.5 76zM283 392q-44 0 -76.5 -22.5t-43.5 -60.5
h238q-11 39 -42.5 61t-75.5 22z" />
    <glyph glyph-name="eacute" unicode="&#xe9;" horiz-adv-x="564" 
d="M287 720h132l-122 -158h-128zM284 513q124 0 196 -88t58 -221h-376q6 -40 38.5 -67.5t82.5 -29.5q35 -2 65.5 12.5t43.5 38.5h141q-24 -82 -92 -127.5t-158 -45.5q-121 0 -190 76.5t-69 187.5q0 112 73.5 188t186.5 76zM283 392q-44 0 -76.5 -22.5t-43.5 -60.5h238
q-11 39 -42.5 61t-75.5 22z" />
    <glyph glyph-name="ecircumflex" unicode="&#xea;" horiz-adv-x="564" 
d="M345 562l-61 86l-61 -86h-123l118 158h131l118 -158h-122zM284 513q124 0 196 -88t58 -221h-376q6 -40 38.5 -67.5t82.5 -29.5q35 -2 65.5 12.5t43.5 38.5h141q-24 -82 -92 -127.5t-158 -45.5q-121 0 -190 76.5t-69 187.5q0 112 73.5 188t186.5 76zM283 392
q-44 0 -76.5 -22.5t-43.5 -60.5h238q-11 39 -42.5 61t-75.5 22z" />
    <glyph glyph-name="edieresis" unicode="&#xeb;" horiz-adv-x="564" 
d="M128 720h120v-158h-120v158zM321 720h120v-158h-120v158zM284 513q124 0 196 -88t58 -221h-376q6 -40 38.5 -67.5t82.5 -29.5q35 -2 65.5 12.5t43.5 38.5h141q-24 -82 -92 -127.5t-158 -45.5q-121 0 -190 76.5t-69 187.5q0 112 73.5 188t186.5 76zM283 392
q-44 0 -76.5 -22.5t-43.5 -60.5h238q-11 39 -42.5 61t-75.5 22z" />
    <glyph glyph-name="igrave" unicode="&#xec;" horiz-adv-x="240" 
d="M-12 720h132l118 -158h-128zM53 498h135v-498h-135v498z" />
    <glyph glyph-name="iacute" unicode="&#xed;" horiz-adv-x="240" 
d="M6 562l118 158h132l-122 -158h-128zM53 498h135v-498h-135v498z" />
    <glyph glyph-name="icircumflex" unicode="&#xee;" horiz-adv-x="240" 
d="M181 562l-61 86l-61 -86h-123l118 158h131l118 -158h-122zM188 0h-135v498h135v-498z" />
    <glyph glyph-name="idieresis" unicode="&#xef;" horiz-adv-x="240" 
d="M-36 720h120v-158h-120v158zM157 720h120v-158h-120v158zM53 498h135v-498h-135v498z" />
    <glyph glyph-name="eth" unicode="&#xf0;" horiz-adv-x="579" 
d="M493 562h-53q56 -87 84 -158t28 -145q0 -118 -71 -195.5t-194 -77.5q-114 0 -189 70.5t-75 181.5q0 110 72.5 176.5t173.5 64.5q49 -1 87 -21l3 3l-69 101h-167v103h93q-6 8 -20 26.5t-21 28.5h156q13 -19 39 -55h123v-103zM289 116q57 0 93.5 36t36.5 90t-36.5 89.5
t-93.5 35.5q-58 0 -94.5 -36t-36.5 -90q0 -53 36.5 -89t94.5 -36z" />
    <glyph glyph-name="ntilde" unicode="&#xf1;" horiz-adv-x="580" 
d="M237 602v-40h-105v85q0 46 34.5 65t83.5 1l90 -35q12 -5 12 8v39h106v-82q0 -46 -35.5 -66.5t-83.5 -1.5l-90 35q-5 2 -8.5 0t-3.5 -8zM340 512q92 0 145 -59t53 -165v-288h-135v268q0 52 -29 82t-73 30q-47 0 -80 -33.5t-33 -88.5v-258h-135v498h131v-60h5q53 74 151 74
z" />
    <glyph glyph-name="ograve" unicode="&#xf2;" horiz-adv-x="583" 
d="M159 720h132l118 -158h-128zM292 -15q-120 0 -194 75t-74 189q0 113 74 188.5t194 75.5t194 -75.5t74 -188.5q0 -114 -74 -189t-194 -75zM292 116q58 0 95.5 38.5t37.5 94.5q0 57 -37 95.5t-96 38.5t-96 -38.5t-37 -95.5t37 -95t96 -38z" />
    <glyph glyph-name="oacute" unicode="&#xf3;" horiz-adv-x="583" 
d="M177 562l118 158h132l-122 -158h-128zM292 -15q-120 0 -194 75t-74 189q0 113 74 188.5t194 75.5t194 -75.5t74 -188.5q0 -114 -74 -189t-194 -75zM292 116q58 0 95.5 38.5t37.5 94.5q0 57 -37 95.5t-96 38.5t-96 -38.5t-37 -95.5t37 -95t96 -38z" />
    <glyph glyph-name="ocircumflex" unicode="&#xf4;" horiz-adv-x="583" 
d="M353 562l-61 86l-61 -86h-123l118 158h131l118 -158h-122zM292 513q120 0 194 -75.5t74 -188.5q0 -114 -74 -189t-194 -75t-194 75t-74 189q0 113 74 188.5t194 75.5zM292 116q58 0 95.5 38.5t37.5 94.5q0 57 -37 95.5t-96 38.5t-96 -38.5t-37 -95.5t37 -95t96 -38z" />
    <glyph glyph-name="otilde" unicode="&#xf5;" horiz-adv-x="583" 
d="M234 562h-105v85q0 46 34.5 65t83.5 1l90 -35q12 -5 12 8v39h106v-82q0 -46 -35.5 -66.5t-83.5 -1.5l-90 35q-4 2 -8 0t-4 -8v-40zM292 -15q-120 0 -194 75t-74 189q0 113 74 188.5t194 75.5t194 -75.5t74 -188.5q0 -114 -74 -189t-194 -75zM292 116q58 0 95.5 38.5
t37.5 94.5q0 57 -37 95.5t-96 38.5t-96 -38.5t-37 -95.5t37 -95t96 -38z" />
    <glyph glyph-name="odieresis" unicode="&#xf6;" horiz-adv-x="583" 
d="M136 720h120v-158h-120v158zM329 720h120v-158h-120v158zM292 -15q-120 0 -194 75t-74 189q0 113 74 188.5t194 75.5t194 -75.5t74 -188.5q0 -114 -74 -189t-194 -75zM292 116q58 0 95.5 38.5t37.5 94.5q0 57 -37 95.5t-96 38.5t-96 -38.5t-37 -95.5t37 -95t96 -38z" />
    <glyph glyph-name="divide" unicode="&#xf7;" horiz-adv-x="572" 
d="M218 575h136v-140h-136v140zM44 261v125h484v-125h-484zM218 211h136v-140h-136v140z" />
    <glyph glyph-name="oslash" unicode="&#xf8;" horiz-adv-x="587" 
d="M557 513l-65 -80q69 -74 69 -184q0 -114 -74 -189t-193 -75q-76 0 -137 33l-26 -33h-97l63 78q-72 74 -72 186q0 113 74 188.5t195 75.5q79 0 139 -34l27 34h97zM161 249q0 -44 23 -78l163 202q-27 10 -53 10q-59 0 -96 -38.5t-37 -95.5zM294 116q58 0 95 38.5t37 94.5
q0 43 -21 76l-161 -200q23 -9 50 -9z" />
    <glyph glyph-name="ugrave" unicode="&#xf9;" horiz-adv-x="568" 
d="M156 720h132l118 -158h-128zM40 230v268h135v-266q0 -50 29 -83t80 -33t79.5 33t28.5 83v266h135v-268q0 -113 -65.5 -179t-177.5 -66t-178 66.5t-66 178.5z" />
    <glyph glyph-name="uacute" unicode="&#xfa;" horiz-adv-x="568" 
d="M174 562l118 158h132l-122 -158h-128zM40 230v268h135v-266q0 -50 29 -83t80 -33t79.5 33t28.5 83v266h135v-268q0 -113 -65.5 -179t-177.5 -66t-178 66.5t-66 178.5z" />
    <glyph glyph-name="ucircumflex" unicode="&#xfb;" horiz-adv-x="568" 
d="M349 562l-61 86l-61 -86h-123l118 158h131l118 -158h-122zM392 232v266h135v-268q0 -113 -65.5 -179t-177.5 -66t-178 66.5t-66 178.5v268h135v-266q0 -50 29 -83t80 -33t79.5 33t28.5 83z" />
    <glyph glyph-name="udieresis" unicode="&#xfc;" horiz-adv-x="568" 
d="M132 720h120v-158h-120v158zM325 720h120v-158h-120v158zM40 230v268h135v-266q0 -50 29 -83t80 -33t79.5 33t28.5 83v266h135v-268q0 -113 -65.5 -179t-177.5 -66t-178 66.5t-66 178.5z" />
    <glyph glyph-name="yacute" unicode="&#xfd;" horiz-adv-x="571" 
d="M297 720h132l-122 -158h-128zM305 120l122 378h137l-198 -579q-20 -57 -61 -88t-99 -31h-142v132h138q20 0 34 9l-229 557h148z" />
    <glyph glyph-name="thorn" unicode="&#xfe;" horiz-adv-x="615" 
d="M352 513q105 1 171.5 -74t66.5 -191t-67.5 -189.5t-169.5 -73.5q-53 1 -95 23t-66 58h-5v-266h-134v920h134v-286h5q24 35 66.5 57t93.5 22zM320 113q59 0 96.5 38.5t37.5 97.5t-37.5 97.5t-96.5 38.5q-58 0 -95.5 -39t-37.5 -97q0 -57 37 -96.5t96 -39.5z" />
    <glyph glyph-name="ydieresis" unicode="&#xff;" horiz-adv-x="571" 
d="M137 720h120v-158h-120v158zM330 720h120v-158h-120v158zM305 120l122 378h137l-198 -579q-20 -57 -61 -88t-99 -31h-142v132h138q20 0 34 9l-229 557h148z" />
    <glyph glyph-name="Amacron" unicode="&#x100;" horiz-adv-x="743" 
d="M210 824h323v-104h-323v104zM726 0h-161l-56 142h-281l-55 -142h-156l275 670h158zM368 499l-91 -232h182z" />
    <glyph glyph-name="amacron" unicode="&#x101;" horiz-adv-x="615" 
d="M139 666h323v-104h-323v104zM428 434v64h134v-498h-134v66h-5q-24 -36 -66 -58t-95 -23q-102 0 -169.5 73.5t-67.5 189.5t66.5 191t171.5 74q52 0 94 -22t66 -57h5zM295 113q59 0 96 39.5t37 96.5q0 58 -37.5 97t-95.5 39q-59 0 -96.5 -38.5t-37.5 -97.5t37.5 -97.5
t96.5 -38.5z" />
    <glyph glyph-name="Abreve" unicode="&#x102;" horiz-adv-x="743" 
d="M462 720h-182q-32 0 -53 21t-21 53v54h106v-23q0 -15 15 -15h89q15 0 15 15v23h105v-54q0 -32 -21 -53t-53 -21zM726 0h-161l-56 142h-281l-55 -142h-156l275 670h158zM368 499l-91 -232h182z" />
    <glyph glyph-name="abreve" unicode="&#x103;" horiz-adv-x="615" 
d="M391 562h-181q-32 0 -53.5 21t-21.5 53v84h104v-49q0 -15 15 -15h92q15 0 15 15v49h104v-84q0 -32 -21 -53t-53 -21zM428 434v64h134v-498h-134v66h-5q-24 -36 -66 -58t-95 -23q-102 0 -169.5 73.5t-67.5 189.5t66.5 191t171.5 74q52 0 94 -22t66 -57h5zM295 113
q59 0 96 39.5t37 96.5q0 58 -37.5 97t-95.5 39q-59 0 -96.5 -38.5t-37.5 -97.5t37.5 -97.5t96.5 -38.5z" />
    <glyph glyph-name="Aogonek" unicode="&#x104;" horiz-adv-x="743" 
d="M726 0l-71 -77q-7 -7 -3.5 -15.5t13.5 -8.5h61v-99h-113q-68 0 -91.5 55t24.5 104l37 41h-18l-56 142h-281l-55 -142h-156l275 670h158zM368 499l-91 -232h182z" />
    <glyph glyph-name="aogonek" unicode="&#x105;" horiz-adv-x="615" 
d="M502 -100h61v-100h-105q-68 0 -91.5 55t24.5 104l37 41v66h-5q-24 -36 -66 -58t-95 -23q-102 0 -169.5 73.5t-67.5 189.5t66.5 191t171.5 74q52 0 94 -22t66 -57h5v64h134v-498l-71 -76q-7 -8 -3 -16t14 -8zM295 113q59 0 96 39.5t37 96.5q0 58 -37.5 97t-95.5 39
q-59 0 -96.5 -38.5t-37.5 -97.5t37.5 -97.5t96.5 -38.5z" />
    <glyph glyph-name="Cacute" unicode="&#x106;" horiz-adv-x="746" 
d="M272 720l114 128h136l-122 -128h-128zM570 271h147q-16 -124 -108.5 -204.5t-230.5 -80.5q-154 0 -250 100.5t-96 247.5q0 148 96 249.5t250 101.5q134 0 226.5 -79t110.5 -200h-148q-17 63 -67.5 101.5t-122.5 37.5q-90 -1 -145 -61.5t-55 -148.5t55 -149t147 -61
q73 0 124.5 40t66.5 106z" />
    <glyph glyph-name="cacute" unicode="&#x107;" horiz-adv-x="559" 
d="M173 562l118 158h132l-122 -158h-128zM539 309h-141q-12 33 -41.5 53.5t-69.5 20.5q-58 0 -93 -38.5t-35 -95.5q0 -56 35 -94.5t93 -38.5q39 0 69 20.5t42 53.5h141q-16 -91 -84.5 -148t-168.5 -57q-118 0 -190 75t-72 189t72 189t190 75q101 0 169.5 -56.5t83.5 -147.5z
" />
    <glyph glyph-name="Cdotaccent" unicode="&#x10a;" horiz-adv-x="746" 
d="M309 848h135v-128h-135v128zM570 271h147q-16 -124 -108.5 -204.5t-230.5 -80.5q-154 0 -250 100.5t-96 247.5q0 148 96 249.5t250 101.5q134 0 226.5 -79t110.5 -200h-148q-17 63 -67.5 101.5t-122.5 37.5q-90 -1 -145 -61.5t-55 -148.5t55 -149t147 -61q73 0 124.5 40
t66.5 106z" />
    <glyph glyph-name="cdotaccent" unicode="&#x10b;" horiz-adv-x="559" 
d="M220 720h135v-158h-135v158zM539 309h-141q-12 33 -41.5 53.5t-69.5 20.5q-58 0 -93 -38.5t-35 -95.5q0 -56 35 -94.5t93 -38.5q39 0 69 20.5t42 53.5h141q-16 -91 -84.5 -148t-168.5 -57q-118 0 -190 75t-72 189t72 189t190 75q101 0 169.5 -56.5t83.5 -147.5z" />
    <glyph glyph-name="Ccaron" unicode="&#x10c;" horiz-adv-x="746" 
d="M311 720l-118 128h125l59 -69l59 69h125l-118 -128h-132zM570 271h147q-16 -124 -108.5 -204.5t-230.5 -80.5q-154 0 -250 100.5t-96 247.5q0 148 96 249.5t250 101.5q134 0 226.5 -79t110.5 -200h-148q-17 63 -67.5 101.5t-122.5 37.5q-90 -1 -145 -61.5t-55 -148.5
t55 -149t147 -61q73 0 124.5 40t66.5 106z" />
    <glyph glyph-name="ccaron" unicode="&#x10d;" horiz-adv-x="559" 
d="M222 562l-118 158h123l61 -86l61 86h122l-118 -158h-131zM287 116q39 0 69 20.5t42 53.5h141q-16 -91 -84.5 -148t-168.5 -57q-118 0 -190 75t-72 189t72 189t190 75q101 0 169.5 -56.5t83.5 -147.5h-141q-12 33 -41.5 53.5t-69.5 20.5q-58 0 -93 -38.5t-35 -95.5
q0 -56 35 -94.5t93 -38.5z" />
    <glyph glyph-name="Dcaron" unicode="&#x10e;" horiz-adv-x="724" 
d="M276 720l-118 128h125l59 -69l59 69h125l-118 -128h-132zM66 670h282q149 0 246 -94t97 -239v-3q0 -145 -97 -239.5t-246 -94.5h-282v670zM546 334v3q0 87 -55.5 141t-144.5 54h-138v-393h138q89 0 144.5 54t55.5 141z" />
    <glyph glyph-name="dcaron" unicode="&#x10f;" horiz-adv-x="757" 
d="M424 432h4v288h134v-720h-134v65h-4q-24 -35 -66.5 -57t-94.5 -23q-105 0 -171.5 74.5t-66.5 190.5q0 117 67.5 190.5t169.5 72.5q52 0 94.5 -22.5t67.5 -58.5zM606 513l37 207h114l-50 -207h-101zM161 249q0 -59 37.5 -97.5t96.5 -38.5q58 0 95.5 39t37.5 97
q0 57 -37 96.5t-96 39.5t-96.5 -38.5t-37.5 -97.5z" />
    <glyph glyph-name="Dcroat" unicode="&#x110;" horiz-adv-x="756" 
d="M98 670h283q149 0 245.5 -94t96.5 -239v-3q0 -145 -96.5 -239.5t-245.5 -94.5h-283v290h-74v104h74v276zM579 334v3q0 87 -56 141t-145 54h-137v-138h175v-104h-175v-151h137q89 0 145 54t56 141z" />
    <glyph glyph-name="dcroat" unicode="&#x111;" horiz-adv-x="615" 
d="M562 666h68v-104h-68v-562h-134v65h-4q-24 -35 -66.5 -57t-94.5 -23q-105 0 -171.5 74.5t-66.5 190.5q0 117 67.5 190.5t169.5 72.5q52 0 94.5 -22.5t67.5 -58.5h4v130h-155v104h155v54h134v-54zM161 249q0 -59 37.5 -97.5t96.5 -38.5q58 0 95.5 39t37.5 97
q0 57 -37 96.5t-96 39.5t-96.5 -38.5t-37.5 -97.5z" />
    <glyph glyph-name="Emacron" unicode="&#x112;" horiz-adv-x="620" 
d="M485 720h-323v104h323v-104zM579 0h-513v670h513v-138h-371v-125h328v-132h-328v-137h371v-138z" />
    <glyph glyph-name="emacron" unicode="&#x113;" horiz-adv-x="564" 
d="M123 666h323v-104h-323v104zM284 513q124 0 196 -88t58 -221h-376q6 -40 38.5 -67.5t82.5 -29.5q35 -2 65.5 12.5t43.5 38.5h141q-24 -82 -92 -127.5t-158 -45.5q-121 0 -190 76.5t-69 187.5q0 112 73.5 188t186.5 76zM283 392q-44 0 -76.5 -22.5t-43.5 -60.5h238
q-11 39 -42.5 61t-75.5 22z" />
    <glyph glyph-name="Edotaccent" unicode="&#x116;" horiz-adv-x="620" 
d="M256 848h135v-128h-135v128zM579 0h-513v670h513v-138h-371v-125h328v-132h-328v-137h371v-138z" />
    <glyph glyph-name="edotaccent" unicode="&#x117;" horiz-adv-x="564" 
d="M217 720h135v-158h-135v158zM284 513q124 0 196 -88t58 -221h-376q6 -40 38.5 -67.5t82.5 -29.5q35 -2 65.5 12.5t43.5 38.5h141q-24 -82 -92 -127.5t-158 -45.5q-121 0 -190 76.5t-69 187.5q0 112 73.5 188t186.5 76zM283 392q-44 0 -76.5 -22.5t-43.5 -60.5h238
q-11 39 -42.5 61t-75.5 22z" />
    <glyph glyph-name="Eogonek" unicode="&#x118;" horiz-adv-x="620" 
d="M580 0l-71 -77q-7 -7 -3.5 -15.5t13.5 -8.5h61v-99h-113q-68 0 -91.5 55t24.5 104l37 41h-371v670h513v-138h-371v-125h328v-132h-328v-137h371v-138h1z" />
    <glyph glyph-name="eogonek" unicode="&#x119;" horiz-adv-x="564" 
d="M284 513q124 0 196 -88t58 -221h-376q6 -40 38.5 -67.5t82.5 -29.5q35 -2 65.5 12.5t43.5 38.5h141q-36 -120 -157 -159l-70 -75q-7 -8 -3 -16t14 -8h61v-100h-105q-68 0 -91.5 55t24.5 104l27 30q-98 16 -153.5 89t-55.5 171q0 112 73.5 188t186.5 76zM283 392
q-44 0 -76.5 -22.5t-43.5 -60.5h238q-11 39 -42.5 61t-75.5 22z" />
    <glyph glyph-name="Ecaron" unicode="&#x11a;" horiz-adv-x="620" 
d="M257 720l-118 128h125l59 -69l59 69h125l-118 -128h-132zM579 670v-138h-371v-125h328v-132h-328v-137h371v-138h-513v670h513z" />
    <glyph glyph-name="ecaron" unicode="&#x11b;" horiz-adv-x="564" 
d="M218 562l-118 158h123l61 -86l61 86h122l-118 -158h-131zM284 513q124 0 196 -88t58 -221h-376q6 -40 38.5 -67.5t82.5 -29.5q35 -2 65.5 12.5t43.5 38.5h141q-24 -82 -92 -127.5t-158 -45.5q-121 0 -190 76.5t-69 187.5q0 112 73.5 188t186.5 76zM283 392
q-44 0 -76.5 -22.5t-43.5 -60.5h238q-11 39 -42.5 61t-75.5 22z" />
    <glyph glyph-name="Gbreve" unicode="&#x11e;" horiz-adv-x="761" 
d="M471 720h-182q-32 0 -53 21t-21 53v54h106v-23q0 -15 15 -15h89q15 0 15 15v23h105v-54q0 -32 -21 -53t-53 -21zM373 373h357q11 -165 -88 -276t-261 -111q-154 0 -251 100t-97 248q0 147 96.5 249t252.5 102q125 0 215 -68t118 -177h-158q-22 48 -68.5 76.5t-107.5 27.5
q-92 -1 -147.5 -61t-55.5 -147q0 -88 56.5 -148.5t149.5 -61.5q69 -1 119 31.5t69 87.5h-199v128z" />
    <glyph glyph-name="gbreve" unicode="&#x11f;" horiz-adv-x="615" 
d="M401 562h-181q-32 0 -53.5 21t-21.5 53v84h104v-49q0 -15 15 -15h92q15 0 15 15v49h104v-84q0 -32 -21 -53t-53 -21zM428 434v64h134v-549q0 -72 -39.5 -110.5t-112.5 -38.5h-320v135h291q47 0 47 45v86h-5q-24 -36 -66 -58t-95 -23q-102 0 -169.5 73.5t-67.5 189.5
t66.5 191t171.5 74q52 0 94 -22t66 -57h5zM295 113q59 0 96 39.5t37 96.5q0 58 -37.5 97t-95.5 39q-59 0 -96.5 -38.5t-37.5 -97.5t37.5 -97.5t96.5 -38.5z" />
    <glyph glyph-name="Gdotaccent" unicode="&#x120;" horiz-adv-x="761" 
d="M313 848h135v-128h-135v128zM373 373h357q11 -165 -88 -276t-261 -111q-154 0 -251 100t-97 248q0 147 96.5 249t252.5 102q125 0 215 -68t118 -177h-158q-22 48 -68.5 76.5t-107.5 27.5q-92 -1 -147.5 -61t-55.5 -147q0 -88 56.5 -148.5t149.5 -61.5q69 -1 119 31.5
t69 87.5h-199v128z" />
    <glyph glyph-name="gdotaccent" unicode="&#x121;" horiz-adv-x="615" 
d="M243 720h135v-158h-135v158zM428 434v64h134v-549q0 -72 -39.5 -110.5t-112.5 -38.5h-320v135h291q47 0 47 45v86h-5q-24 -36 -66 -58t-95 -23q-102 0 -169.5 73.5t-67.5 189.5t66.5 191t171.5 74q52 0 94 -22t66 -57h5zM295 113q59 0 96 39.5t37 96.5q0 58 -37.5 97
t-95.5 39q-59 0 -96.5 -38.5t-37.5 -97.5t37.5 -97.5t96.5 -38.5z" />
    <glyph glyph-name="uni0122" unicode="&#x122;" horiz-adv-x="761" 
d="M373 373h357q11 -165 -88 -276t-261 -111q-154 0 -251 100t-97 248q0 147 96.5 249t252.5 102q125 0 215 -68t118 -177h-158q-22 48 -68.5 76.5t-107.5 27.5q-92 -1 -147.5 -61t-55.5 -147q0 -88 56.5 -148.5t149.5 -61.5q69 -1 119 31.5t69 87.5h-199v128zM366 -200
h-128l118 158h132z" />
    <glyph glyph-name="uni0123" unicode="&#x123;" horiz-adv-x="615" 
d="M308 720h128l-118 -158h-132zM428 434v64h134v-549q0 -72 -39.5 -110.5t-112.5 -38.5h-320v135h291q47 0 47 45v86h-5q-24 -36 -66 -58t-95 -23q-102 0 -169.5 73.5t-67.5 189.5t66.5 191t171.5 74q52 0 94 -22t66 -57h5zM295 113q59 0 96 39.5t37 96.5q0 58 -37.5 97
t-95.5 39q-59 0 -96.5 -38.5t-37.5 -97.5t37.5 -97.5t96.5 -38.5z" />
    <glyph glyph-name="Hbar" unicode="&#x126;" horiz-adv-x="763" 
d="M680 602h55v-104h-55v-498h-142v273h-315v-273h-143v498h-51v104h51v68h143v-68h315v68h142v-68zM223 411h315v87h-315v-87z" />
    <glyph glyph-name="hbar" unicode="&#x127;" horiz-adv-x="580" 
d="M340 512q92 0 145 -59t53 -165v-288h-135v268q0 52 -29 82t-73 30q-47 0 -80 -33.5t-33 -88.5v-258h-135v562h-63v104h63v54h135v-54h158v-104h-158v-124h4q53 74 148 74z" />
    <glyph glyph-name="Imacron" unicode="&#x12a;" horiz-adv-x="274" 
d="M299 720h-323v104h323v-104zM66 0v670h142v-670h-142z" />
    <glyph glyph-name="imacron" unicode="&#x12b;" horiz-adv-x="240" 
d="M282 562h-323v104h323v-104zM53 498h135v-498h-135v498z" />
    <glyph glyph-name="Iogonek" unicode="&#x12e;" horiz-adv-x="274" 
d="M209 0l-71 -77q-7 -7 -3.5 -15.5t13.5 -8.5h61v-99h-113q-68 0 -91.5 55t24.5 104l37 41v670h142v-670h1z" />
    <glyph glyph-name="iogonek" unicode="&#x12f;" horiz-adv-x="240" 
d="M53 562v158h135v-158h-135zM52 0h1v498h135v-498h-2l-71 -76q-7 -8 -3 -16t14 -8h61v-100h-105q-68 0 -91.5 55t24.5 104z" />
    <glyph glyph-name="Idotaccent" unicode="&#x130;" horiz-adv-x="274" 
d="M70 848h135v-128h-135v128zM66 0v670h142v-670h-142z" />
    <glyph glyph-name="dotlessi" unicode="&#x131;" horiz-adv-x="240" 
d="M53 498h135v-498h-135v498z" />
    <glyph glyph-name="uni0136" unicode="&#x136;" horiz-adv-x="701" 
d="M659 670l-151 -260q137 -1 137 -144v-266h-142v236q0 40 -41 40h-254v-276h-142v670h142v-260h147l148 260h156zM332 -200h-128l118 158h132z" />
    <glyph glyph-name="uni0137" unicode="&#x137;" horiz-adv-x="575" 
d="M536 498l-103 -177q42 -7 68 -37t26 -77v-207h-135v162q0 37 -40 37h-164v-199h-135v720h135v-397h103l98 175h147zM285 -200h-128l118 158h132z" />
    <glyph glyph-name="Lacute" unicode="&#x139;" horiz-adv-x="578" 
d="M152 720l114 128h136l-122 -128h-128zM66 0v670h143v-531h344v-139h-487z" />
    <glyph glyph-name="lacute" unicode="&#x13a;" horiz-adv-x="304" 
d="M42 770l114 128h136l-122 -128h-128zM47 144v576h135v-552q0 -37 40 -37h67v-131h-93q-71 0 -110 38t-39 106z" />
    <glyph glyph-name="uni013B" unicode="&#x13b;" horiz-adv-x="578" 
d="M66 0v670h143v-531h344v-139h-487zM138 -200l118 158h132l-122 -158h-128z" />
    <glyph glyph-name="uni013C" unicode="&#x13c;" horiz-adv-x="304" 
d="M47 144v576h135v-552q0 -37 40 -37h67v-131h-93q-71 0 -110 38t-39 106zM15 -200l118 158h132l-122 -158h-128z" />
    <glyph glyph-name="Lcaron" unicode="&#x13d;" horiz-adv-x="578" 
d="M66 0v670h143v-531h344v-139h-487zM298 463l36 207h114l-50 -207h-100z" />
    <glyph glyph-name="lcaron" unicode="&#x13e;" horiz-adv-x="369" 
d="M47 144v576h135v-552q0 -37 40 -37h67v-131h-93q-71 0 -110 38t-39 106zM218 513l37 207h114l-50 -207h-101z" />
    <glyph glyph-name="Lslash" unicode="&#x141;" horiz-adv-x="612" 
d="M243 308v-169h344v-139h-487v242l-74 -35v123l74 35v305h143v-239l175 82v-123z" />
    <glyph glyph-name="lslash" unicode="&#x142;" horiz-adv-x="343" 
d="M315 513v-112l-110 -58v-175q0 -37 40 -37h67v-131h-93q-71 0 -110 38t-39 106v129l-53 -28v112l53 28v335h135v-265z" />
    <glyph glyph-name="Nacute" unicode="&#x143;" horiz-adv-x="759" 
d="M389 848h136l-122 -128h-128zM551 230v440h142v-670h-142l-343 467v-467h-142v670h162z" />
    <glyph glyph-name="nacute" unicode="&#x144;" horiz-adv-x="580" 
d="M298 720h132l-122 -158h-128zM340 512q92 0 145 -59t53 -165v-288h-135v268q0 52 -29 82t-73 30q-47 0 -80 -33.5t-33 -88.5v-258h-135v498h131v-60h5q53 74 151 74z" />
    <glyph glyph-name="uni0145" unicode="&#x145;" horiz-adv-x="759" 
d="M551 230v440h142v-670h-142l-343 467v-467h-142v670h162zM363 -200h-128l118 158h132z" />
    <glyph glyph-name="uni0146" unicode="&#x146;" horiz-adv-x="580" 
d="M340 512q92 0 145 -59t53 -165v-288h-135v268q0 52 -29 82t-73 30q-47 0 -80 -33.5t-33 -88.5v-258h-135v498h131v-60h5q53 74 151 74zM291 -200h-128l118 158h132z" />
    <glyph glyph-name="Ncaron" unicode="&#x147;" horiz-adv-x="759" 
d="M314 720l-118 128h125l59 -69l59 69h125l-118 -128h-132zM551 230v440h142v-670h-142l-343 467v-467h-142v670h162z" />
    <glyph glyph-name="ncaron" unicode="&#x148;" horiz-adv-x="580" 
d="M229 562l-118 158h123l61 -86l61 86h122l-118 -158h-131zM340 512q92 0 145 -59t53 -165v-288h-135v268q0 52 -29 82t-73 30q-47 0 -80 -33.5t-33 -88.5v-258h-135v498h131v-60h5q53 74 151 74z" />
    <glyph glyph-name="Eng" unicode="&#x14a;" horiz-adv-x="759" 
d="M551 230v440h142v-724q0 -69 -40.5 -107.5t-109.5 -38.5h-140v135h108q40 0 40 37v28l-343 467v-467h-142v670h162z" />
    <glyph glyph-name="eng" unicode="&#x14b;" horiz-adv-x="581" 
d="M340 512q92 0 145 -59t53 -165v-342q0 -69 -40.5 -107.5t-109.5 -38.5h-106v132h81q18 0 29 10t11 27v299q0 52 -29 82t-73 30q-47 0 -80 -33.5t-33 -88.5v-258h-135v498h131v-60h5q53 74 151 74z" />
    <glyph glyph-name="Omacron" unicode="&#x14c;" horiz-adv-x="772" 
d="M548 720h-323v104h323v-104zM386 -14q-158 0 -255.5 100.5t-97.5 247.5t98 249t255 102t255 -102t98 -249t-97.5 -247.5t-255.5 -100.5zM386 125q94 0 151 61t57 149t-57 149t-151 61t-151 -61t-57 -149q0 -87 57 -148.5t151 -61.5z" />
    <glyph glyph-name="omacron" unicode="&#x14d;" horiz-adv-x="583" 
d="M454 562h-323v104h323v-104zM292 -15q-120 0 -194 75t-74 189q0 113 74 188.5t194 75.5t194 -75.5t74 -188.5q0 -114 -74 -189t-194 -75zM292 116q58 0 95.5 38.5t37.5 94.5q0 57 -37 95.5t-96 38.5t-96 -38.5t-37 -95.5t37 -95t96 -38z" />
    <glyph glyph-name="Ohungarumlaut" unicode="&#x150;" horiz-adv-x="772" 
d="M167 720l114 128h136l-122 -128h-128zM363 720l114 128h135l-122 -128h-127zM386 -14q-158 0 -255.5 100.5t-97.5 247.5t98 249t255 102t255 -102t98 -249t-97.5 -247.5t-255.5 -100.5zM386 125q94 0 151 61t57 149t-57 149t-151 61t-151 -61t-57 -149q0 -87 57 -148.5
t151 -61.5z" />
    <glyph glyph-name="ohungarumlaut" unicode="&#x151;" horiz-adv-x="583" 
d="M97 562l118 158h125l-122 -158h-121zM293 562l118 158h125l-122 -158h-121zM292 -15q-120 0 -194 75t-74 189q0 113 74 188.5t194 75.5t194 -75.5t74 -188.5q0 -114 -74 -189t-194 -75zM292 116q58 0 95.5 38.5t37.5 94.5q0 57 -37 95.5t-96 38.5t-96 -38.5t-37 -95.5
t37 -95t96 -38z" />
    <glyph glyph-name="OE" unicode="&#x152;" horiz-adv-x="1073" 
d="M1033 670v-138h-331v-125h288v-132h-288v-137h331v-138h-473v55q-83 -69 -202 -69q-146 0 -235 100.5t-89 247.5q0 148 89 249.5t235 101.5q119 0 202 -70v55h473zM368 125q88 0 139 60.5t51 149.5t-51 149.5t-139 60.5q-87 0 -138 -60.5t-51 -149.5q0 -88 51 -149
t138 -61z" />
    <glyph glyph-name="oe" unicode="&#x153;" horiz-adv-x="950" 
d="M680 513q119 0 188 -88t56 -221h-376q7 -40 39.5 -67.5t81.5 -29.5q35 -1 65.5 13t44.5 38h140q-23 -82 -88.5 -127.5t-152.5 -45.5q-125 0 -195 92q-73 -92 -201 -92q-115 0 -186.5 75t-71.5 189q0 113 71 188.5t187 75.5q131 0 202 -94q73 94 196 94zM669 392
q-45 0 -77 -23t-42 -62h239q-11 40 -43 62.5t-77 22.5zM292 116q58 0 95.5 38.5t37.5 94.5q0 57 -37 95.5t-96 38.5t-96 -38.5t-37 -95.5t37 -95t96 -38z" />
    <glyph glyph-name="Racute" unicode="&#x154;" horiz-adv-x="707" 
d="M244 720l114 128h136l-122 -128h-128zM208 0h-142v670h343q104 0 167.5 -49t63.5 -138q0 -93 -66 -141v-3q82 -21 82 -125v-214h-142v188q0 40 -42 40h-264v-228zM208 532v-175h190q45 0 72.5 23.5t27.5 64.5q0 40 -28 63.5t-71 23.5h-191z" />
    <glyph glyph-name="racute" unicode="&#x155;" horiz-adv-x="427" 
d="M241 720h132l-122 -158h-128zM306 498h105v-135h-112q-49 0 -80 -32t-31 -83v-248h-135v498h128v-78h5q29 78 120 78z" />
    <glyph glyph-name="uni0156" unicode="&#x156;" horiz-adv-x="707" 
d="M208 0h-142v670h343q104 0 167.5 -49t63.5 -138q0 -93 -66 -141v-3q82 -21 82 -125v-214h-142v188q0 40 -42 40h-264v-228zM208 532v-175h190q45 0 72.5 23.5t27.5 64.5q0 40 -28 63.5t-71 23.5h-191zM206 -200l118 158h132l-122 -158h-128z" />
    <glyph glyph-name="uni0157" unicode="&#x157;" horiz-adv-x="427" 
d="M306 498h105v-135h-112q-49 0 -80 -32t-31 -83v-248h-135v498h128v-78h5q29 78 120 78zM184 -200h-128l118 158h132z" />
    <glyph glyph-name="Rcaron" unicode="&#x158;" horiz-adv-x="707" 
d="M282 720l-118 128h125l59 -69l59 69h125l-118 -128h-132zM574 342v-3q82 -21 82 -125v-214h-142v188q0 40 -42 40h-264v-228h-142v670h343q104 0 167.5 -49t63.5 -138q0 -93 -66 -141zM208 357h190q45 0 72.5 23.5t27.5 64.5q0 40 -28 63.5t-71 23.5h-191v-175z" />
    <glyph glyph-name="rcaron" unicode="&#x159;" horiz-adv-x="427" 
d="M172 562l-118 158h123l61 -86l61 86h122l-118 -158h-131zM181 420h5q29 78 120 78h105v-135h-112q-49 0 -80 -32t-31 -83v-248h-135v498h128v-78z" />
    <glyph glyph-name="Sacute" unicode="&#x15a;" horiz-adv-x="649" 
d="M222 720l114 128h136l-122 -128h-128zM231 670h345v-138h-335q-26 0 -40 -14t-14 -34q0 -17 11 -31t31 -19l239 -56q74 -17 113 -68.5t39 -115.5q0 -79 -53.5 -136.5t-148.5 -57.5h-359v139h354q25 0 40.5 16t15.5 37q0 41 -45 51l-240 57q-73 18 -112 68.5t-39 112.5
q0 77 52.5 133t145.5 56z" />
    <glyph glyph-name="sacute" unicode="&#x15b;" horiz-adv-x="517" 
d="M146 562l118 158h132l-122 -158h-128zM186 498h274v-130h-270q-21 0 -21 -21q0 -18 17 -21l187 -38q57 -12 90 -49t33 -89q0 -65 -46.5 -107.5t-115.5 -42.5h-288v131h286q22 0 22 22q0 17 -17 22l-190 41q-54 11 -88 48t-34 87q0 64 46 105.5t115 41.5z" />
    <glyph glyph-name="Scedilla" unicode="&#x15e;" horiz-adv-x="649" 
d="M418 0h-88v-34h18q41 0 63 -24t22 -58t-22.5 -59t-62.5 -25h-134v76h125q13 0 13 11t-13 11h-87v102h-193v139h354q25 0 40.5 16t15.5 37q0 41 -45 51l-240 57q-73 18 -112 68.5t-39 112.5q0 77 52.5 133t145.5 56h345v-138h-335q-26 0 -40 -14t-14 -34q0 -17 11 -31
t31 -19l239 -56q74 -17 113 -68.5t39 -115.5q0 -79 -53.5 -136.5t-148.5 -57.5z" />
    <glyph glyph-name="scedilla" unicode="&#x15f;" horiz-adv-x="517" 
d="M334 0h-57v-34h11q41 0 63 -24t22 -58t-22.5 -59t-62.5 -25h-134v76h126q13 0 13 11t-13 11h-81v102h-153v131h286q22 0 22 22q0 17 -17 22l-190 41q-54 11 -88 48t-34 87q0 64 46 105.5t115 41.5h274v-130h-270q-21 0 -21 -21q0 -18 17 -21l187 -38q57 -12 90 -49
t33 -89q0 -65 -46.5 -107.5t-115.5 -42.5z" />
    <glyph glyph-name="Scaron" unicode="&#x160;" horiz-adv-x="649" 
d="M261 720l-118 128h125l59 -69l59 69h125l-118 -128h-132zM229 434l239 -56q74 -17 113 -68.5t39 -115.5q0 -79 -53.5 -136.5t-148.5 -57.5h-359v139h354q25 0 40.5 16t15.5 37q0 41 -45 51l-240 57q-73 18 -112 68.5t-39 112.5q0 77 52.5 133t145.5 56h345v-138h-335
q-26 0 -40 -14t-14 -34q0 -17 11 -31t31 -19z" />
    <glyph glyph-name="scaron" unicode="&#x161;" horiz-adv-x="517" 
d="M195 562l-118 158h123l61 -86l61 86h122l-118 -158h-131zM186 326l187 -38q57 -12 90 -49t33 -89q0 -65 -46.5 -107.5t-115.5 -42.5h-288v131h286q22 0 22 22q0 17 -17 22l-190 41q-54 11 -88 48t-34 87q0 64 46 105.5t115 41.5h274v-130h-270q-21 0 -21 -21
q0 -18 17 -21z" />
    <glyph glyph-name="uni0162" unicode="&#x162;" horiz-adv-x="641" 
d="M392 532v-532h-97v-34h18q41 0 63 -24t22 -58t-22.5 -59t-62.5 -25h-134v76h125q13 0 13 11t-13 11h-87v176h32v458h-224v138h592v-138h-225z" />
    <glyph glyph-name="uni0163" unicode="&#x163;" horiz-adv-x="457" 
d="M425 498v-130h-205v-199q0 -18 11 -28t29 -10h165v-131h-148v-34h11q41 0 63 -24t22 -58t-22.5 -59t-62.5 -25h-134v76h126q13 0 13 11t-13 11h-81v105q-53 10 -83.5 48t-30.5 95v222h-70v130h70v172h135v-172h205z" />
    <glyph glyph-name="Tcaron" unicode="&#x164;" horiz-adv-x="641" 
d="M255 720l-118 128h125l59 -69l59 69h125l-118 -128h-132zM25 670h592v-138h-225v-532h-143v532h-224v138z" />
    <glyph glyph-name="tcaron" unicode="&#x165;" horiz-adv-x="457" 
d="M311 720h114l-47 -184h-100zM85 670h135v-172h205v-130h-205v-199q0 -18 11 -28t29 -10h165v-131h-190q-69 0 -109.5 39.5t-40.5 106.5v222h-70v130h70v172z" />
    <glyph glyph-name="Tbar" unicode="&#x166;" horiz-adv-x="641" 
d="M617 670v-138h-225v-138h114v-104h-114v-290h-143v290h-135v104h135v138h-224v138h592z" />
    <glyph glyph-name="tbar" unicode="&#x167;" horiz-adv-x="490" 
d="M443 498v-130h-205v-58h204v-107h-204v-34q0 -38 40 -38h165v-131h-191q-68 0 -108.5 39.5t-40.5 106.5v57h-71v107h71v58h-70v130h70v172h135v-172h205z" />
    <glyph glyph-name="Umacron" unicode="&#x16a;" horiz-adv-x="701" 
d="M512 720h-323v104h323v-104zM53 287v383h143v-381q0 -74 41.5 -121.5t112.5 -47.5q72 0 113.5 47.5t41.5 121.5v381h142v-383q0 -139 -80.5 -222t-216.5 -83q-135 0 -216 83t-81 222z" />
    <glyph glyph-name="umacron" unicode="&#x16b;" horiz-adv-x="568" 
d="M450 562h-323v104h323v-104zM40 230v268h135v-266q0 -50 29 -83t80 -33t79.5 33t28.5 83v266h135v-268q0 -113 -65.5 -179t-177.5 -66t-178 66.5t-66 178.5z" />
    <glyph glyph-name="Uring" unicode="&#x16e;" horiz-adv-x="701" 
d="M350 705q-51 0 -86.5 34.5t-35.5 85.5t35.5 85.5t86.5 34.5t86.5 -34.5t35.5 -85.5t-35.5 -85.5t-86.5 -34.5zM350 787q16 0 27.5 11t11.5 27q0 17 -11.5 28t-27.5 11t-27.5 -11t-11.5 -28q0 -16 11.5 -27t27.5 -11zM53 287v383h143v-381q0 -74 41.5 -121.5t112.5 -47.5
q72 0 113.5 47.5t41.5 121.5v381h142v-383q0 -139 -80.5 -222t-216.5 -83q-135 0 -216 83t-81 222z" />
    <glyph glyph-name="uring" unicode="&#x16f;" horiz-adv-x="568" 
d="M289 540q-51 0 -86.5 34.5t-35.5 85.5t35.5 85.5t86.5 34.5t86.5 -34.5t35.5 -85.5t-35.5 -85.5t-86.5 -34.5zM289 621q17 0 28 11.5t11 27.5t-11 27.5t-28 11.5t-28 -11.5t-11 -27.5t11 -27.5t28 -11.5zM40 230v268h135v-266q0 -50 29 -83t80 -33t79.5 33t28.5 83v266
h135v-268q0 -113 -65.5 -179t-177.5 -66t-178 66.5t-66 178.5z" />
    <glyph glyph-name="Uhungarumlaut" unicode="&#x170;" horiz-adv-x="701" 
d="M131 720l114 128h136l-122 -128h-128zM327 720l114 128h135l-122 -128h-127zM53 287v383h143v-381q0 -74 41.5 -121.5t112.5 -47.5q72 0 113.5 47.5t41.5 121.5v381h142v-383q0 -139 -80.5 -222t-216.5 -83q-135 0 -216 83t-81 222z" />
    <glyph glyph-name="uhungarumlaut" unicode="&#x171;" horiz-adv-x="568" 
d="M94 562l118 158h125l-122 -158h-121zM290 562l118 158h125l-122 -158h-121zM40 230v268h135v-266q0 -50 29 -83t80 -33t79.5 33t28.5 83v266h135v-268q0 -113 -65.5 -179t-177.5 -66t-178 66.5t-66 178.5z" />
    <glyph glyph-name="Uogonek" unicode="&#x172;" horiz-adv-x="701" 
d="M505 289v381h142v-383q0 -107 -48.5 -182t-135.5 -105l-71 -77q-7 -7 -3.5 -15.5t13.5 -8.5h61v-99h-113q-68 0 -91.5 55t24.5 104l23 26q-116 14 -184.5 94.5t-68.5 207.5v383h143v-381q0 -74 41.5 -121.5t112.5 -47.5q72 0 113.5 47.5t41.5 121.5z" />
    <glyph glyph-name="uogonek" unicode="&#x173;" horiz-adv-x="568" 
d="M392 232v266h135v-268q0 -87 -39.5 -147.5t-111.5 -83.5l-70 -75q-7 -8 -3 -16t14 -8h61v-100h-105q-68 0 -91.5 55t24.5 104l27 30q-90 14 -141.5 78t-51.5 163v268h135v-266q0 -50 29 -83t80 -33t79.5 33t28.5 83z" />
    <glyph glyph-name="Wcircumflex" unicode="&#x174;" horiz-adv-x="979" 
d="M548 720l-59 69l-59 -69h-125l118 128h132l118 -128h-125zM680 225l126 445h153l-192 -670h-159l-118 426l-119 -426h-159l-192 670h152l127 -446l122 446h137z" />
    <glyph glyph-name="wcircumflex" unicode="&#x175;" horiz-adv-x="787" 
d="M455 562l-61 86l-61 -86h-123l118 158h131l118 -158h-122zM549 187l90 311h140l-159 -498h-129l-97 317l-98 -317h-129l-159 498h140l92 -311l93 311h121z" />
    <glyph glyph-name="Ycircumflex" unicode="&#x176;" horiz-adv-x="708" 
d="M413 720l-59 69l-59 -69h-125l118 128h132l118 -128h-125zM532 670h161l-268 -411v-259h-142v258l-268 412h164l177 -280z" />
    <glyph glyph-name="ycircumflex" unicode="&#x177;" horiz-adv-x="571" 
d="M355 562l-61 86l-61 -86h-123l118 158h131l118 -158h-122zM305 120l122 378h137l-198 -579q-20 -57 -61 -88t-99 -31h-142v132h138q20 0 34 9l-229 557h148z" />
    <glyph glyph-name="Ydieresis" unicode="&#x178;" horiz-adv-x="708" 
d="M198 848h120v-128h-120v128zM391 848h120v-128h-120v128zM532 670h161l-268 -411v-259h-142v258l-268 412h164l177 -280z" />
    <glyph glyph-name="Zacute" unicode="&#x179;" horiz-adv-x="612" 
d="M317 848h136l-122 -128h-128zM562 558l-337 -420h355v-138h-546v112l334 420h-325v138h519v-112z" />
    <glyph glyph-name="zacute" unicode="&#x17a;" horiz-adv-x="506" 
d="M256 720h132l-122 -158h-128zM469 388l-259 -257h269v-131h-452v111l260 257h-250v130h432v-110z" />
    <glyph glyph-name="Zdotaccent" unicode="&#x17b;" horiz-adv-x="612" 
d="M240 848h135v-128h-135v128zM562 558l-337 -420h355v-138h-546v112l334 420h-325v138h519v-112z" />
    <glyph glyph-name="zdotaccent" unicode="&#x17c;" horiz-adv-x="506" 
d="M186 720h135v-158h-135v158zM469 388l-259 -257h269v-131h-452v111l260 257h-250v130h432v-110z" />
    <glyph glyph-name="Zcaron" unicode="&#x17d;" horiz-adv-x="612" 
d="M242 720l-118 128h125l59 -69l59 69h125l-118 -128h-132zM562 558l-337 -420h355v-138h-546v112l334 420h-325v138h519v-112z" />
    <glyph glyph-name="zcaron" unicode="&#x17e;" horiz-adv-x="506" 
d="M187 562l-118 158h123l61 -86l61 86h122l-118 -158h-131zM469 388l-259 -257h269v-131h-452v111l260 257h-250v130h432v-110z" />
    <glyph glyph-name="uni0218" unicode="&#x218;" horiz-adv-x="649" 
d="M231 670h345v-138h-335q-26 0 -40 -14t-14 -34q0 -17 11 -31t31 -19l239 -56q74 -17 113 -68.5t39 -115.5q0 -79 -53.5 -136.5t-148.5 -57.5h-359v139h354q25 0 40.5 16t15.5 37q0 41 -45 51l-240 57q-73 18 -112 68.5t-39 112.5q0 77 52.5 133t145.5 56zM185 -200
l118 158h132l-122 -158h-128z" />
    <glyph glyph-name="uni0219" unicode="&#x219;" horiz-adv-x="517" 
d="M186 498h274v-130h-270q-21 0 -21 -21q0 -18 17 -21l187 -38q57 -12 90 -49t33 -89q0 -65 -46.5 -107.5t-115.5 -42.5h-288v131h286q22 0 22 22q0 17 -17 22l-190 41q-54 11 -88 48t-34 87q0 64 46 105.5t115 41.5zM107 -200l118 158h132l-122 -158h-128z" />
    <glyph glyph-name="uni021A" unicode="&#x21a;" horiz-adv-x="641" 
d="M25 532v138h592v-138h-225v-532h-143v532h-224zM278 -200h-128l118 158h132z" />
    <glyph glyph-name="uni021B" unicode="&#x21b;" horiz-adv-x="457" 
d="M425 498v-130h-205v-199q0 -18 11 -28t29 -10h165v-131h-190q-69 0 -109.5 39.5t-40.5 106.5v222h-70v130h70v172h135v-172h205zM235 -200h-128l118 158h132z" />
    <glyph glyph-name="circumflex" unicode="&#x2c6;" horiz-adv-x="391" 
d="M264 720l118 -158h-123l-61 86l-61 -86h-122l118 158h131z" />
    <glyph glyph-name="dotaccent" unicode="&#x2d9;" horiz-adv-x="240" 
d="M70 720h135v-158h-135v158z" />
    <glyph glyph-name="ring" unicode="&#x2da;" horiz-adv-x="306" 
d="M163 540q-51 0 -86.5 34.5t-35.5 85.5t35.5 85.5t86.5 34.5t86.5 -34.5t35.5 -85.5t-35.5 -85.5t-86.5 -34.5zM163 621q17 0 28 11.5t11 27.5t-11 27.5t-28 11.5t-28 -11.5t-11 -27.5t11 -27.5t28 -11.5z" />
    <glyph glyph-name="tilde" unicode="&#x2dc;" horiz-adv-x="418" 
d="M152 562h-105v85q0 46 34.5 65t83.5 1l90 -35q12 -5 12 8v39h106v-82q0 -46 -35.5 -66.5t-83.5 -1.5l-90 35q-4 2 -8 0t-4 -8v-40z" />
    <glyph glyph-name="gravecomb" unicode="&#x300;" horiz-adv-x="0" 
d="M-262 720h132l118 -158h-128z" />
    <glyph glyph-name="acutecomb" unicode="&#x301;" horiz-adv-x="0" 
d="M-262 562l118 158h132l-122 -158h-128z" />
    <glyph glyph-name="uni0302" unicode="&#x302;" horiz-adv-x="0" 
d="M-130 720l118 -158h-122l-61 86l-61 -86h-123l118 158h131z" />
    <glyph glyph-name="tildecomb" unicode="&#x303;" horiz-adv-x="0" 
d="M-266 562h-105v85q0 46 34.5 65t83.5 1l90 -35q12 -5 12 8v39h106v-82q0 -46 -35.5 -66.5t-83.5 -1.5l-90 35q-4 2 -8 0t-4 -8v-40z" />
    <glyph glyph-name="uni0304" unicode="&#x304;" horiz-adv-x="0" 
d="M-53 562h-323v104h323v-104z" />
    <glyph glyph-name="uni0306" unicode="&#x306;" horiz-adv-x="0" 
d="M-374 636v84h104v-49q0 -15 15 -15h92q15 0 15 15v49h104v-84q0 -32 -21 -53t-53 -21h-181q-32 0 -53.5 21t-21.5 53z" />
    <glyph glyph-name="uni0307" unicode="&#x307;" horiz-adv-x="0" 
d="M-187 720h135v-158h-135v158z" />
    <glyph glyph-name="uni0308" unicode="&#x308;" horiz-adv-x="0" 
d="M-366 720h120v-158h-120v158zM-173 720h120v-158h-120v158z" />
    <glyph glyph-name="uni030A" unicode="&#x30a;" horiz-adv-x="0" 
d="M-153 540q-51 0 -86.5 34.5t-35.5 85.5t35.5 85.5t86.5 34.5t86.5 -34.5t35.5 -85.5t-35.5 -85.5t-86.5 -34.5zM-153 621q17 0 28 11.5t11 27.5t-11 27.5t-28 11.5t-28 -11.5t-11 -27.5t11 -27.5t28 -11.5z" />
    <glyph glyph-name="uni030B" unicode="&#x30b;" horiz-adv-x="0" 
d="M-451 562l118 158h125l-122 -158h-121zM-255 562l118 158h125l-122 -158h-121z" />
    <glyph glyph-name="uni030C" unicode="&#x30c;" horiz-adv-x="0" 
d="M-195 634l61 86h122l-118 -158h-131l-118 158h123z" />
    <glyph glyph-name="uni0312" unicode="&#x312;" horiz-adv-x="0" 
d="M-12 720l-118 -158h-132l122 158h128z" />
    <glyph glyph-name="uni0326" unicode="&#x326;" horiz-adv-x="0" 
d="M-262 -200l118 158h132l-122 -158h-128z" />
    <glyph glyph-name="uni0327" unicode="&#x327;" horiz-adv-x="0" 
d="M-127 -34h11q41 0 63 -24t22 -58t-22.5 -59t-62.5 -25h-134v76h126q13 0 13 11t-13 11h-81v109h78v-41z" />
    <glyph glyph-name="uni0328" unicode="&#x328;" horiz-adv-x="0" 
d="M-176 0h134l-71 -76q-7 -8 -3 -16t14 -8h61v-100h-105q-68 0 -91.5 55t24.5 104z" />
    <glyph glyph-name="uni0401" unicode="&#x401;" horiz-adv-x="620" 
d="M167 848h120v-128h-120v128zM360 848h120v-128h-120v128zM579 0h-513v670h513v-138h-371v-125h328v-132h-328v-137h371v-138z" />
    <glyph glyph-name="uni0404" unicode="&#x404;" horiz-adv-x="748" 
d="M570 271h147q-16 -124 -108.5 -204.5t-230.5 -80.5q-154 0 -250 100.5t-96 247.5q0 148 96 249.5t250 101.5q134 0 226.5 -79t110.5 -200h-148q-17 63 -67.5 101.5t-122.5 37.5q-73 -1 -123.5 -41.5t-68.5 -105.5h245v-125h-245q18 -66 69 -107t125 -41q73 0 124.5 40
t66.5 106z" />
    <glyph glyph-name="uni0406" unicode="&#x406;" horiz-adv-x="274" 
d="M66 0v670h142v-670h-142z" />
    <glyph glyph-name="uni0407" unicode="&#x407;" horiz-adv-x="274" 
d="M-19 848h120v-128h-120v128zM174 848h120v-128h-120v128zM66 0v670h142v-670h-142z" />
    <glyph glyph-name="uni040E" unicode="&#x40e;" horiz-adv-x="678" 
d="M429 720h-182q-32 0 -53 21t-21 53v54h106v-23q0 -15 15 -15h89q15 0 15 15v23h105v-54q0 -32 -21 -53t-53 -21zM364 288l150 383h146l-213 -533q-53 -138 -175 -138h-165v137h162q13 0 21 4l-275 529h160z" />
    <glyph glyph-name="uni0410" unicode="&#x410;" horiz-adv-x="743" 
d="M726 0h-161l-56 142h-281l-55 -142h-156l275 670h158zM368 499l-91 -232h182z" />
    <glyph glyph-name="uni0411" unicode="&#x411;" horiz-adv-x="653" 
d="M208 427h193q105 1 164.5 -60.5t59.5 -149.5q0 -89 -60.5 -153t-163.5 -64h-335v670h499v-138h-357v-105zM208 138h179q42 0 67.5 23.5t25.5 57.5t-25 57.5t-68 23.5h-179v-162z" />
    <glyph glyph-name="uni0412" unicode="&#x412;" horiz-adv-x="668" 
d="M529 353v-5q47 -18 76 -58t29 -97q0 -83 -58.5 -138t-144.5 -55h-365v670h353q84 0 140 -49.5t56 -128.5q0 -45 -23 -82t-63 -57zM396 540h-188v-141h187q33 0 54 21t21 50t-21 49.5t-53 20.5zM208 129h203q34 0 56 22.5t22 53.5q0 30 -22.5 51t-57.5 21h-201v-148z" />
    <glyph glyph-name="uni0413" unicode="&#x413;" horiz-adv-x="566" 
d="M208 0h-142v670h476v-138h-334v-532z" />
    <glyph glyph-name="uni0414" unicode="&#x414;" horiz-adv-x="769" 
d="M655 670v-532h89v-277h-135v139h-452v-139h-136v277h20q18 1 28 3t24.5 19t20.5 50q5 28 8 96t3.5 125t1 141t0.5 98h528zM238 138h275v394h-248q-4 -277 -15 -342q-5 -30 -12 -52z" />
    <glyph glyph-name="uni0415" unicode="&#x415;" horiz-adv-x="620" 
d="M579 0h-513v670h513v-138h-371v-125h328v-132h-328v-137h371v-138z" />
    <glyph glyph-name="uni0416" unicode="&#x416;" horiz-adv-x="981" 
d="M785 406h1q139 0 139 -145v-261h-142v232q0 40 -41 40h-180v-272h-143v272h-180q-41 0 -41 -40v-232h-142v261q0 145 139 145h1l-161 264h156l159 -264h69v264h143v-264h69l159 264h156z" />
    <glyph glyph-name="uni0417" unicode="&#x417;" horiz-adv-x="609" 
d="M464 350v-4q47 -16 77 -56.5t30 -97.5q0 -83 -58 -137.5t-144 -54.5h-332v139h311q34 0 55 18.5t21 46.5q0 27 -21 46t-56 19h-237v137h231q33 0 53 19t20 45t-19.5 44t-52.5 18h-305v138h328q85 0 141 -47.5t56 -126.5q0 -49 -26.5 -88.5t-71.5 -57.5z" />
    <glyph glyph-name="uni0418" unicode="&#x418;" horiz-adv-x="735" 
d="M208 217l318 453h143v-670h-143v453l-318 -453h-142v670h142v-453z" />
    <glyph glyph-name="uni0419" unicode="&#x419;" horiz-adv-x="735" 
d="M456 720h-182q-32 0 -53 21t-21 53v54h106v-23q0 -15 15 -15h89q15 0 15 15v23h105v-54q0 -32 -21 -53t-53 -21zM208 217l318 453h143v-670h-143v453l-318 -453h-142v670h142v-453z" />
    <glyph glyph-name="uni041A" unicode="&#x41a;" horiz-adv-x="701" 
d="M661 670l-151 -260q137 -1 137 -144v-266h-142v236q0 40 -42 40h-255v-276h-142v670h142v-260h148l148 260h157z" />
    <glyph glyph-name="uni041B" unicode="&#x41b;" horiz-adv-x="727" 
d="M661 670v-670h-143v532h-243q-4 -291 -15 -356q-7 -42 -19.5 -73.5t-30 -50t-33.5 -30t-38.5 -16t-35 -5.5t-32.5 -1h-46v142h27q13 0 20.5 1.5t19 7.5t19.5 21.5t13 40.5q7 37 10 122.5t3.5 202.5t0.5 132h523z" />
    <glyph glyph-name="uni041C" unicode="&#x41c;" horiz-adv-x="888" 
d="M822 670v-670h-142v460l-191 -460h-91l-190 458v-458h-142v670h197l182 -446l182 446h195z" />
    <glyph glyph-name="uni041D" unicode="&#x41d;" horiz-adv-x="732" 
d="M523 411v259h143v-670h-143v273h-315v-273h-142v670h142v-259h315z" />
    <glyph glyph-name="uni041E" unicode="&#x41e;" horiz-adv-x="772" 
d="M386 -14q-158 0 -255.5 100.5t-97.5 247.5t98 249t255 102t255 -102t98 -249t-97.5 -247.5t-255.5 -100.5zM386 125q94 0 151 61t57 149t-57 149t-151 61t-151 -61t-57 -149q0 -87 57 -148.5t151 -61.5z" />
    <glyph glyph-name="uni041F" unicode="&#x41f;" horiz-adv-x="727" 
d="M661 670v-670h-143v532h-310v-532h-142v670h595z" />
    <glyph glyph-name="uni0420" unicode="&#x420;" horiz-adv-x="664" 
d="M402 670q99 0 166 -65.5t67 -164.5q0 -101 -67.5 -165.5t-165.5 -64.5h-194v-210h-142v670h336zM208 345h183q43 0 71.5 26t28.5 69q0 40 -29 66t-71 26h-183v-187z" />
    <glyph glyph-name="uni0421" unicode="&#x421;" horiz-adv-x="746" 
d="M570 271h147q-16 -124 -108.5 -204.5t-230.5 -80.5q-154 0 -250 100.5t-96 247.5q0 148 96 249.5t250 101.5q134 0 226.5 -79t110.5 -200h-148q-17 63 -67.5 101.5t-122.5 37.5q-90 -1 -145 -61.5t-55 -148.5t55 -149t147 -61q73 0 124.5 40t66.5 106z" />
    <glyph glyph-name="uni0422" unicode="&#x422;" horiz-adv-x="641" 
d="M25 670h592v-138h-225v-532h-143v532h-224v138z" />
    <glyph glyph-name="uni0423" unicode="&#x423;" horiz-adv-x="678" 
d="M364 288l150 383h146l-213 -533q-53 -138 -175 -138h-165v137h162q13 0 21 4l-275 529h160z" />
    <glyph glyph-name="uni0424" unicode="&#x424;" horiz-adv-x="863" 
d="M503 670h160q73 0 113.5 -41t40.5 -114v-239q0 -73 -40.5 -114t-113.5 -41h-160v-121h-143v121h-159q-73 0 -114 41t-41 114v239q0 73 41 114t114 41h159v50h143v-50zM235 256h125v279h-125q-47 0 -47 -46v-187q0 -46 47 -46zM675 302v187q0 46 -47 46h-125v-279h125
q47 0 47 46z" />
    <glyph glyph-name="uni0425" unicode="&#x425;" horiz-adv-x="688" 
d="M427 343l244 -343h-179l-150 221l-150 -221h-174l242 340l-235 330h179l142 -209l147 209h164z" />
    <glyph glyph-name="uni0426" unicode="&#x426;" horiz-adv-x="774" 
d="M661 138h89v-277h-136v139h-548v670h142v-532h310v532h143v-532z" />
    <glyph glyph-name="uni0427" unicode="&#x427;" horiz-adv-x="667" 
d="M459 371v299h142v-670h-142v232h-264q-73 0 -113 40t-40 113v285h143v-253q0 -46 46 -46h228z" />
    <glyph glyph-name="uni0428" unicode="&#x428;" horiz-adv-x="991" 
d="M782 138v532h143v-670h-859v670h142v-532h217v532h142v-532h215z" />
    <glyph glyph-name="uni0429" unicode="&#x429;" horiz-adv-x="1038" 
d="M925 138h88v-277h-135v139h-812v670h142v-532h217v532h142v-532h215v532h143v-532z" />
    <glyph glyph-name="uni042A" unicode="&#x42a;" horiz-adv-x="767" 
d="M331 458h175q99 0 166 -64t67 -164q0 -99 -67 -164.5t-166 -65.5h-318v532h-163v138h306v-212zM331 138h164q45 0 72 27t27 65q0 39 -26.5 65.5t-72.5 26.5h-164v-184z" />
    <glyph glyph-name="uni042B" unicode="&#x42b;" horiz-adv-x="882" 
d="M208 458h164q99 0 166 -64t67 -164q0 -99 -67 -164.5t-166 -65.5h-306v670h142v-212zM673 0v670h143v-670h-143zM208 138h153q46 0 73 27t27 65q0 39 -27 65.5t-73 26.5h-153v-184z" />
    <glyph glyph-name="uni042C" unicode="&#x42c;" horiz-adv-x="660" 
d="M208 458h191q99 0 166 -64t67 -164q0 -99 -67 -164.5t-166 -65.5h-333v670h142v-212zM208 138h180q45 0 72 27t27 65q0 39 -26.5 65.5t-72.5 26.5h-180v-184z" />
    <glyph glyph-name="uni042D" unicode="&#x42d;" horiz-adv-x="747" 
d="M369 685q154 0 250 -101.5t96 -249.5q0 -147 -96 -247.5t-250 -100.5q-138 0 -230 80.5t-109 204.5h147q15 -66 66.5 -106t125.5 -40t125 41t69 107h-246v125h246q-18 65 -68.5 105.5t-124.5 41.5q-72 1 -122.5 -37.5t-67.5 -101.5h-148q18 121 110.5 200t226.5 79z" />
    <glyph glyph-name="uni042E" unicode="&#x42e;" horiz-adv-x="904" 
d="M585 685q117 0 195 -75t78 -197v-155q0 -123 -79 -198t-196 -75t-193 75.5t-76 197.5v14h-106v-272h-142v670h142v-261h106v3q0 123 77 198t194 75zM715 258v155q0 60 -36.5 95.5t-93.5 35.5t-93 -35.5t-36 -96.5v-154q0 -61 35.5 -96t91.5 -35q58 0 95 35.5t37 95.5z
" />
    <glyph glyph-name="uni042F" unicode="&#x42f;" horiz-adv-x="733" 
d="M667 670v-670h-142v228h-264q-42 0 -42 -40v-188h-142v214q0 104 82 125v3q-66 48 -66 141q0 89 63.5 138t167.5 49h343zM335 357h190v175h-191q-43 0 -71 -23.5t-28 -63.5q0 -41 27.5 -64.5t72.5 -23.5z" />
    <glyph glyph-name="uni0430" unicode="&#x430;" horiz-adv-x="615" 
d="M428 434v64h134v-498h-134v66h-5q-24 -36 -66 -58t-95 -23q-102 0 -169.5 73.5t-67.5 189.5t66.5 191t171.5 74q52 0 94 -22t66 -57h5zM295 113q59 0 96 39.5t37 96.5q0 58 -37.5 97t-95.5 39q-59 0 -96.5 -38.5t-37.5 -97.5t37.5 -97.5t96.5 -38.5z" />
    <glyph glyph-name="uni0431" unicode="&#x431;" horiz-adv-x="597" 
d="M341 478q101 0 167 -67t66 -170q0 -110 -74 -182.5t-193 -72.5q-120 0 -194 73t-74 185v220q0 113 72 184.5t185 71.5h224v-137h-228q-55 0 -89 -33.5t-34 -88.5v-58h4q61 75 168 75zM307 116q58 0 94.5 35t36.5 86t-36 85t-95 34q-58 0 -94.5 -34t-36.5 -85
q0 -52 37 -86.5t94 -34.5z" />
    <glyph glyph-name="uni0432" unicode="&#x432;" horiz-adv-x="548" 
d="M440 261v-4q42 -14 63.5 -45.5t21.5 -70.5q0 -57 -40 -99t-112 -42h-320v498h298q73 0 112.5 -39t39.5 -94q0 -73 -63 -104zM325 387h-137v-82h137q20 0 31.5 12.5t11.5 29.5q0 16 -11 28t-32 12zM188 111h155q21 0 33.5 13t12.5 31q0 17 -12 29t-34 12h-155v-85z" />
    <glyph glyph-name="uni0433" unicode="&#x433;" horiz-adv-x="455" 
d="M439 498v-130h-251v-368h-135v498h386z" />
    <glyph glyph-name="uni0434" unicode="&#x434;" horiz-adv-x="643" 
d="M543 498v-371h85v-239h-129v112h-355v-112h-129v239h18q16 0 24.5 1.5t20 8t18 24.5t8.5 46q5 72 5 291h434zM220 127h188v243h-171q-2 -113 -4 -152q-3 -56 -13 -91z" />
    <glyph glyph-name="uni0435" unicode="&#x435;" horiz-adv-x="564" 
d="M284 513q124 0 196 -88t58 -221h-376q6 -40 38.5 -67.5t82.5 -29.5q35 -2 65.5 12.5t43.5 38.5h141q-24 -82 -92 -127.5t-158 -45.5q-121 0 -190 76.5t-69 187.5q0 112 73.5 188t186.5 76zM283 392q-44 0 -76.5 -22.5t-43.5 -60.5h238q-11 39 -42.5 61t-75.5 22z" />
    <glyph glyph-name="uni0436" unicode="&#x436;" horiz-adv-x="786" 
d="M753 498l-113 -193q45 -5 73.5 -35t28.5 -80v-190h-135v152q0 37 -39 37h-107v-189h-135v189h-108q-40 0 -40 -37v-152h-135v190q0 50 29 80t74 35l-113 193h143l108 -192h42v192h135v-192h40l108 192h144z" />
    <glyph glyph-name="uni0437" unicode="&#x437;" horiz-adv-x="514" 
d="M409 259v-5q38 -12 58 -43t20 -69q0 -56 -41 -99t-114 -43h-301v126h279q17 0 27 10.5t10 24.5t-9.5 23.5t-26.5 9.5h-191v113h180q17 0 26.5 9.5t9.5 23.5q0 13 -9.5 23t-26.5 10h-269v126h287q74 0 115.5 -40t41.5 -94q0 -34 -17 -63t-49 -43z" />
    <glyph glyph-name="uni0438" unicode="&#x438;" horiz-adv-x="593" 
d="M188 196l217 302h135v-498h-135v302l-217 -302h-135v498h135v-302z" />
    <glyph glyph-name="uni0439" unicode="&#x439;" horiz-adv-x="593" 
d="M391 562h-181q-32 0 -53.5 21t-21.5 53v84h104v-49q0 -15 15 -15h92q15 0 15 15v49h104v-84q0 -32 -21 -53t-53 -21zM188 196l217 302h135v-498h-135v302l-217 -302h-135v498h135v-302z" />
    <glyph glyph-name="uni043A" unicode="&#x43a;" horiz-adv-x="570" 
d="M535 498l-111 -193q45 -5 73.5 -35.5t28.5 -79.5v-190h-135v152q0 37 -40 37h-163v-189h-135v498h135v-192h95l106 192h146z" />
    <glyph glyph-name="uni043B" unicode="&#x43b;" horiz-adv-x="592" 
d="M539 498v-498h-135v370h-172q-2 -126 -4 -165q-2 -43 -10.5 -77t-18.5 -55.5t-27 -36.5t-30 -22.5t-34 -11.5t-32.5 -4.5t-32.5 -0.5h-26v134h10q16 0 24.5 1.5t20.5 8t18.5 24t8.5 45.5q3 67 5 288h435z" />
    <glyph glyph-name="uni043C" unicode="&#x43c;" horiz-adv-x="738" 
d="M686 498v-498h-135v346l-130 -346h-104l-129 345v-345h-135v498h209l109 -299l108 299h207z" />
    <glyph glyph-name="uni043D" unicode="&#x43d;" horiz-adv-x="587" 
d="M399 317v181h135v-498h-135v189h-211v-189h-135v498h135v-181h211z" />
    <glyph glyph-name="uni043E" unicode="&#x43e;" horiz-adv-x="583" 
d="M292 -15q-120 0 -194 75t-74 189q0 113 74 188.5t194 75.5t194 -75.5t74 -188.5q0 -114 -74 -189t-194 -75zM292 116q58 0 95.5 38.5t37.5 94.5q0 57 -37 95.5t-96 38.5t-96 -38.5t-37 -95.5t37 -95t96 -38z" />
    <glyph glyph-name="uni043F" unicode="&#x43f;" horiz-adv-x="578" 
d="M526 498v-498h-135v369h-203v-369h-135v498h473z" />
    <glyph glyph-name="uni0440" unicode="&#x440;" horiz-adv-x="615" 
d="M352 513q105 1 171.5 -74t66.5 -191t-67.5 -189.5t-169.5 -73.5q-53 1 -95 23t-66 58h-5v-266h-134v698h134v-64h5q24 35 66.5 57t93.5 22zM320 113q59 0 96.5 38.5t37.5 97.5t-37.5 97.5t-96.5 38.5q-58 0 -95.5 -39t-37.5 -97q0 -57 37 -96.5t96 -39.5z" />
    <glyph glyph-name="uni0441" unicode="&#x441;" horiz-adv-x="559" 
d="M539 309h-141q-12 33 -41.5 53.5t-69.5 20.5q-58 0 -93 -38.5t-35 -95.5q0 -56 35 -94.5t93 -38.5q39 0 69 20.5t42 53.5h141q-16 -91 -84.5 -148t-168.5 -57q-118 0 -190 75t-72 189t72 189t190 75q101 0 169.5 -56.5t83.5 -147.5z" />
    <glyph glyph-name="uni0442" unicode="&#x442;" horiz-adv-x="491" 
d="M476 498v-129h-163v-369h-135v369h-163v129h461z" />
    <glyph glyph-name="uni0443" unicode="&#x443;" horiz-adv-x="571" 
d="M305 120l122 378h137l-198 -579q-20 -57 -61 -88t-99 -31h-142v132h138q20 0 34 9l-229 557h148z" />
    <glyph glyph-name="uni0444" unicode="&#x444;" horiz-adv-x="750" 
d="M443 498h108q71 0 115 -42.5t44 -112.5v-187q0 -71 -44 -113.5t-115 -42.5h-108v-200h-135v200h-109q-72 0 -115.5 42.5t-43.5 113.5v187q0 70 43.5 112.5t115.5 42.5h109v172h135v-172zM222 129h86v240h-86q-21 0 -34 -12.5t-13 -32.5v-150q0 -20 13 -32.5t34 -12.5z
M575 174v150q0 20 -13.5 32.5t-33.5 12.5h-85v-240h85q20 0 33.5 12.5t13.5 32.5z" />
    <glyph glyph-name="uni0445" unicode="&#x445;" horiz-adv-x="560" 
d="M366 253l188 -253h-173l-104 147l-101 -147h-170l188 250l-186 248h173l103 -148l100 148h159z" />
    <glyph glyph-name="uni0446" unicode="&#x446;" horiz-adv-x="625" 
d="M526 498v-369h85v-241h-129v112h-429v498h135v-369h203v369h135z" />
    <glyph glyph-name="uni0447" unicode="&#x447;" horiz-adv-x="544" 
d="M357 282v216h135v-498h-135v155h-178q-69 0 -109.5 39t-40.5 106v198h135v-179q0 -37 41 -37h152z" />
    <glyph glyph-name="uni0448" unicode="&#x448;" horiz-adv-x="807" 
d="M619 129v369h135v-498h-701v498h135v-369h148v369h135v-369h148z" />
    <glyph glyph-name="uni0449" unicode="&#x449;" horiz-adv-x="854" 
d="M754 129h85v-241h-129v112h-657v498h135v-369h148v369h135v-369h148v369h135v-369z" />
    <glyph glyph-name="uni044A" unicode="&#x44a;" horiz-adv-x="638" 
d="M441 350q82 0 130.5 -51.5t48.5 -122.5q0 -72 -48.5 -124t-130.5 -52h-280v370h-146v128h281v-148h145zM433 123q24 0 39 16t15 39q0 22 -15 38t-39 16h-137v-109h137z" />
    <glyph glyph-name="uni044B" unicode="&#x44b;" horiz-adv-x="728" 
d="M188 350h128q81 0 130 -51.5t49 -122.5q0 -72 -49 -124t-130 -52h-263v498h135v-148zM540 0v498h135v-498h-135zM188 123h120q24 0 39 16t15 39q0 22 -15 38t-39 16h-120v-109z" />
    <glyph glyph-name="uni044C" unicode="&#x44c;" horiz-adv-x="533" 
d="M336 350q81 0 130 -51.5t49 -122.5q0 -72 -49 -124t-130 -52h-283v498h135v-148h148zM328 123q24 0 39 16t15 39q0 22 -15 38t-39 16h-140v-109h140z" />
    <glyph glyph-name="uni044D" unicode="&#x44d;" horiz-adv-x="559" 
d="M273 513q118 0 190 -75t72 -189t-72 -189t-190 -75q-100 0 -168.5 57t-84.5 148h141q12 -33 42 -53.5t69 -20.5q44 0 75.5 22.5t44.5 60.5h-149v102h148q-14 37 -45 59.5t-74 22.5q-40 0 -69.5 -20.5t-41.5 -53.5h-141q15 91 83.5 147.5t169.5 56.5z" />
    <glyph glyph-name="uni044E" unicode="&#x44e;" horiz-adv-x="787" 
d="M508 513q114 0 184.5 -75.5t70.5 -188.5t-71 -188.5t-184 -75.5q-97 0 -163.5 57.5t-84.5 149.5h-72v-192h-135v498h135v-182h74q20 89 86 143t160 54zM507 116q53 0 87 38.5t34 94.5q0 57 -34 95.5t-87 38.5q-54 0 -88 -38t-34 -96t34 -95.5t88 -37.5z" />
    <glyph glyph-name="uni044F" unicode="&#x44f;" horiz-adv-x="565" 
d="M513 498v-498h-135v165h-156q-49 0 -49 -46v-119h-136v129q0 80 65 98v5q-62 34 -62 111q0 64 47 109.5t132 45.5h294zM228 275h150v101h-151q-25 0 -39.5 -15.5t-14.5 -35.5q0 -21 15 -35.5t40 -14.5z" />
    <glyph glyph-name="uni0451" unicode="&#x451;" horiz-adv-x="564" 
d="M128 720h120v-158h-120v158zM321 720h120v-158h-120v158zM284 513q124 0 196 -88t58 -221h-376q6 -40 38.5 -67.5t82.5 -29.5q35 -2 65.5 12.5t43.5 38.5h141q-24 -82 -92 -127.5t-158 -45.5q-121 0 -190 76.5t-69 187.5q0 112 73.5 188t186.5 76zM283 392
q-44 0 -76.5 -22.5t-43.5 -60.5h238q-11 39 -42.5 61t-75.5 22z" />
    <glyph glyph-name="uni0454" unicode="&#x454;" horiz-adv-x="559" 
d="M287 116q39 0 69 20.5t42 53.5h141q-16 -91 -84.5 -148t-168.5 -57q-118 0 -190 75t-72 189t72 189t190 75q101 0 169.5 -56.5t83.5 -147.5h-141q-12 33 -41.5 53.5t-69.5 20.5q-43 0 -74 -22.5t-45 -59.5h148v-102h-149q13 -38 44.5 -60.5t75.5 -22.5z" />
    <glyph glyph-name="uni0456" unicode="&#x456;" horiz-adv-x="240" 
d="M53 720h135v-158h-135v158zM53 498h135v-498h-135v498z" />
    <glyph glyph-name="uni0457" unicode="&#x457;" horiz-adv-x="240" 
d="M-36 720h120v-158h-120v158zM157 720h120v-158h-120v158zM53 498h135v-498h-135v498z" />
    <glyph glyph-name="uni045E" unicode="&#x45e;" horiz-adv-x="571" 
d="M377 562h-181q-32 0 -53.5 21t-21.5 53v84h104v-49q0 -15 15 -15h92q15 0 15 15v49h104v-84q0 -32 -21 -53t-53 -21zM305 120l122 378h137l-198 -579q-20 -57 -61 -88t-99 -31h-142v132h138q20 0 34 9l-229 557h148z" />
    <glyph glyph-name="uni0490" unicode="&#x490;" horiz-adv-x="566" 
d="M406 670v130h136v-268h-337v-532h-143v670h344z" />
    <glyph glyph-name="uni0491" unicode="&#x491;" horiz-adv-x="457" 
d="M313 498v129h129v-259h-254v-368h-135v498h260z" />
    <glyph glyph-name="Wgrave" unicode="&#x1e80;" horiz-adv-x="979" 
d="M478 848l115 -128h-128l-122 128h135zM680 225l126 445h153l-192 -670h-159l-118 426l-119 -426h-159l-192 670h152l127 -446l122 446h137z" />
    <glyph glyph-name="wgrave" unicode="&#x1e81;" horiz-adv-x="787" 
d="M393 720l118 -158h-128l-122 158h132zM549 187l90 311h140l-159 -498h-129l-97 317l-98 -317h-129l-159 498h140l92 -311l93 311h121z" />
    <glyph glyph-name="Wacute" unicode="&#x1e82;" horiz-adv-x="979" 
d="M499 848h136l-122 -128h-128zM680 225l126 445h153l-192 -670h-159l-118 426l-119 -426h-159l-192 670h152l127 -446l122 446h137z" />
    <glyph glyph-name="wacute" unicode="&#x1e83;" horiz-adv-x="787" 
d="M397 720h132l-122 -158h-128zM549 187l90 311h140l-159 -498h-129l-97 317l-98 -317h-129l-159 498h140l92 -311l93 311h121z" />
    <glyph glyph-name="Wdieresis" unicode="&#x1e84;" horiz-adv-x="979" 
d="M333 848h120v-128h-120v128zM526 848h120v-128h-120v128zM680 225l126 445h153l-192 -670h-159l-118 426l-119 -426h-159l-192 670h152l127 -446l122 446h137z" />
    <glyph glyph-name="wdieresis" unicode="&#x1e85;" horiz-adv-x="787" 
d="M237 720h120v-158h-120v158zM430 720h120v-158h-120v158zM549 187l90 311h140l-159 -498h-129l-97 317l-98 -317h-129l-159 498h140l92 -311l93 311h121z" />
    <glyph glyph-name="uni1E9E" unicode="&#x1e9e;" horiz-adv-x="679" 
d="M574 574l-104 -162q84 -12 133 -71t49 -136q0 -85 -58 -145t-157 -60h-127v137h119q38 0 59 20.5t21 51.5t-21 52.5t-57 21.5h-121v96l99 153h-159q-47 0 -47 -46v-486h-142v518q0 72 39.5 112t112.5 40h361v-96z" />
    <glyph glyph-name="Ygrave" unicode="&#x1ef2;" horiz-adv-x="708" 
d="M342 848l115 -128h-128l-122 128h135zM532 670h161l-268 -411v-259h-142v258l-268 412h164l177 -280z" />
    <glyph glyph-name="ygrave" unicode="&#x1ef3;" horiz-adv-x="571" 
d="M293 720l118 -158h-128l-122 158h132zM305 120l122 378h137l-198 -579q-20 -57 -61 -88t-99 -31h-142v132h138q20 0 34 9l-229 557h148z" />
    <glyph glyph-name="endash" unicode="&#x2013;" horiz-adv-x="733" 
d="M54 203v128h625v-128h-625z" />
    <glyph glyph-name="emdash" unicode="&#x2014;" horiz-adv-x="859" 
d="M54 203v127h751v-127h-751z" />
    <glyph glyph-name="quoteleft" unicode="&#x2018;" horiz-adv-x="265" 
d="M167 432h-145l98 288h121z" />
    <glyph glyph-name="quoteright" unicode="&#x2019;" horiz-adv-x="266" 
d="M99 720h145l-98 -288h-121z" />
    <glyph glyph-name="quotesinglbase" unicode="&#x201a;" horiz-adv-x="284" 
d="M99 150h145l-98 -288h-121z" />
    <glyph glyph-name="quotedblleft" unicode="&#x201c;" horiz-adv-x="462" 
d="M170 433h-145l98 287h121zM366 433h-145l99 287h120z" />
    <glyph glyph-name="quotedblright" unicode="&#x201d;" horiz-adv-x="462" 
d="M96 720h145l-99 -288h-120zM292 720h145l-98 -288h-121z" />
    <glyph glyph-name="quotedblbase" unicode="&#x201e;" horiz-adv-x="461" 
d="M81 150h145l-98 -288h-121zM275 150h145l-98 -288h-121z" />
    <glyph glyph-name="dagger" unicode="&#x2020;" horiz-adv-x="478" 
d="M292 498h149v-101h-149v-397h-106v397h-149v101h149v172h106v-172z" />
    <glyph glyph-name="daggerdbl" unicode="&#x2021;" horiz-adv-x="503" 
d="M453 498v-101h-148v-116h148v-101h-148v-180h-107v180h-148v101h148v116h-148v101h148v172h107v-172h148z" />
    <glyph glyph-name="bullet" unicode="&#x2022;" horiz-adv-x="400" 
d="M202 407q61 0 105 -45t44 -108q0 -61 -44 -105t-105 -44q-63 0 -108 44t-45 105q0 64 44.5 108.5t108.5 44.5z" />
    <glyph glyph-name="ellipsis" unicode="&#x2026;" horiz-adv-x="855" 
d="M70 150h145v-150h-145v150zM355 150h145v-150h-145v150zM640 150h145v-150h-145v150z" />
    <glyph glyph-name="perthousand" unicode="&#x2030;" horiz-adv-x="1161" 
d="M204 354q-70 0 -118 48t-48 118q0 68 48 116.5t118 48.5q69 0 116.5 -48.5t47.5 -116.5q0 -70 -47 -118t-117 -48zM108 0l470 670h109l-470 -670h-109zM204 449q29 0 50 20.5t21 50.5q0 29 -21 49.5t-50 20.5q-28 0 -48.5 -20.5t-20.5 -49.5q0 -30 20 -50.5t49 -20.5z
M590 -15q-70 0 -118 48t-48 118q0 68 48 116.5t118 48.5q69 0 116.5 -48.5t47.5 -116.5q0 -70 -47 -118t-117 -48zM959 -15q-70 0 -118 48t-48 118q0 68 48 116.5t118 48.5q69 0 116.5 -48.5t47.5 -116.5q0 -70 -47.5 -118t-116.5 -48zM590 80q29 0 50 20.5t21 50.5
q0 29 -21 49.5t-50 20.5q-28 0 -48.5 -20.5t-20.5 -49.5q0 -30 20 -50.5t49 -20.5zM959 80q29 0 50 20.5t21 50.5q0 29 -21 49.5t-50 20.5t-49.5 -20.5t-20.5 -49.5q0 -30 20.5 -50.5t49.5 -20.5z" />
    <glyph glyph-name="guilsinglleft" unicode="&#x2039;" horiz-adv-x="303" 
d="M164 435h125l-147 -190l147 -190h-125l-143 190z" />
    <glyph glyph-name="guilsinglright" unicode="&#x203a;" horiz-adv-x="303" 
d="M161 245l-147 190h125l143 -190l-143 -190h-125z" />
    <glyph glyph-name="fraction" unicode="&#x2044;" horiz-adv-x="305" 
d="M-133 0l470 670h102l-470 -670h-102z" />
    <glyph glyph-name="uni2070" unicode="&#x2070;" horiz-adv-x="378" 
d="M22 432v84q0 73 48 118.5t119 45.5q70 0 118.5 -45t48.5 -118v-85q0 -73 -49 -118.5t-120 -45.5q-70 0 -117.5 46t-47.5 118zM118 516v-84q0 -32 19.5 -50t49.5 -18q31 0 52.5 18t21.5 50v85q0 30 -21 49t-51 19q-31 0 -51 -18.5t-20 -50.5z" />
    <glyph glyph-name="uni2074" unicode="&#x2074;" horiz-adv-x="375" 
d="M301 456h66v-88h-66v-92h-96v92h-198v70l158 232h136v-214zM205 583l-82 -127h82v127z" />
    <glyph glyph-name="uni2075" unicode="&#x2075;" horiz-adv-x="344" 
d="M124 520h76q56 0 92 -33t36 -86t-36.5 -89t-91.5 -36h-163v93h157q16 0 25.5 9.5t10.5 21.5q1 14 -9 24t-27 10h-163l21 236h250v-93h-173z" />
    <glyph glyph-name="uni2076" unicode="&#x2076;" horiz-adv-x="356" 
d="M149 670h151v-94h-140q-21 0 -24 -20l-11 -61h2q35 30 89 30q59 0 94.5 -34t35.5 -88q0 -60 -46 -97.5t-118 -37.5q-55 0 -96.5 23.5t-57.5 63.5q-11 28 -7 73q1 5 26 156q7 39 36 62.5t66 23.5zM114 400q0 -18 18.5 -30t49.5 -12t50 12t19 30t-18.5 30t-49.5 12t-50 -12
t-19 -30z" />
    <glyph glyph-name="uni2077" unicode="&#x2077;" horiz-adv-x="303" 
d="M5 577v93h292v-72l-156 -322h-104l151 301h-183z" />
    <glyph glyph-name="uni2078" unicode="&#x2078;" horiz-adv-x="363" 
d="M280 480q64 -29 64 -91q0 -57 -46 -89t-117 -32t-117 33t-46 88q0 62 64 91q-55 31 -55 85q0 51 43.5 83t110.5 32q68 0 111 -31.5t43 -83.5q0 -54 -55 -85zM181 595q-25 0 -42.5 -11.5t-17.5 -27.5t16.5 -26.5t44.5 -10.5q26 0 43 11t17 26q0 16 -17 27.5t-44 11.5z
M181 354q32 0 50 13t18 30q0 15 -18.5 28t-49.5 13t-49 -12.5t-18 -28.5t18.5 -29.5t48.5 -13.5z" />
    <glyph glyph-name="uni2079" unicode="&#x2079;" horiz-adv-x="356" 
d="M206 277h-150v94h138q23 0 26 20l10 61h-2q-33 -30 -88 -30q-59 0 -94.5 34t-35.5 88q0 60 45.5 98t117.5 38q56 0 97.5 -23.5t56.5 -64.5q11 -26 7 -72q-1 -16 -25 -156q-7 -40 -36 -63.5t-67 -23.5zM242 547q0 19 -19 31t-50 12t-50 -12t-19 -31q0 -18 19 -30t50 -12
t50 12t19 30z" />
    <glyph glyph-name="uni2080" unicode="&#x2080;" horiz-adv-x="378" 
d="M22 155v84q0 73 48 118.5t119 45.5q70 0 118.5 -45t48.5 -118v-85q0 -72 -49 -117.5t-120 -45.5q-70 0 -117.5 45.5t-47.5 117.5zM118 239v-84q0 -32 19.5 -50t49.5 -18q31 0 52.5 18t21.5 50v85q0 31 -21 49.5t-51 18.5q-31 0 -51 -18.5t-20 -50.5z" />
    <glyph glyph-name="uni2081" unicode="&#x2081;" horiz-adv-x="235" 
d="M193 394v-394h-95v301h-94v93h189z" />
    <glyph glyph-name="uni2082" unicode="&#x2082;" horiz-adv-x="335" 
d="M312 281q-2 -55 -49 -98l-99 -89h147v-94h-294v76l186 170q14 14 14 29q0 11 -9 18.5t-23 7.5h-165v93h168q56 0 90.5 -33.5t33.5 -79.5z" />
    <glyph glyph-name="uni2083" unicode="&#x2083;" horiz-adv-x="338" 
d="M306 324l-85 -90q41 -6 70.5 -34.5t29.5 -75.5q0 -53 -36.5 -88.5t-88.5 -35.5h-176v93h165q16 0 27.5 9.5t11.5 23.5q0 13 -10.5 23t-28.5 10h-90v56l81 86h-156v93h286v-70z" />
    <glyph glyph-name="uni2084" unicode="&#x2084;" horiz-adv-x="375" 
d="M301 180h66v-88h-66v-92h-96v92h-198v70l158 232h136v-214zM205 307l-82 -127h82v127z" />
    <glyph glyph-name="uni2085" unicode="&#x2085;" horiz-adv-x="344" 
d="M124 244h76q56 0 92 -33t36 -86t-36.5 -89t-91.5 -36h-163v93h157q16 0 25.5 9.5t10.5 21.5q1 14 -9 24t-27 10h-163l21 236h250v-93h-173z" />
    <glyph glyph-name="uni2086" unicode="&#x2086;" horiz-adv-x="354" 
d="M150 394h148v-94h-140q-19 0 -24 -20l-10 -61h2q33 30 89 30q59 0 94 -34t35 -88q0 -60 -45.5 -97.5t-117.5 -37.5q-56 0 -97 23.5t-57 63.5q-10 26 -6 73q1 5 26 156q7 39 36 62.5t67 23.5zM112 124q0 -18 19 -30t50 -12t50 12t19 30t-18.5 30t-49.5 12q-32 0 -51 -12
t-19 -30z" />
    <glyph glyph-name="uni2087" unicode="&#x2087;" horiz-adv-x="303" 
d="M5 301v93h292v-72l-156 -322h-104l151 301h-183z" />
    <glyph glyph-name="uni2088" unicode="&#x2088;" horiz-adv-x="363" 
d="M280 204q64 -30 64 -92q0 -57 -45.5 -88.5t-117.5 -31.5q-71 0 -117 32.5t-46 87.5q0 62 64 92q-55 29 -55 85q0 51 43 82.5t111 31.5t111 -31t43 -83q0 -56 -55 -85zM181 318q-25 0 -42.5 -11.5t-17.5 -27.5t16.5 -26.5t44.5 -10.5q26 0 43 11t17 26q0 16 -17 27.5
t-44 11.5zM181 77q32 0 50 13.5t18 29.5q0 15 -18.5 28t-49.5 13t-49 -12.5t-18 -28.5q0 -15 18.5 -29t48.5 -14z" />
    <glyph glyph-name="uni2089" unicode="&#x2089;" horiz-adv-x="354" 
d="M205 0h-149v94h140q21 0 24 20l10 61h-2q-32 -30 -88 -30q-59 0 -94.5 34t-35.5 88q0 60 45.5 97.5t117.5 37.5q56 0 97 -23.5t57 -63.5q10 -26 6 -73q0 -3 -26 -156q-7 -39 -36 -62.5t-66 -23.5zM242 270q0 18 -19 30t-50 12t-50 -12t-19 -30t19 -30t50 -12t50 12t19 30
z" />
    <glyph glyph-name="Euro" unicode="&#x20ac;" horiz-adv-x="644" 
d="M588 532h-144q-109 0 -157 -75h227v-96h-258q-1 -8 -1 -26q0 -17 1 -25h258v-97h-227q49 -75 157 -75h144v-138h-142q-121 0 -203.5 57.5t-114.5 155.5h-75v97h58q-1 8 -1 24q0 18 1 27h-58v96h76q32 98 114 155.5t203 57.5h142v-138z" />
    <glyph glyph-name="uni20B4" unicode="&#x20b4;" horiz-adv-x="663" 
d="M602 360h-542v97h316q23 0 35 11t12 27q1 15 -12 26.5t-35 11.5h-272v137h300q78 0 124 -32t46 -88q0 -32 -16 -56.5t-45 -34.5v-2h89v-97zM60 310h542v-97h-315q-22 0 -34.5 -11t-13.5 -26q-1 -16 12 -27.5t36 -11.5h272v-137h-301q-78 0 -124 32t-46 88q0 32 16.5 56.5
t45.5 33.5v3h-90v97z" />
    <glyph glyph-name="uni20BD" unicode="&#x20bd;" horiz-adv-x="688" 
d="M431 276h-147v-54h262v-123h-262v-99h-142v99h-85v123h85v54h-85v123h85v271h289q67 0 117 -29t72 -73t22 -95t-22 -95t-71.5 -73t-117.5 -29zM420 532h-136v-133h136q35 0 55 21t20 45.5t-20 45.5t-55 21z" />
    <glyph glyph-name="uni2116" unicode="&#x2116;" horiz-adv-x="1110" 
d="M895 351q-70 0 -118.5 48.5t-48.5 119.5q0 69 48.5 117.5t118.5 48.5q69 0 117 -48.5t48 -117.5q0 -71 -47.5 -119.5t-117.5 -48.5zM241 670l290 -425v425h142v-670h-142l-309 453v-453h-143v670h162zM894 577q-25 0 -42 -17t-17 -41q1 -26 17.5 -43.5t41.5 -17.5
t42 17.5t17 43.5q0 24 -17 41t-42 17zM1055 199h-321v113h321v-113z" />
    <glyph glyph-name="trademark" unicode="&#x2122;" horiz-adv-x="887" 
d="M167 592h-126v78h330v-78h-123v-267h-81v267zM808 670v-345h-80v245l-96 -245h-57l-94 242v-242h-80v345h121l83 -213l84 213h119z" />
    <glyph glyph-name="oneeighth" unicode="&#x215b;" horiz-adv-x="856" 
d="M202 670v-394h-95v301h-93v93h188zM113 0l470 670h103l-470 -670h-103zM758 204q65 -30 65 -92q0 -57 -45.5 -88.5t-117.5 -31.5q-71 0 -117 32.5t-46 87.5q0 62 64 92q-55 29 -55 85q0 51 43 82.5t111 31.5q67 0 110.5 -31t43.5 -83q0 -55 -56 -85zM660 318
q-25 0 -42.5 -11.5t-17.5 -27.5t16 -26.5t44 -10.5q27 0 44 11t17 26q0 16 -17 27.5t-44 11.5zM660 77q32 0 50 13.5t18 29.5q0 15 -18.5 28t-49.5 13t-49 -12.5t-18 -28.5q0 -15 18.5 -29t48.5 -14z" />
    <glyph glyph-name="threeeighths" unicode="&#x215c;" horiz-adv-x="878" 
d="M334 400q0 -53 -36.5 -88.5t-88.5 -35.5h-176v93h165q16 0 27.5 9.5t11.5 23.5q0 13 -10.5 23t-28.5 10h-90v56l81 86h-156v93h286v-70l-85 -90q41 -6 70.5 -34.5t29.5 -75.5zM147 0l470 670h103l-470 -670h-103zM781 204q64 -30 64 -92q0 -57 -45.5 -88.5t-117.5 -31.5
q-71 0 -117 32.5t-46 87.5q0 62 64 92q-55 29 -55 85q0 51 43 82.5t111 31.5t111 -31t43 -83q0 -56 -55 -85zM682 318q-25 0 -42.5 -11.5t-17.5 -27.5t16.5 -26.5t44.5 -10.5q27 0 44 11t17 26q0 16 -17.5 27.5t-44.5 11.5zM682 77q33 0 51 13.5t18 29.5q0 15 -19 28t-50 13
t-49 -12.5t-18 -28.5q0 -15 19 -29t48 -14z" />
    <glyph glyph-name="fiveeighths" unicode="&#x215d;" horiz-adv-x="871" 
d="M50 369h157q16 0 25.5 9.5t10.5 21.5q1 14 -9 24t-27 10h-163l21 236h250v-93h-173l-5 -57h76q56 0 92 -33t36 -86t-36.5 -89t-91.5 -36h-163v93zM140 0l470 670h103l-470 -670h-103zM774 204q64 -30 64 -92q0 -57 -45.5 -88.5t-117.5 -31.5q-71 0 -117 32.5t-46 87.5
q0 62 64 92q-55 29 -55 85q0 51 43 82.5t111 31.5t111 -31t43 -83q0 -56 -55 -85zM675 318q-25 0 -42.5 -11.5t-17.5 -27.5t16.5 -26.5t44.5 -10.5q26 0 43 11t17 26q0 16 -17 27.5t-44 11.5zM675 77q32 0 50 13.5t18 29.5q0 15 -18.5 28t-49.5 13t-49 -12.5t-18 -28.5
q0 -15 18.5 -29t48.5 -14z" />
    <glyph glyph-name="arrowleft" unicode="&#x2190;" horiz-adv-x="640" 
d="M557 -15l-500 288l500 290v-578z" />
    <glyph glyph-name="arrowup" unicode="&#x2191;" horiz-adv-x="708" 
d="M57 0l297 515l298 -515h-595z" />
    <glyph glyph-name="arrowright" unicode="&#x2192;" horiz-adv-x="640" 
d="M83 563l500 -290l-500 -288v578z" />
    <glyph glyph-name="arrowdown" unicode="&#x2193;" horiz-adv-x="691" 
d="M635 498l-290 -500l-288 500h578z" />
    <glyph glyph-name="minus" unicode="&#x2212;" horiz-adv-x="643" 
d="M79 261v125h484v-125h-484z" />
    <glyph glyph-name="uni2460" unicode="&#x2460;" horiz-adv-x="806" 
d="M403 -15q-145 0 -247.5 102.5t-102.5 247.5t102.5 247.5t247.5 102.5t247.5 -102.5t102.5 -247.5t-102.5 -247.5t-247.5 -102.5zM403 61q113 0 193.5 80.5t80.5 193.5t-80.5 193.5t-193.5 80.5t-193.5 -80.5t-80.5 -193.5t80.5 -193.5t193.5 -80.5zM287 532v-93h93v-301
h95v394h-188z" />
    <glyph glyph-name="uni2461" unicode="&#x2461;" horiz-adv-x="806" 
d="M403 -15q-145 0 -247.5 102.5t-102.5 247.5t102.5 247.5t247.5 102.5t247.5 -102.5t102.5 -247.5t-102.5 -247.5t-247.5 -102.5zM403 61q113 0 193.5 80.5t80.5 193.5t-80.5 193.5t-193.5 80.5t-193.5 -80.5t-80.5 -193.5t80.5 -193.5t193.5 -80.5zM260 214v-76h294v94
h-147l99 89q49 43 49 99q0 47 -34.5 79.5t-89.5 32.5h-168v-93h165q14 0 23 -7.5t9 -18.5q0 -15 -14 -29z" />
    <glyph glyph-name="uni2462" unicode="&#x2462;" horiz-adv-x="806" 
d="M403 -15q-145 0 -247.5 102.5t-102.5 247.5t102.5 247.5t247.5 102.5t247.5 -102.5t102.5 -247.5t-102.5 -247.5t-247.5 -102.5zM403 61q113 0 193.5 80.5t80.5 193.5t-80.5 193.5t-193.5 80.5t-193.5 -80.5t-80.5 -193.5t80.5 -193.5t193.5 -80.5zM263 231v-93h176
q52 0 88.5 35.5t36.5 88.5q0 47 -29.5 75.5t-70.5 33.5h-1l86 91v70h-286v-93h162l-87 -92v-50h90q18 0 28.5 -10t10.5 -23q0 -14 -11.5 -23.5t-27.5 -9.5h-165z" />
    <glyph glyph-name="uni2463" unicode="&#x2463;" horiz-adv-x="806" 
d="M403 -15q-145 0 -247.5 102.5t-102.5 247.5t102.5 247.5t247.5 102.5t247.5 -102.5t102.5 -247.5t-102.5 -247.5t-247.5 -102.5zM403 61q113 0 193.5 80.5t80.5 193.5t-80.5 193.5t-193.5 80.5t-193.5 -80.5t-80.5 -193.5t80.5 -193.5t193.5 -80.5zM210 300v-70h198v-92
h97v92h66v88h-66v214h-137zM408 318h-82l82 126v-126z" />
    <glyph glyph-name="uni2464" unicode="&#x2464;" horiz-adv-x="806" 
d="M403 -15q-145 0 -247.5 102.5t-102.5 247.5t102.5 247.5t247.5 102.5t247.5 -102.5t102.5 -247.5t-102.5 -247.5t-247.5 -102.5zM403 61q113 0 193.5 80.5t80.5 193.5t-80.5 193.5t-193.5 80.5t-193.5 -80.5t-80.5 -193.5t80.5 -193.5t193.5 -80.5zM287 532l-21 -236h162
q18 0 27.5 -10t8.5 -24q0 -12 -10 -21.5t-26 -9.5h-157v-93h163q55 0 91.5 36t36.5 89t-36 86t-92 33h-76l5 57h173v93h-249z" />
    <glyph glyph-name="uni2465" unicode="&#x2465;" horiz-adv-x="806" 
d="M403 -15q-145 0 -247.5 102.5t-102.5 247.5t102.5 247.5t247.5 102.5t247.5 -102.5t102.5 -247.5t-102.5 -247.5t-247.5 -102.5zM403 61q113 0 193.5 80.5t80.5 193.5t-80.5 193.5t-193.5 80.5t-193.5 -80.5t-80.5 -193.5t80.5 -193.5t193.5 -80.5zM520 438v94h-148
q-38 0 -67 -23.5t-36 -62.5q-25 -151 -26 -156q-4 -47 6 -73q16 -40 57 -63.5t97 -23.5q72 0 117.5 37.5t45.5 97.5q0 54 -35 88t-94 34q-56 0 -89 -30h-2l10 61q5 20 24 20h140zM334 262q0 18 19 30t51 12q31 0 49.5 -12t18.5 -30t-19 -30t-50 -12t-50 12t-19 30z" />
    <glyph glyph-name="uni2466" unicode="&#x2466;" horiz-adv-x="806" 
d="M403 -15q-145 0 -247.5 102.5t-102.5 247.5t102.5 247.5t247.5 102.5t247.5 -102.5t102.5 -247.5t-102.5 -247.5t-247.5 -102.5zM403 61q113 0 193.5 80.5t80.5 193.5t-80.5 193.5t-193.5 80.5t-193.5 -80.5t-80.5 -193.5t80.5 -193.5t193.5 -80.5zM262 532v-93h184
l-152 -301h104l156 322v72h-292z" />
    <glyph glyph-name="uni2467" unicode="&#x2467;" horiz-adv-x="806" 
d="M403 -15q-145 0 -247.5 102.5t-102.5 247.5t102.5 247.5t247.5 102.5t247.5 -102.5t102.5 -247.5t-102.5 -247.5t-247.5 -102.5zM403 61q113 0 193.5 80.5t80.5 193.5t-80.5 193.5t-193.5 80.5t-193.5 -80.5t-80.5 -193.5t80.5 -193.5t193.5 -80.5zM240 251q0 62 64 91
q-55 31 -55 85q0 51 43.5 83t110.5 32q68 0 111 -31.5t43 -83.5q0 -54 -55 -85q64 -29 64 -91q0 -57 -46 -89t-117 -32t-117 33t-46 88zM343 418q0 -16 16 -26.5t44 -10.5q27 0 44 11t17 26q0 16 -17 27.5t-44 11.5q-25 0 -42.5 -11.5t-17.5 -27.5zM336 259
q0 -16 18.5 -29.5t48.5 -13.5q32 0 50 13t18 30q0 15 -18.5 28t-49.5 13t-49 -12.5t-18 -28.5z" />
    <glyph glyph-name="uni2468" unicode="&#x2468;" horiz-adv-x="806" 
d="M403 -15q-145 0 -247.5 102.5t-102.5 247.5t102.5 247.5t247.5 102.5t247.5 -102.5t102.5 -247.5t-102.5 -247.5t-247.5 -102.5zM403 61q113 0 193.5 80.5t80.5 193.5t-80.5 193.5t-193.5 80.5t-193.5 -80.5t-80.5 -193.5t80.5 -193.5t193.5 -80.5zM286 233v-93h149
q37 0 66.5 23t36.5 63q25 146 26 156q4 47 -7 73q-16 40 -57 63.5t-96 23.5q-72 0 -118 -38t-46 -98q0 -53 36 -87.5t94 -34.5q54 0 89 30h2l-11 -60q-3 -21 -24 -21h-140zM472 410q0 -18 -19 -30.5t-50 -12.5t-49.5 12.5t-18.5 29.5q0 19 19 31t50 12t49.5 -12t18.5 -30z
" />
    <glyph glyph-name="uni24EA" unicode="&#x24ea;" horiz-adv-x="806" 
d="M403 -15q-145 0 -247.5 102.5t-102.5 247.5t102.5 247.5t247.5 102.5t247.5 -102.5t102.5 -247.5t-102.5 -247.5t-247.5 -102.5zM403 61q113 0 193.5 80.5t80.5 193.5t-80.5 193.5t-193.5 80.5t-193.5 -80.5t-80.5 -193.5t80.5 -193.5t193.5 -80.5zM237 377v-84
q0 -72 47.5 -118t117.5 -46q71 0 119.5 45.5t48.5 118.5v85q0 73 -48 118t-118 45q-71 0 -119 -45.5t-48 -118.5zM332 293v84q0 32 20 50.5t51 18.5q30 0 50.5 -18.5t20.5 -49.5v-85q0 -32 -21 -50t-52 -18q-30 0 -49.5 18t-19.5 50z" />
    <glyph glyph-name="uni24FF" unicode="&#x24ff;" horiz-adv-x="806" 
d="M403 -15q-145 0 -247.5 102.5t-102.5 247.5t102.5 247.5t247.5 102.5t247.5 -102.5t102.5 -247.5t-102.5 -247.5t-247.5 -102.5zM237 377v-84q0 -72 47.5 -118t117.5 -46q71 0 119.5 45.5t48.5 118.5v85q0 73 -48 118t-118 45q-71 0 -119 -45.5t-48 -118.5zM332 293v84
q0 32 20 50.5t51 18.5q30 0 50.5 -18.5t20.5 -49.5v-85q0 -32 -21 -50t-52 -18q-30 0 -49.5 18t-19.5 50z" />
    <glyph glyph-name="uni2776" unicode="&#x2776;" horiz-adv-x="806" 
d="M403 -15q-145 0 -247.5 102.5t-102.5 247.5t102.5 247.5t247.5 102.5t247.5 -102.5t102.5 -247.5t-102.5 -247.5t-247.5 -102.5zM287 532v-93h93v-301h95v394h-188z" />
    <glyph glyph-name="uni2777" unicode="&#x2777;" horiz-adv-x="806" 
d="M403 -15q-145 0 -247.5 102.5t-102.5 247.5t102.5 247.5t247.5 102.5t247.5 -102.5t102.5 -247.5t-102.5 -247.5t-247.5 -102.5zM260 214v-76h294v94h-147l99 89q49 43 49 99q0 47 -34.5 79.5t-89.5 32.5h-168v-93h165q14 0 23 -7.5t9 -18.5q0 -15 -14 -29z" />
    <glyph glyph-name="uni2778" unicode="&#x2778;" horiz-adv-x="806" 
d="M403 -15q-145 0 -247.5 102.5t-102.5 247.5t102.5 247.5t247.5 102.5t247.5 -102.5t102.5 -247.5t-102.5 -247.5t-247.5 -102.5zM263 231v-93h176q52 0 88.5 35.5t36.5 88.5q0 47 -29.5 75.5t-70.5 33.5h-1l86 91v70h-286v-93h163l-88 -92v-50h90q18 0 28.5 -10t10.5 -23
q0 -14 -11.5 -23.5t-27.5 -9.5h-165z" />
    <glyph glyph-name="uni2779" unicode="&#x2779;" horiz-adv-x="806" 
d="M403 -15q-145 0 -247.5 102.5t-102.5 247.5t102.5 247.5t247.5 102.5t247.5 -102.5t102.5 -247.5t-102.5 -247.5t-247.5 -102.5zM210 300v-70h198v-92h97v92h66v88h-66v214h-137zM408 318h-82l82 126v-126z" />
    <glyph glyph-name="uni277A" unicode="&#x277a;" horiz-adv-x="806" 
d="M403 -15q-145 0 -247.5 102.5t-102.5 247.5t102.5 247.5t247.5 102.5t247.5 -102.5t102.5 -247.5t-102.5 -247.5t-247.5 -102.5zM287 532l-21 -236h162q18 0 27.5 -10t8.5 -24q0 -12 -10 -21.5t-26 -9.5h-157v-93h163q55 0 91.5 36t36.5 89t-36 86t-92 33h-76l5 57h173
v93h-249z" />
    <glyph glyph-name="uni277B" unicode="&#x277b;" horiz-adv-x="806" 
d="M403 -15q-145 0 -247.5 102.5t-102.5 247.5t102.5 247.5t247.5 102.5t247.5 -102.5t102.5 -247.5t-102.5 -247.5t-247.5 -102.5zM520 438v94h-148q-38 0 -67 -23.5t-36 -62.5q-25 -151 -26 -156q-4 -47 6 -73q16 -40 57 -63.5t97 -23.5q72 0 117.5 37.5t45.5 97.5
q0 54 -35 88t-94 34q-56 0 -89 -30h-2l10 61q5 20 24 20h140zM334 262q0 18 19 30t51 12q31 0 49.5 -12t18.5 -30t-19 -30t-50 -12t-50 12t-19 30z" />
    <glyph glyph-name="uni277C" unicode="&#x277c;" horiz-adv-x="806" 
d="M403 -15q-145 0 -247.5 102.5t-102.5 247.5t102.5 247.5t247.5 102.5t247.5 -102.5t102.5 -247.5t-102.5 -247.5t-247.5 -102.5zM262 532v-93h184l-152 -301h104l156 322v72h-292z" />
    <glyph glyph-name="uni277D" unicode="&#x277d;" horiz-adv-x="806" 
d="M403 -15q-145 0 -247.5 102.5t-102.5 247.5t102.5 247.5t247.5 102.5t247.5 -102.5t102.5 -247.5t-102.5 -247.5t-247.5 -102.5zM240 251q0 -55 46 -88t117 -33t117 32t46 89q0 62 -64 91q55 31 55 85q0 52 -43 83.5t-111 31.5q-67 0 -110.5 -32t-43.5 -83q0 -54 55 -85
q-64 -29 -64 -91zM343 418q0 16 17.5 27.5t42.5 11.5q27 0 44 -11.5t17 -27.5q0 -15 -17 -26t-44 -11q-28 0 -44 10.5t-16 26.5zM336 259q0 16 18 28.5t49 12.5t49.5 -13t18.5 -28q0 -17 -18 -30t-50 -13q-30 0 -48.5 13.5t-18.5 29.5z" />
    <glyph glyph-name="uni277E" unicode="&#x277e;" horiz-adv-x="806" 
d="M403 -15q-145 0 -247.5 102.5t-102.5 247.5t102.5 247.5t247.5 102.5t247.5 -102.5t102.5 -247.5t-102.5 -247.5t-247.5 -102.5zM286 233v-93h149q37 0 66.5 23t36.5 63q25 146 26 156q4 47 -7 73q-16 40 -57 63.5t-96 23.5q-72 0 -118 -38t-46 -98q0 -53 36 -87.5
t94 -34.5q54 0 89 30h2l-11 -60q-3 -21 -24 -21h-140zM472 410q0 -18 -19 -30.5t-50 -12.5t-49.5 12.5t-18.5 29.5q0 19 19 31t50 12t49.5 -12t18.5 -30z" />
    <glyph glyph-name="I.alt" horiz-adv-x="509" 
d="M474 670v-138h-148v-394h148v-138h-438v138h148v394h-148v138h438z" />
    <glyph glyph-name="Iacute.alt" horiz-adv-x="509" 
d="M261 848h136l-122 -128h-128zM474 670v-138h-148v-394h148v-138h-438v138h148v394h-148v138h438z" />
    <glyph glyph-name="Icircumflex.alt" horiz-adv-x="509" 
d="M310 720l-59 69l-59 -69h-125l118 128h132l118 -128h-125zM474 670v-138h-148v-394h148v-138h-438v138h148v394h-148v138h438z" />
    <glyph glyph-name="Idieresis.alt" horiz-adv-x="509" 
d="M95 848h120v-128h-120v128zM288 848h120v-128h-120v128zM474 670v-138h-148v-394h148v-138h-438v138h148v394h-148v138h438z" />
    <glyph glyph-name="Idotaccent.alt" horiz-adv-x="509" 
d="M184 848h135v-128h-135v128zM474 670v-138h-148v-394h148v-138h-438v138h148v394h-148v138h438z" />
    <glyph glyph-name="Igrave.alt" horiz-adv-x="509" 
d="M240 848l115 -128h-128l-122 128h135zM474 670v-138h-148v-394h148v-138h-438v138h148v394h-148v138h438z" />
    <glyph glyph-name="Imacron.alt" horiz-adv-x="509" 
d="M90 824h323v-104h-323v104zM474 670v-138h-148v-394h148v-138h-438v138h148v394h-148v138h438z" />
    <glyph glyph-name="Iogonek.alt" horiz-adv-x="509" 
d="M474 670v-138h-148v-394h148v-138h-151l-71 -77q-7 -7 -3.5 -15.5t13.5 -8.5h61v-99h-113q-68 0 -91.5 55t24.5 104l37 41h-144v138h148v394h-148v138h438z" />
    <glyph glyph-name="K.alt" horiz-adv-x="700" 
d="M677 0h-170l-175 272h-124v-272h-142v670h142v-260h116l182 260h163l-225 -314z" />
    <glyph glyph-name="uni0136.alt" horiz-adv-x="700" 
d="M669 670l-225 -314l233 -356h-170l-175 272h-124v-272h-142v670h142v-260h116l182 260h163zM332 -200h-128l118 158h132z" />
    <glyph glyph-name="R.alt" horiz-adv-x="719" 
d="M677 0h-164l-131 238h-174v-238h-142v670h355q74 0 128.5 -34t75.5 -86t20.5 -108t-32 -106.5t-86.5 -75.5zM410 532h-202v-167h202q43 0 67.5 26t24.5 57.5t-24.5 57.5t-67.5 26z" />
    <glyph glyph-name="Racute.alt" horiz-adv-x="719" 
d="M358 848h136l-122 -128h-128zM677 0h-164l-131 238h-174v-238h-142v670h355q74 0 128.5 -34t75.5 -86t20.5 -108t-32 -106.5t-86.5 -75.5zM410 532h-202v-167h202q43 0 67.5 26t24.5 57.5t-24.5 57.5t-67.5 26z" />
    <glyph glyph-name="Rcaron.alt" horiz-adv-x="719" 
d="M282 720l-118 128h125l59 -69l59 69h125l-118 -128h-132zM677 0h-164l-131 238h-174v-238h-142v670h355q74 0 128.5 -34t75.5 -86t20.5 -108t-32 -106.5t-86.5 -75.5zM410 532h-202v-167h202q43 0 67.5 26t24.5 57.5t-24.5 57.5t-67.5 26z" />
    <glyph glyph-name="uni0156.alt" horiz-adv-x="719" 
d="M527 260l150 -260h-164l-131 238h-174v-238h-142v670h355q74 0 128.5 -34t75.5 -86t20.5 -108t-32 -106.5t-86.5 -75.5zM410 532h-202v-167h202q43 0 67.5 26t24.5 57.5t-24.5 57.5t-67.5 26zM334 -200h-128l118 158h132z" />
    <glyph glyph-name="i.loclTRK" horiz-adv-x="240" 
d="M53 720h135v-158h-135v158zM53 498h135v-498h-135v498z" />
    <glyph glyph-name="k.alt" horiz-adv-x="561" 
d="M556 0h-160l-131 191h-80v-191h-134v720h134v-405h78l136 183h153l-176 -238z" />
    <glyph glyph-name="uni0137.alt" horiz-adv-x="561" 
d="M265 191h-80v-191h-134v720h134v-405h78l136 183h153l-176 -238l180 -260h-160zM280 -200h-128l118 158h132z" />
    <glyph glyph-name="k.alt1" horiz-adv-x="565" 
d="M398 369l151 -369h-144l-142 368q-35 -3 -55 -28t-20 -66v-274h-135v720h135v-293h3q31 71 116 71h223v-129h-132z" />
    <glyph glyph-name="uni0137.alt1" horiz-adv-x="565" 
d="M188 274v-274h-135v720h135v-293h3q31 71 116 71h223v-129h-132l151 -369h-144l-142 368q-35 -3 -55 -28t-20 -66zM285 -200h-128l118 158h132z" />
    <glyph glyph-name="S_T" horiz-adv-x="1135" 
d="M33 481q0 77 52.5 133t145.5 56h883v-138h-225v-532h-142v532h-506q-26 0 -40 -14t-14 -34q0 -17 11 -31t31 -19l239 -56q74 -17 113 -68.5t39 -115.5q0 -79 -53.5 -136.5t-148.5 -57.5h-359v139h354q25 0 40.5 16t15.5 37q0 41 -45 51l-240 57q-73 18 -112 68.5
t-39 112.5z" />
    <glyph glyph-name="T_T" horiz-adv-x="1014" 
d="M989 670v-138h-205v-532h-142v532h-270v-532h-143v532h-204v138h964z" />
    <glyph glyph-name="f_t" horiz-adv-x="815" 
d="M783 498v-130h-205v-199q0 -18 11 -28t29 -10h165v-131h-190q-69 0 -109.5 39.5t-40.5 106.5v222h-223v-368h-135v368h-70v130h70v76q0 65 41.5 105.5t107.5 40.5h138v-131h-112q-18 0 -29 -10t-11 -27v-54h223v172h135v-172h205z" />
    <glyph glyph-name="j_j" horiz-adv-x="481" 
d="M53 720h135v-158h-135v158zM294 720h135v-158h-135v158zM53 498h135v-552q0 -69 -40.5 -107.5t-109.5 -38.5h-123v132h98q18 0 29 10t11 27v529zM294 498h135v-698h-135v698z" />
    <glyph glyph-name="r_t" horiz-adv-x="783" 
d="M751 498v-130h-205v-199q0 -38 40 -38h165v-131h-191q-68 0 -108.5 39.5t-40.5 106.5v222h-112q-49 0 -80 -32t-31 -83v-253h-135v498h128v-78h5q29 78 120 78h105v172h135v-172h205z" />
    <glyph glyph-name="t_t" horiz-adv-x="815" 
d="M783 498v-130h-205v-199q0 -18 11 -28t29 -10h165v-131h-190q-69 0 -109.5 39.5t-40.5 106.5v222h-223v-199q0 -18 11 -28t29 -10h132v-131h-157q-69 0 -109.5 39.5t-40.5 106.5v222h-70v130h70v172h135v-172h223v172h135v-172h205z" />
    <glyph glyph-name="uni0416.alt" horiz-adv-x="1035" 
d="M1021 0h-169l-161 272h-102v-272h-142v272h-103l-160 -272h-169l215 354l-208 316h163l167 -260h95v260h142v-260h94l167 260h163l-207 -316z" />
    <glyph glyph-name="uni041A.alt" horiz-adv-x="685" 
d="M677 0h-170l-175 272h-124v-272h-142v670h142v-260h116l182 260h163l-225 -314z" />
    <glyph glyph-name="uni0424.alt" horiz-adv-x="865" 
d="M504 670h40q127 0 209 -79.5t82 -199.5q0 -119 -82 -196.5t-209 -77.5h-40v-117h-142v117h-41q-128 0 -209.5 78t-81.5 198q0 119 81.5 198t208.5 79h42v50h142v-50zM323 252h39v283h-40q-66 0 -106.5 -39.5t-40.5 -102.5t40 -102t108 -39zM504 252h40q67 0 107 38.5
t40 100.5q0 63 -40 103.5t-107 40.5h-40v-283z" />
    <glyph glyph-name="uni0406.alt" horiz-adv-x="509" 
d="M474 670v-138h-148v-394h148v-138h-438v138h148v394h-148v138h438z" />
    <glyph glyph-name="uni0407.alt" horiz-adv-x="509" 
d="M93 848h120v-128h-120v128zM286 848h120v-128h-120v128zM474 670v-138h-148v-394h148v-138h-438v138h148v394h-148v138h438z" />
    <glyph glyph-name="uni042E.alt" horiz-adv-x="962" 
d="M612 685q149 0 231.5 -99t82.5 -253q0 -153 -82.5 -250t-231.5 -97q-130 0 -210 80.5t-95 210.5h-99v-277h-142v670h142v-262h102q19 125 98 201t204 76zM614 125q82 0 124.5 59.5t42.5 150.5t-42.5 150.5t-124.5 59.5t-124.5 -59.5t-42.5 -150.5q0 -90 42.5 -150
t124.5 -60z" />
    <glyph glyph-name="uni042F.alt" horiz-adv-x="733" 
d="M667 670v-670h-143v236h-174l-130 -236h-164l149 258q-54 26 -86 76.5t-32 107t21.5 108.5t75.5 86t128 34h355zM323 365h201v167h-201q-43 0 -67.5 -26t-24.5 -57.5t24.5 -57.5t67.5 -26z" />
    <glyph glyph-name="uni0436.alt" horiz-adv-x="825" 
d="M818 0h-165l-121 194h-52v-194h-135v194h-52l-121 -194h-165l170 261l-167 237h163l123 -186h49v186h135v-186h49l123 186h163l-167 -237z" />
    <glyph glyph-name="uni043A.alt" horiz-adv-x="562" 
d="M556 0h-157l-133 191h-78v-191h-135v498h135v-183h76l134 183h154l-176 -238z" />
    <glyph glyph-name="uni0444.alt" horiz-adv-x="741" 
d="M438 501h13q116 0 192 -71t76 -182q0 -109 -76.5 -179.5t-191.5 -70.5h-13v-198h-135v198h-13q-116 0 -191.5 70.5t-75.5 179.5q0 111 75 182t192 71h13v169h135v-169zM289 123h14v253h-14q-59 0 -95 -35.5t-36 -92.5q0 -55 36 -90t95 -35zM438 123h13q57 0 95 35t38 90
q0 56 -37.5 92t-95.5 36h-13v-253z" />
    <glyph glyph-name="uni044F.alt" horiz-adv-x="565" 
d="M512 498v-498h-135v164h-117l-87 -164h-155l105 182q-41 21 -63.5 60.5t-22.5 86.5q0 69 47.5 119t127.5 50h300zM227 274h150v102h-150q-25 0 -40 -15t-15 -36q0 -22 15 -36.5t40 -14.5z" />
    <glyph glyph-name="uni043A.alt1" horiz-adv-x="565" 
d="M398 368l151 -368h-144l-142 367q-34 -5 -54.5 -32t-20.5 -69v-266h-135v498h134v-76h4q33 76 121 76h218v-130h-132z" />
    <glyph glyph-name="uni04070407" horiz-adv-x="548" 
d="M1 848h120v-128h-120v128zM211 848h120v-128h-120v128zM426 848h121v-128h-121v128zM66 0v670h142v-670h-142zM339 0v670h142v-670h-142z" />
    <glyph glyph-name="uni04570457" horiz-adv-x="484" 
d="M-13 720h121v-158h-121v158zM182 720h120v-158h-120v158zM376 720h121v-158h-121v158zM53 498h135v-498h-135v498zM295 498h135v-498h-135v498z" />
    <glyph glyph-name="zero.osf" horiz-adv-x="663" 
d="M335 -17q-136 0 -219.5 85.5t-83.5 213.5q0 127 84 212.5t219 85.5q131 0 213.5 -85.5t82.5 -212.5t-82.5 -213t-213.5 -86zM335 115q71 0 116 49t45 118q0 70 -45 118.5t-116 48.5q-76 0 -122 -48t-46 -119t45.5 -119t122.5 -48z" />
    <glyph glyph-name="one.osf" horiz-adv-x="410" 
d="M24 564h323v-564h-135v434h-188v130z" />
    <glyph glyph-name="two.osf" horiz-adv-x="560" 
d="M444 298l-196 -167h278v-131h-494v103l321 276q17 17 17 31q0 10 -8 17t-20 7h-296v131h313q68 0 111 -39t43 -97q0 -73 -69 -131z" />
    <glyph glyph-name="three.osf" horiz-adv-x="561" 
d="M501 466l-163 -166q76 -4 133 -58.5t57 -140.5q0 -91 -60.5 -151.5t-147.5 -60.5h-291v130h277q37 0 62 25.5t25 59.5t-24.5 59t-62.5 25h-150v84l160 162h-287v131h472v-99z" />
    <glyph glyph-name="four.osf" horiz-adv-x="658" 
d="M509 196h122v-130h-122v-178h-135v178h-351v84l279 414h207v-368zM374 449l-168 -253h168v253z" />
    <glyph glyph-name="five.osf" horiz-adv-x="558" 
d="M173 308h149q89 0 149 -55t60 -146q0 -94 -61 -156t-148 -62h-274v130h260q37 0 62.5 25.5t25.5 59.5t-24.5 59t-63.5 25h-268l31 377h397v-131h-285z" />
    <glyph glyph-name="six.osf" horiz-adv-x="606" 
d="M369 438q101 -7 155 -67.5t54 -150.5q0 -103 -75 -168.5t-195 -65.5q-122 0 -197.5 64.5t-75.5 164.5q0 19 4 39l46 277q10 62 52 100.5t115 38.5h243v-131h-231q-40 0 -47 -39l-18 -106h4q67 52 166 44zM308 117q60 0 97.5 28t37.5 73q0 43 -36.5 70.5t-98.5 27.5
q-63 0 -99.5 -28t-36.5 -72q0 -42 36.5 -70.5t99.5 -28.5z" />
    <glyph glyph-name="seven.osf" horiz-adv-x="531" 
d="M24 433v131h483v-91l-291 -584h-150l279 544h-321z" />
    <glyph glyph-name="eight.osf" horiz-adv-x="614" 
d="M455 350v-4q59 -18 90.5 -59.5t31.5 -96.5q0 -96 -76 -150t-197 -54q-118 0 -194 55.5t-76 148.5q0 55 31.5 96.5t89.5 59.5v3q-50 17 -77.5 55.5t-27.5 88.5q0 87 70.5 139.5t183.5 52.5q115 0 186.5 -52t71.5 -140q0 -50 -28 -88.5t-79 -54.5zM304 556
q-51 0 -82.5 -21.5t-31.5 -54.5t31 -54t85 -21q53 1 84 21.5t31 53.5q0 34 -31.5 55t-85.5 21zM304 115q62 0 96 24.5t34 60.5q0 35 -34.5 58.5t-95.5 23.5t-94 -23.5t-33 -58.5t34.5 -60t92.5 -25z" />
    <glyph glyph-name="nine.osf" horiz-adv-x="606" 
d="M298 580q122 0 197.5 -65t75.5 -165q0 -18 -4 -38l-47 -284q-10 -62 -52 -100.5t-115 -38.5h-246v130h233q41 0 48 40l19 112h-5q-67 -51 -165 -43q-101 7 -155 67.5t-54 150.5q0 103 75 168.5t195 65.5zM163 348q0 -44 36.5 -71.5t98.5 -27.5q63 0 99.5 28.5t36.5 72.5
q0 42 -36.5 70t-99.5 28q-60 0 -97.5 -28t-37.5 -72z" />
    <glyph glyph-name="zero.osf.tnum" 
d="M321 -17q-136 0 -219.5 85.5t-83.5 213.5q0 127 84 212.5t219 85.5q131 0 213.5 -85.5t82.5 -212.5t-82.5 -213t-213.5 -86zM321 115q71 0 116 49t45 118q0 70 -45 118.5t-116 48.5q-76 0 -122 -48t-46 -119t45.5 -119t122.5 -48z" />
    <glyph glyph-name="one.osf.tnum" 
d="M433 129h150v-129h-530v129h245v305h-195v130h330v-435z" />
    <glyph glyph-name="two.osf.tnum" 
d="M491 298l-205 -167h293v-131h-520v103l343 276q20 17 20 31q0 24 -30 24h-325v131h343q70 0 112 -39t42 -97q0 -72 -73 -131z" />
    <glyph glyph-name="three.osf.tnum" 
d="M368 300h10q80 0 140.5 -55t60.5 -144q0 -91 -60.5 -151.5t-147.5 -60.5h-311v130h297q39 0 63.5 25.5t23.5 59.5q-1 33 -25 56t-62 23h-177v89l181 162h-301v131h492v-99z" />
    <glyph glyph-name="four.osf.tnum" 
d="M507 196h105v-130h-105v-178h-135v178h-352v84l280 414h207v-368zM372 456l-173 -260h173v260z" />
    <glyph glyph-name="five.osf.tnum" 
d="M206 308h169q89 0 148.5 -55t59.5 -146q0 -94 -60.5 -156t-147.5 -62h-294v130h280q37 0 62 25.5t25 59.5t-24.5 59t-62.5 25h-289l32 377h417v-131h-305z" />
    <glyph glyph-name="six.osf.tnum" 
d="M383 438q102 -6 157 -67t55 -151q0 -103 -76.5 -168.5t-197.5 -65.5q-124 0 -200 64.5t-76 164.5q0 19 4 39l46 277q10 62 52.5 100.5t116.5 38.5h259v-131h-246q-42 0 -49 -39l-19 -104h6q68 50 168 42zM321 117q60 0 97.5 28t37.5 73q0 43 -36.5 70t-98.5 28t-99 -27
t-37 -73q0 -42 36.5 -70.5t99.5 -28.5z" />
    <glyph glyph-name="seven.osf.tnum" 
d="M59 433v131h509v-91l-305 -584h-150l292 544h-346z" />
    <glyph glyph-name="eight.osf.tnum" 
d="M472 349v-3q59 -17 90.5 -59.5t31.5 -96.5q0 -96 -77.5 -150t-199.5 -54q-120 0 -198 55.5t-78 148.5q0 54 31 96t89 60v3q-50 17 -77 56.5t-27 87.5q0 87 72.5 139.5t187.5 52.5q116 0 189 -52.5t73 -139.5q0 -49 -27.5 -88t-79.5 -56zM317 556q-54 0 -87 -21.5
t-33 -54.5t32 -54t88 -21q56 1 88.5 21.5t32.5 53.5q0 34 -33 55t-88 21zM317 115q63 0 98.5 24.5t35.5 60.5q0 34 -36 58t-98 24q-63 0 -98 -23.5t-35 -58.5t36.5 -60t96.5 -25z" />
    <glyph glyph-name="nine.osf.tnum" 
d="M316 580q124 0 200 -65t76 -165q0 -18 -4 -38l-47 -284q-10 -61 -52 -100t-117 -39h-263v130h250q43 0 50 40l20 111h-5q-69 -50 -170 -42q-102 7 -157 67.5t-55 150.5q0 103 76.5 168.5t197.5 65.5zM185 348q0 -44 35.5 -71.5t95.5 -27.5q61 0 96.5 28t35.5 73
q0 42 -35 70t-97 28q-59 0 -95 -28t-36 -72z" />
    <glyph glyph-name="zero.tnum" horiz-adv-x="640" 
d="M47 258v154q0 121 77 197t195 76q116 0 194 -76t78 -196v-155q0 -120 -78.5 -196.5t-195.5 -76.5t-193.5 76.5t-76.5 196.5zM190 412v-154q0 -61 35 -96t92 -35t94.5 35.5t37.5 95.5v155q0 60 -36.5 95.5t-93.5 35.5t-93 -35.5t-36 -96.5z" />
    <glyph glyph-name="one.tnum" 
d="M429 670v-532h138v-138h-499v138h219v394h-163v138h305z" />
    <glyph glyph-name="two.tnum" 
d="M481 322l-194 -184h272v-138h-487v111l317 305q26 25 26 56q0 25 -19 42.5t-49 17.5h-269v138h268q94 0 152 -54t58 -133q0 -92 -75 -161z" />
    <glyph glyph-name="three.tnum" 
d="M544 566l-157 -170q75 -3 129.5 -53.5t54.5 -136.5q0 -89 -58 -147.5t-144 -58.5h-296v138h280q33 0 54 21t21 50t-20.5 49.5t-54.5 20.5h-155v87l153 166h-278v138h471v-104z" />
    <glyph glyph-name="four.tnum" 
d="M510 290h91v-129h-91v-161h-143v161h-334v102l272 407h205v-380zM367 536l-159 -246h159v246z" />
    <glyph glyph-name="five.tnum" 
d="M218 407h149q93 0 150.5 -55.5t57.5 -141.5q0 -90 -58.5 -150t-149.5 -60h-277v138h268q34 0 53.5 21t19.5 50t-19.5 49.5t-53.5 20.5h-277l35 391h414v-138h-300z" />
    <glyph glyph-name="six.tnum" 
d="M50 209q0 19 3 39l49 285q11 64 54.5 100.5t112.5 36.5h253v-138h-239q-41 0 -47 -38l-19 -106h4q51 37 131 39q114 1 177.5 -58.5t63.5 -158.5q0 -97 -75.5 -160.5t-194.5 -63.5q-123 0 -198 62.5t-75 160.5zM190 209q0 -39 35 -63.5t98 -24.5q61 0 95.5 25t34.5 64
q0 41 -35 65.5t-98 24.5q-60 0 -95 -25t-35 -66z" />
    <glyph glyph-name="seven.tnum" 
d="M72 532v138h491v-106l-274 -564h-155l266 532h-328z" />
    <glyph glyph-name="eight.tnum" 
d="M46 189q0 53 28.5 95t82.5 62v4q-47 20 -71 58.5t-24 85.5q0 87 71 139t184 52q114 0 185.5 -52t71.5 -139q0 -103 -97 -144v-4q56 -19 84 -61.5t28 -95.5q0 -95 -76 -149t-196 -54q-119 0 -195 55t-76 148zM202 480q0 -33 30.5 -54t84.5 -21q54 1 85 21.5t31 53.5
q0 34 -31.5 55t-84.5 21q-52 0 -83.5 -21.5t-31.5 -54.5zM189 200q0 -35 35 -60t93 -25q61 0 95 24.5t34 60.5q0 35 -34.5 58.5t-94.5 23.5q-61 0 -94.5 -23.5t-33.5 -58.5z" />
    <glyph glyph-name="nine.tnum" 
d="M586 461q0 -20 -3 -39l-48 -285q-11 -64 -54.5 -100.5t-112.5 -36.5h-245v138h231q40 0 47 38l18 106h-4q-50 -37 -129 -39q-114 -2 -176.5 57.5t-62.5 159.5q0 97 75 160.5t193 63.5q122 0 196.5 -62.5t74.5 -160.5zM446 461q0 39 -34.5 63.5t-96.5 24.5q-61 0 -95 -25
t-34 -64q0 -41 34.5 -65.5t96.5 -24.5q60 0 94.5 25t34.5 66z" />
    <glyph glyph-name="zero.dnom" horiz-adv-x="378" 
d="M22 155v84q0 73 48 118.5t119 45.5q70 0 118.5 -45t48.5 -118v-85q0 -72 -49 -117.5t-120 -45.5q-70 0 -117.5 45.5t-47.5 117.5zM118 239v-84q0 -32 19.5 -50t49.5 -18q31 0 52.5 18t21.5 50v85q0 31 -21 49.5t-51 18.5q-31 0 -51 -18.5t-20 -50.5z" />
    <glyph glyph-name="one.dnom" horiz-adv-x="235" 
d="M193 394v-394h-95v301h-94v93h189z" />
    <glyph glyph-name="two.dnom" horiz-adv-x="335" 
d="M312 281q-2 -55 -49 -98l-99 -89h147v-94h-294v76l186 170q14 14 14 29q0 11 -9 18.5t-23 7.5h-165v93h168q56 0 90.5 -33.5t33.5 -79.5z" />
    <glyph glyph-name="three.dnom" horiz-adv-x="338" 
d="M306 324l-85 -90q41 -6 70.5 -34.5t29.5 -75.5q0 -53 -36.5 -88.5t-88.5 -35.5h-176v93h165q16 0 27.5 9.5t11.5 23.5q0 13 -10.5 23t-28.5 10h-90v56l81 86h-156v93h286v-70z" />
    <glyph glyph-name="four.dnom" horiz-adv-x="375" 
d="M301 180h66v-88h-66v-92h-96v92h-198v70l158 232h136v-214zM205 307l-82 -127h82v127z" />
    <glyph glyph-name="five.dnom" horiz-adv-x="344" 
d="M124 244h76q56 0 92 -33t36 -86t-36.5 -89t-91.5 -36h-163v93h157q16 0 25.5 9.5t10.5 21.5q1 14 -9 24t-27 10h-163l21 236h250v-93h-173z" />
    <glyph glyph-name="six.dnom" horiz-adv-x="354" 
d="M150 394h148v-94h-139q-21 0 -24 -20l-11 -61h2q35 30 89 30q59 0 94 -34t35 -88q0 -60 -45.5 -97.5t-117.5 -37.5q-56 0 -97 23.5t-57 63.5q-10 26 -6 73q1 5 26 156q7 39 36 62.5t67 23.5zM112 124q0 -18 19 -30t50 -12t50 12t19 30t-18.5 30t-49.5 12q-32 0 -51 -12
t-19 -30z" />
    <glyph glyph-name="seven.dnom" horiz-adv-x="303" 
d="M5 301v93h292v-72l-156 -322h-104l151 301h-183z" />
    <glyph glyph-name="eight.dnom" horiz-adv-x="363" 
d="M280 204q64 -30 64 -92q0 -57 -45.5 -88.5t-117.5 -31.5q-71 0 -117 32.5t-46 87.5q0 62 64 92q-55 29 -55 85q0 51 43 82.5t111 31.5t111 -31t43 -83q0 -56 -55 -85zM181 318q-25 0 -42.5 -11.5t-17.5 -27.5t16.5 -26.5t44.5 -10.5q26 0 43 11t17 26q0 16 -17 27.5
t-44 11.5zM181 77q32 0 50 13.5t18 29.5q0 15 -18.5 28t-49.5 13t-49 -12.5t-18 -28.5q0 -15 18.5 -29t48.5 -14z" />
    <glyph glyph-name="nine.dnom" horiz-adv-x="355" 
d="M205 0h-149v94h140q19 0 24 20l10 61h-2q-33 -30 -88 -30q-59 0 -94.5 34t-35.5 88q0 60 45.5 97.5t117.5 37.5q56 0 97 -23.5t57 -63.5q10 -26 6 -73q0 -3 -26 -156q-7 -39 -36 -62.5t-66 -23.5zM242 270q0 18 -19 30t-50 12t-50 -12t-19 -30t19 -30t50 -12t50 12t19 30
z" />
    <glyph glyph-name="zero.numr" horiz-adv-x="378" 
d="M22 432v84q0 73 48 118.5t119 45.5q70 0 118.5 -45t48.5 -118v-85q0 -73 -49 -118.5t-120 -45.5q-70 0 -117.5 46t-47.5 118zM118 516v-84q0 -32 19.5 -50t49.5 -18q31 0 52.5 18t21.5 50v85q0 30 -21 49t-51 19q-31 0 -51 -18.5t-20 -50.5z" />
    <glyph glyph-name="one.numr" horiz-adv-x="235" 
d="M193 670v-394h-95v301h-94v93h189z" />
    <glyph glyph-name="two.numr" horiz-adv-x="335" 
d="M312 557q-2 -55 -49 -98l-99 -89h147v-94h-294v76l186 170q14 14 14 29q0 11 -9 18.5t-23 7.5h-165v93h168q56 0 90.5 -33.5t33.5 -79.5z" />
    <glyph glyph-name="three.numr" horiz-adv-x="338" 
d="M306 600l-85 -90q41 -6 70.5 -34.5t29.5 -75.5q0 -53 -36.5 -88.5t-88.5 -35.5h-176v93h165q16 0 27.5 9.5t11.5 23.5q0 13 -10.5 23t-28.5 10h-90v56l81 86h-156v93h286v-70z" />
    <glyph glyph-name="four.numr" horiz-adv-x="375" 
d="M301 456h66v-88h-66v-92h-96v92h-198v70l158 232h136v-214zM205 583l-82 -127h82v127z" />
    <glyph glyph-name="five.numr" horiz-adv-x="344" 
d="M124 520h76q56 0 92 -33t36 -86t-36.5 -89t-91.5 -36h-163v93h157q16 0 25.5 9.5t10.5 21.5q1 14 -9 24t-27 10h-163l21 236h250v-93h-173z" />
    <glyph glyph-name="six.numr" horiz-adv-x="356" 
d="M149 670h151v-94h-140q-21 0 -24 -20l-10 -61h2q33 30 88 30q59 0 94.5 -34t35.5 -88q0 -60 -46 -97.5t-118 -37.5q-55 0 -96.5 23.5t-57.5 63.5q-11 28 -7 73q1 5 26 156q7 39 36 62.5t66 23.5zM114 400q0 -18 18.5 -30t49.5 -12t50 12t19 30t-18.5 30t-49.5 12t-50 -12
t-19 -30z" />
    <glyph glyph-name="seven.numr" horiz-adv-x="303" 
d="M5 577v93h292v-72l-156 -322h-104l151 301h-183z" />
    <glyph glyph-name="eight.numr" horiz-adv-x="363" 
d="M280 480q64 -29 64 -91q0 -57 -46 -89t-117 -32t-117 33t-46 88q0 62 64 91q-55 31 -55 85q0 51 43.5 83t110.5 32q68 0 111 -31.5t43 -83.5q0 -54 -55 -85zM181 595q-25 0 -42.5 -11.5t-17.5 -27.5t16.5 -26.5t44.5 -10.5q26 0 43 11t17 26q0 16 -17 27.5t-44 11.5z
M181 354q32 0 50 13t18 30q0 15 -18.5 28t-49.5 13t-49 -12.5t-18 -28.5t18.5 -29.5t48.5 -13.5z" />
    <glyph glyph-name="nine.numr" horiz-adv-x="356" 
d="M206 277h-150v94h138q21 0 26 20l10 61h-2q-35 -30 -88 -30q-59 0 -94.5 34t-35.5 88q0 60 45.5 98t117.5 38q56 0 97.5 -23.5t56.5 -64.5q11 -26 7 -72q-1 -16 -25 -156q-7 -40 -36 -63.5t-67 -23.5zM242 547q0 19 -19 31t-50 12t-50 -12t-19 -31q0 -18 19 -30t50 -12
t50 12t19 30z" />
    <glyph glyph-name="bullet.alt" horiz-adv-x="626" 
d="M316 513q107 0 184 -78t77 -189q0 -106 -77.5 -183.5t-183.5 -77.5q-111 0 -189 77t-78 184q0 111 78 189t189 78z" />
    <glyph glyph-name="exclamdown.case" horiz-adv-x="319" 
d="M223 670v-150h-145v150h145zM222 0h-141l9 448h123z" />
    <glyph glyph-name="questiondown.case" horiz-adv-x="522" 
d="M265 670h145v-150h-145v150zM243 131h242v-131h-253q-90 0 -141 56t-51 130t51 129.5t142 55.5h38v68h132v-188h-160q-31 0 -48.5 -18t-17.5 -43q0 -24 17.5 -41.5t48.5 -17.5z" />
    <glyph glyph-name="bullet.case" horiz-adv-x="400" 
d="M202 486q61 0 105 -45t44 -108q0 -61 -44 -105t-105 -44q-63 0 -108 44t-45 105q0 64 44.5 108.5t108.5 44.5z" />
    <glyph glyph-name="bullet.alt.case" horiz-adv-x="813" 
d="M409 685q143 0 245 -103.5t102 -250.5q0 -142 -102.5 -244t-244.5 -102q-146 0 -249 102t-103 244q0 148 103 251t249 103z" />
    <glyph glyph-name="comma.ss08" horiz-adv-x="198" 
d="M113 150h58l-105 -288h-44z" />
    <glyph glyph-name="colon.ss08" horiz-adv-x="202" 
d="M70 498h53v-163h-53v163zM70 163h53v-163h-53v163z" />
    <glyph glyph-name="semicolon.ss08" horiz-adv-x="213" 
d="M93 498h54v-163h-54v163zM106 150h58l-105 -288h-44z" />
    <glyph glyph-name="ellipsis.ss08" horiz-adv-x="594" 
d="M70 163h53v-163h-53v163zM269 163h53v-163h-53v163zM470 163h54v-163h-54v163z" />
    <glyph glyph-name="exclam.ss08" horiz-adv-x="214" 
d="M85 180l-6 490h45l-6 -490h-33zM76 60h55v-60h-55v60z" />
    <glyph glyph-name="exclamdown.ss08" horiz-adv-x="202" 
d="M124 495v-60h-55v60h55zM121 -215h-45l6 530h33z" />
    <glyph glyph-name="question.ss08" horiz-adv-x="500" 
d="M28 670h254q85 0 132.5 -50t47.5 -119t-47.5 -119.5t-133.5 -50.5h-83v-151h-34v184h118q67 0 105.5 40.5t38.5 96.5q0 55 -38 95.5t-106 40.5h-254v33zM210 0h-55v60h55v-60z" />
    <glyph glyph-name="questiondown.ss08" horiz-adv-x="492" 
d="M300 498h55v-60h-55v60zM228 -167h254v-33l-254 1q-85 0 -132.5 50t-47.5 119t48 120.5t133 51.5h83v176h34v-209h-118q-67 0 -105.5 -41.5t-38.5 -97.5q0 -55 38 -96t106 -41z" />
    <glyph glyph-name="asterisk.ss08" horiz-adv-x="407" 
d="M341 602l20 -34l-128 -68l128 -68l-20 -34l-123 76l6 -144h-41l5 144l-122 -76l-20 34l128 68l-128 68l20 34l122 -76l-5 144h41l-6 -144z" />
    <glyph glyph-name="exclamdown.case.ss08" horiz-adv-x="228" 
d="M134 670v-60h-55v60h55zM127 0h-46l7 490h33z" />
    <glyph glyph-name="questiondown.case.ss08" horiz-adv-x="522" 
d="M300 670h55v-60h-55v60zM229 33h254v-33h-254q-85 0 -132.5 50t-47.5 119t47.5 119.5t133.5 50.5h82v151h34v-184h-117q-67 0 -105.5 -40.5t-38.5 -96.5q0 -55 38 -95.5t106 -40.5z" />
    <glyph glyph-name="numbersign.ss08" horiz-adv-x="684" 
d="M656 490l-10 -32h-133l-73 -245h132l-10 -32h-132l-54 -181h-35l54 181h-201l-54 -181h-35l54 181h-131l10 32h131l73 245h-130l10 32h129l54 180h35l-54 -180h201l54 180h35l-54 -180h134zM204 213h201l73 245h-201z" />
    <glyph glyph-name="slash.ss08" horiz-adv-x="434" 
d="M6 -200l388 1000h35l-388 -1000h-35z" />
    <glyph glyph-name="backslash.ss08" horiz-adv-x="433" 
d="M1 800h35l388 -1000h-35z" />
    <glyph glyph-name="parenleft.case" horiz-adv-x="311" 
d="M301 -127h-126q-121 224 -121 464t121 463h126q-119 -232 -119 -463t119 -464z" />
    <glyph glyph-name="parenright.case" horiz-adv-x="312" 
d="M136 -127h-126q119 231 119 464q0 234 -119 463h126q122 -224 122 -463q0 -238 -122 -464z" />
    <glyph glyph-name="braceleft.case" horiz-adv-x="331" 
d="M220 646v-215q0 -37 -16 -61.5t-44 -32.5v-5q27 -7 43.5 -31.5t16.5 -61.5v-215q0 -16 10.5 -26.5t27.5 -10.5h53v-117h-79q-62 0 -100 37t-38 98v231q0 16 -10 26.5t-27 10.5h-17v124h17q17 0 27 10.5t10 26.5v230q0 61 38 98.5t100 37.5h79v-117h-53q-17 0 -27.5 -10.5
t-10.5 -26.5z" />
    <glyph glyph-name="braceright.case" horiz-adv-x="331" 
d="M274 397h17v-124h-17q-16 0 -26.5 -10.5t-10.5 -26.5v-231q0 -61 -38 -98t-100 -37h-79v117h53q17 0 27.5 10.5t10.5 26.5v215q0 37 16.5 61.5t43.5 31.5v5q-28 8 -44 32.5t-16 61.5v215q0 16 -10.5 26.5t-27.5 10.5h-53v117h79q62 0 100 -37.5t38 -98.5v-230
q0 -16 10.5 -26.5t26.5 -10.5z" />
    <glyph glyph-name="bracketleft.case" horiz-adv-x="333" 
d="M318 800v-117h-127v-696h127v-117h-253v930h253z" />
    <glyph glyph-name="bracketright.case" horiz-adv-x="333" 
d="M15 800h253v-930h-253v117h127v696h-127v117z" />
    <glyph glyph-name="parenleft.ss08" horiz-adv-x="241" 
d="M230 -200h-34q-148 207 -148 460t148 460h34q-149 -208 -149 -460q0 -251 149 -460z" />
    <glyph glyph-name="parenright.ss08" horiz-adv-x="239" 
d="M44 -200h-34q150 210 150 460t-150 460h34q148 -205 148 -460t-148 -460z" />
    <glyph glyph-name="braceleft.ss08" horiz-adv-x="282" 
d="M154 622v-269q0 -71 -50 -92v-2q50 -21 50 -92v-269q0 -65 65 -65h40v-33h-38q-100 0 -100 100v278q0 65 -65 65h-16v34h16q65 0 65 65v278q0 100 100 100h38v-33h-40q-65 0 -65 -65z" />
    <glyph glyph-name="braceright.ss08" horiz-adv-x="282" 
d="M226 277h16v-34h-16q-65 0 -65 -65v-278q0 -100 -100 -100h-38v33h40q65 0 65 65v269q0 71 50 92v2q-50 21 -50 92v269q0 65 -65 65h-40v33h38q100 0 100 -100v-278q0 -65 65 -65z" />
    <glyph glyph-name="bracketleft.ss08" horiz-adv-x="260" 
d="M245 720v-31h-147v-858h147v-31h-180v920h180z" />
    <glyph glyph-name="bracketright.ss08" horiz-adv-x="260" 
d="M15 720h180v-920h-180v31h147v858h-147v31z" />
    <glyph glyph-name="parenleft.case.ss08" horiz-adv-x="246" 
d="M236 -125h-34q-148 205 -148 463q0 257 148 462h34q-150 -210 -150 -462q0 -253 150 -463z" />
    <glyph glyph-name="parenright.case.ss08" horiz-adv-x="246" 
d="M44 -125h-34q150 210 150 463q0 252 -150 462h34q148 -205 148 -462q0 -258 -148 -463z" />
    <glyph glyph-name="braceleft.case.ss08" horiz-adv-x="279" 
d="M154 702v-274q0 -71 -50 -92v-2q50 -21 50 -92v-274q0 -65 65 -65h40v-33h-38q-100 0 -100 100v283q0 65 -65 65h-16v34h16q65 0 65 65v283q0 100 100 100h38v-33h-40q-65 0 -65 -65z" />
    <glyph glyph-name="braceright.case.ss08" horiz-adv-x="279" 
d="M223 352h16v-34h-16q-65 0 -65 -65v-283q0 -100 -100 -100h-38v33h40q65 0 65 65v274q0 71 50 92v2q-50 21 -50 92v274q0 65 -65 65h-40v33h38q100 0 100 -100v-283q0 -65 65 -65z" />
    <glyph glyph-name="bracketleft.case.ss08" horiz-adv-x="260" 
d="M245 800v-31h-147v-868h147v-31h-180v930h180z" />
    <glyph glyph-name="bracketright.case.ss08" horiz-adv-x="260" 
d="M15 800h180v-930h-180v31h147v868h-147v31z" />
    <glyph glyph-name="hyphen.case" horiz-adv-x="462" 
d="M53 278v122h356v-122h-356z" />
    <glyph glyph-name="endash.case" horiz-adv-x="733" 
d="M54 276v128h625v-128h-625z" />
    <glyph glyph-name="emdash.case" horiz-adv-x="859" 
d="M54 276v128h751v-128h-751z" />
    <glyph glyph-name="hyphen.ss08" horiz-adv-x="462" 
d="M53 257v33h357v-33h-357z" />
    <glyph glyph-name="endash.ss08" horiz-adv-x="733" 
d="M54 255v33h626v-33h-626z" />
    <glyph glyph-name="emdash.ss08" horiz-adv-x="859" 
d="M54 257v32h751v-32h-751z" />
    <glyph glyph-name="hyphen.case.ss08" horiz-adv-x="462" 
d="M53 321v33h356v-33h-356z" />
    <glyph glyph-name="endash.case.ss08" horiz-adv-x="732" 
d="M54 323v33h624v-33h-624z" />
    <glyph glyph-name="emdash.case.ss08" horiz-adv-x="858" 
d="M54 324v33h750v-33h-750z" />
    <glyph glyph-name="underscore.ss08" horiz-adv-x="705" 
d="M53 -200v33h600v-33h-600z" />
    <glyph glyph-name="guillemotleft.case" horiz-adv-x="491" 
d="M165 498h126l-148 -190l148 -190h-126l-143 190zM360 498h126l-148 -190l148 -190h-126l-143 190z" />
    <glyph glyph-name="guillemotright.case" horiz-adv-x="494" 
d="M153 308l-148 190h125l144 -190l-144 -190h-125zM352 308l-148 190h126l143 -190l-143 -190h-126z" />
    <glyph glyph-name="guilsinglleft.case" horiz-adv-x="303" 
d="M164 498h125l-147 -190l147 -190h-125l-143 190z" />
    <glyph glyph-name="guilsinglright.case" horiz-adv-x="303" 
d="M161 308l-147 190h125l143 -190l-143 -190h-125z" />
    <glyph glyph-name="quotesinglbase.ss08" horiz-adv-x="198" 
d="M113 150h58l-105 -288h-44z" />
    <glyph glyph-name="quotedblbase.ss08" horiz-adv-x="348" 
d="M108 150h58l-105 -288h-44zM268 150h59l-105 -288h-44z" />
    <glyph glyph-name="quotedblleft.ss08" horiz-adv-x="365" 
d="M83 433h-58l105 287h44zM256 433h-58l105 287h44z" />
    <glyph glyph-name="quotedblright.ss08" horiz-adv-x="366" 
d="M109 720h58l-105 -288h-44zM282 720h59l-105 -288h-44z" />
    <glyph glyph-name="quoteleft.ss08" horiz-adv-x="195" 
d="M80 432h-58l105 288h44z" />
    <glyph glyph-name="quoteright.ss08" horiz-adv-x="196" 
d="M116 720h58l-105 -288h-44z" />
    <glyph glyph-name="guillemotleft.case.ss08" horiz-adv-x="386" 
d="M165 498h47l-144 -190l144 -190h-47l-143 190zM334 498h47l-145 -190l145 -190h-47l-144 190z" />
    <glyph glyph-name="guillemotright.case.ss08" horiz-adv-x="379" 
d="M148 308l-142 190h43l144 -190l-144 -190h-43zM314 308l-142 190h43l144 -190l-144 -190h-43z" />
    <glyph glyph-name="guilsinglleft.case.ss08" horiz-adv-x="225" 
d="M164 498h47l-144 -190l144 -190h-47l-143 190z" />
    <glyph glyph-name="guilsinglright.case.ss08" horiz-adv-x="221" 
d="M156 308l-142 190h43l144 -190l-144 -190h-43z" />
    <glyph glyph-name="guillemotleft.ss08" horiz-adv-x="386" 
d="M165 435h47l-144 -190l144 -190h-47l-143 190zM334 435h47l-145 -190l145 -190h-47l-144 190z" />
    <glyph glyph-name="guillemotright.ss08" horiz-adv-x="379" 
d="M148 245l-142 190h43l144 -190l-144 -190h-43zM314 245l-142 190h43l144 -190l-144 -190h-43z" />
    <glyph glyph-name="guilsinglleft.ss08" horiz-adv-x="225" 
d="M164 435h47l-144 -190l144 -190h-47l-143 190z" />
    <glyph glyph-name="guilsinglright.ss08" horiz-adv-x="221" 
d="M156 245l-142 190h43l144 -190l-144 -190h-43z" />
    <glyph glyph-name="quotedbl.ss08" horiz-adv-x="339" 
d="M78 720h50l-17 -288h-33v288zM239 720h50l-17 -288h-33v288z" />
    <glyph glyph-name="quotesingle.ss08" horiz-adv-x="182" 
d="M64 720h49l-16 -288h-33v288z" />
    <glyph glyph-name="currency.onum" horiz-adv-x="596" 
d="M506 278q0 -54 -26 -100l71 -71l-84 -84l-72 71q-46 -24 -97 -24q-53 0 -98 25l-72 -72l-83 84l70 72q-25 45 -25 99q0 51 24 97l-69 71l83 84l71 -70q45 25 99 25q53 0 98 -25l71 70l84 -84l-70 -70q25 -47 25 -98zM298 179q41 0 69.5 29t28.5 70q0 40 -29 69t-69 29
q-41 0 -70 -29t-29 -69q0 -41 29 -70t70 -29z" />
    <glyph glyph-name="dollar.onum" horiz-adv-x="554" 
d="M203 375l186 -63q57 -19 89 -59t32 -92q0 -68 -47 -114.5t-118 -46.5h-7v-109h-124v109h-149v128h280q16 0 25.5 9t9.5 22q0 22 -25 32l-191 66q-56 20 -88.5 59t-32.5 90q0 68 46.5 113.5t118.5 45.5h6v105h124v-105h141v-128h-269q-16 0 -24.5 -8.5t-8.5 -20.5
q0 -24 26 -33z" />
    <glyph glyph-name="Euro.onum" horiz-adv-x="615" 
d="M558 438h-177q-74 0 -107 -53h228v-80h-253q-1 -7 -1 -22q0 -14 1 -21h253v-80h-229q33 -55 108 -55h177v-127h-162q-107 0 -174.5 50t-93.5 132h-81v80h66q-1 7 -1 22q0 14 1 21h-66v80h80q27 81 94.5 131t174.5 50h162v-128z" />
    <glyph glyph-name="uni20B4.onum" horiz-adv-x="601" 
d="M541 303h-481v82h291q14 0 22 8t9 19q0 11 -8 20t-23 9h-256v124h283q64 0 102 -27t38 -74q0 -30 -14 -50.5t-38 -26.5v-2h75v-82zM60 262h481v-82h-290q-15 0 -23 -8.5t-8 -19.5t8 -19.5t23 -8.5h255v-124h-282q-64 0 -102.5 27.5t-38.5 75.5q0 27 13.5 47.5t38.5 27.5
v2h-75v82z" />
    <glyph glyph-name="uni20BD.onum" horiz-adv-x="673" 
d="M427 176h-140v-62h268v-114h-268v-111h-139v111h-91v114h91v62h-91v117h91v271h279q64 0 111 -28.5t68 -72t21 -93.5t-21 -93.5t-68 -72t-111 -28.5zM416 434h-129v-141h129q38 0 59.5 22t21.5 48.5t-21.5 48.5t-59.5 22z" />
    <glyph glyph-name="sterling.onum" horiz-adv-x="612" 
d="M265 225v-94h301v-131h-509v131h71v94h-71v117h71v17q0 89 58 147.5t144 58.5h197v-131h-187q-33 0 -54 -21.5t-21 -52.5v-18h188v-117h-188z" />
    <glyph glyph-name="currency.tnum.onum" 
d="M526 278q0 -54 -26 -100l71 -71l-84 -84l-72 71q-46 -24 -97 -24q-53 0 -98 25l-72 -72l-83 84l70 72q-25 45 -25 99q0 51 24 97l-69 71l83 84l71 -70q45 25 99 25q53 0 98 -25l71 70l84 -84l-70 -70q25 -47 25 -98zM318 179q41 0 69.5 29t28.5 70q0 40 -29 69t-69 29
q-41 0 -70 -29t-29 -69q0 -41 29 -70t70 -29z" />
    <glyph glyph-name="dollar.tnum.onum" 
d="M243 375l187 -63q57 -19 89 -59t32 -92q0 -68 -47.5 -114.5t-118.5 -46.5h-7v-109h-124v109h-149v128h281q15 0 25 9.5t10 21.5q0 22 -26 32l-191 66q-56 20 -88 59t-32 90q0 68 46.5 113.5t117.5 45.5h6v105h124v-105h141v-128h-269q-15 0 -24 -8.5t-9 -20.5
q0 -24 26 -33z" />
    <glyph glyph-name="Euro.tnum.onum" 
d="M560 438h-177q-74 0 -107 -53h228v-80h-253q-1 -7 -1 -22q0 -14 1 -21h253v-80h-229q33 -55 108 -55h177v-127h-162q-107 0 -174.5 50t-93.5 132h-81v80h66q-1 7 -1 22q0 14 1 21h-66v80h80q27 81 94.5 131t174.5 50h162v-128z" />
    <glyph glyph-name="uni20B4.tnum.onum" 
d="M558 303h-482v82h292q14 0 22 8t9 19q0 11 -8 20t-23 9h-257v124h284q64 0 102 -27t38 -74q0 -30 -14 -50.5t-38 -26.5v-2h75v-82zM76 262h482v-82h-291q-15 0 -23 -8.5t-8 -19.5t8 -19.5t23 -8.5h256v-124h-283q-64 0 -102.5 27.5t-38.5 75.5q0 27 13.5 47.5t38.5 27.5
v2h-75v82z" />
    <glyph glyph-name="uni20BD.tnum.onum" 
d="M404 176h-127v-62h255v-114h-255v-111h-139v111h-91v114h91v62h-91v117h91v271h266q64 0 111 -28.5t68 -72t21 -93.5t-21 -93.5t-68 -72t-111 -28.5zM393 434h-116v-141h116q38 0 59.5 22t21.5 48.5t-21.5 48.5t-59.5 22z" />
    <glyph glyph-name="sterling.tnum.onum" 
d="M276 225v-94h295v-131h-502v131h70v94h-70v117h70v17q0 89 58 147.5t144 58.5h190v-131h-179q-34 0 -55 -21.5t-21 -52.5v-18h188v-117h-188z" />
    <glyph glyph-name="yen.tnum.onum" 
d="M466 565h156l-191 -270h145v-113h-188v-69h188v-112h-188v-112h-138v112h-188v112h188v69h-188v113h143l-189 270h159l145 -211z" />
    <glyph glyph-name="yen.onum" horiz-adv-x="689" 
d="M499 565h155l-196 -270h144v-113h-188v-69h188v-112h-188v-112h-138v112h-189v112h189v69h-189v113h143l-195 270h159l152 -215z" />
    <glyph glyph-name="cent.tnum" 
d="M324 116q39 0 69 20.5t41 53.5h142q-14 -75 -64 -128.5t-125 -69.5v-104h-131v104q-90 21 -142.5 91t-52.5 166t52.5 166t142.5 91v105h131v-105q76 -16 126 -69t63 -128h-142q-12 33 -41 53.5t-69 20.5q-58 0 -93 -38.5t-35 -95.5t35 -95t93 -38z" />
    <glyph glyph-name="currency.tnum" 
d="M526 330q0 -54 -26 -100l71 -71l-84 -84l-72 71q-46 -24 -97 -24q-53 0 -98 25l-72 -72l-83 84l70 72q-25 45 -25 99q0 51 24 97l-69 71l83 84l71 -70q45 25 99 25q53 0 98 -25l71 70l84 -84l-70 -70q25 -47 25 -98zM318 231q41 0 69.5 29t28.5 70q0 40 -29 69t-69 29
q-41 0 -70 -29t-29 -69q0 -41 29 -70t70 -29z" />
    <glyph glyph-name="dollar.tnum" 
d="M231 435l213 -51q71 -17 109 -65.5t36 -109.5q-2 -72 -55 -125.5t-142 -53.5h-8v-88h-132v88h-182v136h321q22 0 36 12.5t15 29.5q0 35 -38 45l-213 51q-71 17 -108.5 65t-36.5 106q1 71 53.5 123.5t140.5 52.5h12v87h132v-87h162v-137h-302q-22 0 -35 -10t-14 -27
q0 -33 36 -42z" />
    <glyph glyph-name="Euro.tnum" 
d="M581 532h-143q-109 0 -157 -75h226v-96h-257q-1 -8 -1 -26q0 -17 1 -25h257v-97h-226q49 -75 157 -75h143v-138h-141q-121 0 -203.5 57.5t-114.5 155.5h-76v97h59q-1 8 -1 24q0 18 1 27h-59v96h77q32 98 114 155.5t203 57.5h141v-138z" />
    <glyph glyph-name="uni20B4.tnum" 
d="M585 360h-535v97h309q22 0 34.5 11.5t12.5 26.5t-12.5 26.5t-34.5 11.5h-266v137h294q78 0 124 -32t46 -88q0 -32 -16.5 -56.5t-45.5 -34.5v-2h90v-97zM50 310h535v-97h-309q-22 0 -34 -11t-13 -26q-1 -16 11.5 -27.5t35.5 -11.5h266v-137h-294q-78 0 -124 32t-46 88
q0 32 16 56.5t45 33.5v3h-89v97z" />
    <glyph glyph-name="uni20BD.tnum" 
d="M406 276h-144v-54h259v-123h-259v-99h-142v99h-85v123h85v54h-85v123h85v271h286q67 0 117 -29t72 -73t22 -95t-22 -95t-71.5 -73t-117.5 -29zM395 532h-133v-133h133q35 0 55 21t20 45.5t-20 45.5t-55 21z" />
    <glyph glyph-name="sterling.tnum" 
d="M274 273v-135h304v-138h-517v138h70v135h-70v124h70v67q0 89 58 147.5t144 58.5h205v-138h-190q-33 0 -53.5 -21.5t-20.5 -52.5v-61h190v-124h-190z" />
    <glyph glyph-name="yen.tnum" 
d="M469 670h160l-192 -267h140v-109h-186v-61h186v-108h-186v-125h-143v125h-186v108h186v61h-186v109h139l-191 267h164l147 -220z" />
    <glyph glyph-name="arrowup.alt1" horiz-adv-x="583" 
d="M292 685l249 -248v-175l-188 197v-459h-123v458l-188 -196v175z" />
    <glyph glyph-name="arrowright.alt1" horiz-adv-x="759" 
d="M305 498h175l248 -249l-248 -249h-175l197 188h-459v124h457z" />
    <glyph glyph-name="arrowdown.alt1" horiz-adv-x="583" 
d="M354 668v-457l187 195v-175l-250 -248l-249 248v175l189 -198v460h123z" />
    <glyph glyph-name="arrowleft.alt1" horiz-adv-x="759" 
d="M259 312h457v-124h-459l197 -188h-176l-247 249l247 249h176z" />
    <glyph glyph-name="arrowup.alt2" horiz-adv-x="583" 
d="M292 685l249 -248h-188v-437h-123v437h-188z" />
    <glyph glyph-name="arrowright.alt2" horiz-adv-x="759" 
d="M480 498l248 -249l-248 -249v188h-437v124h437v186z" />
    <glyph glyph-name="arrowdown.alt2" horiz-adv-x="583" 
d="M354 668v-437h187l-250 -248l-249 248h189v437h123z" />
    <glyph glyph-name="arrowleft.alt2" horiz-adv-x="759" 
d="M278 312h438v-124h-438v-188l-247 249l247 249v-186z" />
    <glyph glyph-name="arrowright.alt1.case" horiz-adv-x="759" 
d="M306 584h175l247 -249l-247 -249h-175l197 188h-459v123h458z" />
    <glyph glyph-name="arrowleft.alt1.case" horiz-adv-x="759" 
d="M258 397h458v-123h-459l197 -188h-176l-247 249l247 249h176z" />
    <glyph glyph-name="arrowright.alt2.case" horiz-adv-x="759" 
d="M481 584l247 -249l-247 -249v188h-437v123h437v187z" />
    <glyph glyph-name="arrowleft.alt2.case" horiz-adv-x="759" 
d="M278 397h438v-123h-438v-188l-247 249l247 249v-187z" />
    <glyph glyph-name="arrowright.case" horiz-adv-x="660" 
d="M103 625l500 -290l-500 -288v578z" />
    <glyph glyph-name="arrowleft.case" horiz-adv-x="660" 
d="M557 47l-500 288l500 290v-578z" />
    <glyph glyph-name="ampersand.alt" horiz-adv-x="802" 
d="M584 190l190 -190h-184l-116 116l-132 -90q-69 -47 -147 -37.5t-122 68.5t-31.5 132t74.5 114l101 68l-48 48q-38 38 -47 83t8 81.5t58 61.5t95 25h134q68 0 110 -46t34.5 -109t-69.5 -106l-76 -51l76 -76l218 148l1 -153zM270 504l59 -59l84 57q15 9 10.5 23.5
t-22.5 14.5h-115q-17 0 -22 -12t6 -24zM263 127l119 80l-78 78l-105 -70q-21 -14 -26 -36t8 -39q13 -20 36 -24t46 11z" />
    <glyph glyph-name="uni0328.001" horiz-adv-x="0" 
d="M-176 0h134l-71 -76q-7 -8 -3 -16t14 -8h61v-100h-105q-68 0 -91.5 55t24.5 104z" />
    <glyph glyph-name="uni0328.002" horiz-adv-x="0" 
d="M-33 -200h-101q-40 0 -65.5 25t-25.5 66v109h99v-79q0 -21 22 -21h71v-100z" />
    <glyph glyph-name="uni0308.case" horiz-adv-x="0" 
d="M-366 848h120v-128h-120v128zM-173 848h120v-128h-120v128z" />
    <glyph glyph-name="uni0307.case" horiz-adv-x="0" 
d="M-187 848h135v-128h-135v128z" />
    <glyph glyph-name="gravecomb.case" horiz-adv-x="0" 
d="M-263 848h135l115 -128h-128z" />
    <glyph glyph-name="acutecomb.case" horiz-adv-x="0" 
d="M-262 720l114 128h136l-122 -128h-128z" />
    <glyph glyph-name="uni030B.case" horiz-adv-x="0" 
d="M-457 720l114 128h136l-122 -128h-128zM-261 720l114 128h135l-122 -128h-127z" />
    <glyph glyph-name="uni0302.case" horiz-adv-x="0" 
d="M-130 848l118 -128h-125l-59 69l-59 -69h-125l118 128h132z" />
    <glyph glyph-name="uni030C.case" horiz-adv-x="0" 
d="M-196 779l59 69h125l-118 -128h-132l-118 128h125z" />
    <glyph glyph-name="uni0306.case" horiz-adv-x="0" 
d="M-372 794v54h106v-23q0 -15 15 -15h89q15 0 15 15v23h105v-54q0 -32 -21 -53t-53 -21h-182q-32 0 -53 21t-21 53z" />
    <glyph glyph-name="uni030A.case" horiz-adv-x="0" 
d="M-153 705q-51 0 -86.5 34.5t-35.5 85.5t35.5 85.5t86.5 34.5t86.5 -34.5t35.5 -85.5t-35.5 -85.5t-86.5 -34.5zM-153 787q16 0 27.5 11t11.5 27q0 17 -11 28t-28 11t-28 -11t-11 -28q0 -16 11.5 -27t27.5 -11z" />
    <glyph glyph-name="tildecomb.case" horiz-adv-x="0" 
d="M-266 720h-105v85q0 47 34.5 65.5t83.5 0.5l90 -35q5 -2 8.5 0.5t3.5 7.5v40h106v-83q0 -46 -35.5 -66.5t-83.5 -1.5l-90 36q-12 4 -12 -8v-41z" />
    <glyph glyph-name="uni0304.case" horiz-adv-x="0" 
d="M-53 720h-323v104h323v-104z" />
    <glyph glyph-name="uni0326.case" horiz-adv-x="0" 
d="M-262 -200l118 158h132l-122 -158h-128z" />
    <glyph glyph-name="uni0327.case" horiz-adv-x="0" 
d="M-125 -34h18q41 0 63 -24t22 -58t-22.5 -59t-62.5 -25h-134v76h125q13 0 13 11t-13 11h-87v176h78v-108z" />
    <glyph glyph-name="uni0328.case" horiz-adv-x="0" 
d="M-184 0h143l-71 -77q-7 -7 -3.5 -15.5t13.5 -8.5h61v-99h-113q-68 0 -91.5 55t24.5 104z" />
    <glyph glyph-name="brevecombcy" horiz-adv-x="0" 
d="M-377 636v84h104v-49q0 -15 15 -15h92q15 0 15 15v49h104v-84q0 -32 -21 -53t-53 -21h-181q-32 0 -53.5 21t-21.5 53z" />
    <glyph glyph-name="brevecombcy.case" horiz-adv-x="0" 
d="M-358 794v54h106v-23q0 -15 15 -15h89q15 0 15 15v23h105v-54q0 -32 -21 -53t-53 -21h-182q-32 0 -53 21t-21 53z" />
    </font>
</defs>
</svg>
